<?xml version="1.0" standalone="no"?>
<!DOCTYPE svg PUBLIC "-//W3C//DTD SVG 1.1//EN" "http://www.w3.org/Graphics/SVG/1.1/DTD/svg11.dtd" >
<svg xmlns="http://www.w3.org/2000/svg" xmlns:xlink="http://www.w3.org/1999/xlink" version="1.1">
<metadata>
Created by FontForge 20170731 at Thu Feb 23 12:24:50 2023
 By Aleksey,,,
Copyright (C)2016 Commercial Type.
</metadata>
<defs>
<font id="Canela-ThinItalic" horiz-adv-x="385" >
  <font-face 
    font-family="Canela Thin"
    font-weight="100"
    font-style="italic"
    font-stretch="normal"
    units-per-em="2048"
    panose-1="0 0 0 0 0 0 0 0 0 0"
    ascent="1587"
    descent="-461"
    x-height="973"
    cap-height="1499"
    bbox="-240 -532 2034 2355"
    underline-thickness="40"
    underline-position="-204"
    slope="-9"
    unicode-range="U+0020-FB04"
  />
<missing-glyph horiz-adv-x="329" 
 />
    <glyph glyph-name="f_b" unicode="fb" horiz-adv-x="1437" 
d="M111 -338h-103l273 1274h-115l8 37h113l41 188q48 224 143.5 329t226.5 105q53 0 96 -18.5t64 -42.5l123 61l-215 -987q170 396 414 396q217 0 217 -306q0 -186 -69 -354t-189.5 -271.5t-261.5 -103.5q-63 0 -116.5 21t-97 69t-55 126t9.5 192l187 864q14 59 11.5 115
t-16 99.5t-48 70t-86.5 26.5q-55 0 -92 -27t-72 -107t-66 -224l-47 -221h203l-8 -37h-203zM889 6q71 0 134 42.5t108.5 112.5t79.5 159.5t50.5 185t16.5 186.5q0 242 -143 242q-41 0 -84 -22t-94.5 -72t-108.5 -146.5t-111 -230.5l-22 -105q-18 -100 -13 -168t35.5 -108.5
t68 -58t83.5 -17.5z" />
    <glyph glyph-name="f_f_b" unicode="ffb" horiz-adv-x="1888" 
d="M8 -338l273 1274h-115l8 37h115l30 147q47 223 141.5 328.5t217.5 105.5q18 0 34.5 -2.5t24 -5t22.5 -9t19 -7.5l15 -174l-9 -2q-43 80 -79 118.5t-82 38.5q-37 0 -67 -26.5t-64 -108.5t-64 -223l-39 -180h348l41 188q48 224 144 329t227 105q53 0 96 -18.5t64 -42.5
l123 61l-215 -987q170 396 413 396q217 0 217 -306q0 -186 -69 -354t-189.5 -271.5t-261.5 -103.5q-50 0 -94 13.5t-84 43t-63 77t-30.5 115.5t13.5 159l186 864q14 59 11.5 115t-16 99.5t-48 70t-86.5 26.5q-54 0 -91.5 -27.5t-72 -107t-65.5 -223.5l-47 -221h202l-8 -37
h-203l-270 -1274h-102l272 1274h-350l-270 -1274h-103zM1339 6q88 0 163.5 64.5t123.5 166t75.5 221t27.5 234.5q0 242 -144 242q-41 0 -84 -22t-94 -72t-107.5 -146.5t-111.5 -230.5l-23 -105q-18 -100 -13 -168t35.5 -108.5t68 -58t83.5 -17.5z" />
    <glyph glyph-name="f_f_h" unicode="ffh" horiz-adv-x="1892" 
d="M459 -338l272 1274h-350l-270 -1274h-103l273 1274h-115l8 37h115l30 147q47 223 141.5 328.5t217.5 105.5q18 0 34.5 -2.5t24 -5t22.5 -9t19 -7.5l15 -174l-9 -2q-43 80 -79 118.5t-82 38.5q-37 0 -67 -26.5t-64 -108.5t-64 -223l-39 -180h348l41 188q48 224 144 329
t227 105q53 0 96 -18.5t64 -42.5l123 61l-248 -1128q105 241 233 389t252 148q86 0 119.5 -74t5.5 -203l-104 -491q-28 -115 -13 -164t95 -56v-4l-236 -30l160 751q20 75 0 133t-80 58q-86 0 -205 -144t-252 -444l-16 -84q-11 -59 -15.5 -95.5t-3 -76t12.5 -76.5v-4h-181v4
q9 14 17 27.5t15.5 32t13 30t12 35.5t9.5 33.5t10 40t8.5 39t9.5 46t10 46.5l192 905q13 59 11 115.5t-15 100.5t-47 70.5t-86 26.5q-54 0 -91.5 -27.5t-72 -107t-65.5 -223.5l-47 -221h202l-8 -37h-203l-270 -1274h-102z" />
    <glyph glyph-name="f_f_j" unicode="ffj" horiz-adv-x="1320" 
d="M1067 -106q-28 -141 -91.5 -230t-146.5 -104l-4 10q89 67 129 262l174 866q30 151 -32 238h-265l-270 -1274h-102l272 1274h-350l-270 -1274h-103l273 1274h-115l8 37h115l30 147q47 223 141.5 328.5t217.5 105.5q18 0 34.5 -2.5t24 -5t22.5 -9t19 -7.5l15 -174l-9 -2
q-43 80 -79 118.5t-82 38.5q-37 0 -67 -26.5t-64 -108.5t-64 -223l-39 -180h348l41 188q47 222 140 328t210 106q84 0 150 -49l18 -233l-8 -2q-56 139 -98.5 190t-97.5 51q-42 0 -74 -26.5t-66.5 -108t-64.5 -223.5l-47 -221h245q94 0 203 41z" />
    <glyph glyph-name="f_f_k" unicode="ffk" horiz-adv-x="1748" 
d="M1499 0l-268 508l291 293q48 49 64 93t-7 75v4h246v-4q-83 -30 -130 -64.5t-149 -136.5l-219 -217l195 -363q43 -82 75 -119.5t86 -64.5v-4h-184zM8 -338l273 1274h-115l8 37h115l30 147q47 223 141.5 328.5t217.5 105.5q18 0 34.5 -2.5t24 -5t22.5 -9t19 -7.5l15 -174
l-9 -2q-43 80 -79 118.5t-82 38.5q-37 0 -67 -26.5t-64 -108.5t-64 -223l-39 -180h348l41 188q48 224 144 329t227 105q53 0 96 -18.5t64 -42.5l121 61l-267 -1257q-30 -142 -35 -207.5t11 -126.5v-4h-181v4q9 14 17 27.5t15.5 32t13 30t12 35.5t9.5 33.5t10 40t8.5 39
t9.5 46t10 46.5l190 905q13 59 11 115.5t-15 100.5t-47 70.5t-86 26.5q-54 0 -91.5 -27.5t-72 -107t-65.5 -223.5l-47 -221h202l-8 -37h-203l-270 -1274h-102l272 1274h-350l-270 -1274h-103z" />
    <glyph glyph-name="f_h" unicode="fh" horiz-adv-x="1441" 
d="M584 936h-203l-270 -1274h-103l273 1274h-115l8 37h113l41 188q48 224 143.5 329t226.5 105q53 0 96 -18.5t64 -42.5l123 61l-248 -1128q105 242 233 389.5t253 147.5q86 0 119 -74t5 -203l-104 -491q-28 -115 -13 -164t95 -56v-4l-236 -30l160 751q20 75 0 133t-80 58
q-86 0 -204.5 -144t-251.5 -444l-17 -84q-11 -59 -15.5 -95.5t-3 -76t12.5 -76.5v-4h-180v4q11 15 20 33t15.5 32.5t14.5 38.5t12 36.5t11 43.5t9.5 43t10.5 51t11 52l193 905q13 59 11 115.5t-15 100.5t-47 70.5t-86 26.5q-55 0 -92 -27t-72 -107t-66 -224l-47 -221h203z
" />
    <glyph glyph-name="f_j" unicode="fj" horiz-adv-x="870" 
d="M616 -106q-28 -141 -91.5 -230t-145.5 -104l-4 10q89 67 129 262l174 866q29 150 -33 238h-264l-270 -1274h-103l273 1274h-115l8 37h113l41 188q47 222 140 328t210 106q83 0 149 -49l19 -233l-8 -2q-56 138 -99 189.5t-98 51.5q-42 0 -74 -26.5t-66.5 -108
t-64.5 -223.5l-47 -221h246q94 0 203 41z" />
    <glyph glyph-name="f_k" unicode="fk" horiz-adv-x="1298" 
d="M111 -338h-103l273 1274h-115l8 37h113l41 188q48 224 143.5 329t226.5 105q53 0 96 -18.5t64 -42.5l121 61l-266 -1257q-30 -144 -35.5 -207.5t10.5 -126.5v-4h-180v4q11 15 20 33t15.5 32.5t14.5 38.5t12 36.5t11 43.5t9.5 43t10.5 51t11 52l191 905q13 59 11 115.5
t-15 100.5t-47 70.5t-86 26.5q-55 0 -92 -27t-72 -107t-66 -224l-47 -221h203l-8 -37h-203zM1049 0l-269 508l291 293q48 49 64 93t-7 75v4h246v-4q-83 -29 -129.5 -64t-148.5 -137l-219 -217l194 -363q43 -81 75.5 -119t86.5 -65v-4h-184z" />
    <glyph glyph-name="f_t" unicode="ft" horiz-adv-x="997" 
d="M8 -338l273 1274h-115l8 37h113l41 188q47 223 141 328.5t215 105.5q28 0 53.5 -6t35.5 -11l34 -17l14 -187l-8 -2q-57 95 -96.5 137.5t-87.5 42.5q-36 0 -65.5 -26.5t-63.5 -108.5t-64 -223l-47 -221h254l203 151h4l-33 -151h242l-8 -37h-242l-166 -772
q-24 -111 45 -111q45 0 97.5 51t91.5 109l18 -12q-127 -232 -256 -232q-57 0 -87 46t-9 145l168 776h-330l-270 -1274h-103z" />
    <glyph glyph-name="f_f_t" unicode="fft" horiz-adv-x="1447" 
d="M8 -338l273 1274h-115l8 37h115l30 147q47 223 141.5 328.5t217.5 105.5q18 0 34.5 -2.5t24 -5t22.5 -9t19 -7.5l15 -174l-9 -2q-43 80 -79 118.5t-82 38.5q-37 0 -67 -26.5t-64 -108.5t-64 -223l-39 -180h348l41 188q47 222 141.5 328t215.5 106q9 0 17.5 -0.5t15.5 -1
t15 -2.5t12.5 -3t12 -4t10.5 -4t11 -5l9 -4.5t9.5 -5t9.5 -4.5l15 -187l-8 -2q-56 95 -96 137.5t-89 42.5q-36 0 -65.5 -26.5t-63 -108.5t-63.5 -223l-47 -221h254l202 151h4l-32 -151h241l-8 -37h-241l-166 -772q-24 -111 45 -111q45 0 97 50.5t91 109.5l19 -12
q-127 -232 -256 -232q-57 0 -87.5 46t-9.5 145l168 776h-330l-270 -1274h-102l272 1274h-350l-270 -1274h-103z" />
    <glyph glyph-name="f_f" unicode="ff" horiz-adv-x="976" 
d="M8 -338l273 1274h-115l8 37h115l30 147q47 223 141.5 328.5t217.5 105.5q18 0 34.5 -2.5t24 -5t22.5 -9t19 -7.5l15 -174l-9 -2q-43 80 -79 118.5t-82 38.5q-37 0 -67 -26.5t-64 -108.5t-64 -223l-39 -180h348l41 188q47 222 141.5 328t215.5 106q9 0 17.5 -0.5t15.5 -1
t15 -2.5t12.5 -3t12 -4t10.5 -4t11 -5l9 -4.5t9.5 -5t9.5 -4.5l15 -187l-8 -2q-56 95 -96 137.5t-89 42.5q-36 0 -65.5 -26.5t-63 -108.5t-63.5 -223l-47 -221h202l-8 -37h-203l-270 -1274h-102l272 1274h-350l-270 -1274h-103z" />
    <glyph glyph-name="f_i" unicode="fi" horiz-adv-x="872" 
d="M111 -338h-103l273 1274h-115l8 37h113l41 188q47 222 140 328t210 106q83 0 149 -49l19 -233l-8 -2q-56 138 -99 189.5t-98 51.5q-42 0 -74 -26.5t-66.5 -108t-64.5 -223.5l-47 -221h246q94 0 203 41l-150 -762q-11 -59 -15.5 -95.5t-3 -76t12.5 -76.5v-4h-180v4
q27 40 47 96t29 96t28 138l72 364q29 150 -33 238h-264z" />
    <glyph glyph-name="f_l" unicode="fl" horiz-adv-x="878" 
d="M111 -338h-103l273 1274h-115l8 37h113l41 188q48 224 143.5 329t226.5 105q53 0 96 -18.5t64 -42.5l121 61l-266 -1257q-30 -144 -35.5 -207.5t10.5 -126.5v-4h-180v4q11 15 20 33t15.5 32.5t14.5 38.5t12 36.5t11 43.5t9.5 43t10.5 51t11 52l191 905q13 59 11 115.5
t-15 100.5t-47 70.5t-86 26.5q-55 0 -92 -27t-72 -107t-66 -224l-47 -221h203l-8 -37h-203z" />
    <glyph glyph-name="f_f_i" unicode="ffi" horiz-adv-x="1323" 
d="M111 -338h-103l273 1274h-115l8 37h115l30 147q47 223 141.5 328.5t217.5 105.5q18 0 34.5 -2.5t24 -5t22.5 -9t19 -7.5l15 -174l-9 -2q-43 80 -79 118.5t-82 38.5q-37 0 -67 -26.5t-64 -108.5t-64 -223l-39 -180h348l41 188q47 222 140 328t210 106q84 0 150 -49
l18 -233l-8 -2q-56 139 -98.5 190t-97.5 51q-42 0 -74 -26.5t-66.5 -108t-64.5 -223.5l-47 -221h245q94 0 203 41l-149 -762q-11 -59 -15.5 -95.5t-3 -76t12.5 -76.5v-4h-181v4q27 40 47 95t29.5 98t28.5 137l71 364q30 151 -32 238h-265l-270 -1274h-102l272 1274h-350z
" />
    <glyph glyph-name="f_f_l" unicode="ffl" horiz-adv-x="1329" 
d="M8 -338l273 1274h-115l8 37h115l30 147q47 223 141.5 328.5t217.5 105.5q18 0 34.5 -2.5t24 -5t22.5 -9t19 -7.5l15 -174l-9 -2q-43 80 -79 118.5t-82 38.5q-37 0 -67 -26.5t-64 -108.5t-64 -223l-39 -180h348l41 188q48 224 144 329t227 105q53 0 96 -18.5t64 -42.5
l121 61l-267 -1257q-30 -142 -35 -207.5t11 -126.5v-4h-181v4q9 14 17 27.5t15.5 32t13 30t12 35.5t9.5 33.5t10 40t8.5 39t9.5 46t10 46.5l190 905q13 59 11 115.5t-15 100.5t-47 70.5t-86 26.5q-54 0 -91.5 -27.5t-72 -107t-65.5 -223.5l-47 -221h202l-8 -37h-203
l-270 -1274h-102l272 1274h-350l-270 -1274h-103z" />
    <glyph glyph-name="f_b.alt" unicode="&#xe4c5;b" horiz-adv-x="1437" 
d="M877 -31q-63 0 -116.5 21t-97 69t-55 126t9.5 192l187 864q14 59 11.5 115t-16 99.5t-48 70t-86.5 26.5q-55 0 -92.5 -27t-72.5 -107t-65 -224l-47 -221h203l-8 -37h-203l-125 -596q-30 -145 -35.5 -209t10.5 -127v-4h-184v4q36 62 57 131t48 199l129 602h-115l8 37h113
l41 188q48 224 143.5 329t226.5 105q53 0 96 -18.5t64 -42.5l123 61l-215 -987q170 396 414 396q217 0 217 -306q0 -186 -69 -354t-189.5 -271.5t-261.5 -103.5zM889 6q71 0 134 42.5t108.5 112.5t79.5 159.5t50.5 185t16.5 186.5q0 242 -143 242q-41 0 -84 -22t-94.5 -72
t-108.5 -146.5t-111 -230.5l-22 -105q-18 -100 -13 -168t35.5 -108.5t68 -58t83.5 -17.5z" />
    <glyph glyph-name="f_f.alt" unicode="&#xe4c5;&#xe4c5;" horiz-adv-x="974" 
d="M47 0v4q36 62 57 131t48 199l129 602h-115l8 37h115l30 147q47 223 141.5 328.5t217.5 105.5q18 0 34.5 -2.5t24 -5t22.5 -9t19 -7.5l15 -174l-9 -2q-43 80 -79 118.5t-82 38.5q-37 0 -67.5 -26.5t-64.5 -108.5t-63 -223l-39 -180h348l45 205q45 212 138 314.5t213 102.5
q9 0 17.5 -0.5t15.5 -1t15 -2.5t12.5 -3t12 -4t10.5 -4t11 -5l9 -4.5t9.5 -5t9.5 -4.5l15 -187l-8 -2q-56 95 -96 137.5t-89 42.5q-36 0 -65.5 -26t-62 -104.5t-60.5 -211.5l-51 -237h204l-8 -37h-203l-126 -596q-30 -145 -35.5 -209t10.5 -127v-4h-184v4q8 13 15 27.5
t12.5 26.5t12 30t10.5 28t10 32.5t8.5 31t9 36.5t8 35.5t9 41t9.5 41.5l131 602h-348l-127 -596q-30 -145 -35.5 -209t10.5 -127v-4h-184z" />
    <glyph glyph-name="f_f_b.alt" unicode="&#xe4c5;&#xe4c5;b" horiz-adv-x="1888" 
d="M1327 -31q-50 0 -94 13.5t-84 43t-63 77t-30.5 115.5t13.5 159l186 864q14 59 11.5 115t-16 99.5t-48 70t-86.5 26.5q-55 0 -92 -27t-72 -107t-65 -224l-47 -221h202l-8 -37h-203l-124 -596q-30 -145 -35.5 -209t10.5 -127v-4h-184v4q36 61 56 129.5t48 200.5l129 602
h-348l-127 -596q-30 -145 -35.5 -209t10.5 -127v-4h-184v4q36 62 57 131t48 199l129 602h-115l8 37h115l30 147q47 223 141.5 328.5t217.5 105.5q18 0 34.5 -2.5t24 -5t22.5 -9t19 -7.5l15 -174l-9 -2q-43 80 -79 118.5t-82 38.5q-37 0 -67.5 -26.5t-64.5 -108.5t-63 -223
l-39 -180h348l41 188q48 224 144 329t227 105q53 0 96 -18.5t64 -42.5l123 61l-215 -987q170 396 413 396q217 0 217 -306q0 -186 -69 -354t-189.5 -271.5t-261.5 -103.5zM1339 6q88 0 163.5 64.5t123.5 166t75.5 221t27.5 234.5q0 242 -144 242q-41 0 -84 -22t-94 -72
t-107.5 -146.5t-111.5 -230.5l-23 -105q-18 -100 -13 -168t35.5 -108.5t68 -58t83.5 -17.5z" />
    <glyph glyph-name="f_f_h.alt" unicode="&#xe4c5;&#xe4c5;h" horiz-adv-x="1892" 
d="M1536 -18l160 751q20 75 0 133t-80 58q-86 0 -205 -144t-252 -444l-16 -84q-11 -59 -15.5 -95.5t-3 -76t12.5 -76.5v-4h-181v4q9 14 17 27.5t15.5 32t13 30t12 35.5t9.5 33.5t10 40t8.5 39t9.5 46t10 46.5l192 905q13 59 11 115.5t-15 100.5t-47 70.5t-86 26.5
q-55 0 -92 -27t-72 -107t-65 -224l-47 -221h202l-8 -37h-203l-124 -596q-30 -145 -35.5 -209t10.5 -127v-4h-184v4q36 61 56 129.5t48 200.5l129 602h-348l-127 -596q-30 -145 -35.5 -209t10.5 -127v-4h-184v4q36 62 57 131t48 199l129 602h-115l8 37h115l30 147
q47 223 141.5 328.5t217.5 105.5q18 0 34.5 -2.5t24 -5t22.5 -9t19 -7.5l15 -174l-9 -2q-43 80 -79 118.5t-82 38.5q-37 0 -67.5 -26.5t-64.5 -108.5t-63 -223l-39 -180h348l41 188q48 224 144 329t227 105q53 0 96 -18.5t64 -42.5l123 61l-248 -1128q105 241 233 389
t252 148q86 0 119.5 -74t5.5 -203l-104 -491q-28 -115 -13 -164t95 -56v-4z" />
    <glyph glyph-name="f_f_i.alt" unicode="&#xe4c5;&#xe4c5;i" horiz-adv-x="1325" 
d="M231 0h-184v4q36 62 57 131t48 199l129 602h-115l8 37h115l30 147q47 223 141.5 328.5t217.5 105.5q18 0 34.5 -2.5t24 -5t22.5 -9t19 -7.5l15 -174l-9 -2q-43 80 -79 118.5t-82 38.5q-37 0 -67.5 -26.5t-64.5 -108.5t-63 -223l-39 -180h350l41 188q48 222 140.5 328
t207.5 106q84 0 150 -49l18 -233l-8 -2q-56 139 -98.5 190t-97.5 51q-31 0 -55.5 -15t-50.5 -53t-50 -110t-47 -180l-47 -221h245q94 0 203 41l-149 -762q-11 -59 -15.5 -95.5t-3 -76t12.5 -76.5v-4h-181v4q27 40 47 95t29.5 98t28.5 137l71 364q30 151 -32 238h-264
l-127 -596q-30 -145 -35.5 -209t10.5 -127v-4h-184v4q8 13 15 27.5t12.5 26.5t12 30t10.5 28t10 32.5t8.5 31t9 36.5t8 35.5t9 41t9.5 41.5l129 602h-348l-127 -596q-30 -145 -35.5 -209t10.5 -127v-4z" />
    <glyph glyph-name="f_f_j.alt" unicode="&#xe4c5;&#xe4c5;j" horiz-adv-x="1320" 
d="M1069 -106q-28 -141 -91.5 -230t-146.5 -104l-4 10q89 67 129 262l174 866q30 151 -32 238h-264l-127 -596q-30 -145 -35.5 -209t10.5 -127v-4h-184v4q8 13 15 27.5t12.5 26.5t12 30t10.5 28t10 32.5t8.5 31t9 36.5t8 35.5t9 41t9.5 41.5l129 602h-348l-127 -596
q-30 -145 -35.5 -209t10.5 -127v-4h-184v4q36 62 57 131t48 199l129 602h-115l8 37h115l30 147q47 223 141.5 328.5t217.5 105.5q18 0 34.5 -2.5t24 -5t22.5 -9t19 -7.5l15 -174l-9 -2q-43 80 -79 118.5t-82 38.5q-37 0 -67.5 -26.5t-64.5 -108.5t-63 -223l-39 -180h350
l41 188q48 222 140.5 328t207.5 106q84 0 150 -49l18 -233l-8 -2q-56 139 -98.5 190t-97.5 51q-31 0 -55.5 -15t-50.5 -53t-50 -110t-47 -180l-47 -221h245q94 0 203 41z" />
    <glyph glyph-name="f_f_k.alt" unicode="&#xe4c5;&#xe4c5;k" horiz-adv-x="1748" 
d="M1499 0l-268 508l291 293q48 49 64 93t-7 75v4h246v-4q-83 -30 -130 -64.5t-149 -136.5l-219 -217l195 -363q43 -82 75 -119.5t86 -64.5v-4h-184zM47 0v4q36 62 57 131t48 199l129 602h-115l8 37h115l30 147q47 223 141.5 328.5t217.5 105.5q18 0 34.5 -2.5t24 -5
t22.5 -9t19 -7.5l15 -174l-9 -2q-43 80 -79 118.5t-82 38.5q-37 0 -67.5 -26.5t-64.5 -108.5t-63 -223l-39 -180h348l41 188q48 224 144 329t227 105q53 0 96 -18.5t64 -42.5l121 61l-267 -1257q-30 -142 -35 -207.5t11 -126.5v-4h-181v4q9 14 17 27.5t15.5 32t13 30
t12 35.5t9.5 33.5t10 40t8.5 39t9.5 46t10 46.5l190 905q13 59 11 115.5t-15 100.5t-47 70.5t-86 26.5q-55 0 -92 -27t-72 -107t-65 -224l-47 -221h202l-8 -37h-203l-124 -596q-30 -145 -35.5 -209t10.5 -127v-4h-184v4q36 61 56 129.5t48 200.5l129 602h-348l-127 -596
q-30 -145 -35.5 -209t10.5 -127v-4h-184z" />
    <glyph glyph-name="f_f_l.alt" unicode="&#xe4c5;&#xe4c5;l" horiz-adv-x="1329" 
d="M47 0v4q36 62 57 131t48 199l129 602h-115l8 37h115l30 147q47 223 141.5 328.5t217.5 105.5q18 0 34.5 -2.5t24 -5t22.5 -9t19 -7.5l15 -174l-9 -2q-43 80 -79 118.5t-82 38.5q-37 0 -67.5 -26.5t-64.5 -108.5t-63 -223l-39 -180h348l41 188q48 224 144 329t227 105
q53 0 96 -18.5t64 -42.5l121 61l-267 -1257q-30 -142 -35 -207.5t11 -126.5v-4h-181v4q9 14 17 27.5t15.5 32t13 30t12 35.5t9.5 33.5t10 40t8.5 39t9.5 46t10 46.5l190 905q13 59 11 115.5t-15 100.5t-47 70.5t-86 26.5q-55 0 -92 -27t-72 -107t-65 -224l-47 -221h202
l-8 -37h-203l-124 -596q-30 -145 -35.5 -209t10.5 -127v-4h-184v4q36 61 56 129.5t48 200.5l129 602h-348l-127 -596q-30 -145 -35.5 -209t10.5 -127v-4h-184z" />
    <glyph glyph-name="f_f_t.alt" unicode="&#xe4c5;&#xe4c5;t" horiz-adv-x="1449" 
d="M1348 201q-127 -232 -256 -232q-57 0 -87.5 46t-9.5 145l168 776h-327l-127 -596q-30 -145 -35.5 -209t10.5 -127v-4h-184v4q8 13 15 27.5t12.5 26.5t12 30t10.5 28t10 32.5t8.5 31t9 36.5t8 35.5t9 41t9.5 41.5l131 602h-352l-127 -596q-30 -145 -35.5 -209t10.5 -127
v-4h-184v4q36 62 57 131t48 199l129 602h-115l8 37h115l30 147q47 223 141.5 328.5t217.5 105.5q18 0 34.5 -2.5t24 -5t22.5 -9t19 -7.5l15 -174l-9 -2q-43 80 -79 118.5t-82 38.5q-37 0 -67.5 -26.5t-64.5 -108.5t-63 -223l-39 -180h352l45 205q45 212 138 314.5t213 102.5
q28 0 53.5 -6t35.5 -11l34 -17l14 -187l-8 -2q-56 95 -96 137.5t-89 42.5q-36 0 -65.5 -26t-62 -104.5t-60.5 -211.5l-51 -237h254l202 151h5l-33 -151h241l-8 -37h-241l-166 -772q-24 -111 45 -111q45 0 97 50.5t91 109.5z" />
    <glyph glyph-name="f_h.alt" unicode="&#xe4c5;h" horiz-adv-x="1441" 
d="M1085 -18l160 751q20 75 0 133t-80 58q-86 0 -204.5 -144t-251.5 -444l-17 -84q-11 -59 -15.5 -95.5t-3 -76t12.5 -76.5v-4h-180v4q11 15 20 33t15.5 32.5t14.5 38.5t12 36.5t11 43.5t9.5 43t10.5 51t11 52l193 905q13 59 11 115.5t-15 100.5t-47 70.5t-86 26.5
q-55 0 -92.5 -27t-72.5 -107t-65 -224l-47 -221h203l-8 -37h-203l-125 -596q-30 -145 -35.5 -209t10.5 -127v-4h-184v4q36 62 57 131t48 199l129 602h-115l8 37h113l41 188q48 224 143.5 329t226.5 105q53 0 96 -18.5t64 -42.5l123 61l-246 -1122q105 239 232.5 385
t251.5 146q86 0 119 -74t5 -203l-104 -491q-28 -115 -13 -164t95 -56v-4z" />
    <glyph glyph-name="f_i.alt" unicode="&#xe4c5;i" horiz-adv-x="874" 
d="M231 0h-184v4q25 43 45 99.5t28.5 93t31.5 137.5l129 602h-113l8 37h113l41 188q48 222 140.5 328t207.5 106q83 0 149 -49l19 -233l-8 -2q-56 138 -99 189.5t-98 51.5q-31 0 -55.5 -15t-50.5 -53t-50 -110t-47 -180l-47 -221h246q94 0 203 41l-150 -762
q-11 -59 -15.5 -95.5t-3 -76t12.5 -76.5v-4h-180v4q27 40 47 96t29 96t28 138l72 364q29 150 -33 238h-264l-127 -596q-30 -145 -35.5 -209t10.5 -127v-4z" />
    <glyph glyph-name="f_j.alt" unicode="&#xe4c5;j" horiz-adv-x="872" 
d="M618 -106q-28 -141 -91.5 -230t-145.5 -104l-4 10q89 67 129 262l174 866q29 150 -33 238h-264l-127 -596q-30 -145 -35.5 -209t10.5 -127v-4h-184v4q25 43 45 99.5t28.5 93t31.5 137.5l129 602h-113l8 37h113l41 188q48 222 140.5 328t207.5 106q83 0 149 -49l19 -233
l-8 -2q-56 138 -99 189.5t-98 51.5q-31 0 -55.5 -15t-50.5 -53t-50 -110t-47 -180l-47 -221h246q94 0 203 41z" />
    <glyph glyph-name="f_k.alt" unicode="&#xe4c5;k" horiz-adv-x="1298" 
d="M231 0h-184v4q36 62 57 131t48 199l129 602h-115l8 37h113l41 188q48 224 143.5 329t226.5 105q53 0 96 -18.5t64 -42.5l121 61l-266 -1257q-30 -144 -35.5 -207.5t10.5 -126.5v-4h-180v4q11 15 20 33t15.5 32.5t14.5 38.5t12 36.5t11 43.5t9.5 43t10.5 51t11 52l191 905
q13 59 11 115.5t-15 100.5t-47 70.5t-86 26.5q-55 0 -92.5 -27t-72.5 -107t-65 -224l-47 -221h203l-8 -37h-203l-125 -596q-30 -145 -35.5 -209t10.5 -127v-4zM1049 0l-269 508l291 293q48 49 64 93t-7 75v4h246v-4q-83 -29 -129.5 -64t-148.5 -137l-219 -217l194 -363
q43 -81 75.5 -119t86.5 -65v-4h-184z" />
    <glyph glyph-name="f_l.alt" unicode="&#xe4c5;l" horiz-adv-x="878" 
d="M231 0h-184v4q36 62 57 131t48 199l129 602h-115l8 37h113l41 188q48 224 143.5 329t226.5 105q53 0 96 -18.5t64 -42.5l121 61l-266 -1257q-30 -144 -35.5 -207.5t10.5 -126.5v-4h-180v4q11 15 20 33t15.5 32.5t14.5 38.5t12 36.5t11 43.5t9.5 43t10.5 51t11 52l191 905
q13 59 11 115.5t-15 100.5t-47 70.5t-86 26.5q-55 0 -92.5 -27t-72.5 -107t-65 -224l-47 -221h203l-8 -37h-203l-125 -596q-30 -145 -35.5 -209t10.5 -127v-4z" />
    <glyph glyph-name="f_t.alt" unicode="&#xe4c5;t" horiz-adv-x="999" 
d="M897 201q-127 -232 -256 -232q-57 0 -87 46t-9 145l168 776h-330l-127 -596q-30 -145 -35.5 -209t10.5 -127v-4h-184v4q25 43 45 99.5t28.5 93t31.5 137.5l131 602h-115l8 37h113l45 205q45 212 137.5 314.5t212.5 102.5q28 0 53.5 -6t35.5 -11l34 -17l14 -187l-8 -2
q-57 95 -96.5 137.5t-87.5 42.5q-56 0 -102 -74t-87 -268l-51 -237h256l203 151h4l-33 -151h242l-8 -37h-242l-166 -772q-24 -111 45 -111q45 0 97.5 51t91.5 109z" />
    <glyph glyph-name="f_f_k.altfk" unicode="&#xe4c5;&#xe4c5;&#xe4ca;" horiz-adv-x="1781" 
d="M1565 -10q-51 0 -98.5 37t-102.5 141q-66 121 -141 336l297 297q49 49 64.5 93t-7.5 75v4h246v-4q-47 -17 -75.5 -32t-88.5 -66t-126 -115.5t-214 -212.5q65 -185 133 -314q44 -82 78.5 -113.5t73.5 -31.5q47 0 86 39l6 -4q-18 -62 -54 -95.5t-77 -33.5zM47 0v4
q36 62 57 131t48 199l129 602h-115l8 37h115l30 147q47 223 141.5 328.5t217.5 105.5q18 0 34.5 -2.5t24 -5t22.5 -9t19 -7.5l15 -174l-9 -2q-43 80 -79 118.5t-82 38.5q-37 0 -67.5 -26.5t-64.5 -108.5t-63 -223l-39 -180h348l41 188q48 224 144 329t227 105q53 0 96 -18.5
t64 -42.5l121 61l-267 -1257q-30 -142 -35 -207.5t11 -126.5v-4h-181v4q9 14 17 27.5t15.5 32t13 30t12 35.5t9.5 33.5t10 40t8.5 39t9.5 46t10 46.5l190 905q13 59 11 115.5t-15 100.5t-47 70.5t-86 26.5q-55 0 -92 -27t-72 -107t-65 -224l-47 -221h202l-8 -37h-203
l-124 -596q-30 -145 -35.5 -209t10.5 -127v-4h-184v4q36 61 56 129.5t48 200.5l129 602h-348l-127 -596q-30 -145 -35.5 -209t10.5 -127v-4h-184z" />
    <glyph glyph-name="f_k.altfk" unicode="&#xe4c5;&#xe4ca;" horiz-adv-x="1331" 
d="M231 0h-184v4q36 62 57 131t48 199l129 602h-115l8 37h113l41 188q48 224 143.5 329t226.5 105q53 0 96 -18.5t64 -42.5l121 61l-266 -1257q-30 -144 -35.5 -207.5t10.5 -126.5v-4h-180v4q11 15 20 33t15.5 32.5t14.5 38.5t12 36.5t11 43.5t9.5 43t10.5 51t11 52l191 905
q13 59 11 115.5t-15 100.5t-47 70.5t-86 26.5q-55 0 -92.5 -27t-72.5 -107t-65 -224l-47 -221h203l-8 -37h-203l-125 -596q-30 -145 -35.5 -209t10.5 -127v-4zM1114 -10q-51 0 -98.5 37t-102.5 141q-66 121 -141 336l297 297q49 49 64.5 93t-7.5 75v4h246v-4
q-47 -17 -75.5 -32t-88.5 -66t-126 -115.5t-214 -212.5q65 -185 133 -314q44 -82 78.5 -113.5t73.5 -31.5q47 0 86 39l6 -4q-18 -62 -53.5 -95.5t-77.5 -33.5z" />
    <glyph glyph-name="f_f_k.altk" unicode="ff&#xe4ca;" horiz-adv-x="1781" 
d="M1565 -10q-51 0 -98.5 37t-102.5 141q-66 121 -141 336l297 297q49 49 64.5 93t-7.5 75v4h246v-4q-47 -17 -75.5 -32t-88.5 -66t-126 -115.5t-214 -212.5q65 -185 133 -314q44 -82 78.5 -113.5t73.5 -31.5q47 0 86 39l6 -4q-18 -62 -54 -95.5t-77 -33.5zM8 -338l273 1274
h-115l8 37h115l30 147q47 223 141.5 328.5t217.5 105.5q18 0 34.5 -2.5t24 -5t22.5 -9t19 -7.5l15 -174l-9 -2q-43 80 -79 118.5t-82 38.5q-37 0 -67 -26.5t-64 -108.5t-64 -223l-39 -180h348l41 188q48 224 144 329t227 105q53 0 96 -18.5t64 -42.5l121 61l-267 -1257
q-30 -142 -35 -207.5t11 -126.5v-4h-181v4q9 14 17 27.5t15.5 32t13 30t12 35.5t9.5 33.5t10 40t8.5 39t9.5 46t10 46.5l190 905q13 59 11 115.5t-15 100.5t-47 70.5t-86 26.5q-54 0 -91.5 -27.5t-72 -107t-65.5 -223.5l-47 -221h202l-8 -37h-203l-270 -1274h-102l272 1274
h-350l-270 -1274h-103z" />
    <glyph glyph-name="f_k.altk" unicode="f&#xe4ca;" horiz-adv-x="1331" 
d="M111 -338h-103l273 1274h-115l8 37h113l41 188q48 224 143.5 329t226.5 105q53 0 96 -18.5t64 -42.5l121 61l-266 -1257q-30 -144 -35.5 -207.5t10.5 -126.5v-4h-180v4q11 15 20 33t15.5 32.5t14.5 38.5t12 36.5t11 43.5t9.5 43t10.5 51t11 52l191 905q13 59 11 115.5
t-15 100.5t-47 70.5t-86 26.5q-55 0 -92 -27t-72 -107t-66 -224l-47 -221h203l-8 -37h-203zM1114 -10q-51 0 -98.5 37t-102.5 141q-66 121 -141 336l297 297q49 49 64.5 93t-7.5 75v4h246v-4q-47 -17 -75.5 -32t-88.5 -66t-126 -115.5t-214 -212.5q65 -185 133 -314
q44 -82 78.5 -113.5t73.5 -31.5q47 0 86 39l6 -4q-18 -62 -53.5 -95.5t-77.5 -33.5z" />
    <glyph glyph-name=".notdef" horiz-adv-x="329" 
 />
    <glyph glyph-name=".null" horiz-adv-x="0" 
 />
    <glyph glyph-name="nonmarkingreturn" horiz-adv-x="682" 
 />
    <glyph glyph-name="space" unicode=" " horiz-adv-x="266" 
 />
    <glyph glyph-name="exclam" unicode="!" horiz-adv-x="409" 
d="M473 1499v-4l-278 -1098h-29l184 1098l2 4h121zM121 -6q-39 0 -67.5 28.5t-28.5 67.5t28.5 67.5t67.5 28.5q40 0 68 -28t28 -68t-28 -68t-68 -28z" />
    <glyph glyph-name="quotedbl" unicode="&#x22;" horiz-adv-x="509" 
d="M244 1110h-21l25 389h143zM489 1110h-20l25 389h143z" />
    <glyph glyph-name="numbersign" unicode="#" horiz-adv-x="1128" 
d="M754 510l96 479h-393l-97 -479h394zM649 0l96 473h-393l-96 -473h-47l96 473h-264v37h272l97 479h-265l2 37h271l96 473h47l-96 -473h393l96 473h47l-96 -473h264l-2 -37h-270l-96 -479h262v-37h-270l-97 -473h-47z" />
    <glyph glyph-name="dollar" unicode="$" horiz-adv-x="897" 
d="M315 -233h-45l43 204q-163 12 -290 92l-15 324l17 4q57 -184 130.5 -270.5t168.5 -104.5l153 729l-6 9q-56 60 -83 92t-65 88t-54.5 112.5t-16.5 120.5q0 73 21.5 133.5t58.5 102.5t86 71t103 42.5t112 13.5h12l33 153h45l-35 -157q132 -13 219 -70l15 -299l-19 -4
q-41 152 -96.5 227t-128.5 97l-133 -627q5 -3 12.5 -12t9.5 -11q53 -57 83.5 -94t67 -94t53.5 -119.5t17 -132.5q0 -131 -58.5 -227.5t-154.5 -143.5t-217 -47zM690 350q0 104 -45.5 186.5t-128.5 170.5l-149 -697h22q135 0 218 100t83 240zM346 1219q0 -92 42 -168.5
t120 -161.5l127 598q-5 0 -16.5 1t-16.5 1q-116 0 -186 -75.5t-70 -194.5z" />
    <glyph glyph-name="percent" unicode="%" horiz-adv-x="1454" 
d="M750 1225q0 -136 -52 -256t-135 -190t-172 -70q-98 0 -157.5 83.5t-59.5 221.5q0 135 52 255.5t135 190.5t171 70q99 0 158.5 -83.5t59.5 -221.5zM393 731q58 0 107 53.5t79.5 139t47 185.5t16.5 198q0 200 -111 200q-57 0 -106 -53.5t-79 -138.5t-47 -185t-17 -198
q0 -201 110 -201zM260 2l-33 27l1067 1493l35 -23zM1372 500q0 -136 -52 -256t-134.5 -190t-171.5 -70q-98 0 -157.5 83.5t-59.5 221.5q0 135 52 255.5t135 190.5t171 70q99 0 158 -83t59 -222zM1016 6q58 0 107 53.5t79.5 139t47 185.5t16.5 198q0 200 -111 200
q-76 0 -135 -92t-87 -221t-28 -262q0 -201 111 -201z" />
    <glyph glyph-name="ampersand" unicode="&#x26;" horiz-adv-x="1650" 
d="M1546 590q0 -89 -25.5 -175t-82 -167.5t-139.5 -143t-207.5 -98.5t-274.5 -37q-166 0 -301.5 44.5t-225.5 123t-139 185t-49 231.5q0 201 110.5 313.5t281.5 120.5q-61 20 -101.5 84t-40.5 158q0 130 88 215.5t244 85.5q84 0 158.5 -23t99.5 -41l19 -237l-11 -4
q-57 122 -124 176.5t-160 54.5q-111 0 -178.5 -67t-67.5 -179q0 -91 43.5 -146.5t111.5 -55.5q54 0 93 36l-4 -143q-79 49 -162 49q-137 0 -231.5 -98t-94.5 -274q0 -161 84.5 -277.5t228 -173.5t330.5 -57q196 0 349.5 65t240 185t86.5 276q0 324 -375 324
q-274 0 -274 -134q0 -77 102 -77q62 0 144 30l-15 -121q-75 -5 -129.5 9t-82.5 41.5t-41 58t-13 64.5q0 90 72 148t229 71q68 7 201 14q161 9 242 70.5t81 193.5q0 83 -30.5 116.5t-87.5 33.5q-61 0 -162 -33l14 123q86 6 147 -12.5t93.5 -56t46.5 -82t14 -99.5
q0 -68 -21 -125.5t-65.5 -106t-121.5 -78t-181 -34.5q122 -18 193 -107t71 -237z" />
    <glyph glyph-name="quotesingle" unicode="'" horiz-adv-x="264" 
d="M244 1110h-21l25 389h143z" />
    <glyph glyph-name="parenleft" unicode="(" horiz-adv-x="563" 
d="M393 -248l-18 -18q-88 96 -154.5 281.5t-66.5 418.5q0 181 42.5 346t121.5 303t179.5 251.5t227.5 211.5l16 -20q-108 -101 -195 -217.5t-156.5 -257t-107.5 -309.5t-38 -351q0 -209 42.5 -380.5t106.5 -258.5z" />
    <glyph glyph-name="parenright" unicode=")" horiz-adv-x="563" 
d="M229 1528l19 18q88 -96 154.5 -281.5t66.5 -418.5q0 -181 -42.5 -346t-121.5 -303t-179.5 -251.5t-227.5 -211.5l-17 20q108 101 195 217t157 257t108 310t38 351q0 208 -43 380t-107 259z" />
    <glyph glyph-name="asterisk" unicode="*" horiz-adv-x="700" 
d="M647 1001l-98 -47l-76 240l-154 -199l-77 78l204 148l-235 84l51 98l203 -152l8 252l109 -18l-80 -240l241 72l15 -109l-254 2z" />
    <glyph glyph-name="plus" unicode="+" horiz-adv-x="1089" 
d="M1038 610h-430v-430h-45v430h-430v41h430v430h45v-430h430v-41z" />
    <glyph glyph-name="comma" unicode="," horiz-adv-x="428" 
d="M-43 -301l-16 20q86 54 144 122t58 122t-65 135v4l104 86q33 -25 53.5 -62.5t20.5 -76.5q0 -178 -299 -350z" />
    <glyph glyph-name="hyphen" unicode="-" horiz-adv-x="587" 
d="M532 539h-440l17 82h438z" />
    <glyph glyph-name="period" unicode="." horiz-adv-x="428" 
d="M168 -6q-39 0 -67.5 28.5t-28.5 67.5t28.5 67.5t67.5 28.5q40 0 68 -28t28 -68t-28 -68t-68 -28z" />
    <glyph glyph-name="slash" unicode="/" horiz-adv-x="733" 
d="M-225 -266l1095 1865h56l-1096 -1865h-55z" />
    <glyph glyph-name="zero" unicode="0" horiz-adv-x="1189" 
d="M1190 944q0 -153 -38 -301.5t-105 -268t-153 -212t-188 -143t-204 -50.5q-186 0 -298 159.5t-112 426.5q0 153 38 301.5t105 268t153 212t188 143t204 50.5q186 0 298 -159.5t112 -426.5zM504 10q106 0 199.5 67.5t158.5 175.5t112.5 244t70 274t22.5 263
q0 232 -77.5 343.5t-211.5 111.5q-106 0 -199 -67.5t-158 -176t-113 -244t-70.5 -273.5t-22.5 -263q0 -231 78 -343t211 -112z" />
    <glyph glyph-name="one" unicode="1" horiz-adv-x="456" 
d="M465 1530l-223 -1262q-17 -96 -16.5 -154t20.5 -110v-4h-207v4q36 54 56.5 111t37.5 155l178 1012h-145v4q79 37 159 105.5t132 138.5h8z" />
    <glyph glyph-name="two" unicode="2" horiz-adv-x="872" 
d="M682 0h-743v20q327 277 522.5 493.5t273.5 373.5t78 301q0 157 -65.5 229t-165.5 72q-25 0 -48 -4t-42 -10t-39 -19t-34.5 -23.5t-33.5 -31t-31 -34t-31.5 -41t-31 -44t-33.5 -49.5t-35 -51l-16 4l88 278q143 66 291 66q169 0 258.5 -86.5t89.5 -257.5q0 -126 -53.5 -251
t-167.5 -259.5t-261.5 -267.5t-365.5 -304h397q42 0 78.5 10t60.5 21.5t55.5 40.5t46 46t50.5 59l12 -9z" />
    <glyph glyph-name="three" unicode="3" horiz-adv-x="919" 
d="M346 -31q-91 0 -173 21.5t-124 54.5l-20 270l16 4q67 -170 140 -239.5t182 -69.5q92 0 167 44.5t121 118t70.5 163.5t24.5 186q0 350 -279 350q-148 0 -256 -94l-16 21l628 573h-561l56 107h669l-4 -21l-625 -565q52 18 125 18q74 0 139.5 -24t119 -71.5t85 -127.5
t31.5 -182q0 -79 -20 -155.5t-62 -146t-101.5 -121.5t-145.5 -83t-187 -31z" />
    <glyph glyph-name="four" unicode="4" horiz-adv-x="933" 
d="M489 0v4q31 51 49 107t37 159l21 119h-596l4 21l836 1089h133l-905 -1065h536l103 570h104l-102 -570h157l-20 -45h-144l-22 -121q-18 -108 -15 -159t27 -105v-4h-203z" />
    <glyph glyph-name="five" unicode="5" horiz-adv-x="958" 
d="M348 -31q-92 0 -174.5 21.5t-124.5 54.5l-20 270l16 4q68 -170 141 -239.5t185 -69.5q79 0 143.5 30t107.5 80t72.5 118.5t42.5 143t13 155.5q0 381 -301 381q-154 0 -254 -95l-19 13l234 663h620l-37 -106h-575l-174 -494q100 59 233 59q186 0 290.5 -115t104.5 -313
q0 -109 -32.5 -207.5t-95 -178.5t-165 -127.5t-231.5 -47.5z" />
    <glyph glyph-name="six" unicode="6" horiz-adv-x="983" 
d="M442 -31q-168 0 -269 128.5t-101 340.5q0 115 30 235t98 245.5t167 236.5t247.5 210t329.5 165l8 -21q-230 -104 -396 -277.5t-261 -383.5q55 65 138.5 106t180.5 41q156 0 248 -106.5t92 -298.5q0 -167 -71 -311t-189 -227t-252 -83zM446 10q117 0 208 85.5t136.5 216.5
t45.5 278q0 97 -21.5 166t-59.5 106t-83 53.5t-101 16.5q-210 0 -319 -199q-62 -183 -62 -348q0 -185 68.5 -280t187.5 -95z" />
    <glyph glyph-name="seven" unicode="7" horiz-adv-x="847" 
d="M219 0h-137q271 698 813 1393h-682l39 106h745l-2 -20q-529 -734 -776 -1479z" />
    <glyph glyph-name="eight" unicode="8" horiz-adv-x="901" 
d="M422 -31q-164 0 -278.5 99.5t-114.5 257.5q0 148 99 272.5t284 173.5q-92 85 -145.5 175t-53.5 208q0 171 108.5 273t264.5 102q144 0 230.5 -89t86.5 -233q0 -86 -30.5 -161t-105.5 -142.5t-189 -105.5q51 -45 89.5 -86.5t79 -98.5t62.5 -123t22 -135q0 -167 -119 -277
t-290 -110zM430 10q139 0 223 86t84 219q0 37 -8 72.5t-18 62.5t-33 59.5t-37 51.5t-48.5 51.5t-49 45.5t-56 48t-53.5 46q-91 -33 -155.5 -82.5t-98 -107t-47.5 -112.5t-14 -114q0 -147 85.5 -236.5t225.5 -89.5zM545 827l14 -12q254 116 254 397q0 129 -57 203t-174 74
q-122 0 -198.5 -77t-76.5 -204q0 -61 17 -113t54.5 -100.5t72 -82t94.5 -85.5z" />
    <glyph glyph-name="nine" unicode="9" horiz-adv-x="983" 
d="M141 -31l-8 21q230 104 396.5 278t261.5 383q-55 -64 -139 -105.5t-181 -41.5q-156 0 -248 106.5t-92 298.5q0 167 71 311t189 227t252 83q168 0 269.5 -129t101.5 -340q0 -115 -30.5 -235t-98.5 -245.5t-167 -236.5t-247.5 -210t-329.5 -165zM518 567q207 0 316 199
q61 180 61 348q0 185 -68.5 280t-187.5 95q-89 0 -163.5 -48.5t-123 -129t-75.5 -182.5t-27 -211q0 -351 268 -351z" />
    <glyph glyph-name="colon" unicode=":" horiz-adv-x="448" 
d="M283 633q-39 0 -68 28.5t-29 67.5t29 67.5t68 28.5q40 0 68 -28t28 -68t-28 -68t-68 -28zM168 -6q-39 0 -67.5 28.5t-28.5 67.5t28.5 67.5t67.5 28.5q40 0 68 -28t28 -68t-28 -68t-68 -28z" />
    <glyph glyph-name="semicolon" unicode=";" horiz-adv-x="448" 
d="M-47 -301l-16 20q86 54 144 122t58 122t-65 135v4l104 86q33 -25 53.5 -62.5t20.5 -76.5q0 -178 -299 -350zM283 633q-39 0 -68 28.5t-29 67.5t29 67.5t68 28.5q40 0 68 -28t28 -68t-28 -68t-68 -28z" />
    <glyph glyph-name="less" unicode="&#x3c;" horiz-adv-x="1085" 
d="M973 174l-881 426v53l881 426v-51l-838 -401l838 -402v-51z" />
    <glyph glyph-name="equal" unicode="=" horiz-adv-x="1089" 
d="M1038 776h-905v41h905v-41zM1038 485h-905v41h905v-41z" />
    <glyph glyph-name="greater" unicode="&#x3e;" horiz-adv-x="1085" 
d="M1034 600l-880 -426v51l837 402l-837 401v51l880 -426v-53z" />
    <glyph glyph-name="question" unicode="?" horiz-adv-x="757" 
d="M211 397h-33q24 83 69.5 157.5t98.5 129t112 106.5t112.5 102.5t97.5 104t70 122t26 147.5q0 112 -51.5 169.5t-151.5 57.5q-104 0 -188 -67t-191 -220l-14 6l90 252q52 24 137.5 45t173.5 21q148 0 232 -69t84 -201q0 -76 -29 -144t-78 -122t-109.5 -105t-128 -104.5
t-128.5 -108t-115.5 -127t-85.5 -152.5zM141 -6q-39 0 -67.5 28.5t-28.5 67.5t28.5 67.5t67.5 28.5q40 0 68.5 -28t28.5 -68t-28.5 -68t-68.5 -28z" />
    <glyph glyph-name="at" unicode="@" horiz-adv-x="1697" 
d="M836 -330q-221 0 -393.5 89t-271.5 258t-99 391q0 179 66 342.5t182.5 285.5t287 194.5t367.5 72.5q309 0 490.5 -166.5t181.5 -464.5q0 -163 -54.5 -300.5t-158.5 -221.5t-236 -84q-78 0 -129 30.5t-70 82t-19 112t19 129.5l15 53q-49 -119 -108 -212t-131.5 -153.5
t-141.5 -60.5q-73 0 -115.5 56t-42.5 163q0 162 75.5 315t201.5 249t264 96q84 0 145 -35l58 35h8l-133 -500q-19 -73 -25 -127t3 -100.5t43.5 -70.5t94.5 -24q108 0 192.5 77t128.5 204t44 279q0 286 -164.5 442t-441.5 156q-179 0 -331.5 -68.5t-255 -185t-160.5 -272
t-58 -328.5q0 -214 86 -372.5t239.5 -241.5t354.5 -83q122 0 237.5 32t200.5 91l16 -33q-187 -131 -462 -131zM678 127q41 0 84.5 31.5t78.5 76t73.5 112t63.5 121t54 120.5l60 231q-39 68 -125 68q-77 0 -150.5 -56.5t-125 -143.5t-82.5 -192.5t-31 -201.5q0 -166 100 -166
z" />
    <glyph glyph-name="A" unicode="A" horiz-adv-x="952" 
d="M676 606l-64 717l-327 -717h391zM139 4v-4h-250v4q71 58 110 113.5t97 179.5l566 1216h38l115 -1263q8 -101 26.5 -148t59.5 -98v-4h-264v4q46 42 62 103t8 153l-27 305h-414l-116 -254q-41 -92 -43 -179t32 -128z" />
    <glyph glyph-name="B" unicode="B" horiz-adv-x="1024" 
d="M401 0h-352v4q31 51 49 107t37 159l172 961q16 100 12.5 154t-24.5 110v4q42 0 139 3t174 3q94 0 166.5 -21t115 -53.5t69 -78.5t36 -90t9.5 -93q0 -153 -88 -258t-242 -133q50 -7 96 -29.5t86 -62t64 -103t24 -143.5q0 -69 -18 -131t-59 -119t-102 -99t-154.5 -66.5
t-209.5 -24.5zM457 1452l-117 -651h195q96 0 168 32t112 87.5t59 120.5t19 139q0 142 -70.5 214t-228.5 72q-113 0 -137 -14zM406 41q199 0 307 103.5t108 308.5q0 52 -7 94.5t-27 83.5t-52 68t-85.5 44t-125.5 17h-190l-127 -705q68 -14 199 -14z" />
    <glyph glyph-name="C" unicode="C" horiz-adv-x="1224" 
d="M1157 408l-82 -299q-59 -48 -179.5 -94t-264.5 -46q-257 0 -389.5 173t-132.5 472q0 178 56 345t152.5 293t237 202t299.5 76q115 0 218.5 -37.5t148.5 -71.5l22 -284l-16 -4q-74 189 -172.5 272.5t-229.5 83.5q-92 0 -174 -36t-145.5 -99.5t-114 -150t-83.5 -188.5
t-50.5 -213.5t-17.5 -226.5q0 -161 43 -286.5t134 -202t218 -76.5q154 0 271 101.5t231 300.5z" />
    <glyph glyph-name="D" unicode="D" horiz-adv-x="1193" 
d="M49 0v4q31 51 49 107t37 159l172 961q16 100 12.5 154t-24.5 110v4q113 0 181 3t173 3q262 0 396.5 -149.5t134.5 -446.5q0 -187 -58 -353.5t-160.5 -289.5t-252.5 -194.5t-326 -71.5h-334zM616 1466h-157l-258 -1431l176 4q136 3 249.5 56t190.5 139.5t130 200.5
t77.5 238.5t24.5 256.5q0 536 -433 536z" />
    <glyph glyph-name="E" unicode="E" horiz-adv-x="1015" 
d="M942 332l-123 -332h-770v4q32 50 49 104.5t37 161.5l172 961q16 100 12.5 154t-24.5 110v4h668l22 -297l-16 -4q-68 144 -115.5 197.5t-124.5 54.5l-270 8l-123 -684h199q16 0 31 5t30 16.5t26.5 21.5t27 30t23.5 31.5t25 36t23 33.5h16l-59 -379h-16q-15 41 -21.5 56
t-20 42.5t-24.5 37.5t-28.5 19t-39.5 9h-200l-125 -696l332 10q29 1 53.5 4.5t49 14t41 17t40.5 27t36.5 31t39.5 41t38.5 44t44.5 54t48 58.5z" />
    <glyph glyph-name="F" unicode="F" horiz-adv-x="913" 
d="M256 4v-4h-207v4q31 51 49 107t37 159l172 961q16 100 12.5 154t-24.5 110v4h688l23 -297l-17 -4q-68 144 -115 197.5t-124 54.5l-295 8l-119 -663h213q16 0 31 5t30 16.5t26.5 21.5t27 30t23.5 31.5t25 36t23 33.5h17l-60 -379h-16q-39 97 -54 120q-30 44 -79 44h-215
l-86 -486q-17 -98 -13.5 -154t27.5 -110z" />
    <glyph glyph-name="G" unicode="G" horiz-adv-x="1261" 
d="M1217 659q-32 -51 -50 -107.5t-37 -158.5l-38 -215q-12 -10 -46 -39t-56.5 -47t-64.5 -44t-81 -41t-95.5 -26.5t-117.5 -11.5q-254 0 -388 174t-134 473q0 141 35 277t101.5 250.5t156.5 201.5t207 136t245 49q115 0 218.5 -37.5t148.5 -71.5l22 -284l-16 -4
q-74 189 -172.5 272.5t-229.5 83.5q-110 0 -205.5 -51t-164 -139t-118 -204t-73.5 -248t-24 -269q0 -124 21 -223.5t66.5 -178.5t124.5 -122.5t187 -43.5q175 0 268.5 108t120.5 318q18 130 -18 223v5h207v-5z" />
    <glyph glyph-name="H" unicode="H" horiz-adv-x="1193" 
d="M49 0v4q31 51 49 107t37 159l172 961q16 100 12.5 154t-24.5 110v4h207v-4q-31 -51 -49 -107t-37 -159l-78 -434h629l77 436q16 100 12.5 154t-24.5 110v4h207v-4q-31 -51 -49 -107t-37 -159l-172 -961q-16 -100 -12.5 -154t24.5 -110v-4h-207v4q31 51 49 107t37 159
l86 484h-628l-86 -486q-16 -100 -12.5 -154t24.5 -110v-4h-207z" />
    <glyph glyph-name="I" unicode="I" horiz-adv-x="458" 
d="M256 0h-207v4q31 51 49 107t37 159l172 961q16 100 12.5 154t-24.5 110v4h207v-4q-31 -51 -49 -107t-37 -159l-172 -961q-16 -100 -12.5 -154t24.5 -110v-4z" />
    <glyph glyph-name="J" unicode="J" horiz-adv-x="638" 
d="M432 252q-51 -283 -254 -283q-88 0 -162 47l19 256l16 4q41 -140 73.5 -203t76.5 -63q78 0 112 180l187 1041q16 100 12.5 154t-25.5 110v4h207v-4q-31 -51 -49 -107t-37 -159z" />
    <glyph glyph-name="K" unicode="K" horiz-adv-x="1019" 
d="M49 0v4q31 51 49 107t37 159l172 961q16 100 12.5 154t-24.5 110v4h207v-4q-31 -51 -49 -107t-37 -159l-172 -961q-16 -100 -12.5 -154t24.5 -110v-4h-207zM956 0h-184l-410 739l437 508q34 40 50.5 61.5t34 49t21 47t0.5 42.5t-16 48v4h258v-4q-93 -51 -152.5 -104
t-134.5 -140l-405 -467l327 -587q42 -77 76.5 -117t97.5 -76v-4z" />
    <glyph glyph-name="L" unicode="L" horiz-adv-x="972" 
d="M780 0h-731v4q31 51 49 107t37 159l172 961q16 100 12.5 154t-24.5 110v4h207v-4q-31 -51 -49 -107t-37 -159l-213 -1198l329 18q31 2 58 7.5t54 19t46.5 24t46 35.5t41.5 39.5t44.5 50t42.5 52.5t48 61l11 -6z" />
    <glyph glyph-name="M" unicode="M" horiz-adv-x="1441" 
d="M221 0h-209v4q65 92 89 156.5t46 183.5l148 825q24 117 18 182.5t-63 143.5v4h190l226 -1294l686 1294h192v-4q-78 -65 -102 -118.5t-47 -180.5l-6 -33l-160 -895q-16 -100 -12.5 -154t24.5 -110v-4h-207v4q31 51 49 107t37 159l189 1055l-680 -1282h-41l-223 1270
l-172 -969q-22 -108 -18 -178t46 -162v-4z" />
    <glyph glyph-name="N" unicode="N" horiz-adv-x="1222" 
d="M934 -6l-565 1331l-179 -989q-22 -104 -17.5 -172t46.5 -160v-4h-207v4q64 92 87.5 153.5t45.5 178.5l150 827v-2q11 67 14 90t5.5 65t-4 63.5t-20 52t-38.5 63.5v4h164l547 -1290l172 954q22 104 17.5 172t-46.5 160v4h207v-4q-65 -93 -89 -155.5t-44 -176.5l-209 -1163
z" />
    <glyph glyph-name="O" unicode="O" horiz-adv-x="1355" 
d="M1341 895q0 -182 -60 -352.5t-160 -296t-236.5 -201.5t-282.5 -76q-217 0 -355 178.5t-138 456.5q0 182 60 352.5t160 296t236.5 201.5t282.5 76q217 0 355 -178.5t138 -456.5zM240 565q0 -163 39.5 -286t126 -196t210.5 -73q137 0 251 77.5t188 207.5t114.5 295
t40.5 344q0 163 -39.5 286t-126 196t-210.5 73q-136 0 -250 -77.5t-188 -207t-115 -295t-41 -344.5z" />
    <glyph glyph-name="P" unicode="P" horiz-adv-x="974" 
d="M49 0v4q31 51 49 107t37 159l172 961q16 100 12.5 154t-24.5 110v4h328q118 0 199.5 -28.5t124 -81t60 -112.5t17.5 -136q0 -237 -154.5 -382t-394.5 -145h-170l-61 -346q-16 -100 -12.5 -154t24.5 -110v-4h-207zM625 1458q-94 0 -168 -4l-144 -799h179q90 0 161 29
t116 76t74.5 113t41.5 134t12 144q0 79 -11.5 132t-40.5 94.5t-83.5 61t-136.5 19.5z" />
    <glyph glyph-name="Q" unicode="Q" horiz-adv-x="1355" 
d="M1341 895q0 -178 -57.5 -345.5t-154 -292t-228.5 -202.5t-274 -84q139 -153 364 -153q115 0 187 39l-39 -119q-62 -39 -164 -39q-130 0 -237 70.5t-169 201.5q-135 9 -240 92.5t-162.5 224.5t-57.5 316q0 182 60 352.5t160 296t236.5 201.5t282.5 76q217 0 355 -178.5
t138 -456.5zM240 565q0 -163 39.5 -286t126 -196t210.5 -73q137 0 251 77.5t188 207.5t114.5 295t40.5 344q0 163 -39.5 286t-126 196t-210.5 73q-136 0 -250 -77.5t-188 -207t-115 -295t-41 -344.5z" />
    <glyph glyph-name="R" unicode="R" horiz-adv-x="1011" 
d="M600 1456q-100 0 -143 -2l-125 -690h192q87 0 154 34t106.5 93t59.5 131.5t20 155.5q0 146 -64.5 212t-199.5 66zM49 0v4q31 51 49 107t37 159l172 961q16 100 12.5 154t-24.5 110v4h323q184 0 278.5 -82.5t94.5 -242.5q0 -87 -29 -163.5t-77.5 -130.5t-108 -90.5
t-123.5 -50.5l140 -526q26 -97 58 -139.5t95 -69.5v-4h-213l-188 723h-219l-82 -455q-16 -100 -12.5 -154t24.5 -110v-4h-207z" />
    <glyph glyph-name="S" unicode="S" horiz-adv-x="897" 
d="M907 1456l15 -299l-19 -4q-26 99 -60 167t-73.5 103.5t-79.5 50.5t-88 15q-116 0 -186 -75.5t-70 -194.5q0 -47 14 -94t30 -79t53.5 -79.5t56 -68t67.5 -71.5q53 -57 83.5 -94t67 -94t53.5 -119.5t17 -132.5q0 -131 -58.5 -227.5t-154.5 -143.5t-217 -47q-181 0 -335 94
l-15 324l17 4q34 -111 75.5 -187t88.5 -117.5t94.5 -59t105.5 -17.5q135 0 218 100t83 240q0 63 -16.5 118.5t-53.5 109t-65.5 86.5t-83.5 90q-56 60 -83 92t-65 88t-54.5 112.5t-16.5 120.5q0 73 21.5 133.5t58.5 102.5t86 71t103 42.5t112 13.5q75 0 149 -20.5t125 -53.5z
" />
    <glyph glyph-name="T" unicode="T" horiz-adv-x="1138" 
d="M586 0h-207v4q31 51 49 107t37 159l213 1192l-191 -8q-86 -3 -143.5 -59.5t-191.5 -261.5l-17 8l123 358h963v-362l-17 -4q-58 192 -95.5 254t-96.5 65l-226 8l-213 -1192q-16 -100 -12.5 -154t25.5 -110v-4z" />
    <glyph glyph-name="U" unicode="U" horiz-adv-x="1110" 
d="M516 -31q-68 0 -130 17.5t-116.5 55t-89 95.5t-48 139.5t6.5 186.5l140 768q16 100 12.5 154t-25.5 110v4h207v-4q-31 -51 -49 -107t-37 -159l-137 -760q-19 -122 -7 -208.5t55.5 -141.5t101.5 -80t130 -25q84 0 151 34t109 93t67.5 122.5t39.5 139.5l143 760
q23 107 19 173t-47 159v4h209v-4q-65 -92 -88.5 -154t-45.5 -178l-143 -760q-13 -67 -32.5 -125.5t-54.5 -117t-80 -99.5t-112.5 -66.5t-148.5 -25.5z" />
    <glyph glyph-name="V" unicode="V" horiz-adv-x="944" 
d="M360 -16h-41l-69 1196q-8 136 -24 199t-46 116v4h238v-4q-34 -51 -51.5 -120.5t-10.5 -196.5l56 -994l473 998q32 66 46.5 120t11.5 91.5t-9.5 58.5t-18.5 43v4h220v-4q-59 -45 -91.5 -96t-105.5 -205z" />
    <glyph glyph-name="W" unicode="W" horiz-adv-x="1495" 
d="M354 -16h-41l-67 1196q-7 137 -22 200.5t-44 114.5v4h232v-4q-34 -50 -50.5 -120t-9.5 -197l54 -975l436 975v2q-7 135 -23 198t-47 117v4h238v-4q-34 -51 -51.5 -120.5t-10.5 -196.5l53 -977l435 981q30 69 44.5 123.5t12 91t-8.5 56.5t-18 42v4h220v-4
q-62 -48 -97 -100.5t-100 -200.5l-539 -1210h-41l-61 1097z" />
    <glyph glyph-name="X" unicode="X" horiz-adv-x="1011" 
d="M219 4v-4h-244v4q64 52 104.5 102.5t115.5 167.5l309 476l-150 483q-38 123 -62.5 175t-66.5 87v4h260v-4q-67 -84 -16 -248l129 -416l223 355q128 200 53 309v4h244v-4q-65 -52 -106 -104t-113 -166l-285 -445l158 -514q33 -111 63.5 -168t75.5 -94v-4h-266v4
q64 80 12 248l-137 446l-248 -385q-128 -200 -53 -309z" />
    <glyph glyph-name="Y" unicode="Y" horiz-adv-x="954" 
d="M262 0v4q54 80 78 140t43 163l70 385l-136 545q-27 105 -53 162.5t-65 95.5v4h252v-4q-62 -73 -21 -244l119 -510l282 467q107 177 31 287v4h234v-4q-44 -46 -68 -73t-59 -75t-70 -106l-340 -559l-65 -375q-19 -104 -16 -164t32 -139l-2 -4h-246z" />
    <glyph glyph-name="Z" unicode="Z" horiz-adv-x="974" 
d="M762 0h-797v23l989 1439l-327 -10q-54 -2 -94.5 -13t-68.5 -23t-67 -55t-61 -72t-81 -110q-4 -6 -6.5 -9t-6 -8t-6.5 -9l-17 6l125 340h746v-22l-988 -1444l367 16q59 3 102.5 15.5t79 32.5t74.5 64.5t73 93t91 136.5l16 -6z" />
    <glyph glyph-name="bracketleft" unicode="[" horiz-adv-x="604" 
d="M51 -266l355 1812h376l-8 -37h-295l-338 -1738h297l-10 -37h-377z" />
    <glyph glyph-name="backslash" unicode="\" horiz-adv-x="733" 
d="M131 1599h49l586 -1865h-49z" />
    <glyph glyph-name="bracketright" unicode="]" horiz-adv-x="604" 
d="M602 1546l-354 -1812h-377l8 37h295l338 1738h-297l10 37h377z" />
    <glyph glyph-name="asciicircum" unicode="^" horiz-adv-x="843" 
d="M825 991l-252 361l-391 -361l-18 17l428 518h12l240 -518z" />
    <glyph glyph-name="underscore" unicode="_" horiz-adv-x="1003" 
d="M860 -205h-880l6 37h880z" />
    <glyph glyph-name="grave" unicode="`" horiz-adv-x="610" 
d="M625 1104l-17 -12l-299 364l113 78z" />
    <glyph glyph-name="a" unicode="a" horiz-adv-x="894" 
d="M266 59q49 0 100 36.5t91.5 88t86 131t74.5 141t64 142.5l76 287q-48 71 -148 71q-91 0 -177.5 -66.5t-146.5 -169t-96 -226t-36 -236.5q0 -199 112 -199zM520 -18l119 432q-92 -202 -199.5 -323.5t-226.5 -121.5q-79 0 -125.5 65.5t-46.5 192.5q0 190 87.5 370
t234.5 293.5t307 113.5q95 0 161 -37l50 37h8l-205 -783q-11 -40 -15 -60t-5.5 -45t6 -38.5t23 -28t42.5 -26.5v-3z" />
    <glyph glyph-name="b" unicode="b" horiz-adv-x="913" 
d="M352 -31q-50 0 -94 13.5t-84 43t-63 77t-30.5 115.5t13.5 159l195 903q20 101 12 149t-49 95v4l205 67l-215 -987q170 396 413 396q217 0 217 -306q0 -186 -69 -354t-189.5 -271.5t-261.5 -103.5zM365 6q71 0 134 42.5t108.5 112.5t79.5 159.5t50.5 185t16.5 186.5
q0 242 -144 242q-32 0 -65.5 -12.5t-74.5 -45.5t-81.5 -84.5t-86.5 -136t-89 -192.5l-23 -105q-18 -100 -12.5 -168t35.5 -108.5t68 -58t84 -17.5z" />
    <glyph glyph-name="c" unicode="c" horiz-adv-x="765" 
d="M653 279l21 -9q-45 -138 -132 -219.5t-208 -81.5q-140 0 -216.5 106t-76.5 275q0 164 69.5 315t189 245t255.5 94q100 0 178 -54l17 -200l-21 -5q-22 50 -41.5 85t-45.5 68.5t-57.5 51t-68.5 17.5q-43 0 -91 -23.5t-95 -72t-85 -114.5t-61.5 -160.5t-23.5 -201.5
q0 -167 57 -252.5t168 -85.5q72 0 138.5 47t129.5 175z" />
    <glyph glyph-name="d" unicode="d" horiz-adv-x="915" 
d="M276 59q41 0 83 22.5t80.5 65.5t72 90t68 112.5t59 116t53.5 116.5l53 249q-6 45 -54 85t-134 40q-105 0 -198.5 -111.5t-146 -273t-52.5 -317.5q0 -107 30 -151t86 -44zM555 -18l119 475q-45 -103 -93.5 -187.5t-105.5 -154t-121.5 -108t-130.5 -38.5q-87 0 -134.5 66
t-47.5 198q0 140 48 280t126 248t184.5 175.5t216.5 67.5q91 0 160 -29l66 305q20 101 12 149t-49 95v4l205 67l-295 -1374q-21 -94 -18 -122q5 -45 62 -73q3 -1 7 -3v-3z" />
    <glyph glyph-name="e" unicode="e" horiz-adv-x="745" 
d="M565 967q-106 0 -204.5 -89.5t-153.5 -238.5q461 43 461 229q0 48 -26 73.5t-77 25.5zM635 215q-53 -111 -140 -178.5t-188 -67.5q-123 0 -194.5 96.5t-71.5 256.5q0 124 44.5 248t117.5 219.5t174.5 155t208.5 59.5q79 0 129.5 -35t50.5 -103q0 -52 -29.5 -96t-93 -80.5
t-177 -56.5t-267.5 -19q-39 -119 -39 -254q0 -309 198 -309q137 0 256 174z" />
    <glyph glyph-name="f" unicode="f" horiz-adv-x="526" 
d="M8 -338l273 1274h-115l8 37h113l41 188q47 223 141 328.5t215 105.5q28 0 53.5 -6t35.5 -11l34 -17l14 -187l-8 -2q-57 95 -96.5 137.5t-87.5 42.5q-36 0 -65.5 -26.5t-63.5 -108.5t-64 -223l-47 -221h203l-8 -37h-203l-270 -1274h-103z" />
    <glyph glyph-name="g" unicode="g" horiz-adv-x="804" 
d="M209 549q0 -103 29.5 -153t97.5 -50q110 0 188 117t78 301q0 104 -28.5 153.5t-98.5 49.5q-110 0 -188 -117.5t-78 -300.5zM670 -145q0 -124 -123 -220t-320 -96q-153 0 -252.5 59.5t-99.5 163.5q0 105 96.5 173.5t231.5 87.5q-88 47 -88 137q0 63 36 106t91 62
q-70 30 -109 99.5t-39 150.5q0 105 59 205t147.5 160.5t174.5 60.5q65 0 123 -33l287 49h2l-27 -121h-8l-221 47q86 -77 86 -211q0 -105 -59 -205t-147.5 -160.5t-174.5 -60.5q-38 0 -62 8q-90 -31 -90 -106q0 -34 17.5 -59t51 -41t66.5 -25.5t78 -17.5q34 -6 58 -12
t59.5 -17t59.5 -26.5t48 -37t36 -52.5t12 -68zM256 -410q156 0 249 65.5t93 160.5q0 33 -16 59t-32 40.5t-56.5 28.5t-56 17.5t-65.5 12.5q-9 2 -14 3q-89 17 -129 33q-122 -23 -187 -83.5t-65 -145.5t68.5 -138t210.5 -53z" />
    <glyph glyph-name="h" unicode="h" horiz-adv-x="946" 
d="M590 -18l160 751q20 75 0 133t-80 58q-86 0 -205 -144t-252 -444l-16 -84q-12 -60 -16.5 -95.5t-3 -76t12.5 -76.5v-4h-180v4q9 14 17 27.5t15.5 32t13 30t12 35.5t9.5 33.5t10 40t8.5 39t9.5 46t10 46.5l202 946q21 101 13 149t-49 95v4l204 67l-247 -1128
q105 241 233 389t252 148q86 0 119.5 -74t5.5 -203l-105 -491q-28 -115 -13 -164t95 -56v-4z" />
    <glyph glyph-name="i" unicode="i" 
d="M442 1350q0 -35 -24.5 -59.5t-59.5 -24.5q-34 0 -59 24.5t-25 59.5t25 59.5t59 24.5q35 0 59.5 -24.5t24.5 -59.5zM14 0v4q27 40 47 95t29.5 98t28.5 137l71 364q31 155 -36 244v4l196 68l-149 -762q-11 -59 -15.5 -95.5t-3 -76t12.5 -76.5v-4h-181z" />
    <glyph glyph-name="j" unicode="j" horiz-adv-x="372" 
d="M432 1350q0 -35 -24.5 -59.5t-59.5 -24.5q-34 0 -59 24.5t-25 59.5t25 59.5t59 24.5q35 0 59.5 -24.5t24.5 -59.5zM-123 -430q89 67 129 262l174 866q31 154 -37 244v4l197 68l-221 -1120q-28 -141 -91.5 -230t-146.5 -104z" />
    <glyph glyph-name="k" unicode="k" horiz-adv-x="802" 
d="M190 0h-180v4q9 14 17 27.5t15.5 32t13 30t12 35.5t9.5 33.5t10 40t8.5 39t9.5 46t10 46.5l202 946q21 101 13 149t-49 95v4l204 67l-270 -1257q-30 -144 -35.5 -207.5t10.5 -126.5v-4zM553 0l-268 508l290 293q48 49 64.5 93t-6.5 75v4h246v-4q-83 -30 -130 -64.5
t-149 -136.5l-219 -217l194 -363q43 -81 75.5 -119t86.5 -65v-4h-184z" />
    <glyph glyph-name="l" unicode="l" 
d="M190 0h-180v4q9 14 17 27.5t15.5 32t13 30t12 35.5t9.5 33.5t10 40t8.5 39t9.5 46t10 46.5l202 946q21 101 13 149t-49 95v4l204 67l-270 -1257q-30 -144 -35.5 -207.5t10.5 -126.5v-4z" />
    <glyph glyph-name="m" unicode="m" horiz-adv-x="1411" 
d="M1051 -18l166 751q20 75 1 133t-75 58q-84 0 -191.5 -143.5t-230.5 -446.5l-19 -82q-18 -83 -20 -134.5t14 -113.5v-4h-178v4q17 24 29 48.5t22 60t15.5 56t16.5 74.5t17 79l93 411q21 79 2.5 135t-72.5 56q-82 0 -189 -142.5t-225 -439.5l-20 -90q-18 -83 -20 -134.5
t14 -113.5v-4h-181v4q9 14 17 27.5t15.5 32t13 30t12 35.5t9.5 33.5t10 40t8.5 39t9.5 46t10 46.5l78 364q33 151 -37 244v4l205 68l-111 -500q93 224 204 357t226 133q79 0 111 -73.5t2 -203.5l-53 -238q97 236 210 375.5t232 139.5q85 0 118.5 -74.5t4.5 -202.5l-111 -491
q-29 -115 -13.5 -164t95.5 -56v-4z" />
    <glyph glyph-name="n" unicode="n" horiz-adv-x="954" 
d="M594 -18l166 751q20 75 0 133t-80 58q-86 0 -204.5 -143t-248.5 -439l-20 -90q-18 -83 -20 -134.5t14 -113.5v-4h-181v4q9 14 17 27.5t15.5 32t13 30t12 35.5t9.5 33.5t10 40t8.5 39t9.5 46t10 46.5l78 364q33 151 -37 244v4l205 68l-119 -537q105 237 231.5 382
t249.5 145q87 0 120.5 -74t4.5 -203l-110 -491q-29 -115 -14 -164t95 -56v-4z" />
    <glyph glyph-name="o" unicode="o" horiz-adv-x="839" 
d="M799 647q0 -166 -67 -323.5t-179 -256t-234 -98.5q-124 0 -201 95.5t-77 261.5t67 323.5t178.5 256t233.5 98.5q124 0 201.5 -95.5t77.5 -261.5zM160 309q0 -303 168 -303q67 0 130.5 48.5t112.5 132.5t79 209t30 268q0 303 -168 303q-67 0 -130.5 -48.5t-112.5 -132.5
t-79 -209t-30 -268z" />
    <glyph glyph-name="p" unicode="p" horiz-adv-x="915" 
d="M88 -461h-180v4q11 15 20 33t15.5 32.5t14.5 38.5t12 36.5t11 43.5t9.5 43t10.5 51t11 52l170 825q32 153 -37 244v4l205 68l-94 -424q164 414 401 414q217 0 217 -316q0 -138 -38 -268.5t-104 -230t-161.5 -160t-203.5 -60.5q-145 0 -213 113l-43 -205
q-30 -141 -35 -207.5t12 -126.5v-4zM375 6q88 0 162.5 64t121 165t72 218t25.5 229q0 252 -144 252q-39 0 -80 -22t-89.5 -72.5t-102 -148t-104.5 -234.5l-21 -97q-18 -83 -14.5 -144t16.5 -101.5t40 -64.5t55.5 -34t62.5 -10z" />
    <glyph glyph-name="q" unicode="q" horiz-adv-x="909" 
d="M438 -461v4q28 40 49 96.5t30 95.5t30 138l131 619q-93 -242 -212.5 -382.5t-236.5 -140.5q-90 0 -139 69.5t-49 197.5q0 139 50 278.5t132.5 247t196.5 175t233 67.5q108 0 176 -48l58 50h4l-242 -1131q-31 -143 -36.5 -205.5t10.5 -126.5v-4h-185zM281 59q92 0 202 144
t234 467l22 106q19 84 -19 132t-120 48q-117 0 -221 -112t-161.5 -272.5t-57.5 -313.5q0 -199 121 -199z" />
    <glyph glyph-name="r" unicode="r" horiz-adv-x="610" 
d="M20 0v4q9 14 17 27.5t15.5 32t13 30t12 35.5t9.5 33.5t10 40t8.5 39t9.5 46t10 46.5l78 364q33 151 -37 244v4l205 68l-109 -496q97 244 200 365t230 121l-63 -154h-4q-17 10 -43 10q-88 0 -164.5 -111.5t-190.5 -404.5l-20 -92q-18 -83 -20 -134.5t14 -113.5v-4h-181z
" />
    <glyph glyph-name="s" unicode="s" horiz-adv-x="641" 
d="M594 963l6 -195l-16 -4q-91 203 -213 203q-64 0 -102 -45.5t-38 -112.5q0 -42 17 -81.5t44 -72.5t60 -66.5t66 -70t60 -75.5t44 -90.5t17 -108.5q0 -129 -78.5 -202t-200.5 -73q-147 0 -237 78l-7 232l17 4q46 -136 112.5 -206.5t141.5 -70.5q72 0 121 53t49 138
q0 52 -22.5 100.5t-56 85t-73 79t-73 82t-56 94.5t-22.5 116q0 120 75 185t185 65q105 0 180 -41z" />
    <glyph glyph-name="t" unicode="t" horiz-adv-x="540" 
d="M182 -31q-56 0 -86 46t-10 145l168 776h-113v4l248 184h4l-33 -151h242l-8 -37h-242l-166 -772q-24 -111 45 -111q45 0 97.5 51t91.5 109l18 -12q-127 -232 -256 -232z" />
    <glyph glyph-name="u" unicode="u" horiz-adv-x="909" 
d="M532 -18l117 436q-90 -198 -202.5 -323.5t-227.5 -125.5q-89 0 -135.5 74t-9.5 217l135 518q39 150 -66 191v4h211l-182 -715q-25 -104 0 -151.5t86 -47.5q108 0 231 162.5t222 429.5l32 125q40 152 -63 193v4h215l-197 -752q-26 -81 -18.5 -125t70.5 -73v-3z" />
    <glyph glyph-name="v" unicode="v" horiz-adv-x="718" 
d="M215 -10h-20l-25 733q-3 111 -18.5 156t-69.5 90v4h182l25 -787l272 457q41 68 61.5 114.5t26 87.5t-10.5 70t-54 54v4h217v-4z" />
    <glyph glyph-name="w" unicode="w" horiz-adv-x="1077" 
d="M215 -10h-20l-25 733q-3 111 -18.5 156t-69.5 90v4h184l25 -778l282 481v47q-1 110 -17.5 155t-70.5 91v4h185l10 -774l250 444q52 93 71.5 149t8 100t-61.5 77v4h211v-4l-555 -979h-20l-9 610z" />
    <glyph glyph-name="x" unicode="x" horiz-adv-x="817" 
d="M182 4v-4h-233v4q71 50 115.5 95t99.5 120l201 273l-101 274q-32 88 -56.5 130.5t-62.5 72.5v4h238v-4q-15 -9 -24.5 -30t-9 -64t19.5 -95l82 -223l137 178q43 55 62 103.5t14 80.5t-29 50v4h233v-4q-67 -46 -109.5 -89.5t-105.5 -125.5l-188 -240l113 -307
q32 -89 56 -131t62 -72v-4h-237v4q15 9 24.5 30t9 64t-19.5 95l-92 256l-154 -211q-43 -59 -61 -106.5t-13 -78.5t29 -49z" />
    <glyph glyph-name="y" unicode="y" horiz-adv-x="741" 
d="M-211 -461l29 139q48 1 82 6t77.5 24t81.5 52.5t84 93.5t95 146l-62 723q-11 130 -24 168t-64 78v4h174l66 -807l247 477q38 73 56.5 117t25 86t-9 70t-53.5 53v4h209v-4l-520 -969q-61 -116 -119 -200t-104 -131t-97 -76t-87.5 -38.5t-86.5 -15.5z" />
    <glyph glyph-name="z" unicode="z" horiz-adv-x="757" 
d="M580 0h-611v14l674 924l-192 -6q-80 -3 -146.5 -41.5t-163.5 -130.5l-8 4l100 209h545v-19l-674 -923l267 8q40 1 75.5 11t63.5 23t62.5 40t59 50t66.5 64l9 -4z" />
    <glyph glyph-name="braceleft" unicode="{" horiz-adv-x="573" 
d="M395 -266h-71q-119 0 -181.5 51.5t-62.5 140.5q0 53 21.5 109.5t52 106.5t61.5 101t52.5 110.5t21.5 117.5q0 81 -47.5 115.5t-137.5 34.5h-24l8 38h25q215 0 252 189q12 65 1.5 154.5t-21.5 152.5t3 154q21 111 105.5 174t224.5 63h72l-7 -37h-71q-84 0 -148 -49
t-86 -157q-16 -74 -7 -228t-5 -225q-10 -55 -33.5 -95.5t-57 -63t-67 -34.5t-75.5 -18l-3 -6q70 -8 115 -47t45 -115q0 -57 -27 -131t-60 -135.5t-60 -139t-27 -139.5q0 -82 43.5 -118.5t112.5 -36.5h71z" />
    <glyph glyph-name="bar" unicode="|" horiz-adv-x="415" 
d="M283 -266h-47v1865h47v-1865z" />
    <glyph glyph-name="braceright" unicode="}" horiz-adv-x="573" 
d="M233 1546h72q119 0 181.5 -51.5t62.5 -140.5q0 -53 -21.5 -109.5t-52.5 -106.5t-61.5 -101t-52 -110.5t-21.5 -117.5q0 -81 47 -115.5t137 -34.5h25l-8 -38h-25q-215 0 -252 -189q-12 -65 -1.5 -154.5t21.5 -152.5t-3 -154q-21 -111 -105.5 -174t-224.5 -63h-72l6 37h72
q84 0 147.5 49t85.5 157q16 74 7.5 228t5.5 225q10 55 33.5 95.5t57 63t67 34.5t75.5 18l2 6q-69 8 -114 47t-45 115q0 57 27 131t60 135.5t60 139t27 139.5q0 82 -43.5 118.5t-112.5 36.5h-72z" />
    <glyph glyph-name="asciitilde" unicode="~" horiz-adv-x="925" 
d="M295 672q42 0 118.5 -30t159.5 -59.5t142 -29.5q60 0 92 30t47 95l16 -4q-2 -27 -7 -52t-19 -56t-33.5 -53.5t-54 -38t-78.5 -15.5q-64 0 -217 59.5t-205 59.5q-113 0 -141 -129l-19 4q2 26 8.5 52.5t21.5 57.5t36 54.5t55.5 39t77.5 15.5z" />
    <glyph glyph-name="uni00A0" unicode="&#xa0;" horiz-adv-x="266" 
 />
    <glyph glyph-name="exclamdown" unicode="&#xa1;" horiz-adv-x="409" 
d="M-57 -502v4l278 1098h29l-184 -1098l-3 -4h-120zM295 1004q39 0 67.5 -29t28.5 -68t-28.5 -67.5t-67.5 -28.5q-40 0 -68 28t-28 68t28 68.5t68 28.5z" />
    <glyph glyph-name="cent" unicode="&#xa2;" horiz-adv-x="765" 
d="M291 -233h-45l43 206q-120 17 -184 119.5t-64 257.5q0 153 62 296.5t170 239.5t233 113l31 142h45l-29 -137h2q100 0 178 -54l17 -200l-21 -5q-43 95 -85 151t-99 67l-193 -904q10 -2 33 -2q72 0 138.5 47t129.5 175l21 -9q-45 -138 -132 -219.5t-208 -81.5zM160 395
q0 -274 149 -327l191 897q-43 -4 -89.5 -30t-91 -75t-80 -114t-57.5 -156.5t-22 -194.5z" />
    <glyph glyph-name="sterling" unicode="&#xa3;" horiz-adv-x="1036" 
d="M995 332l-147 -332h-899v16q101 71 153.5 124t96.5 147t77 248l43 198h-165l8 37h166l41 197q59 277 170 420t260 143q57 0 117 -19.5t85 -44.5l21 -264l-18 -4q-118 291 -230 291q-30 0 -61.5 -21t-69 -71t-76.5 -151t-73 -242l-60 -234h260l-6 -37h-262l-37 -145
q-53 -210 -133.5 -334t-155.5 -162h541q126 0 189.5 47.5t150.5 198.5z" />
    <glyph glyph-name="yen" unicode="&#xa5;" horiz-adv-x="950" 
d="M260 0v4q54 80 78 140t43 163l14 84h-327l6 37h327l43 231l-2 3h-327l8 36h311l-119 539q-23 102 -50 160.5t-68 97.5v4h252v-4q-58 -68 -21 -244l111 -546l290 503q104 181 31 287v4h234v-4q-51 -53 -70 -74.5t-56 -71t-71 -108.5l-317 -543h309l-8 -36h-322l-10 -17
l-37 -217h328l-6 -37h-328l-14 -84q-19 -104 -16 -164t32 -139l-2 -4h-246z" />
    <glyph glyph-name="brokenbar" unicode="&#xa6;" horiz-adv-x="415" 
d="M283 748h-47v851h47v-851zM283 -266h-47v850h47v-850z" />
    <glyph glyph-name="section" unicode="&#xa7;" horiz-adv-x="958" 
d="M436 362q78 -62 115 -102q92 19 148.5 86.5t56.5 163.5q0 51 -16.5 95t-49 80.5t-63.5 63t-77 60.5q-15 11 -22 16q-77 59 -122 109q-89 -22 -144 -90.5t-55 -161.5q0 -41 12.5 -79t30.5 -66t49 -59.5t56 -52t64 -50.5q11 -9 17 -13zM305 -336q-77 0 -145.5 18.5
t-93.5 36.5l-25 250l14 2q50 -151 120.5 -208.5t160.5 -57.5q114 0 176.5 69.5t62.5 180.5q0 48 -14 92t-31 74t-53 67t-58.5 55.5t-68.5 55.5q-44 34 -68 54.5t-58.5 56.5t-53 67.5t-32 76.5t-13.5 95q0 124 71.5 205t184.5 109q-78 98 -78 225q0 83 31 149.5t83.5 108
t117.5 63t135 21.5t137.5 -18.5t91.5 -36.5l19 -230l-15 -2q-82 246 -262 246q-107 0 -175.5 -73.5t-68.5 -190.5q0 -47 13.5 -90.5t31 -74t52 -66t57.5 -55t67 -54.5q43 -34 67 -53.5t58 -55t52 -66.5t31.5 -75.5t13.5 -93.5q0 -124 -72.5 -204t-187.5 -108q82 -99 82 -231
q0 -157 -98.5 -245.5t-258.5 -88.5z" />
    <glyph glyph-name="dieresis" unicode="&#xa8;" horiz-adv-x="876" 
d="M510 1350q0 -35 -24.5 -59.5t-59.5 -24.5q-34 0 -59 24.5t-25 59.5t25 59.5t59 24.5q35 0 59.5 -24.5t24.5 -59.5zM862 1350q0 -35 -24.5 -59.5t-59.5 -24.5q-34 0 -59 24.5t-25 59.5t25 59.5t59 24.5q35 0 59.5 -24.5t24.5 -59.5z" />
    <glyph glyph-name="copyright" unicode="&#xa9;" horiz-adv-x="1736" 
d="M113 752q0 160 62 304.5t166.5 248t248.5 164.5t303 61t304 -61t249.5 -164.5t166.5 -248t62 -304.5q0 -161 -62 -306t-167 -249t-249.5 -165t-303.5 -61t-303 61t-248.5 165t-166.5 249t-62 306zM164 752q0 -151 57.5 -288t155.5 -236t232.5 -157.5t283.5 -58.5
t283.5 58.5t232.5 157.5t155.5 236t57.5 288t-57.5 287.5t-155.5 235t-232.5 156.5t-283.5 58t-283.5 -58t-232.5 -156.5t-155.5 -235t-57.5 -287.5zM1186 408q-42 -31 -122.5 -58.5t-170.5 -27.5q-185 0 -293 122.5t-108 309.5q0 183 115 304.5t306 121.5q140 0 269 -56
l22 -186l-10 -4q-58 104 -127 157.5t-168 53.5q-146 0 -225.5 -109t-79.5 -282q0 -178 77 -288t222 -110q115 0 186.5 69t116.5 187l12 -4z" />
    <glyph glyph-name="ordfeminine" unicode="&#xaa;" horiz-adv-x="733" 
d="M336 801q35 0 72.5 27.5t68.5 67t64 99.5t55.5 108t48.5 109l60 228q-31 53 -107 53q-70 0 -136 -52.5t-111.5 -132.5t-73 -175t-27.5 -181q0 -151 86 -151zM520 727l90 334q-70 -155 -152.5 -249.5t-174.5 -94.5q-65 0 -102.5 54.5t-37.5 156.5q0 108 40.5 217
t106.5 194t159 138t190 53q80 0 133 -29l45 29h8l-157 -602q-23 -70 -16.5 -107.5t59.5 -60.5v-2z" />
    <glyph glyph-name="guillemotleft" unicode="&#xab;" horiz-adv-x="731" 
d="M596 119l-18 -13l-207 359l10 41l358 358l13 -12l-265 -373zM309 119l-18 -13l-207 359l10 41l359 358l12 -12l-264 -373z" />
    <glyph glyph-name="registered" unicode="&#xae;" horiz-adv-x="1003" 
d="M102 1108q0 177 127.5 299.5t307.5 122.5q179 0 302.5 -122t123.5 -300q0 -176 -127.5 -298t-305.5 -122q-180 0 -304 121t-124 299zM150 1108q0 -160 111 -270.5t271 -110.5t271.5 110t111.5 271t-111.5 272t-271.5 111q-161 0 -271.5 -111t-110.5 -272zM381 885v4
q15 19 20 32.5t5 39.5v299q0 26 -4.5 39t-20.5 34v4h166q73 0 109 -31t36 -85q0 -41 -23.5 -71.5t-66.5 -43.5l80 -145q16 -27 22.5 -37t17.5 -20t26 -15v-4h-91l-110 202h-80v-126q0 -26 5 -39.5t20 -32.5v-4h-111zM530 1300h-63v-172h68q94 0 94 93q0 79 -99 79z" />
    <glyph glyph-name="macron" unicode="&#xaf;" horiz-adv-x="874" 
d="M344 1249l14 72h494l-16 -72h-492z" />
    <glyph glyph-name="degree" unicode="&#xb0;" horiz-adv-x="727" 
d="M143 1260q0 112 81.5 191t195.5 79t190 -78t76 -192t-80.5 -193.5t-193.5 -79.5q-116 0 -192.5 79t-76.5 194zM197 1260q0 -98 61.5 -163t157.5 -65q95 0 156 65t61 163q0 96 -61.5 160.5t-155.5 64.5q-96 0 -157.5 -64.5t-61.5 -160.5z" />
    <glyph glyph-name="acute" unicode="&#xb4;" horiz-adv-x="874" 
d="M412 1104l323 430l86 -90l-399 -352z" />
    <glyph glyph-name="paragraph" unicode="&#xb6;" horiz-adv-x="942" 
d="M487 0h-118v2q31 67 45.5 115t29.5 135l99 557h-62q-160 0 -252 82t-92 235q0 93 35 166t94.5 117t133 67t155.5 23h197v-2q-32 -68 -46.5 -116t-29.5 -134l-174 -995q-16 -89 -19 -134.5t4 -115.5v-2zM682 0h-119v2q32 68 46.5 116t29.5 134l174 995q15 87 18 134.5
t-4 115.5v2h119v-2q-32 -68 -46.5 -116t-29.5 -134l-174 -995q-15 -87 -18 -134.5t4 -115.5v-2z" />
    <glyph glyph-name="periodcentered" unicode="&#xb7;" horiz-adv-x="356" 
d="M190 465q-39 0 -67.5 28.5t-28.5 67.5t28.5 67.5t67.5 28.5q40 0 68.5 -28t28.5 -68t-28.5 -68t-68.5 -28z" />
    <glyph glyph-name="cedilla" unicode="&#xb8;" horiz-adv-x="874" 
d="M143 -522v16q115 27 183.5 81t68.5 124q0 102 -147 115v4l147 186h56l-101 -123q133 -34 133 -149q0 -103 -95 -169.5t-245 -84.5z" />
    <glyph glyph-name="ordmasculine" unicode="&#xba;" horiz-adv-x="673" 
d="M756 1247q0 -129 -55 -252.5t-145.5 -200.5t-186.5 -77q-102 0 -164 75.5t-62 206.5q0 97 33 194t86 171t124 120t144 46q103 0 164.5 -75.5t61.5 -207.5zM252 971q0 -226 123 -226q106 0 189 154.5t83 376.5q0 225 -123 225q-70 0 -132 -67.5t-101 -190.5t-39 -272z" />
    <glyph glyph-name="guillemotright" unicode="&#xbb;" horiz-adv-x="731" 
d="M434 852l19 12l206 -358l-10 -41l-358 -359l-12 13l264 373zM147 852l19 12l207 -358l-11 -41l-358 -359l-12 13l264 373z" />
    <glyph glyph-name="onequarter" unicode="&#xbc;" horiz-adv-x="1284" 
d="M502 1524l-111 -637q-11 -56 -9 -88.5t19 -71.5v-2h-182v2q33 42 47 73.5t23 86.5l82 467h-78l2 10q108 60 197 160h10zM164 2l-33 27l1067 1493l35 -23zM821 0l2 2q27 41 39 72.5t21 87.5l8 43h-289l2 14l389 569h117l-477 -559h262l47 265h100l-45 -265h76l-10 -24h-70
l-8 -43q-11 -58 -10 -89.5t14 -70.5v-2h-168z" />
    <glyph glyph-name="onehalf" unicode="&#xbd;" horiz-adv-x="1325" 
d="M164 2l-33 27l1067 1493l35 -23zM1108 0h-401l4 14q242 219 333 358.5t91 272.5q0 67 -27.5 102t-69.5 35q-46 0 -88.5 -46t-97.5 -136l-10 4l51 170q78 31 154 31q94 0 144 -45.5t50 -128.5q0 -127 -98 -245.5t-322 -289.5h185q53 0 89.5 23t78.5 71l6 -4zM522 1524
l-110 -637q-11 -56 -9 -88.5t19 -71.5v-2h-182v2q32 41 46 73t23 87l82 467h-78l2 10q108 60 197 160h10z" />
    <glyph glyph-name="threequarters" unicode="&#xbe;" horiz-adv-x="1300" 
d="M287 709q-49 0 -90 11t-58 25l-14 170l10 3q31 -91 70.5 -139t93.5 -48q77 0 127.5 90t50.5 195q0 84 -34.5 125t-90.5 41q-60 0 -121 -47l-8 12l289 268h-274l51 96h354l-2 -10l-334 -307q31 14 72 14q81 0 141 -54.5t60 -154.5q0 -118 -80 -204t-213 -86zM180 2l-33 27
l1067 1493l35 -23zM838 0l2 2q27 40 38.5 72t20.5 88l8 43h-289l3 14l389 569h116l-477 -559h262l47 265h101l-45 -265h76l-11 -24h-69l-9 -43q-10 -59 -9.5 -89.5t14.5 -70.5v-2h-168z" />
    <glyph glyph-name="questiondown" unicode="&#xbf;" horiz-adv-x="757" 
d="M592 600h33q-24 -83 -69.5 -157.5t-98.5 -129t-112 -106.5t-112.5 -102t-97.5 -103.5t-70 -122t-26 -147.5q0 -112 51.5 -170t151.5 -58q104 0 188 67t191 220l14 -6l-90 -252q-51 -23 -137 -44t-175 -21q-148 0 -231.5 69t-83.5 201q0 76 29 144t78 122t109.5 105
t128 104t128.5 107.5t115.5 127t85.5 152.5zM662 1004q38 0 67 -29t29 -68t-28.5 -67.5t-67.5 -28.5q-40 0 -68.5 28t-28.5 68t28.5 68.5t68.5 28.5z" />
    <glyph glyph-name="Agrave" unicode="&#xc0;" horiz-adv-x="952" 
d="M676 606l-64 717l-327 -717h391zM139 4v-4h-250v4q71 58 110 113.5t97 179.5l566 1216h38l115 -1263q8 -101 26.5 -148t59.5 -98v-4h-264v4q46 42 62 103t8 153l-27 305h-414l-116 -254q-41 -92 -43 -179t32 -128zM879 1616l-11 -14l-467 247l84 115z" />
    <glyph glyph-name="Aacute" unicode="&#xc1;" horiz-adv-x="952" 
d="M676 606l-64 717l-327 -717h391zM139 4v-4h-250v4q71 58 110 113.5t97 179.5l566 1216h38l115 -1263q8 -101 26.5 -148t59.5 -98v-4h-264v4q46 42 62 103t8 153l-27 305h-414l-116 -254q-41 -92 -43 -179t32 -128zM459 1616l459 348l63 -117l-514 -245z" />
    <glyph glyph-name="Acircumflex" unicode="&#xc2;" horiz-adv-x="952" 
d="M676 606l-64 717l-327 -717h391zM139 4v-4h-250v4q71 58 110 113.5t97 179.5l566 1216h38l115 -1263q8 -101 26.5 -148t59.5 -98v-4h-264v4q46 42 62 103t8 153l-27 305h-414l-116 -254q-41 -92 -43 -179t32 -128zM956 1602l-233 190l-340 -190l-8 14l362 319h8l226 -319
z" />
    <glyph glyph-name="Atilde" unicode="&#xc3;" horiz-adv-x="952" 
d="M676 606l-64 717l-327 -717h391zM139 4v-4h-250v4q71 58 110 113.5t97 179.5l566 1216h38l115 -1263q8 -101 26.5 -148t59.5 -98v-4h-264v4q46 42 62 103t8 153l-27 305h-414l-116 -254q-41 -92 -43 -179t32 -128zM590 1835q46 0 92 -26t91 -52t87 -26q51 0 84.5 32
t65.5 105l14 -2q-10 -36 -23.5 -68t-38.5 -71t-65.5 -62t-91.5 -23q-38 0 -76.5 16.5t-65 36t-62.5 36t-69 16.5q-50 0 -87 -33t-68 -104l-17 2q9 34 25 68t42.5 71t69 60.5t93.5 23.5z" />
    <glyph glyph-name="Adieresis" unicode="&#xc4;" horiz-adv-x="952" 
d="M676 606l-64 717l-327 -717h391zM139 4v-4h-250v4q71 58 110 113.5t97 179.5l566 1216h38l115 -1263q8 -101 26.5 -148t59.5 -98v-4h-264v4q46 42 62 103t8 153l-27 305h-414l-116 -254q-41 -92 -43 -179t32 -128zM993 1778q0 -35 -24.5 -59.5t-59.5 -24.5
q-34 0 -59 24.5t-25 59.5t25 59.5t59 24.5q35 0 59.5 -24.5t24.5 -59.5zM600 1778q0 -35 -24.5 -59.5t-59.5 -24.5q-34 0 -59 24.5t-25 59.5t25 59.5t59 24.5q35 0 59.5 -24.5t24.5 -59.5z" />
    <glyph glyph-name="Aring" unicode="&#xc5;" horiz-adv-x="952" 
d="M676 606l-64 717l-327 -717h391zM139 4v-4h-250v4q71 58 110 113.5t97 179.5l566 1216h38l115 -1263q8 -101 26.5 -148t59.5 -98v-4h-264v4q46 42 62 103t8 153l-27 305h-414l-116 -254q-41 -92 -43 -179t32 -128zM522 1772q0 75 48.5 124.5t123.5 49.5t123.5 -49.5
t48.5 -124.5t-48.5 -122.5t-123.5 -47.5t-123.5 47.5t-48.5 122.5zM580 1772q0 -63 29 -99.5t85 -36.5t85.5 36.5t29.5 99.5q0 64 -29 101.5t-86 37.5t-85.5 -37.5t-28.5 -101.5z" />
    <glyph glyph-name="AE" unicode="&#xc6;" horiz-adv-x="1650" 
d="M952 1290q8 40 11 78l-478 -762h344zM221 4v-4h-241v4q85 59 135 114t127 179l712 1137q-11 34 -45 61v4h688l23 -297l-16 -4q-68 144 -115.5 197.5t-124.5 54.5l-270 8l-123 -684h198q16 0 31 5t30.5 17t26.5 21.5t27 30t23.5 31t25 36t23.5 33.5h16l-59 -379h-17
q-14 37 -18 47.5t-16 37.5t-19 35t-20 22t-27.5 18t-32.5 4h-200l-125 -696l331 10q29 1 53.5 4.5t49 14t41 17t41 27.5t36.5 30.5t39.5 41t38 43.5t45.5 54.5t48 58.5l16 -6l-123 -332h-770v4q32 50 49 104.5t37 161.5l53 295h-362l-172 -274q-44 -72 -64.5 -128
t-19.5 -91.5t16 -67.5z" />
    <glyph glyph-name="Ccedilla" unicode="&#xc7;" horiz-adv-x="1224" 
d="M311 -522v16q115 27 183.5 81t68.5 124q0 102 -147 115v4l125 157q-213 30 -322.5 199t-109.5 440q0 178 56 345t152.5 293t237 202t299.5 76q115 0 218.5 -37.5t148.5 -71.5l22 -284l-16 -4q-74 189 -172.5 272.5t-229.5 83.5q-92 0 -174 -36t-145.5 -99.5t-114 -150
t-83.5 -188.5t-50.5 -213.5t-17.5 -226.5q0 -161 43 -286.5t134 -202t218 -76.5q154 0 271 101.5t231 300.5l20 -4l-82 -299q-59 -48 -179.5 -94t-264.5 -46q-27 0 -41 2l-72 -90q133 -34 133 -149q0 -103 -95 -169.5t-245 -84.5z" />
    <glyph glyph-name="Egrave" unicode="&#xc8;" horiz-adv-x="1015" 
d="M942 332l-123 -332h-770v4q32 50 49 104.5t37 161.5l172 961q16 100 12.5 154t-24.5 110v4h668l22 -297l-16 -4q-68 144 -115.5 197.5t-124.5 54.5l-270 8l-123 -684h199q16 0 31 5t30 16.5t26.5 21.5t27 30t23.5 31.5t25 36t23 33.5h16l-59 -379h-16q-15 41 -21.5 56
t-20 42.5t-24.5 37.5t-28.5 19t-39.5 9h-200l-125 -696l332 10q29 1 53.5 4.5t49 14t41 17t40.5 27t36.5 31t39.5 41t38.5 44t44.5 54t48 58.5zM903 1616l-10 -14l-467 247l84 115z" />
    <glyph glyph-name="Eacute" unicode="&#xc9;" horiz-adv-x="1015" 
d="M942 332l-123 -332h-770v4q32 50 49 104.5t37 161.5l172 961q16 100 12.5 154t-24.5 110v4h668l22 -297l-16 -4q-68 144 -115.5 197.5t-124.5 54.5l-270 8l-123 -684h199q16 0 31 5t30 16.5t26.5 21.5t27 30t23.5 31.5t25 36t23 33.5h16l-59 -379h-16q-15 41 -21.5 56
t-20 42.5t-24.5 37.5t-28.5 19t-39.5 9h-200l-125 -696l332 10q29 1 53.5 4.5t49 14t41 17t40.5 27t36.5 31t39.5 41t38.5 44t44.5 54t48 58.5zM463 1616l459 348l63 -117l-514 -245z" />
    <glyph glyph-name="Ecircumflex" unicode="&#xca;" horiz-adv-x="1015" 
d="M942 332l-123 -332h-770v4q32 50 49 104.5t37 161.5l172 961q16 100 12.5 154t-24.5 110v4h668l22 -297l-16 -4q-68 144 -115.5 197.5t-124.5 54.5l-270 8l-123 -684h199q16 0 31 5t30 16.5t26.5 21.5t27 30t23.5 31.5t25 36t23 33.5h16l-59 -379h-16q-15 41 -21.5 56
t-20 42.5t-24.5 37.5t-28.5 19t-39.5 9h-200l-125 -696l332 10q29 1 53.5 4.5t49 14t41 17t40.5 27t36.5 31t39.5 41t38.5 44t44.5 54t48 58.5zM961 1602l-234 190l-340 -190l-8 14l362 319h9l225 -319z" />
    <glyph glyph-name="Edieresis" unicode="&#xcb;" horiz-adv-x="1015" 
d="M942 332l-123 -332h-770v4q32 50 49 104.5t37 161.5l172 961q16 100 12.5 154t-24.5 110v4h668l22 -297l-16 -4q-68 144 -115.5 197.5t-124.5 54.5l-270 8l-123 -684h199q16 0 31 5t30 16.5t26.5 21.5t27 30t23.5 31.5t25 36t23 33.5h16l-59 -379h-16q-15 41 -21.5 56
t-20 42.5t-24.5 37.5t-28.5 19t-39.5 9h-200l-125 -696l332 10q29 1 53.5 4.5t49 14t41 17t40.5 27t36.5 31t39.5 41t38.5 44t44.5 54t48 58.5zM981 1778q0 -35 -24.5 -59.5t-59.5 -24.5q-34 0 -59 24.5t-25 59.5t25 59.5t59 24.5q35 0 59.5 -24.5t24.5 -59.5zM588 1778
q0 -35 -24.5 -59.5t-59.5 -24.5q-34 0 -59 24.5t-25 59.5t25 59.5t59 24.5q35 0 59.5 -24.5t24.5 -59.5z" />
    <glyph glyph-name="Igrave" unicode="&#xcc;" horiz-adv-x="458" 
d="M256 0h-207v4q31 51 49 107t37 159l172 961q16 100 12.5 154t-24.5 110v4h207v-4q-31 -51 -49 -107t-37 -159l-172 -961q-16 -100 -12.5 -154t24.5 -110v-4zM618 1616l-10 -14l-467 247l84 115z" />
    <glyph glyph-name="Iacute" unicode="&#xcd;" horiz-adv-x="458" 
d="M256 0h-207v4q31 51 49 107t37 159l172 961q16 100 12.5 154t-24.5 110v4h207v-4q-31 -51 -49 -107t-37 -159l-172 -961q-16 -100 -12.5 -154t24.5 -110v-4zM219 1616l459 348l63 -117l-514 -245z" />
    <glyph glyph-name="Icircumflex" unicode="&#xce;" horiz-adv-x="458" 
d="M256 0h-207v4q31 51 49 107t37 159l172 961q16 100 12.5 154t-24.5 110v4h207v-4q-31 -51 -49 -107t-37 -159l-172 -961q-16 -100 -12.5 -154t24.5 -110v-4zM696 1602l-233 190l-340 -190l-8 14l362 319h8l226 -319z" />
    <glyph glyph-name="Idieresis" unicode="&#xcf;" horiz-adv-x="458" 
d="M694 1778q0 -35 -24.5 -59.5t-59.5 -24.5q-34 0 -59 24.5t-25 59.5t25 59.5t59 24.5q35 0 59.5 -24.5t24.5 -59.5zM346 1778q0 -35 -24.5 -59.5t-59.5 -24.5q-34 0 -59 24.5t-25 59.5t25 59.5t59 24.5q35 0 59.5 -24.5t24.5 -59.5zM256 0h-207v4q31 51 49 107t37 159
l172 961q16 100 12.5 154t-24.5 110v4h207v-4q-31 -51 -49 -107t-37 -159l-172 -961q-16 -100 -12.5 -154t24.5 -110v-4z" />
    <glyph glyph-name="Eth" unicode="&#xd0;" horiz-adv-x="1214" 
d="M66 733l8 37h170l84 461q16 100 12.5 154t-25.5 110v4q113 0 181.5 3t173.5 3q262 0 396 -149.5t134 -446.5q0 -187 -58 -353.5t-160.5 -289.5t-252.5 -194.5t-326 -71.5h-333v4q31 51 49 107t37 159l82 463h-172zM637 1466h-158l-127 -696h344l-8 -37h-342l-125 -698
l176 4q136 3 249.5 56t190.5 139.5t130 200.5t77.5 238.5t24.5 256.5q0 536 -432 536z" />
    <glyph glyph-name="Ntilde" unicode="&#xd1;" horiz-adv-x="1222" 
d="M934 -6l-565 1331l-179 -989q-22 -104 -17.5 -172t46.5 -160v-4h-207v4q64 92 87.5 153.5t45.5 178.5l150 827v-2q11 67 14 90t5.5 65t-4 63.5t-20 52t-38.5 63.5v4h164l547 -1290l172 954q22 104 17.5 172t-46.5 160v4h207v-4q-65 -93 -89 -155.5t-44 -176.5l-209 -1163
zM721 1835q46 0 92 -26t91 -52t87 -26q51 0 84.5 32t65.5 105l14 -2q-10 -36 -23.5 -68t-38.5 -71t-65.5 -62t-91.5 -23q-38 0 -76 16.5t-65 36t-62.5 36t-68.5 16.5q-51 0 -88 -33t-68 -104l-16 2q7 26 17.5 52.5t30 58.5t43.5 56t60.5 40t77.5 16z" />
    <glyph glyph-name="Ograve" unicode="&#xd2;" horiz-adv-x="1355" 
d="M1341 895q0 -182 -60 -352.5t-160 -296t-236.5 -201.5t-282.5 -76q-217 0 -355 178.5t-138 456.5q0 182 60 352.5t160 296t236.5 201.5t282.5 76q217 0 355 -178.5t138 -456.5zM240 565q0 -163 39.5 -286t126 -196t210.5 -73q137 0 251 77.5t188 207.5t114.5 295
t40.5 344q0 163 -39.5 286t-126 196t-210.5 73q-136 0 -250 -77.5t-188 -207t-115 -295t-41 -344.5zM1069 1616l-10 -14l-467 247l84 115z" />
    <glyph glyph-name="Oacute" unicode="&#xd3;" horiz-adv-x="1355" 
d="M1341 895q0 -182 -60 -352.5t-160 -296t-236.5 -201.5t-282.5 -76q-217 0 -355 178.5t-138 456.5q0 182 60 352.5t160 296t236.5 201.5t282.5 76q217 0 355 -178.5t138 -456.5zM240 565q0 -163 39.5 -286t126 -196t210.5 -73q137 0 251 77.5t188 207.5t114.5 295
t40.5 344q0 163 -39.5 286t-126 196t-210.5 73q-136 0 -250 -77.5t-188 -207t-115 -295t-41 -344.5zM670 1616l458 348l64 -117l-514 -245z" />
    <glyph glyph-name="Ocircumflex" unicode="&#xd4;" horiz-adv-x="1355" 
d="M1341 895q0 -182 -60 -352.5t-160 -296t-236.5 -201.5t-282.5 -76q-217 0 -355 178.5t-138 456.5q0 182 60 352.5t160 296t236.5 201.5t282.5 76q217 0 355 -178.5t138 -456.5zM240 565q0 -163 39.5 -286t126 -196t210.5 -73q137 0 251 77.5t188 207.5t114.5 295
t40.5 344q0 163 -39.5 286t-126 196t-210.5 73q-136 0 -250 -77.5t-188 -207t-115 -295t-41 -344.5zM1147 1602l-234 190l-340 -190l-8 14l363 319h8l225 -319z" />
    <glyph glyph-name="Otilde" unicode="&#xd5;" horiz-adv-x="1355" 
d="M1341 895q0 -182 -60 -352.5t-160 -296t-236.5 -201.5t-282.5 -76q-217 0 -355 178.5t-138 456.5q0 182 60 352.5t160 296t236.5 201.5t282.5 76q217 0 355 -178.5t138 -456.5zM240 565q0 -163 39.5 -286t126 -196t210.5 -73q137 0 251 77.5t188 207.5t114.5 295
t40.5 344q0 163 -39.5 286t-126 196t-210.5 73q-136 0 -250 -77.5t-188 -207t-115 -295t-41 -344.5zM780 1835q36 0 74 -16.5t64.5 -35.5t62.5 -35.5t70 -16.5q51 0 84 32t65 105l14 -2q-10 -36 -23.5 -68t-38.5 -71t-65.5 -62t-91.5 -23q-38 0 -76 16.5t-65 36t-62.5 36
t-68.5 16.5q-51 0 -88 -33t-68 -104l-16 2q7 26 17.5 52.5t30 58.5t43.5 56t60.5 40t77.5 16z" />
    <glyph glyph-name="Odieresis" unicode="&#xd6;" horiz-adv-x="1355" 
d="M1341 895q0 -182 -60 -352.5t-160 -296t-236.5 -201.5t-282.5 -76q-217 0 -355 178.5t-138 456.5q0 182 60 352.5t160 296t236.5 201.5t282.5 76q217 0 355 -178.5t138 -456.5zM240 565q0 -163 39.5 -286t126 -196t210.5 -73q137 0 251 77.5t188 207.5t114.5 295
t40.5 344q0 163 -39.5 286t-126 196t-210.5 73q-136 0 -250 -77.5t-188 -207t-115 -295t-41 -344.5zM1167 1778q0 -35 -24.5 -59.5t-59.5 -24.5q-34 0 -59 24.5t-25 59.5t25 59.5t59 24.5q35 0 59.5 -24.5t24.5 -59.5zM774 1778q0 -35 -24.5 -59.5t-59.5 -24.5
q-34 0 -59 24.5t-25 59.5t25 59.5t59 24.5q35 0 59.5 -24.5t24.5 -59.5z" />
    <glyph glyph-name="multiply" unicode="&#xd7;" horiz-adv-x="966" 
d="M852 250l-348 348l-348 -348l-31 31l348 348l-348 348l31 31l348 -349l348 349l31 -31l-348 -348l348 -348z" />
    <glyph glyph-name="Oslash" unicode="&#xd8;" horiz-adv-x="1355" 
d="M240 565q0 -222 71 -358l801 1132q-97 150 -278 150q-136 0 -250 -77.5t-188 -207t-115 -295t-41 -344.5zM616 10q137 0 251 77.5t188 207.5t114.5 295t40.5 344q0 224 -71 360l-803 -1132q100 -152 280 -152zM602 -31q-179 0 -311 129l-111 -157h-57l135 192
q-149 179 -149 471q0 182 60 352.5t160 296t236.5 201.5t282.5 76q179 0 309 -127l113 158h57l-137 -193q151 -181 151 -473q0 -182 -60 -352.5t-160 -296t-236.5 -201.5t-282.5 -76z" />
    <glyph glyph-name="Ugrave" unicode="&#xd9;" horiz-adv-x="1110" 
d="M516 -31q-68 0 -130 17.5t-116.5 55t-89 95.5t-48 139.5t6.5 186.5l140 768q16 100 12.5 154t-25.5 110v4h207v-4q-31 -51 -49 -107t-37 -159l-137 -760q-19 -122 -7 -208.5t55.5 -141.5t101.5 -80t130 -25q84 0 151 34t109 93t67.5 122.5t39.5 139.5l143 760
q23 107 19 173t-47 159v4h209v-4q-65 -92 -88.5 -154t-45.5 -178l-143 -760q-13 -67 -32.5 -125.5t-54.5 -117t-80 -99.5t-112.5 -66.5t-148.5 -25.5zM963 1616l-11 -14l-467 247l84 115z" />
    <glyph glyph-name="Uacute" unicode="&#xda;" horiz-adv-x="1110" 
d="M516 -31q-68 0 -130 17.5t-116.5 55t-89 95.5t-48 139.5t6.5 186.5l140 768q16 100 12.5 154t-25.5 110v4h207v-4q-31 -51 -49 -107t-37 -159l-137 -760q-19 -122 -7 -208.5t55.5 -141.5t101.5 -80t130 -25q84 0 151 34t109 93t67.5 122.5t39.5 139.5l143 760
q23 107 19 173t-47 159v4h209v-4q-65 -92 -88.5 -154t-45.5 -178l-143 -760q-13 -67 -32.5 -125.5t-54.5 -117t-80 -99.5t-112.5 -66.5t-148.5 -25.5zM563 1616l459 348l63 -117l-514 -245z" />
    <glyph glyph-name="Ucircumflex" unicode="&#xdb;" horiz-adv-x="1110" 
d="M516 -31q-68 0 -130 17.5t-116.5 55t-89 95.5t-48 139.5t6.5 186.5l140 768q16 100 12.5 154t-25.5 110v4h207v-4q-31 -51 -49 -107t-37 -159l-137 -760q-19 -122 -7 -208.5t55.5 -141.5t101.5 -80t130 -25q84 0 151 34t109 93t67.5 122.5t39.5 139.5l143 760
q23 107 19 173t-47 159v4h209v-4q-65 -92 -88.5 -154t-45.5 -178l-143 -760q-13 -67 -32.5 -125.5t-54.5 -117t-80 -99.5t-112.5 -66.5t-148.5 -25.5zM1040 1602l-233 190l-340 -190l-8 14l362 319h8l226 -319z" />
    <glyph glyph-name="Udieresis" unicode="&#xdc;" horiz-adv-x="1110" 
d="M516 -31q-68 0 -130 17.5t-116.5 55t-89 95.5t-48 139.5t6.5 186.5l140 768q16 100 12.5 154t-25.5 110v4h207v-4q-31 -51 -49 -107t-37 -159l-137 -760q-19 -122 -7 -208.5t55.5 -141.5t101.5 -80t130 -25q84 0 151 34t109 93t67.5 122.5t39.5 139.5l143 760
q23 107 19 173t-47 159v4h209v-4q-65 -92 -88.5 -154t-45.5 -178l-143 -760q-13 -67 -32.5 -125.5t-54.5 -117t-80 -99.5t-112.5 -66.5t-148.5 -25.5zM1059 1778q0 -35 -24.5 -59.5t-59.5 -24.5q-34 0 -59 24.5t-25 59.5t25 59.5t59 24.5q35 0 59.5 -24.5t24.5 -59.5z
M666 1778q0 -35 -24.5 -59.5t-59.5 -24.5q-34 0 -59 24.5t-25 59.5t25 59.5t59 24.5q35 0 59.5 -24.5t24.5 -59.5z" />
    <glyph glyph-name="Yacute" unicode="&#xdd;" horiz-adv-x="954" 
d="M262 0v4q54 80 78 140t43 163l70 385l-136 545q-27 105 -53 162.5t-65 95.5v4h252v-4q-62 -73 -21 -244l119 -510l282 467q107 177 31 287v4h234v-4q-44 -46 -68 -73t-59 -75t-70 -106l-340 -559l-65 -375q-19 -104 -16 -164t32 -139l-2 -4h-246zM475 1616l459 348
l63 -117l-514 -245z" />
    <glyph glyph-name="Thorn" unicode="&#xde;" horiz-adv-x="1015" 
d="M49 0v4q31 51 49 107t37 159l172 961q16 100 12.5 154t-24.5 110v4h207v-4q-31 -51 -49 -107t-37 -159l-15 -78h213q402 0 402 -317q0 -138 -71.5 -240t-195 -153.5t-282.5 -51.5h-201l-22 -121q-16 -100 -12.5 -154t24.5 -110v-4h-207zM584 1110q-126 0 -191 -6
l-121 -674h211q90 0 161 23t116.5 61.5t75 93t41.5 113.5t12 127q0 66 -13 111.5t-45.5 81t-93.5 52.5t-153 17z" />
    <glyph glyph-name="germandbls" unicode="&#xdf;" horiz-adv-x="974" 
d="M109 -338h-103l273 1274h-113l8 37h113l28 131q52 246 171 378t276 132q117 0 183.5 -67.5t66.5 -176.5q0 -61 -22.5 -114.5t-59 -92t-80.5 -73.5t-88 -67t-80.5 -64t-59 -72.5t-22.5 -85.5q0 -51 31 -102t75 -97t88.5 -95.5t75.5 -118t31 -144.5q0 -130 -79.5 -202.5
t-203.5 -72.5q-143 0 -233 78l-6 232l16 4q46 -136 113 -206.5t143 -70.5q71 0 119.5 53.5t48.5 137.5q0 60 -30.5 115.5t-74 101t-87.5 92.5t-74.5 108.5t-30.5 130.5q0 58 21.5 107t56.5 84t76.5 67.5t83.5 66.5t77 72.5t56.5 93.5t21.5 122q0 42 -8.5 78.5t-27 69.5
t-53 52t-81.5 19q-103 0 -186.5 -93t-122.5 -290z" />
    <glyph glyph-name="agrave" unicode="&#xe0;" horiz-adv-x="894" 
d="M266 59q49 0 100 36.5t91.5 88t86 131t74.5 141t64 142.5l76 287q-48 71 -148 71q-91 0 -177.5 -66.5t-146.5 -169t-96 -226t-36 -236.5q0 -199 112 -199zM520 -18l119 432q-92 -202 -199.5 -323.5t-226.5 -121.5q-79 0 -125.5 65.5t-46.5 192.5q0 190 87.5 370
t234.5 293.5t307 113.5q95 0 161 -37l50 37h8l-205 -783q-11 -40 -15 -60t-5.5 -45t6 -38.5t23 -28t42.5 -26.5v-3zM776 1104l-16 -12l-299 364l112 78z" />
    <glyph glyph-name="aacute" unicode="&#xe1;" horiz-adv-x="894" 
d="M266 59q49 0 100 36.5t91.5 88t86 131t74.5 141t64 142.5l76 287q-48 71 -148 71q-91 0 -177.5 -66.5t-146.5 -169t-96 -226t-36 -236.5q0 -199 112 -199zM520 -18l119 432q-92 -202 -199.5 -323.5t-226.5 -121.5q-79 0 -125.5 65.5t-46.5 192.5q0 190 87.5 370
t234.5 293.5t307 113.5q95 0 161 -37l50 37h8l-205 -783q-11 -40 -15 -60t-5.5 -45t6 -38.5t23 -28t42.5 -26.5v-3zM471 1104l324 430l86 -90l-400 -352z" />
    <glyph glyph-name="acircumflex" unicode="&#xe2;" horiz-adv-x="894" 
d="M266 59q49 0 100 36.5t91.5 88t86 131t74.5 141t64 142.5l76 287q-48 71 -148 71q-91 0 -177.5 -66.5t-146.5 -169t-96 -226t-36 -236.5q0 -199 112 -199zM520 -18l119 432q-92 -202 -199.5 -323.5t-226.5 -121.5q-79 0 -125.5 65.5t-46.5 192.5q0 190 87.5 370
t234.5 293.5t307 113.5q95 0 161 -37l50 37h8l-205 -783q-11 -40 -15 -60t-5.5 -45t6 -38.5t23 -28t42.5 -26.5v-3zM844 1106l-187 217l-295 -217l-10 12l322 355h6l180 -355z" />
    <glyph glyph-name="atilde" unicode="&#xe3;" horiz-adv-x="894" 
d="M266 59q49 0 100 36.5t91.5 88t86 131t74.5 141t64 142.5l76 287q-48 71 -148 71q-91 0 -177.5 -66.5t-146.5 -169t-96 -226t-36 -236.5q0 -199 112 -199zM520 -18l119 432q-92 -202 -199.5 -323.5t-226.5 -121.5q-79 0 -125.5 65.5t-46.5 192.5q0 190 87.5 370
t234.5 293.5t307 113.5q95 0 161 -37l50 37h8l-205 -783q-11 -40 -15 -60t-5.5 -45t6 -38.5t23 -28t42.5 -26.5v-3zM555 1389q49 0 124.5 -34t119.5 -34q45 0 74 23t55 73l14 -2q-51 -194 -194 -194q-48 0 -123 33.5t-121 33.5q-45 0 -74 -23t-55 -73l-15 2q52 195 195 195z
" />
    <glyph glyph-name="adieresis" unicode="&#xe4;" horiz-adv-x="894" 
d="M266 59q49 0 100 36.5t91.5 88t86 131t74.5 141t64 142.5l76 287q-48 71 -148 71q-91 0 -177.5 -66.5t-146.5 -169t-96 -226t-36 -236.5q0 -199 112 -199zM520 -18l119 432q-92 -202 -199.5 -323.5t-226.5 -121.5q-79 0 -125.5 65.5t-46.5 192.5q0 190 87.5 370
t234.5 293.5t307 113.5q95 0 161 -37l50 37h8l-205 -783q-11 -40 -15 -60t-5.5 -45t6 -38.5t23 -28t42.5 -26.5v-3zM565 1350q0 -35 -24.5 -59.5t-59.5 -24.5q-34 0 -59 24.5t-25 59.5t25 59.5t59 24.5q35 0 59.5 -24.5t24.5 -59.5zM918 1350q0 -35 -24.5 -59.5t-59.5 -24.5
q-34 0 -59 24.5t-25 59.5t25 59.5t59 24.5q35 0 59.5 -24.5t24.5 -59.5z" />
    <glyph glyph-name="aring" unicode="&#xe5;" horiz-adv-x="894" 
d="M266 59q49 0 100 36.5t91.5 88t86 131t74.5 141t64 142.5l76 287q-48 71 -148 71q-91 0 -177.5 -66.5t-146.5 -169t-96 -226t-36 -236.5q0 -199 112 -199zM520 -18l119 432q-92 -202 -199.5 -323.5t-226.5 -121.5q-79 0 -125.5 65.5t-46.5 192.5q0 190 87.5 370
t234.5 293.5t307 113.5q95 0 161 -37l50 37h8l-205 -783q-11 -40 -15 -60t-5.5 -45t6 -38.5t23 -28t42.5 -26.5v-3zM459 1292q0 75 48.5 124.5t123.5 49.5t123.5 -49.5t48.5 -124.5t-48.5 -122.5t-123.5 -47.5t-123.5 47.5t-48.5 122.5zM516 1292q0 -63 29.5 -99t85.5 -36
t85 36t29 99q0 64 -28.5 102t-85.5 38t-86 -38t-29 -102z" />
    <glyph glyph-name="ae" unicode="&#xe6;" horiz-adv-x="1310" 
d="M1124 967q-104 0 -201 -90t-151 -238q461 43 461 229q0 48 -27.5 73.5t-81.5 25.5zM258 59q52 0 108 47t108 128t93.5 161t81.5 174q49 136 133 236q-18 62 -63.5 106.5t-116.5 44.5q-83 0 -166.5 -66.5t-144.5 -168.5t-99 -226.5t-38 -236.5q0 -199 104 -199zM1200 215
q-53 -111 -140 -178.5t-188 -67.5q-123 0 -194.5 96.5t-71.5 256.5q0 21 4 71q-88 -189 -193.5 -306.5t-209.5 -117.5q-75 0 -120.5 66t-45.5 192q0 141 53.5 283.5t138.5 250t197 175.5t223 68q140 0 215 -113q132 113 283 113q80 0 130 -34.5t50 -103.5q0 -52 -29.5 -95.5
t-93 -80.5t-177 -57t-267.5 -19q-39 -119 -39 -254q0 -309 199 -309q137 0 256 174z" />
    <glyph glyph-name="ccedilla" unicode="&#xe7;" horiz-adv-x="765" 
d="M12 -522v16q115 27 183.5 81t68.5 124q0 102 -147 115v4l129 164q-99 32 -152 130t-53 238q0 164 69.5 315t189 245t255.5 94q100 0 178 -54l17 -200l-21 -5q-22 50 -41.5 85t-45.5 68.5t-57.5 51t-68.5 17.5q-43 0 -91 -23.5t-95 -72t-85 -114.5t-61.5 -160.5
t-23.5 -201.5q0 -167 57 -252.5t168 -85.5q72 0 138.5 47t129.5 175l21 -9q-45 -138 -132 -219.5t-208 -81.5q-17 0 -41 4l-74 -92q133 -34 133 -149q0 -103 -95 -169.5t-245 -84.5z" />
    <glyph glyph-name="egrave" unicode="&#xe8;" horiz-adv-x="745" 
d="M565 967q-106 0 -204.5 -89.5t-153.5 -238.5q461 43 461 229q0 48 -26 73.5t-77 25.5zM635 215q-53 -111 -140 -178.5t-188 -67.5q-123 0 -194.5 96.5t-71.5 256.5q0 124 44.5 248t117.5 219.5t174.5 155t208.5 59.5q79 0 129.5 -35t50.5 -103q0 -52 -29.5 -96t-93 -80.5
t-177 -56.5t-267.5 -19q-39 -119 -39 -254q0 -309 198 -309q137 0 256 174zM627 1104l-17 -12l-299 364l113 78z" />
    <glyph glyph-name="eacute" unicode="&#xe9;" horiz-adv-x="745" 
d="M565 967q-106 0 -204.5 -89.5t-153.5 -238.5q461 43 461 229q0 48 -26 73.5t-77 25.5zM635 215q-53 -111 -140 -178.5t-188 -67.5q-123 0 -194.5 96.5t-71.5 256.5q0 124 44.5 248t117.5 219.5t174.5 155t208.5 59.5q79 0 129.5 -35t50.5 -103q0 -52 -29.5 -96t-93 -80.5
t-177 -56.5t-267.5 -19q-39 -119 -39 -254q0 -309 198 -309q137 0 256 174zM446 1104l324 430l86 -90l-399 -352z" />
    <glyph glyph-name="ecircumflex" unicode="&#xea;" horiz-adv-x="745" 
d="M565 967q-106 0 -204.5 -89.5t-153.5 -238.5q461 43 461 229q0 48 -26 73.5t-77 25.5zM635 215q-53 -111 -140 -178.5t-188 -67.5q-123 0 -194.5 96.5t-71.5 256.5q0 124 44.5 248t117.5 219.5t174.5 155t208.5 59.5q79 0 129.5 -35t50.5 -103q0 -52 -29.5 -96t-93 -80.5
t-177 -56.5t-267.5 -19q-39 -119 -39 -254q0 -309 198 -309q137 0 256 174zM772 1106l-186 217l-295 -217l-10 12l321 355h6l180 -355z" />
    <glyph glyph-name="edieresis" unicode="&#xeb;" horiz-adv-x="745" 
d="M565 967q-106 0 -204.5 -89.5t-153.5 -238.5q461 43 461 229q0 48 -26 73.5t-77 25.5zM635 215q-53 -111 -140 -178.5t-188 -67.5q-123 0 -194.5 96.5t-71.5 256.5q0 124 44.5 248t117.5 219.5t174.5 155t208.5 59.5q79 0 129.5 -35t50.5 -103q0 -52 -29.5 -96t-93 -80.5
t-177 -56.5t-267.5 -19q-39 -119 -39 -254q0 -309 198 -309q137 0 256 174zM459 1350q0 -35 -24.5 -59.5t-59.5 -24.5q-34 0 -59 24.5t-25 59.5t25 59.5t59 24.5q35 0 59.5 -24.5t24.5 -59.5zM811 1350q0 -35 -24.5 -59.5t-59.5 -24.5q-34 0 -59 24.5t-25 59.5t25 59.5
t59 24.5q35 0 59.5 -24.5t24.5 -59.5z" />
    <glyph glyph-name="igrave" unicode="&#xec;" 
d="M14 0v4q36 62 57 131t48 199l71 364q33 152 -36 244v4l213 68l-144 -674q-30 -144 -35 -209.5t11 -126.5v-4h-185zM393 1104l-16 -12l-299 364l112 78z" />
    <glyph glyph-name="iacute" unicode="&#xed;" 
d="M14 0v4q36 62 57 131t48 199l71 364q33 152 -36 244v4l213 68l-144 -674q-30 -144 -35 -209.5t11 -126.5v-4h-185zM193 1104l323 430l86 -90l-399 -352z" />
    <glyph glyph-name="icircumflex" unicode="&#xee;" 
d="M14 0v4q36 62 57 131t48 199l71 364q33 152 -36 244v4l213 68l-144 -674q-30 -144 -35 -209.5t11 -126.5v-4h-185zM545 1106l-187 217l-295 -217l-10 12l322 355h6l180 -355z" />
    <glyph glyph-name="idieresis" unicode="&#xef;" 
d="M289 1350q0 -35 -24.5 -59.5t-59.5 -24.5q-34 0 -59 24.5t-25 59.5t25 59.5t59 24.5q35 0 59.5 -24.5t24.5 -59.5zM555 1350q0 -35 -24.5 -59.5t-59.5 -24.5q-34 0 -59 24.5t-25 59.5t25 59.5t59 24.5q35 0 59.5 -24.5t24.5 -59.5zM14 0v4q36 62 57 131t48 199l71 364
q33 152 -36 244v4l213 68l-144 -674q-30 -144 -35 -209.5t11 -126.5v-4h-185z" />
    <glyph glyph-name="eth" unicode="&#xf0;" horiz-adv-x="833" 
d="M319 -31q-125 0 -201.5 97t-76.5 264q0 124 39.5 246.5t104.5 216.5t155 152.5t186 58.5q66 0 133 -23q-28 194 -122 340l-273 -127l-12 33l266 123q-102 145 -250 225l11 18q174 -78 294 -217l228 107l12 -33l-215 -100q103 -131 152 -295.5t49 -339.5
q0 -162 -40 -303.5t-107 -237.5t-153.5 -150.5t-179.5 -54.5zM160 309q0 -303 168 -303q67 0 130.5 48t112.5 131t79 205t30 261q0 156 -40 236t-128 80q-67 0 -130.5 -48.5t-112.5 -133t-79 -209.5t-30 -267z" />
    <glyph glyph-name="ntilde" unicode="&#xf1;" horiz-adv-x="954" 
d="M594 -18l166 751q20 75 0 133t-80 58q-86 0 -204.5 -143t-248.5 -439l-20 -90q-18 -83 -20 -134.5t14 -113.5v-4h-181v4q9 14 17 27.5t15.5 32t13 30t12 35.5t9.5 33.5t10 40t8.5 39t9.5 46t10 46.5l78 364q33 151 -37 244v4l205 68l-119 -537q105 237 231.5 382
t249.5 145q87 0 120.5 -74t4.5 -203l-110 -491q-29 -115 -14 -164t95 -56v-4zM512 1389q49 0 124.5 -34t119.5 -34q45 0 74 23t55 73l14 -2q-51 -194 -194 -194q-49 0 -123.5 33.5t-120.5 33.5q-45 0 -74 -23t-55 -73l-15 2q52 195 195 195z" />
    <glyph glyph-name="ograve" unicode="&#xf2;" horiz-adv-x="839" 
d="M799 647q0 -166 -67 -323.5t-179 -256t-234 -98.5q-124 0 -201 95.5t-77 261.5t67 323.5t178.5 256t233.5 98.5q124 0 201.5 -95.5t77.5 -261.5zM160 309q0 -303 168 -303q67 0 130.5 48.5t112.5 132.5t79 209t30 268q0 303 -168 303q-67 0 -130.5 -48.5t-112.5 -132.5
t-79 -209t-30 -268zM610 1104l-16 -12l-299 364l113 78z" />
    <glyph glyph-name="oacute" unicode="&#xf3;" horiz-adv-x="839" 
d="M799 647q0 -166 -67 -323.5t-179 -256t-234 -98.5q-124 0 -201 95.5t-77 261.5t67 323.5t178.5 256t233.5 98.5q124 0 201.5 -95.5t77.5 -261.5zM160 309q0 -303 168 -303q67 0 130.5 48.5t112.5 132.5t79 209t30 268q0 303 -168 303q-67 0 -130.5 -48.5t-112.5 -132.5
t-79 -209t-30 -268zM410 1104l323 430l86 -90l-399 -352z" />
    <glyph glyph-name="ocircumflex" unicode="&#xf4;" horiz-adv-x="839" 
d="M799 647q0 -166 -67 -323.5t-179 -256t-234 -98.5q-124 0 -201 95.5t-77 261.5t67 323.5t178.5 256t233.5 98.5q124 0 201.5 -95.5t77.5 -261.5zM160 309q0 -303 168 -303q67 0 130.5 48.5t112.5 132.5t79 209t30 268q0 303 -168 303q-67 0 -130.5 -48.5t-112.5 -132.5
t-79 -209t-30 -268zM762 1106l-187 217l-294 -217l-11 12l322 355h6l180 -355z" />
    <glyph glyph-name="otilde" unicode="&#xf5;" horiz-adv-x="839" 
d="M799 647q0 -166 -67 -323.5t-179 -256t-234 -98.5q-124 0 -201 95.5t-77 261.5t67 323.5t178.5 256t233.5 98.5q124 0 201.5 -95.5t77.5 -261.5zM160 309q0 -303 168 -303q67 0 130.5 48.5t112.5 132.5t79 209t30 268q0 303 -168 303q-67 0 -130.5 -48.5t-112.5 -132.5
t-79 -209t-30 -268zM477 1389q49 0 124.5 -34t119.5 -34q45 0 74 23t55 73l14 -2q-51 -194 -194 -194q-48 0 -123 33.5t-121 33.5q-45 0 -74 -23t-55 -73l-14 2q52 195 194 195z" />
    <glyph glyph-name="odieresis" unicode="&#xf6;" horiz-adv-x="839" 
d="M799 647q0 -166 -67 -323.5t-179 -256t-234 -98.5q-124 0 -201 95.5t-77 261.5t67 323.5t178.5 256t233.5 98.5q124 0 201.5 -95.5t77.5 -261.5zM160 309q0 -303 168 -303q67 0 130.5 48.5t112.5 132.5t79 209t30 268q0 303 -168 303q-67 0 -130.5 -48.5t-112.5 -132.5
t-79 -209t-30 -268zM463 1350q0 -35 -24.5 -59.5t-59.5 -24.5q-34 0 -59 24.5t-25 59.5t25 59.5t59 24.5q35 0 59.5 -24.5t24.5 -59.5zM815 1350q0 -35 -24.5 -59.5t-59.5 -24.5q-34 0 -59 24.5t-25 59.5t25 59.5t59 24.5q35 0 59.5 -24.5t24.5 -59.5z" />
    <glyph glyph-name="divide" unicode="&#xf7;" horiz-adv-x="1089" 
d="M1038 610h-905v41h905v-41zM551 193q-39 0 -67.5 28.5t-28.5 67.5t28.5 67.5t67.5 28.5q40 0 68 -28t28 -68t-28 -68t-68 -28zM551 877q-39 0 -67.5 28.5t-28.5 67.5t28.5 67.5t67.5 28.5q40 0 68 -28t28 -68t-28 -68t-68 -28z" />
    <glyph glyph-name="oslash" unicode="&#xf8;" horiz-adv-x="839" 
d="M799 647q0 -166 -67 -323.5t-179 -256t-234 -98.5q-108 0 -180 72l-123 -178h-55l148 215q-68 93 -68 248q0 166 67 323.5t178.5 256t233.5 98.5q106 0 178 -72l125 182h56l-150 -217q70 -99 70 -250zM680 664q0 82 -12 143l-482 -696q42 -105 142 -105q67 0 130.5 48.5
t112.5 132.5t79 209t30 268zM160 309q0 -90 10 -141l481 696q-42 103 -139 103q-67 0 -130.5 -48.5t-112.5 -132.5t-79 -209t-30 -268z" />
    <glyph glyph-name="ugrave" unicode="&#xf9;" horiz-adv-x="909" 
d="M532 -18l117 436q-90 -198 -202.5 -323.5t-227.5 -125.5q-89 0 -135.5 74t-9.5 217l135 518q39 150 -66 191v4h211l-182 -715q-25 -104 0 -151.5t86 -47.5q108 0 231 162.5t222 429.5l32 125q40 152 -63 193v4h215l-197 -752q-26 -81 -18.5 -125t70.5 -73v-3zM629 1104
l-17 -12l-299 364l113 78z" />
    <glyph glyph-name="uacute" unicode="&#xfa;" horiz-adv-x="909" 
d="M532 -18l117 436q-90 -198 -202.5 -323.5t-227.5 -125.5q-89 0 -135.5 74t-9.5 217l135 518q39 150 -66 191v4h211l-182 -715q-25 -104 0 -151.5t86 -47.5q108 0 231 162.5t222 429.5l32 125q40 152 -63 193v4h215l-197 -752q-26 -81 -18.5 -125t70.5 -73v-3zM469 1104
l324 430l86 -90l-400 -352z" />
    <glyph glyph-name="ucircumflex" unicode="&#xfb;" horiz-adv-x="909" 
d="M532 -18l117 436q-90 -198 -202.5 -323.5t-227.5 -125.5q-89 0 -135.5 74t-9.5 217l135 518q39 150 -66 191v4h211l-182 -715q-25 -104 0 -151.5t86 -47.5q108 0 231 162.5t222 429.5l32 125q40 152 -63 193v4h215l-197 -752q-26 -81 -18.5 -125t70.5 -73v-3zM801 1106
l-187 217l-295 -217l-10 12l322 355h6l180 -355z" />
    <glyph glyph-name="udieresis" unicode="&#xfc;" horiz-adv-x="909" 
d="M532 -18l117 436q-90 -198 -202.5 -323.5t-227.5 -125.5q-89 0 -135.5 74t-9.5 217l135 518q39 150 -66 191v4h211l-182 -715q-25 -104 0 -151.5t86 -47.5q108 0 231 162.5t222 429.5l32 125q40 152 -63 193v4h215l-197 -752q-26 -81 -18.5 -125t70.5 -73v-3zM502 1350
q0 -35 -24.5 -59.5t-59.5 -24.5q-34 0 -59 24.5t-25 59.5t25 59.5t59 24.5q35 0 59.5 -24.5t24.5 -59.5zM854 1350q0 -35 -24.5 -59.5t-59.5 -24.5q-34 0 -59 24.5t-25 59.5t25 59.5t59 24.5q35 0 59.5 -24.5t24.5 -59.5z" />
    <glyph glyph-name="yacute" unicode="&#xfd;" horiz-adv-x="741" 
d="M-211 -461l29 139q48 1 82 6t77.5 24t81.5 52.5t84 93.5t95 146l-62 723q-11 130 -24 168t-64 78v4h174l66 -807l247 477q38 73 56.5 117t25 86t-9 70t-53.5 53v4h209v-4l-520 -969q-61 -116 -119 -200t-104 -131t-97 -76t-87.5 -38.5t-86.5 -15.5zM412 1104l323 430
l86 -90l-399 -352z" />
    <glyph glyph-name="thorn" unicode="&#xfe;" horiz-adv-x="915" 
d="M375 6q88 0 162.5 64t121 165t72 218t25.5 229q0 252 -144 252q-39 0 -80 -22t-89.5 -72t-101 -147t-103.5 -232l-25 -115q-15 -100 -10 -166t33.5 -104.5t62.5 -54t76 -15.5zM90 -457v-4h-180v4q11 15 20 33t15.5 32.5t14.5 38.5t12 36.5t11 43.5t9.5 43t10.5 51t11 52
l297 1407q20 101 12 149t-49 95v4l205 67l-205 -964q159 373 383 373q217 0 217 -316q0 -138 -38 -268.5t-104 -230t-161.5 -160t-203.5 -60.5q-145 0 -211 111l-43 -203q-30 -141 -35 -207.5t12 -126.5z" />
    <glyph glyph-name="ydieresis" unicode="&#xff;" horiz-adv-x="741" 
d="M-211 -461l29 139q48 1 82 6t77.5 24t81.5 52.5t84 93.5t95 146l-62 723q-11 130 -24 168t-64 78v4h174l66 -807l247 477q38 73 56.5 117t25 86t-9 70t-53.5 53v4h209v-4l-520 -969q-61 -116 -119 -200t-104 -131t-97 -76t-87.5 -38.5t-86.5 -15.5zM385 1350
q0 -35 -24.5 -59.5t-59.5 -24.5q-34 0 -59 24.5t-25 59.5t25 59.5t59 24.5q35 0 59.5 -24.5t24.5 -59.5zM737 1350q0 -35 -24.5 -59.5t-59.5 -24.5q-34 0 -59 24.5t-25 59.5t25 59.5t59 24.5q35 0 59.5 -24.5t24.5 -59.5z" />
    <glyph glyph-name="Amacron" unicode="&#x100;" horiz-adv-x="952" 
d="M676 606l-64 717l-327 -717h391zM139 4v-4h-250v4q71 58 110 113.5t97 179.5l566 1216h38l115 -1263q8 -101 26.5 -148t59.5 -98v-4h-264v4q46 42 62 103t8 153l-27 305h-414l-116 -254q-41 -92 -43 -179t32 -128zM420 1716l14 72h520l-14 -72h-520z" />
    <glyph glyph-name="amacron" unicode="&#x101;" horiz-adv-x="894" 
d="M266 59q49 0 100 36.5t91.5 88t86 131t74.5 141t64 142.5l76 287q-48 71 -148 71q-91 0 -177.5 -66.5t-146.5 -169t-96 -226t-36 -236.5q0 -199 112 -199zM520 -18l119 432q-92 -202 -199.5 -323.5t-226.5 -121.5q-79 0 -125.5 65.5t-46.5 192.5q0 190 87.5 370
t234.5 293.5t307 113.5q95 0 161 -37l50 37h8l-205 -783q-11 -40 -15 -60t-5.5 -45t6 -38.5t23 -28t42.5 -26.5v-3zM356 1249l15 72h493l-16 -72h-492z" />
    <glyph glyph-name="Abreve" unicode="&#x102;" horiz-adv-x="952" 
d="M676 606l-64 717l-327 -717h391zM139 4v-4h-250v4q71 58 110 113.5t97 179.5l566 1216h38l115 -1263q8 -101 26.5 -148t59.5 -98v-4h-264v4q46 42 62 103t8 153l-27 305h-414l-116 -254q-41 -92 -43 -179t32 -128zM696 1733q196 0 262 165h15q-8 -44 -25.5 -85.5
t-49.5 -83.5t-86.5 -67.5t-123.5 -25.5q-56 0 -99.5 18t-68.5 45.5t-40.5 63.5t-20.5 69t-4 66h14q20 -87 76 -126t151 -39z" />
    <glyph glyph-name="abreve" unicode="&#x103;" horiz-adv-x="894" 
d="M266 59q49 0 100 36.5t91.5 88t86 131t74.5 141t64 142.5l76 287q-48 71 -148 71q-91 0 -177.5 -66.5t-146.5 -169t-96 -226t-36 -236.5q0 -199 112 -199zM520 -18l119 432q-92 -202 -199.5 -323.5t-226.5 -121.5q-79 0 -125.5 65.5t-46.5 192.5q0 190 87.5 370
t234.5 293.5t307 113.5q95 0 161 -37l50 37h8l-205 -783q-11 -40 -15 -60t-5.5 -45t6 -38.5t23 -28t42.5 -26.5v-3zM643 1257q168 0 223 162h17q-5 -42 -21 -82.5t-44.5 -80t-77.5 -63.5t-111 -24q-48 0 -86 16.5t-60.5 42t-36.5 59.5t-18.5 67t-1.5 65h16q10 -78 63 -120
t138 -42z" />
    <glyph glyph-name="Aogonek" unicode="&#x104;" horiz-adv-x="952" 
d="M508 -502q-69 0 -109.5 39t-40.5 111q0 104 68.5 187.5t173.5 144.5q86 50 105 159q10 52 2 121l-27 305h-414l-116 -254q-41 -92 -43 -179t32 -128v-4h-250v4q71 58 110 113.5t97 179.5l566 1216h38l115 -1263q8 -101 26.5 -148t59.5 -98v-4h-215
q-112 -60 -170.5 -143.5t-58.5 -167.5q0 -111 102 -111q109 0 182 119l13 -8q-21 -40 -42 -69.5t-51 -59.5t-69 -46t-84 -16zM676 606l-62 719l-329 -719h391z" />
    <glyph glyph-name="aogonek" unicode="&#x105;" horiz-adv-x="894" 
d="M406 -502q-69 0 -109.5 39t-40.5 111q0 107 74.5 199t191.5 145l117 422q-92 -202 -199.5 -323.5t-226.5 -121.5q-79 0 -125.5 65.5t-46.5 192.5q0 190 87.5 370t234.5 293.5t307 113.5q95 0 161 -37l50 37h8l-205 -783q-11 -40 -15 -60t-5.5 -45t6 -38.5t23 -28
t42.5 -26.5v-3q-95 -10 -151 -30q-97 -37 -163.5 -125.5t-66.5 -181.5q0 -51 27.5 -78t75.5 -27q107 0 182 119l12 -8q-21 -40 -42 -69.5t-50.5 -59.5t-68.5 -46t-84 -16zM266 59q49 0 100 36.5t91.5 88t86 131t74.5 141t64 142.5l76 287q-48 71 -148 71q-91 0 -177.5 -66.5
t-146.5 -169t-96 -226t-36 -236.5q0 -199 112 -199z" />
    <glyph glyph-name="Cacute" unicode="&#x106;" horiz-adv-x="1224" 
d="M1157 408l-82 -299q-59 -48 -179.5 -94t-264.5 -46q-257 0 -389.5 173t-132.5 472q0 178 56 345t152.5 293t237 202t299.5 76q115 0 218.5 -37.5t148.5 -71.5l22 -284l-16 -4q-74 189 -172.5 272.5t-229.5 83.5q-92 0 -174 -36t-145.5 -99.5t-114 -150t-83.5 -188.5
t-50.5 -213.5t-17.5 -226.5q0 -161 43 -286.5t134 -202t218 -76.5q154 0 271 101.5t231 300.5zM618 1616l459 348l64 -117l-514 -245z" />
    <glyph glyph-name="cacute" unicode="&#x107;" horiz-adv-x="765" 
d="M653 279l21 -9q-45 -138 -132 -219.5t-208 -81.5q-140 0 -216.5 106t-76.5 275q0 164 69.5 315t189 245t255.5 94q100 0 178 -54l17 -200l-21 -5q-22 50 -41.5 85t-45.5 68.5t-57.5 51t-68.5 17.5q-43 0 -91 -23.5t-95 -72t-85 -114.5t-61.5 -160.5t-23.5 -201.5
q0 -167 57 -252.5t168 -85.5q72 0 138.5 47t129.5 175zM399 1104l324 430l86 -90l-399 -352z" />
    <glyph glyph-name="Ccircumflex" unicode="&#x108;" horiz-adv-x="1224" 
d="M1157 408l-82 -299q-59 -48 -179.5 -94t-264.5 -46q-257 0 -389.5 173t-132.5 472q0 178 56 345t152.5 293t237 202t299.5 76q115 0 218.5 -37.5t148.5 -71.5l22 -284l-16 -4q-74 189 -172.5 272.5t-229.5 83.5q-92 0 -174 -36t-145.5 -99.5t-114 -150t-83.5 -188.5
t-50.5 -213.5t-17.5 -226.5q0 -161 43 -286.5t134 -202t218 -76.5q154 0 271 101.5t231 300.5zM1137 1602l-234 190l-340 -190l-8 14l363 319h8l225 -319z" />
    <glyph glyph-name="ccircumflex" unicode="&#x109;" horiz-adv-x="765" 
d="M653 279l21 -9q-45 -138 -132 -219.5t-208 -81.5q-140 0 -216.5 106t-76.5 275q0 164 69.5 315t189 245t255.5 94q100 0 178 -54l17 -200l-21 -5q-22 50 -41.5 85t-45.5 68.5t-57.5 51t-68.5 17.5q-43 0 -91 -23.5t-95 -72t-85 -114.5t-61.5 -160.5t-23.5 -201.5
q0 -167 57 -252.5t168 -85.5q72 0 138.5 47t129.5 175zM772 1106l-186 217l-295 -217l-10 12l321 355h6l180 -355z" />
    <glyph glyph-name="Cdotaccent" unicode="&#x10a;" horiz-adv-x="1224" 
d="M1157 408l-82 -299q-59 -48 -179.5 -94t-264.5 -46q-257 0 -389.5 173t-132.5 472q0 178 56 345t152.5 293t237 202t299.5 76q115 0 218.5 -37.5t148.5 -71.5l22 -284l-16 -4q-74 189 -172.5 272.5t-229.5 83.5q-92 0 -174 -36t-145.5 -99.5t-114 -150t-83.5 -188.5
t-50.5 -213.5t-17.5 -226.5q0 -161 43 -286.5t134 -202t218 -76.5q154 0 271 101.5t231 300.5zM930 1778q0 -35 -24.5 -59.5t-59.5 -24.5q-34 0 -59 24.5t-25 59.5t25 59.5t59 24.5q35 0 59.5 -24.5t24.5 -59.5z" />
    <glyph glyph-name="cdotaccent" unicode="&#x10b;" horiz-adv-x="765" 
d="M653 279l21 -9q-45 -138 -132 -219.5t-208 -81.5q-140 0 -216.5 106t-76.5 275q0 164 69.5 315t189 245t255.5 94q100 0 178 -54l17 -200l-21 -5q-22 50 -41.5 85t-45.5 68.5t-57.5 51t-68.5 17.5q-43 0 -91 -23.5t-95 -72t-85 -114.5t-61.5 -160.5t-23.5 -201.5
q0 -167 57 -252.5t168 -85.5q72 0 138.5 47t129.5 175zM621 1350q0 -35 -24.5 -59.5t-59.5 -24.5q-34 0 -59 24.5t-25 59.5t25 59.5t59 24.5q35 0 59.5 -24.5t24.5 -59.5z" />
    <glyph glyph-name="Ccaron" unicode="&#x10c;" horiz-adv-x="1224" 
d="M1157 408l-82 -299q-59 -48 -179.5 -94t-264.5 -46q-257 0 -389.5 173t-132.5 472q0 178 56 345t152.5 293t237 202t299.5 76q115 0 218.5 -37.5t148.5 -71.5l22 -284l-16 -4q-74 189 -172.5 272.5t-229.5 83.5q-92 0 -174 -36t-145.5 -99.5t-114 -150t-83.5 -188.5
t-50.5 -213.5t-17.5 -226.5q0 -161 43 -286.5t134 -202t218 -76.5q154 0 271 101.5t231 300.5zM829 1602h-8l-225 319l14 14l234 -190l340 190l8 -14z" />
    <glyph glyph-name="ccaron" unicode="&#x10d;" horiz-adv-x="765" 
d="M653 279l21 -9q-45 -138 -132 -219.5t-208 -81.5q-140 0 -216.5 106t-76.5 275q0 164 69.5 315t189 245t255.5 94q100 0 178 -54l17 -200l-21 -5q-22 50 -41.5 85t-45.5 68.5t-57.5 51t-68.5 17.5q-43 0 -91 -23.5t-95 -72t-85 -114.5t-61.5 -160.5t-23.5 -201.5
q0 -167 57 -252.5t168 -85.5q72 0 138.5 47t129.5 175zM508 1106h-6l-180 354l16 13l186 -218l295 218l10 -13z" />
    <glyph glyph-name="Dcaron" unicode="&#x10e;" horiz-adv-x="1193" 
d="M49 0v4q31 51 49 107t37 159l172 961q16 100 12.5 154t-24.5 110v4q113 0 181 3t173 3q262 0 396.5 -149.5t134.5 -446.5q0 -187 -58 -353.5t-160.5 -289.5t-252.5 -194.5t-326 -71.5h-334zM616 1466h-157l-258 -1431l176 4q136 3 249.5 56t190.5 139.5t130 200.5
t77.5 238.5t24.5 256.5q0 536 -433 536zM737 1602h-8l-225 319l14 14l234 -190l340 190l8 -14z" />
    <glyph glyph-name="dcaron" unicode="&#x10f;" horiz-adv-x="915" 
d="M276 59q41 0 83 22.5t80.5 65.5t72 90t68 112.5t59 116t53.5 116.5l53 249q-6 45 -54 85t-134 40q-105 0 -198.5 -111.5t-146 -273t-52.5 -317.5q0 -107 30 -151t86 -44zM555 -18l119 475q-45 -103 -93.5 -187.5t-105.5 -154t-121.5 -108t-130.5 -38.5q-87 0 -134.5 66
t-47.5 198q0 140 48 280t126 248t184.5 175.5t216.5 67.5q91 0 160 -29l66 305q20 101 12 149t-49 95v4l205 67l-295 -1374q-21 -94 -18 -122q5 -45 62 -73q3 -1 7 -3v-3zM1022 1176l137 411h135l-260 -416z" />
    <glyph glyph-name="Dcroat" unicode="&#x110;" horiz-adv-x="1214" 
d="M66 733l8 37h170l84 461q16 100 12.5 154t-25.5 110v4q113 0 181.5 3t173.5 3q262 0 396 -149.5t134 -446.5q0 -187 -58 -353.5t-160.5 -289.5t-252.5 -194.5t-326 -71.5h-333v4q31 51 49 107t37 159l82 463h-172zM637 1466h-158l-127 -696h344l-8 -37h-342l-125 -698
l176 4q136 3 249.5 56t190.5 139.5t130 200.5t77.5 238.5t24.5 256.5q0 536 -432 536z" />
    <glyph glyph-name="dcroat" unicode="&#x111;" horiz-adv-x="915" 
d="M555 -18l119 475q-45 -103 -93.5 -187.5t-105.5 -154t-121.5 -108t-130.5 -38.5q-87 0 -134.5 66t-47.5 198q0 140 48 280t126 248t184.5 175.5t216.5 67.5q91 0 160 -29l45 211h-315l8 37h315l13 57q20 101 12 149t-49 95v4l205 67l-80 -372h155l-8 -37h-155l-207 -965
q-21 -94 -18 -122q5 -45 62 -73q3 -1 7 -3v-3zM276 59q41 0 83 22.5t80.5 65.5t72 90t68 112.5t59 116t53.5 116.5l53 249q-6 45 -54 85t-134 40q-105 0 -198.5 -111.5t-146 -273t-52.5 -317.5q0 -107 30 -151t86 -44z" />
    <glyph glyph-name="Emacron" unicode="&#x112;" horiz-adv-x="1015" 
d="M942 332l-123 -332h-770v4q32 50 49 104.5t37 161.5l172 961q16 100 12.5 154t-24.5 110v4h668l22 -297l-16 -4q-68 144 -115.5 197.5t-124.5 54.5l-270 8l-123 -684h199q16 0 31 5t30 16.5t26.5 21.5t27 30t23.5 31.5t25 36t23 33.5h16l-59 -379h-16q-15 41 -21.5 56
t-20 42.5t-24.5 37.5t-28.5 19t-39.5 9h-200l-125 -696l332 10q29 1 53.5 4.5t49 14t41 17t40.5 27t36.5 31t39.5 41t38.5 44t44.5 54t48 58.5zM426 1716l14 72h521l-15 -72h-520z" />
    <glyph glyph-name="emacron" unicode="&#x113;" horiz-adv-x="745" 
d="M565 967q-106 0 -204.5 -89.5t-153.5 -238.5q461 43 461 229q0 48 -26 73.5t-77 25.5zM635 215q-53 -111 -140 -178.5t-188 -67.5q-123 0 -194.5 96.5t-71.5 256.5q0 124 44.5 248t117.5 219.5t174.5 155t208.5 59.5q79 0 129.5 -35t50.5 -103q0 -52 -29.5 -96t-93 -80.5
t-177 -56.5t-267.5 -19q-39 -119 -39 -254q0 -309 198 -309q137 0 256 174zM315 1249l15 72h493l-16 -72h-492z" />
    <glyph glyph-name="Ebreve" unicode="&#x114;" horiz-adv-x="1015" 
d="M942 332l-123 -332h-770v4q32 50 49 104.5t37 161.5l172 961q16 100 12.5 154t-24.5 110v4h668l22 -297l-16 -4q-68 144 -115.5 197.5t-124.5 54.5l-270 8l-123 -684h199q16 0 31 5t30 16.5t26.5 21.5t27 30t23.5 31.5t25 36t23 33.5h16l-59 -379h-16q-15 41 -21.5 56
t-20 42.5t-24.5 37.5t-28.5 19t-39.5 9h-200l-125 -696l332 10q29 1 53.5 4.5t49 14t41 17t40.5 27t36.5 31t39.5 41t38.5 44t44.5 54t48 58.5zM680 1733q196 0 262 165h14q-8 -44 -25.5 -85.5t-49.5 -83.5t-86 -67.5t-123 -25.5t-118.5 26t-73.5 68t-34 84t-8 84h15
q20 -87 76 -126t151 -39z" />
    <glyph glyph-name="ebreve" unicode="&#x115;" horiz-adv-x="745" 
d="M565 967q-106 0 -204.5 -89.5t-153.5 -238.5q461 43 461 229q0 48 -26 73.5t-77 25.5zM635 215q-53 -111 -140 -178.5t-188 -67.5q-123 0 -194.5 96.5t-71.5 256.5q0 124 44.5 248t117.5 219.5t174.5 155t208.5 59.5q79 0 129.5 -35t50.5 -103q0 -52 -29.5 -96t-93 -80.5
t-177 -56.5t-267.5 -19q-39 -119 -39 -254q0 -309 198 -309q137 0 256 174zM537 1257q168 0 223 162h16q-5 -42 -21 -82.5t-44.5 -80t-77.5 -63.5t-111 -24q-48 0 -86 16.5t-60.5 42t-36.5 59.5t-18.5 67t-1.5 65h17q10 -78 63 -120t138 -42z" />
    <glyph glyph-name="Edotaccent" unicode="&#x116;" horiz-adv-x="1015" 
d="M942 332l-123 -332h-770v4q32 50 49 104.5t37 161.5l172 961q16 100 12.5 154t-24.5 110v4h668l22 -297l-16 -4q-68 144 -115.5 197.5t-124.5 54.5l-270 8l-123 -684h199q16 0 31 5t30 16.5t26.5 21.5t27 30t23.5 31.5t25 36t23 33.5h16l-59 -379h-16q-15 41 -21.5 56
t-20 42.5t-24.5 37.5t-28.5 19t-39.5 9h-200l-125 -696l332 10q29 1 53.5 4.5t49 14t41 17t40.5 27t36.5 31t39.5 41t38.5 44t44.5 54t48 58.5zM774 1778q0 -35 -24.5 -59.5t-59.5 -24.5q-34 0 -59 24.5t-25 59.5t25 59.5t59 24.5q35 0 59.5 -24.5t24.5 -59.5z" />
    <glyph glyph-name="edotaccent" unicode="&#x117;" horiz-adv-x="745" 
d="M565 967q-106 0 -204.5 -89.5t-153.5 -238.5q461 43 461 229q0 48 -26 73.5t-77 25.5zM635 215q-53 -111 -140 -178.5t-188 -67.5q-123 0 -194.5 96.5t-71.5 256.5q0 124 44.5 248t117.5 219.5t174.5 155t208.5 59.5q79 0 129.5 -35t50.5 -103q0 -52 -29.5 -96t-93 -80.5
t-177 -56.5t-267.5 -19q-39 -119 -39 -254q0 -309 198 -309q137 0 256 174zM627 1350q0 -35 -24.5 -59.5t-59.5 -24.5q-34 0 -59 24.5t-25 59.5t25 59.5t59 24.5q35 0 59.5 -24.5t24.5 -59.5z" />
    <glyph glyph-name="Eogonek" unicode="&#x118;" horiz-adv-x="1015" 
d="M942 332l-123 -332h-201q-111 -60 -170 -147t-59 -168q0 -53 27.5 -80t75.5 -27q107 0 182 119l12 -8q-47 -86 -104 -138.5t-142 -52.5q-69 0 -109 39t-40 111q0 100 77.5 196.5t202.5 155.5h-522v4q32 50 49 104.5t37 161.5l172 961q16 100 12.5 154t-24.5 110v4h668
l22 -297l-16 -4q-68 144 -115.5 197.5t-124.5 54.5l-270 8l-123 -684h199q16 0 31 5t30 16.5t26.5 21.5t27 30t23.5 31.5t25 36t23 33.5h16l-59 -379h-16q-15 41 -21.5 56t-20 42.5t-24.5 37.5t-28.5 19t-39.5 9h-200l-125 -696l332 10q29 1 53.5 4.5t49 14t41 17t40.5 27
t36.5 31t39.5 41t38.5 44t44.5 54t48 58.5z" />
    <glyph glyph-name="eogonek" unicode="&#x119;" horiz-adv-x="745" 
d="M565 967q-106 0 -204.5 -89.5t-153.5 -238.5q461 43 461 229q0 48 -26 73.5t-77 25.5zM504 -311q-47 -86 -104 -138.5t-142 -52.5q-69 0 -109 39t-40 111q0 102 66.5 187.5t164.5 135.5q-8 -2 -33 -2q-123 0 -194.5 96.5t-71.5 256.5q0 124 44.5 248t117.5 219.5
t174.5 155t208.5 59.5q79 0 129.5 -35t50.5 -103q0 -52 -29.5 -96t-93 -80.5t-177 -56.5t-267.5 -19q-39 -119 -39 -254q0 -309 198 -309q137 0 256 174l21 -10q-38 -83 -107 -149q-29 -29 -93.5 -68t-72.5 -45q-155 -117 -155 -268q0 -53 27 -80t75 -27q54 0 101.5 32.5
t81.5 86.5z" />
    <glyph glyph-name="Ecaron" unicode="&#x11a;" horiz-adv-x="1015" 
d="M942 332l-123 -332h-770v4q32 50 49 104.5t37 161.5l172 961q16 100 12.5 154t-24.5 110v4h668l22 -297l-16 -4q-68 144 -115.5 197.5t-124.5 54.5l-270 8l-123 -684h199q16 0 31 5t30 16.5t26.5 21.5t27 30t23.5 31.5t25 36t23 33.5h16l-59 -379h-16q-15 41 -21.5 56
t-20 42.5t-24.5 37.5t-28.5 19t-39.5 9h-200l-125 -696l332 10q29 1 53.5 4.5t49 14t41 17t40.5 27t36.5 31t39.5 41t38.5 44t44.5 54t48 58.5zM668 1602h-9l-225 319l15 14l233 -190l340 190l8 -14z" />
    <glyph glyph-name="ecaron" unicode="&#x11b;" horiz-adv-x="745" 
d="M565 967q-106 0 -204.5 -89.5t-153.5 -238.5q461 43 461 229q0 48 -26 73.5t-77 25.5zM635 215q-53 -111 -140 -178.5t-188 -67.5q-123 0 -194.5 96.5t-71.5 256.5q0 124 44.5 248t117.5 219.5t174.5 155t208.5 59.5q79 0 129.5 -35t50.5 -103q0 -52 -29.5 -96t-93 -80.5
t-177 -56.5t-267.5 -19q-39 -119 -39 -254q0 -309 198 -309q137 0 256 174zM514 1106h-6l-180 354l16 13l186 -218l295 218l11 -13z" />
    <glyph glyph-name="Gcircumflex" unicode="&#x11c;" horiz-adv-x="1261" 
d="M1217 659q-32 -51 -50 -107.5t-37 -158.5l-38 -215q-12 -10 -46 -39t-56.5 -47t-64.5 -44t-81 -41t-95.5 -26.5t-117.5 -11.5q-254 0 -388 174t-134 473q0 141 35 277t101.5 250.5t156.5 201.5t207 136t245 49q115 0 218.5 -37.5t148.5 -71.5l22 -284l-16 -4
q-74 189 -172.5 272.5t-229.5 83.5q-110 0 -205.5 -51t-164 -139t-118 -204t-73.5 -248t-24 -269q0 -124 21 -223.5t66.5 -178.5t124.5 -122.5t187 -43.5q175 0 268.5 108t120.5 318q18 130 -18 223v5h207v-5zM1137 1602l-234 190l-340 -190l-8 14l363 319h8l225 -319z" />
    <glyph glyph-name="gcircumflex" unicode="&#x11d;" horiz-adv-x="804" 
d="M209 549q0 -103 29.5 -153t97.5 -50q110 0 188 117t78 301q0 104 -28.5 153.5t-98.5 49.5q-110 0 -188 -117.5t-78 -300.5zM670 -145q0 -124 -123 -220t-320 -96q-153 0 -252.5 59.5t-99.5 163.5q0 105 96.5 173.5t231.5 87.5q-88 47 -88 137q0 63 36 106t91 62
q-70 30 -109 99.5t-39 150.5q0 105 59 205t147.5 160.5t174.5 60.5q65 0 123 -33l287 49h2l-27 -121h-8l-221 47q86 -77 86 -211q0 -105 -59 -205t-147.5 -160.5t-174.5 -60.5q-38 0 -62 8q-90 -31 -90 -106q0 -34 17.5 -59t51 -41t66.5 -25.5t78 -17.5q34 -6 58 -12
t59.5 -17t59.5 -26.5t48 -37t36 -52.5t12 -68zM256 -410q156 0 249 65.5t93 160.5q0 33 -16 59t-32 40.5t-56.5 28.5t-56 17.5t-65.5 12.5q-9 2 -14 3q-89 17 -129 33q-122 -23 -187 -83.5t-65 -145.5t68.5 -138t210.5 -53zM729 1106l-186 217l-295 -217l-10 12l321 355h6
l180 -355z" />
    <glyph glyph-name="Gbreve" unicode="&#x11e;" horiz-adv-x="1261" 
d="M1217 659q-32 -51 -50 -107.5t-37 -158.5l-38 -215q-12 -10 -46 -39t-56.5 -47t-64.5 -44t-81 -41t-95.5 -26.5t-117.5 -11.5q-254 0 -388 174t-134 473q0 141 35 277t101.5 250.5t156.5 201.5t207 136t245 49q115 0 218.5 -37.5t148.5 -71.5l22 -284l-16 -4
q-74 189 -172.5 272.5t-229.5 83.5q-110 0 -205.5 -51t-164 -139t-118 -204t-73.5 -248t-24 -269q0 -124 21 -223.5t66.5 -178.5t124.5 -122.5t187 -43.5q175 0 268.5 108t120.5 318q18 130 -18 223v5h207v-5zM836 1733q196 0 262 165h14q-8 -44 -25.5 -85.5t-49.5 -83.5
t-86.5 -67.5t-123.5 -25.5q-56 0 -99.5 18t-68.5 45.5t-40.5 63.5t-20.5 69t-4 66h14q20 -87 76.5 -126t151.5 -39z" />
    <glyph glyph-name="gbreve" unicode="&#x11f;" horiz-adv-x="804" 
d="M209 549q0 -103 29.5 -153t97.5 -50q110 0 188 117t78 301q0 104 -28.5 153.5t-98.5 49.5q-110 0 -188 -117.5t-78 -300.5zM670 -145q0 -124 -123 -220t-320 -96q-153 0 -252.5 59.5t-99.5 163.5q0 105 96.5 173.5t231.5 87.5q-88 47 -88 137q0 63 36 106t91 62
q-70 30 -109 99.5t-39 150.5q0 105 59 205t147.5 160.5t174.5 60.5q65 0 123 -33l287 49h2l-27 -121h-8l-221 47q86 -77 86 -211q0 -105 -59 -205t-147.5 -160.5t-174.5 -60.5q-38 0 -62 8q-90 -31 -90 -106q0 -34 17.5 -59t51 -41t66.5 -25.5t78 -17.5q34 -6 58 -12
t59.5 -17t59.5 -26.5t48 -37t36 -52.5t12 -68zM256 -410q156 0 249 65.5t93 160.5q0 33 -16 59t-32 40.5t-56.5 28.5t-56 17.5t-65.5 12.5q-9 2 -14 3q-89 17 -129 33q-122 -23 -187 -83.5t-65 -145.5t68.5 -138t210.5 -53zM549 1257q168 0 223 162h16q-5 -42 -21 -82.5
t-44.5 -80t-77 -63.5t-110.5 -24q-48 0 -86 16.5t-60.5 42t-36.5 59.5t-18.5 67t-1.5 65h16q10 -78 63 -120t138 -42z" />
    <glyph glyph-name="Gdotaccent" unicode="&#x120;" horiz-adv-x="1261" 
d="M1217 659q-32 -51 -50 -107.5t-37 -158.5l-38 -215q-12 -10 -46 -39t-56.5 -47t-64.5 -44t-81 -41t-95.5 -26.5t-117.5 -11.5q-254 0 -388 174t-134 473q0 141 35 277t101.5 250.5t156.5 201.5t207 136t245 49q115 0 218.5 -37.5t148.5 -71.5l22 -284l-16 -4
q-74 189 -172.5 272.5t-229.5 83.5q-110 0 -205.5 -51t-164 -139t-118 -204t-73.5 -248t-24 -269q0 -124 21 -223.5t66.5 -178.5t124.5 -122.5t187 -43.5q175 0 268.5 108t120.5 318q18 130 -18 223v5h207v-5zM930 1778q0 -35 -24.5 -59.5t-59.5 -24.5q-34 0 -59 24.5
t-25 59.5t25 59.5t59 24.5q35 0 59.5 -24.5t24.5 -59.5z" />
    <glyph glyph-name="gdotaccent" unicode="&#x121;" horiz-adv-x="804" 
d="M209 549q0 -103 29.5 -153t97.5 -50q110 0 188 117t78 301q0 104 -28.5 153.5t-98.5 49.5q-110 0 -188 -117.5t-78 -300.5zM670 -145q0 -124 -123 -220t-320 -96q-153 0 -252.5 59.5t-99.5 163.5q0 105 96.5 173.5t231.5 87.5q-88 47 -88 137q0 63 36 106t91 62
q-70 30 -109 99.5t-39 150.5q0 105 59 205t147.5 160.5t174.5 60.5q65 0 123 -33l287 49h2l-27 -121h-8l-221 47q86 -77 86 -211q0 -105 -59 -205t-147.5 -160.5t-174.5 -60.5q-38 0 -62 8q-90 -31 -90 -106q0 -34 17.5 -59t51 -41t66.5 -25.5t78 -17.5q34 -6 58 -12
t59.5 -17t59.5 -26.5t48 -37t36 -52.5t12 -68zM256 -410q156 0 249 65.5t93 160.5q0 33 -16 59t-32 40.5t-56.5 28.5t-56 17.5t-65.5 12.5q-9 2 -14 3q-89 17 -129 33q-122 -23 -187 -83.5t-65 -145.5t68.5 -138t210.5 -53zM618 1350q0 -35 -24 -59.5t-59 -24.5
q-34 0 -59 24.5t-25 59.5t25 59.5t59 24.5q35 0 59 -24.5t24 -59.5z" />
    <glyph glyph-name="uni0122" unicode="&#x122;" horiz-adv-x="1261" 
d="M1217 659q-32 -51 -50 -107.5t-37 -158.5l-38 -215q-12 -10 -46 -39t-56.5 -47t-64.5 -44t-81 -41t-95.5 -26.5t-117.5 -11.5q-254 0 -388 174t-134 473q0 141 35 277t101.5 250.5t156.5 201.5t207 136t245 49q115 0 218.5 -37.5t148.5 -71.5l22 -284l-16 -4
q-74 189 -172.5 272.5t-229.5 83.5q-110 0 -205.5 -51t-164 -139t-118 -204t-73.5 -248t-24 -269q0 -124 21 -223.5t66.5 -178.5t124.5 -122.5t187 -43.5q175 0 268.5 108t120.5 318q18 130 -18 223v5h207v-5zM393 -459l-8 13q58 35 94.5 75t36.5 76q0 28 -20 62t-47 57v4
l83 70q74 -63 74 -125q0 -111 -213 -232z" />
    <glyph glyph-name="uni0123" unicode="&#x123;" horiz-adv-x="804" 
d="M209 549q0 -103 29.5 -153t97.5 -50q110 0 188 117t78 301q0 104 -28.5 153.5t-98.5 49.5q-110 0 -188 -117.5t-78 -300.5zM670 -145q0 -124 -123 -220t-320 -96q-153 0 -252.5 59.5t-99.5 163.5q0 105 96.5 173.5t231.5 87.5q-88 47 -88 137q0 63 36 106t91 62
q-70 30 -109 99.5t-39 150.5q0 105 59 205t147.5 160.5t174.5 60.5q65 0 123 -33l287 49h2l-27 -121h-8l-221 47q86 -77 86 -211q0 -105 -59 -205t-147.5 -160.5t-174.5 -60.5q-38 0 -62 8q-90 -31 -90 -106q0 -34 17.5 -59t51 -41t66.5 -25.5t78 -17.5q34 -6 58 -12
t59.5 -17t59.5 -26.5t48 -37t36 -52.5t12 -68zM256 -410q156 0 249 65.5t93 160.5q0 33 -16 59t-32 40.5t-56.5 28.5t-56 17.5t-65.5 12.5q-9 2 -14 3q-89 17 -129 33q-122 -23 -187 -83.5t-65 -145.5t68.5 -138t210.5 -53zM651 1544l8 -12q-58 -34 -94.5 -75t-36.5 -77
q0 -28 20 -61.5t48 -56.5v-5l-84 -69q-74 63 -74 125q0 110 213 231z" />
    <glyph glyph-name="Hcircumflex" unicode="&#x124;" horiz-adv-x="1193" 
d="M49 0v4q31 51 49 107t37 159l172 961q16 100 12.5 154t-24.5 110v4h207v-4q-31 -51 -49 -107t-37 -159l-78 -434h629l77 436q16 100 12.5 154t-24.5 110v4h207v-4q-31 -51 -49 -107t-37 -159l-172 -961q-16 -100 -12.5 -154t24.5 -110v-4h-207v4q31 51 49 107t37 159
l86 484h-628l-86 -486q-16 -100 -12.5 -154t24.5 -110v-4h-207zM1065 1602l-234 190l-339 -190l-9 14l363 319h8l225 -319z" />
    <glyph glyph-name="hcircumflex" unicode="&#x125;" horiz-adv-x="946" 
d="M590 -18l160 751q20 75 0 133t-80 58q-86 0 -205 -144t-252 -444l-16 -84q-12 -60 -16.5 -95.5t-3 -76t12.5 -76.5v-4h-180v4q9 14 17 27.5t15.5 32t13 30t12 35.5t9.5 33.5t10 40t8.5 39t9.5 46t10 46.5l202 946q21 101 13 149t-49 95v4l204 67l-247 -1128
q105 241 233 389t252 148q86 0 119.5 -74t5.5 -203l-105 -491q-28 -115 -13 -164t95 -56v-4zM954 1642l-233 191l-340 -191l-8 15l362 319h8l226 -319z" />
    <glyph glyph-name="Hbar" unicode="&#x126;" horiz-adv-x="1234" 
d="M70 0v4q31 51 49 107t37 159l151 852h-205l9 37h202l15 72q16 100 12.5 154t-25.5 110v4h207v-4q-31 -51 -49 -107t-37 -159l-12 -70h627l14 72q16 100 12.5 154t-24.5 110v4h207v-4q-31 -51 -49 -107t-37 -159l-13 -70h207l-8 -37h-205l-154 -854q-16 -100 -12.5 -154
t25.5 -110v-4h-207v4q31 51 49 107t37 159l86 484h-629l-86 -486q-16 -100 -12.5 -154t24.5 -110v-4h-206zM358 795h629l57 327h-628z" />
    <glyph glyph-name="hbar" unicode="&#x127;" horiz-adv-x="946" 
d="M590 -18l160 751q20 75 0 133t-80 58q-86 0 -205 -144t-252 -444l-16 -84q-12 -60 -16.5 -95.5t-3 -76t12.5 -76.5v-4h-180v4q9 14 17 27.5t15.5 32t13 30t12 35.5t9.5 33.5t10 40t8.5 39t9.5 46t10 46.5l182 852h-143l8 37h143l12 57q21 101 13 149t-49 95v4l204 67
l-82 -372h328l-8 -37h-328l-157 -719q105 241 233 389t252 148q86 0 119.5 -74t5.5 -203l-105 -491q-28 -115 -13 -164t95 -56v-4z" />
    <glyph glyph-name="Itilde" unicode="&#x128;" horiz-adv-x="458" 
d="M256 0h-207v4q31 51 49 107t37 159l172 961q16 100 12.5 154t-24.5 110v4h207v-4q-31 -51 -49 -107t-37 -159l-172 -961q-16 -100 -12.5 -154t24.5 -110v-4zM330 1835q46 0 92 -26t91 -52t87 -26q51 0 84.5 32t65.5 105l14 -2q-10 -36 -23.5 -68t-38.5 -71t-65.5 -62
t-91.5 -23q-38 0 -76.5 16.5t-65 36t-62.5 36t-69 16.5q-50 0 -87 -33t-68 -104l-17 2q9 34 25 68t42.5 71t69 60.5t93.5 23.5z" />
    <glyph glyph-name="itilde" unicode="&#x129;" 
d="M14 0v4q36 62 57 131t48 199l71 364q33 152 -36 244v4l213 68l-144 -674q-30 -144 -35 -209.5t11 -126.5v-4h-185zM246 1389q49 0 124 -34t119 -34q45 0 74 23t55 73l15 -2q-51 -194 -195 -194q-48 0 -123 33.5t-120 33.5t-74 -23t-55 -73l-15 2q52 195 195 195z" />
    <glyph glyph-name="Imacron" unicode="&#x12a;" horiz-adv-x="458" 
d="M256 0h-207v4q31 51 49 107t37 159l172 961q16 100 12.5 154t-24.5 110v4h207v-4q-31 -51 -49 -107t-37 -159l-172 -961q-16 -100 -12.5 -154t24.5 -110v-4zM180 1716l15 72h520l-15 -72h-520z" />
    <glyph glyph-name="imacron" unicode="&#x12b;" 
d="M160 1249l14 72h350l-16 -72h-348zM14 0v4q36 62 57 131t48 199l71 364q33 152 -36 244v4l213 68l-144 -674q-30 -144 -35 -209.5t11 -126.5v-4h-185z" />
    <glyph glyph-name="Ibreve" unicode="&#x12c;" horiz-adv-x="458" 
d="M256 0h-207v4q31 51 49 107t37 159l172 961q16 100 12.5 154t-24.5 110v4h207v-4q-31 -51 -49 -107t-37 -159l-172 -961q-16 -100 -12.5 -154t24.5 -110v-4zM436 1733q196 0 262 165h15q-8 -44 -25.5 -85.5t-49.5 -83.5t-86.5 -67.5t-123.5 -25.5q-56 0 -99.5 18
t-68.5 45.5t-40.5 63.5t-20.5 69t-4 66h14q20 -87 76 -126t151 -39z" />
    <glyph glyph-name="ibreve" unicode="&#x12d;" 
d="M14 0v4q36 62 57 131t48 199l71 364q33 152 -36 244v4l213 68l-144 -674q-30 -144 -35 -209.5t11 -126.5v-4h-185zM354 1257q169 0 224 162h16q-5 -42 -21 -82.5t-44.5 -80t-77.5 -63.5t-111 -24q-48 0 -86 16.5t-60.5 42t-36.5 59.5t-18.5 67t-1.5 65h17
q10 -78 62.5 -120t137.5 -42z" />
    <glyph glyph-name="Iogonek" unicode="&#x12e;" horiz-adv-x="458" 
d="M256 0h-43q-111 -60 -170 -147t-59 -168q0 -53 27 -80t75 -27q107 0 182 119l13 -8q-47 -86 -104 -138.5t-142 -52.5q-69 0 -109.5 39t-40.5 111q0 100 77.5 196.5t203.5 155.5h-117v4q31 51 49 107t37 159l172 961q16 100 12.5 154t-24.5 110v4h207v-4q-31 -51 -49 -107
t-37 -159l-172 -961q-16 -100 -12.5 -154t24.5 -110v-4z" />
    <glyph glyph-name="iogonek" unicode="&#x12f;" 
d="M14 0v4q27 40 47 95t29.5 98t28.5 137l71 364q31 155 -36 244v4l196 68l-149 -762q-11 -59 -15.5 -95.5t-3 -76t12.5 -76.5v-4h-15q-111 -60 -170 -147t-59 -168q0 -53 27 -80t75 -27q54 0 101.5 32.5t81.5 86.5l12 -8q-47 -86 -104 -138.5t-142 -52.5q-69 0 -109 39
t-40 111q0 100 77.5 196.5t202.5 155.5h-119zM442 1350q0 -35 -24.5 -59.5t-59.5 -24.5q-34 0 -59 24.5t-25 59.5t25 59.5t59 24.5q35 0 59.5 -24.5t24.5 -59.5z" />
    <glyph glyph-name="Idotaccent" unicode="&#x130;" horiz-adv-x="458" 
d="M256 0h-207v4q31 51 49 107t37 159l172 961q16 100 12.5 154t-24.5 110v4h207v-4q-31 -51 -49 -107t-37 -159l-172 -961q-16 -100 -12.5 -154t24.5 -110v-4zM530 1778q0 -35 -24.5 -59.5t-59.5 -24.5q-34 0 -59 24.5t-25 59.5t25 59.5t59 24.5q35 0 59.5 -24.5
t24.5 -59.5z" />
    <glyph glyph-name="dotlessi" unicode="&#x131;" horiz-adv-x="393" 
d="M14 0v4q36 62 57 131t48 199l71 364q33 152 -36 244v4l213 68l-144 -674q-30 -144 -35 -209.5t11 -126.5v-4h-185z" />
    <glyph glyph-name="IJ" unicode="&#x132;" horiz-adv-x="1107" 
d="M256 0h-207v4q31 51 49 107t37 159l172 961q16 100 12.5 154t-24.5 110v4h207v-4q-31 -51 -49 -107t-37 -159l-172 -961q-16 -100 -12.5 -154t24.5 -110v-4zM903 252q-51 -283 -254 -283q-88 0 -162 47l19 256l16 4q41 -140 73.5 -203t76.5 -63q78 0 112 180l187 1041
q16 100 12.5 154t-25.5 110v4h207v-4q-31 -51 -49 -107t-37 -159z" />
    <glyph glyph-name="ij" unicode="&#x133;" horiz-adv-x="768" 
d="M442 1350q0 -35 -24.5 -59.5t-59.5 -24.5q-34 0 -59 24.5t-25 59.5t25 59.5t59 24.5q35 0 59.5 -24.5t24.5 -59.5zM14 0v4q27 40 47 95t29.5 98t28.5 137l71 364q31 155 -36 244v4l196 68l-149 -762q-11 -59 -15.5 -95.5t-3 -76t12.5 -76.5v-4h-181zM829 1350
q0 -35 -24.5 -59.5t-59.5 -24.5q-34 0 -58.5 24.5t-24.5 59.5t24.5 59.5t58.5 24.5q35 0 59.5 -24.5t24.5 -59.5zM274 -430q89 67 129 262l175 866q31 154 -37 244v4l196 68l-221 -1120q-28 -141 -91.5 -230t-145.5 -104z" />
    <glyph glyph-name="Jcircumflex" unicode="&#x134;" horiz-adv-x="638" 
d="M432 252q-51 -283 -254 -283q-88 0 -162 47l19 256l16 4q41 -140 73.5 -203t76.5 -63q78 0 112 180l187 1041q16 100 12.5 154t-25.5 110v4h207v-4q-31 -51 -49 -107t-37 -159zM879 1602l-234 190l-340 -190l-8 14l362 319h9l225 -319z" />
    <glyph glyph-name="jcircumflex" unicode="&#x135;" horiz-adv-x="372" 
d="M-121 -430q89 67 129 262l174 866q31 154 -37 244v4l213 68l-241 -1120q-31 -144 -92 -231.5t-142 -102.5zM537 1106l-187 217l-295 -217l-10 12l322 355h6l180 -355z" />
    <glyph glyph-name="uni0136" unicode="&#x136;" horiz-adv-x="1019" 
d="M49 0v4q31 51 49 107t37 159l172 961q16 100 12.5 154t-24.5 110v4h207v-4q-31 -51 -49 -107t-37 -159l-172 -961q-16 -100 -12.5 -154t24.5 -110v-4h-207zM956 0h-184l-410 739l437 508q34 40 50.5 61.5t34 49t21 47t0.5 42.5t-16 48v4h258v-4q-93 -51 -152.5 -104
t-134.5 -140l-405 -467l327 -587q42 -77 76.5 -117t97.5 -76v-4zM334 -459l-8 13q58 35 94.5 75t36.5 76q0 28 -20 62t-48 57v4l84 70q74 -63 74 -125q0 -111 -213 -232z" />
    <glyph glyph-name="uni0137" unicode="&#x137;" horiz-adv-x="802" 
d="M190 0h-180v4q9 14 17 27.5t15.5 32t13 30t12 35.5t9.5 33.5t10 40t8.5 39t9.5 46t10 46.5l202 946q21 101 13 149t-49 95v4l204 67l-270 -1257q-30 -144 -35.5 -207.5t10.5 -126.5v-4zM553 0l-268 508l290 293q48 49 64.5 93t-6.5 75v4h246v-4q-83 -30 -130 -64.5
t-149 -136.5l-219 -217l194 -363q43 -81 75.5 -119t86.5 -65v-4h-184zM205 -459l-8 13q58 35 94.5 75t36.5 76q0 28 -20 62t-48 57v4l84 70q74 -63 74 -125q0 -111 -213 -232z" />
    <glyph glyph-name="Lacute" unicode="&#x139;" horiz-adv-x="972" 
d="M780 0h-731v4q31 51 49 107t37 159l172 961q16 100 12.5 154t-24.5 110v4h207v-4q-31 -51 -49 -107t-37 -159l-213 -1198l329 18q31 2 58 7.5t54 19t46.5 24t46 35.5t41.5 39.5t44.5 50t42.5 52.5t48 61l11 -6zM260 1616l459 348l63 -117l-514 -245z" />
    <glyph glyph-name="lacute" unicode="&#x13a;" 
d="M190 0h-180v4q9 14 17 27.5t15.5 32t13 30t12 35.5t9.5 33.5t10 40t8.5 39t9.5 46t10 46.5l202 946q21 101 13 149t-49 95v4l204 67l-270 -1257q-30 -144 -35.5 -207.5t10.5 -126.5v-4zM199 1616l458 348l64 -117l-514 -245z" />
    <glyph glyph-name="uni013B" unicode="&#x13b;" horiz-adv-x="972" 
d="M780 0h-731v4q31 51 49 107t37 159l172 961q16 100 12.5 154t-24.5 110v4h207v-4q-31 -51 -49 -107t-37 -159l-213 -1198l329 18q31 2 58 7.5t54 19t46.5 24t46 35.5t41.5 39.5t44.5 50t42.5 52.5t48 61l11 -6zM307 -459l-8 13q58 35 94.5 75t36.5 76q0 28 -20 62t-48 57
v4l84 70q74 -63 74 -125q0 -111 -213 -232z" />
    <glyph glyph-name="uni013C" unicode="&#x13c;" 
d="M190 0h-180v4q9 14 17 27.5t15.5 32t13 30t12 35.5t9.5 33.5t10 40t8.5 39t9.5 46t10 46.5l202 946q21 101 13 149t-49 95v4l204 67l-270 -1257q-30 -144 -35.5 -207.5t10.5 -126.5v-4zM-47 -459l-8 13q58 35 94.5 75t36.5 76q0 28 -20 62t-48 57v4l84 70q74 -63 74 -125
q0 -111 -213 -232z" />
    <glyph glyph-name="Lcaron" unicode="&#x13d;" horiz-adv-x="972" 
d="M780 0h-731v4q31 51 49 107t37 159l172 961q16 100 12.5 154t-24.5 110v4h207v-4q-31 -51 -49 -107t-37 -159l-213 -1198l329 18q31 2 58 7.5t54 19t46.5 24t46 35.5t41.5 39.5t44.5 50t42.5 52.5t48 61l11 -6zM508 1087l137 412h135l-260 -416z" />
    <glyph glyph-name="lcaron" unicode="&#x13e;" 
d="M190 0h-180v4q9 14 17 27.5t15.5 32t13 30t12 35.5t9.5 33.5t10 40t8.5 39t9.5 46t10 46.5l202 946q21 101 13 149t-49 95v4l204 67l-270 -1257q-30 -144 -35.5 -207.5t10.5 -126.5v-4zM485 1176l138 411h135l-260 -416z" />
    <glyph glyph-name="Ldot" unicode="&#x13f;" horiz-adv-x="972" 
d="M780 0h-731v4q31 51 49 107t37 159l172 961q16 100 12.5 154t-24.5 110v4h207v-4q-31 -51 -49 -107t-37 -159l-213 -1198l329 18q31 2 58 7.5t54 19t46.5 24t46 35.5t41.5 39.5t44.5 50t42.5 52.5t48 61l11 -6zM788 649q-39 0 -67.5 28.5t-28.5 67.5t29 68t67 29
q40 0 68.5 -28.5t28.5 -68.5t-28.5 -68t-68.5 -28z" />
    <glyph glyph-name="ldot" unicode="&#x140;" horiz-adv-x="604" 
d="M190 0h-180v4q9 14 17 27.5t15.5 32t13 30t12 35.5t9.5 33.5t10 40t8.5 39t9.5 46t10 46.5l202 946q21 101 13 149t-49 95v4l204 67l-270 -1257q-30 -144 -35.5 -207.5t10.5 -126.5v-4zM549 629q-39 0 -67.5 28.5t-28.5 67.5t28.5 67.5t67.5 28.5q40 0 68 -28t28 -68
t-28 -68t-68 -28z" />
    <glyph glyph-name="Lslash" unicode="&#x141;" horiz-adv-x="993" 
d="M37 449l10 51l168 102l113 629q16 100 12.5 154t-25.5 110v4h207v-4q-31 -51 -49 -107t-37 -159l-98 -553l426 260l-10 -51l-424 -258l-107 -596l330 18q31 2 58 7.5t54 19t46.5 24t46 35.5t41.5 39.5t44.5 50t42.5 52.5t48 61l10 -6l-143 -332h-731v4q31 51 49 107
t37 159l49 281z" />
    <glyph glyph-name="lslash" unicode="&#x142;" horiz-adv-x="428" 
d="M35 547v49l190 149l115 535q20 101 12 149t-49 95v4l205 67l-162 -755l176 137v-49l-190 -150l-94 -440q-30 -144 -35.5 -207.5t10.5 -126.5v-4h-180v4q11 15 20 33t15.5 32.5t14.5 38.5t12 36.5t11 43.5t9.5 43t10.5 51t11 52l76 352z" />
    <glyph glyph-name="Nacute" unicode="&#x143;" horiz-adv-x="1222" 
d="M934 -6l-565 1331l-179 -989q-22 -104 -17.5 -172t46.5 -160v-4h-207v4q64 92 87.5 153.5t45.5 178.5l150 827v-2q11 67 14 90t5.5 65t-4 63.5t-20 52t-38.5 63.5v4h164l547 -1290l172 954q22 104 17.5 172t-46.5 160v4h207v-4q-65 -93 -89 -155.5t-44 -176.5l-209 -1163
zM612 1616l459 348l64 -117l-514 -245z" />
    <glyph glyph-name="nacute" unicode="&#x144;" horiz-adv-x="954" 
d="M594 -18l166 751q20 75 0 133t-80 58q-86 0 -204.5 -143t-248.5 -439l-20 -90q-18 -83 -20 -134.5t14 -113.5v-4h-181v4q9 14 17 27.5t15.5 32t13 30t12 35.5t9.5 33.5t10 40t8.5 39t9.5 46t10 46.5l78 364q33 151 -37 244v4l205 68l-119 -537q105 237 231.5 382
t249.5 145q87 0 120.5 -74t4.5 -203l-110 -491q-29 -115 -14 -164t95 -56v-4zM451 1104l323 430l86 -90l-399 -352z" />
    <glyph glyph-name="uni0145" unicode="&#x145;" horiz-adv-x="1222" 
d="M934 -6l-565 1331l-179 -989q-22 -104 -17.5 -172t46.5 -160v-4h-207v4q64 92 87.5 153.5t45.5 178.5l150 827v-2q11 67 14 90t5.5 65t-4 63.5t-20 52t-38.5 63.5v4h164l547 -1290l172 954q22 104 17.5 172t-46.5 160v4h207v-4q-65 -93 -89 -155.5t-44 -176.5l-209 -1163
zM387 -459l-8 13q58 35 94.5 75t36.5 76q0 28 -20 62t-48 57v4l84 70q74 -63 74 -125q0 -111 -213 -232z" />
    <glyph glyph-name="uni0146" unicode="&#x146;" horiz-adv-x="954" 
d="M594 -18l166 751q20 75 0 133t-80 58q-86 0 -204.5 -143t-248.5 -439l-20 -90q-18 -83 -20 -134.5t14 -113.5v-4h-181v4q9 14 17 27.5t15.5 32t13 30t12 35.5t9.5 33.5t10 40t8.5 39t9.5 46t10 46.5l78 364q33 151 -37 244v4l205 68l-119 -537q105 237 231.5 382
t249.5 145q87 0 120.5 -74t4.5 -203l-110 -491q-29 -115 -14 -164t95 -56v-4zM246 -459l-8 13q58 35 94.5 75t36.5 76q0 28 -20 62t-48 57v4l84 70q74 -63 74 -125q0 -111 -213 -232z" />
    <glyph glyph-name="Ncaron" unicode="&#x147;" horiz-adv-x="1222" 
d="M934 -6l-565 1331l-179 -989q-22 -104 -17.5 -172t46.5 -160v-4h-207v4q64 92 87.5 153.5t45.5 178.5l150 827v-2q11 67 14 90t5.5 65t-4 63.5t-20 52t-38.5 63.5v4h164l547 -1290l172 954q22 104 17.5 172t-46.5 160v4h207v-4q-65 -93 -89 -155.5t-44 -176.5l-209 -1163
zM821 1602h-8l-225 319l14 14l234 -190l340 190l8 -14z" />
    <glyph glyph-name="ncaron" unicode="&#x148;" horiz-adv-x="954" 
d="M594 -18l166 751q20 75 0 133t-80 58q-86 0 -204.5 -143t-248.5 -439l-20 -90q-18 -83 -20 -134.5t14 -113.5v-4h-181v4q9 14 17 27.5t15.5 32t13 30t12 35.5t9.5 33.5t10 40t8.5 39t9.5 46t10 46.5l78 364q33 151 -37 244v4l205 68l-119 -537q105 237 231.5 382
t249.5 145q87 0 120.5 -74t4.5 -203l-110 -491q-29 -115 -14 -164t95 -56v-4zM598 1106h-6l-180 354l16 13l186 -218l295 218l11 -13z" />
    <glyph glyph-name="napostrophe" unicode="&#x149;" horiz-adv-x="954" 
d="M594 -18l166 751q20 75 0 133t-80 58q-86 0 -204.5 -143t-248.5 -439l-20 -90q-18 -83 -20 -134.5t14 -113.5v-4h-181v4q9 14 17 27.5t15.5 32t13 30t12 35.5t9.5 33.5t10 40t8.5 39t9.5 46t10 46.5l78 364q33 151 -37 244v4l205 68l-119 -537q105 237 231.5 382
t249.5 145q87 0 120.5 -74t4.5 -203l-110 -491q-29 -115 -14 -164t95 -56v-4zM-35 1114l-10 12q67 48 111.5 104.5t44.5 104.5q0 49 -74 123v4l96 84q72 -56 72 -129q0 -46 -22.5 -91t-64.5 -86t-74 -67t-79 -59z" />
    <glyph glyph-name="Eng" unicode="&#x14a;" horiz-adv-x="1222" 
d="M655 -461q-100 0 -174 47l19 256l16 4q44 -161 75 -213.5t89 -52.5q66 0 124.5 56t86.5 178l35 196l-557 1315l-179 -989q-22 -104 -17.5 -172t46.5 -160v-4h-207v4q64 92 87.5 153.5t45.5 178.5l150 827v-2q11 67 14 90t5.5 65t-4 63.5t-20 52t-38.5 63.5v4h164
l547 -1288l172 952q22 104 17.5 172t-46.5 160v4h207v-4q-65 -93 -89 -155.5t-44 -176.5l-242 -1341q-57 -283 -283 -283z" />
    <glyph glyph-name="eng" unicode="&#x14b;" horiz-adv-x="931" 
d="M444 -440l-4 10q89 67 129 262l191 901q16 82 -2.5 136.5t-77.5 54.5q-86 0 -204.5 -143t-248.5 -439l-20 -90q-18 -83 -20 -134.5t14 -113.5v-4h-181v4q9 14 17 27.5t15.5 32t13 30t12 35.5t9.5 33.5t10 40t8.5 39t9.5 46t10 46.5l78 364q33 151 -37 244v4l205 68
l-119 -537q105 237 231.5 382t249.5 145q86 0 119.5 -74t5.5 -203l-180 -833q-31 -144 -92 -231.5t-142 -102.5z" />
    <glyph glyph-name="Omacron" unicode="&#x14c;" horiz-adv-x="1355" 
d="M1341 895q0 -182 -60 -352.5t-160 -296t-236.5 -201.5t-282.5 -76q-217 0 -355 178.5t-138 456.5q0 182 60 352.5t160 296t236.5 201.5t282.5 76q217 0 355 -178.5t138 -456.5zM240 565q0 -163 39.5 -286t126 -196t210.5 -73q137 0 251 77.5t188 207.5t114.5 295
t40.5 344q0 163 -39.5 286t-126 196t-210.5 73q-136 0 -250 -77.5t-188 -207t-115 -295t-41 -344.5zM631 1716l14 72h520l-14 -72h-520z" />
    <glyph glyph-name="omacron" unicode="&#x14d;" horiz-adv-x="839" 
d="M799 647q0 -166 -67 -323.5t-179 -256t-234 -98.5q-124 0 -201 95.5t-77 261.5t67 323.5t178.5 256t233.5 98.5q124 0 201.5 -95.5t77.5 -261.5zM160 309q0 -303 168 -303q67 0 130.5 48.5t112.5 132.5t79 209t30 268q0 303 -168 303q-67 0 -130.5 -48.5t-112.5 -132.5
t-79 -209t-30 -268zM315 1249l15 72h493l-16 -72h-492z" />
    <glyph glyph-name="Obreve" unicode="&#x14e;" horiz-adv-x="1355" 
d="M1341 895q0 -182 -60 -352.5t-160 -296t-236.5 -201.5t-282.5 -76q-217 0 -355 178.5t-138 456.5q0 182 60 352.5t160 296t236.5 201.5t282.5 76q217 0 355 -178.5t138 -456.5zM240 565q0 -163 39.5 -286t126 -196t210.5 -73q137 0 251 77.5t188 207.5t114.5 295
t40.5 344q0 163 -39.5 286t-126 196t-210.5 73q-136 0 -250 -77.5t-188 -207t-115 -295t-41 -344.5zM887 1733q196 0 262 165h14q-8 -44 -25.5 -85.5t-49.5 -83.5t-86 -67.5t-123 -25.5t-118.5 26t-73.5 68t-34 84t-8 84h14q20 -87 76.5 -126t151.5 -39z" />
    <glyph glyph-name="obreve" unicode="&#x14f;" horiz-adv-x="839" 
d="M799 647q0 -166 -67 -323.5t-179 -256t-234 -98.5q-124 0 -201 95.5t-77 261.5t67 323.5t178.5 256t233.5 98.5q124 0 201.5 -95.5t77.5 -261.5zM160 309q0 -303 168 -303q67 0 130.5 48.5t112.5 132.5t79 209t30 268q0 303 -168 303q-67 0 -130.5 -48.5t-112.5 -132.5
t-79 -209t-30 -268zM561 1257q168 0 223 162h17q-5 -42 -21 -82.5t-44.5 -80t-77.5 -63.5t-111 -24q-48 0 -86 16.5t-60.5 42t-36.5 59.5t-18.5 67t-1.5 65h16q10 -78 63 -120t138 -42z" />
    <glyph glyph-name="Ohungarumlaut" unicode="&#x150;" horiz-adv-x="1355" 
d="M1341 895q0 -182 -60 -352.5t-160 -296t-236.5 -201.5t-282.5 -76q-217 0 -355 178.5t-138 456.5q0 182 60 352.5t160 296t236.5 201.5t282.5 76q217 0 355 -178.5t138 -456.5zM240 565q0 -163 39.5 -286t126 -196t210.5 -73q137 0 251 77.5t188 207.5t114.5 295
t40.5 344q0 163 -39.5 286t-126 196t-210.5 73q-136 0 -250 -77.5t-188 -207t-115 -295t-41 -344.5zM958 1610l250 334l90 -103l-331 -239zM625 1610l249 334l91 -103l-332 -239z" />
    <glyph glyph-name="ohungarumlaut" unicode="&#x151;" horiz-adv-x="839" 
d="M799 647q0 -166 -67 -323.5t-179 -256t-234 -98.5q-124 0 -201 95.5t-77 261.5t67 323.5t178.5 256t233.5 98.5q124 0 201.5 -95.5t77.5 -261.5zM160 309q0 -303 168 -303q67 0 130.5 48.5t112.5 132.5t79 209t30 268q0 303 -168 303q-67 0 -130.5 -48.5t-112.5 -132.5
t-79 -209t-30 -268zM649 1118l219 375l84 -63l-288 -322zM365 1118l219 375l84 -63l-289 -322z" />
    <glyph glyph-name="OE" unicode="&#x152;" horiz-adv-x="1753" 
d="M860 203l191 1067q19 109 -11 198l-129 -2q-136 -3 -249 -56t-190 -139.5t-130.5 -201t-77.5 -238.5t-24 -256q0 -536 432 -536h135q38 75 53 164zM1679 332l-123 -332h-917q-262 0 -396 149.5t-134 446.5q0 149 36.5 286t106.5 249t165.5 194.5t221 128t266.5 45.5h795
l22 -297l-16 -4q-67 143 -114.5 196t-125.5 56l-270 8l-123 -684h199q16 0 31 5t30 16.5t26.5 21.5t27 30t23.5 31.5t25 36t23 33.5h17l-60 -379h-16q-14 37 -18 47.5t-16 37.5t-19 35t-20 22t-27.5 18t-32.5 4h-201l-125 -696l332 10q29 1 53.5 4.5t49 14t41 17t40.5 27
t36.5 31t39.5 41t38.5 44t44.5 54t48 58.5z" />
    <glyph glyph-name="oe" unicode="&#x153;" horiz-adv-x="1355" 
d="M1176 967q-106 0 -205 -89.5t-154 -238.5q461 43 461 229q0 99 -102 99zM160 309q0 -303 168 -303q67 0 130.5 48.5t112.5 132.5t79 209t30 268q0 303 -168 303q-67 0 -130.5 -48.5t-112.5 -132.5t-79 -209t-30 -268zM1245 215q-53 -111 -139 -178.5t-186 -67.5
q-99 0 -164 68t-84 188q-70 -118 -163.5 -187t-193.5 -69q-121 0 -197.5 96t-76.5 261q0 166 67 323.5t178.5 256t233.5 98.5q102 0 172.5 -73t87.5 -202q78 125 187.5 200t228.5 75q79 0 129.5 -35t50.5 -103q0 -52 -29.5 -96t-93 -80.5t-177 -56.5t-267.5 -19
q-39 -119 -39 -254q0 -309 197 -309q139 0 258 174z" />
    <glyph glyph-name="Racute" unicode="&#x154;" horiz-adv-x="1011" 
d="M600 1456q-100 0 -143 -2l-125 -690h192q87 0 154 34t106.5 93t59.5 131.5t20 155.5q0 146 -64.5 212t-199.5 66zM49 0v4q31 51 49 107t37 159l172 961q16 100 12.5 154t-24.5 110v4h323q184 0 278.5 -82.5t94.5 -242.5q0 -87 -29 -163.5t-77.5 -130.5t-108 -90.5
t-123.5 -50.5l140 -526q26 -97 58 -139.5t95 -69.5v-4h-213l-188 723h-219l-82 -455q-16 -100 -12.5 -154t24.5 -110v-4h-207zM469 1616l459 348l63 -117l-514 -245z" />
    <glyph glyph-name="racute" unicode="&#x155;" horiz-adv-x="610" 
d="M20 0v4q9 14 17 27.5t15.5 32t13 30t12 35.5t9.5 33.5t10 40t8.5 39t9.5 46t10 46.5l78 364q33 151 -37 244v4l205 68l-109 -496q97 244 200 365t230 121l-63 -154h-4q-17 10 -43 10q-88 0 -164.5 -111.5t-190.5 -404.5l-20 -92q-18 -83 -20 -134.5t14 -113.5v-4h-181z
M322 1104l323 430l86 -90l-399 -352z" />
    <glyph glyph-name="uni0156" unicode="&#x156;" horiz-adv-x="1011" 
d="M600 1456q-100 0 -143 -2l-125 -690h192q87 0 154 34t106.5 93t59.5 131.5t20 155.5q0 146 -64.5 212t-199.5 66zM49 0v4q31 51 49 107t37 159l172 961q16 100 12.5 154t-24.5 110v4h323q184 0 278.5 -82.5t94.5 -242.5q0 -87 -29 -163.5t-77.5 -130.5t-108 -90.5
t-123.5 -50.5l140 -526q26 -97 58 -139.5t95 -69.5v-4h-213l-188 723h-219l-82 -455q-16 -100 -12.5 -154t24.5 -110v-4h-207zM346 -459l-8 13q58 35 94.5 75t36.5 76q0 28 -20 62t-48 57v4l84 70q74 -63 74 -125q0 -111 -213 -232z" />
    <glyph glyph-name="uni0157" unicode="&#x157;" horiz-adv-x="610" 
d="M20 0v4q9 14 17 27.5t15.5 32t13 30t12 35.5t9.5 33.5t10 40t8.5 39t9.5 46t10 46.5l78 364q33 151 -37 244v4l205 68l-109 -496q97 244 200 365t230 121l-63 -154h-4q-17 10 -43 10q-88 0 -164.5 -111.5t-190.5 -404.5l-20 -92q-18 -83 -20 -134.5t14 -113.5v-4h-181z
M-27 -459l-8 13q58 35 94.5 75t36.5 76q0 28 -20 62t-47 57v4l84 70q73 -62 73 -125q0 -111 -213 -232z" />
    <glyph glyph-name="Rcaron" unicode="&#x158;" horiz-adv-x="1011" 
d="M600 1456q-100 0 -143 -2l-125 -690h192q87 0 154 34t106.5 93t59.5 131.5t20 155.5q0 146 -64.5 212t-199.5 66zM49 0v4q31 51 49 107t37 159l172 961q16 100 12.5 154t-24.5 110v4h323q184 0 278.5 -82.5t94.5 -242.5q0 -87 -29 -163.5t-77.5 -130.5t-108 -90.5
t-123.5 -50.5l140 -526q26 -97 58 -139.5t95 -69.5v-4h-213l-188 723h-219l-82 -455q-16 -100 -12.5 -154t24.5 -110v-4h-207zM647 1602h-8l-225 319l14 14l234 -190l339 190l9 -14z" />
    <glyph glyph-name="rcaron" unicode="&#x159;" horiz-adv-x="610" 
d="M20 0v4q9 14 17 27.5t15.5 32t13 30t12 35.5t9.5 33.5t10 40t8.5 39t9.5 46t10 46.5l78 364q33 151 -37 244v4l205 68l-109 -496q97 244 200 365t230 121l-63 -154h-4q-17 10 -43 10q-88 0 -164.5 -111.5t-190.5 -404.5l-20 -92q-18 -83 -20 -134.5t14 -113.5v-4h-181z
M471 1106h-6l-180 354l16 13l186 -218l295 218l11 -13z" />
    <glyph glyph-name="Sacute" unicode="&#x15a;" horiz-adv-x="897" 
d="M907 1456l15 -299l-19 -4q-26 99 -60 167t-73.5 103.5t-79.5 50.5t-88 15q-116 0 -186 -75.5t-70 -194.5q0 -47 14 -94t30 -79t53.5 -79.5t56 -68t67.5 -71.5q53 -57 83.5 -94t67 -94t53.5 -119.5t17 -132.5q0 -131 -58.5 -227.5t-154.5 -143.5t-217 -47q-181 0 -335 94
l-15 324l17 4q34 -111 75.5 -187t88.5 -117.5t94.5 -59t105.5 -17.5q135 0 218 100t83 240q0 63 -16.5 118.5t-53.5 109t-65.5 86.5t-83.5 90q-56 60 -83 92t-65 88t-54.5 112.5t-16.5 120.5q0 73 21.5 133.5t58.5 102.5t86 71t103 42.5t112 13.5q75 0 149 -20.5t125 -53.5z
M485 1616l459 348l64 -117l-514 -245z" />
    <glyph glyph-name="sacute" unicode="&#x15b;" horiz-adv-x="641" 
d="M594 963l6 -195l-16 -4q-91 203 -213 203q-64 0 -102 -45.5t-38 -112.5q0 -42 17 -81.5t44 -72.5t60 -66.5t66 -70t60 -75.5t44 -90.5t17 -108.5q0 -129 -78.5 -202t-200.5 -73q-147 0 -237 78l-7 232l17 4q46 -136 112.5 -206.5t141.5 -70.5q72 0 121 53t49 138
q0 52 -22.5 100.5t-56 85t-73 79t-73 82t-56 94.5t-22.5 116q0 120 75 185t185 65q105 0 180 -41zM303 1104l324 430l86 -90l-400 -352z" />
    <glyph glyph-name="Scircumflex" unicode="&#x15c;" horiz-adv-x="897" 
d="M907 1456l15 -299l-19 -4q-26 99 -60 167t-73.5 103.5t-79.5 50.5t-88 15q-116 0 -186 -75.5t-70 -194.5q0 -47 14 -94t30 -79t53.5 -79.5t56 -68t67.5 -71.5q53 -57 83.5 -94t67 -94t53.5 -119.5t17 -132.5q0 -131 -58.5 -227.5t-154.5 -143.5t-217 -47q-181 0 -335 94
l-15 324l17 4q34 -111 75.5 -187t88.5 -117.5t94.5 -59t105.5 -17.5q135 0 218 100t83 240q0 63 -16.5 118.5t-53.5 109t-65.5 86.5t-83.5 90q-56 60 -83 92t-65 88t-54.5 112.5t-16.5 120.5q0 73 21.5 133.5t58.5 102.5t86 71t103 42.5t112 13.5q75 0 149 -20.5t125 -53.5z
M881 1602l-234 190l-340 -190l-8 14l363 319h8l225 -319z" />
    <glyph glyph-name="scircumflex" unicode="&#x15d;" horiz-adv-x="641" 
d="M594 963l6 -195l-16 -4q-91 203 -213 203q-64 0 -102 -45.5t-38 -112.5q0 -42 17 -81.5t44 -72.5t60 -66.5t66 -70t60 -75.5t44 -90.5t17 -108.5q0 -129 -78.5 -202t-200.5 -73q-147 0 -237 78l-7 232l17 4q46 -136 112.5 -206.5t141.5 -70.5q72 0 121 53t49 138
q0 52 -22.5 100.5t-56 85t-73 79t-73 82t-56 94.5t-22.5 116q0 120 75 185t185 65q105 0 180 -41zM637 1106l-186 217l-295 -217l-11 12l322 355h6l180 -355z" />
    <glyph glyph-name="uni015E" unicode="&#x15e;" horiz-adv-x="897" 
d="M76 -522v16q115 27 183.5 81t68.5 124q0 102 -148 115v4l121 153q-153 15 -278 92l-15 324l17 4q34 -111 75.5 -187t88.5 -117.5t94.5 -59t105.5 -17.5q135 0 218 100t83 240q0 63 -16.5 118.5t-53.5 109t-65.5 86.5t-83.5 90q-56 60 -83 92t-65 88t-54.5 112.5
t-16.5 120.5q0 73 21.5 133.5t58.5 102.5t86 71t103 42.5t112 13.5q75 0 149 -20.5t125 -53.5l15 -299l-19 -4q-26 99 -60 167t-73.5 103.5t-79.5 50.5t-88 15q-116 0 -186 -75.5t-70 -194.5q0 -47 14 -94t30 -79t53.5 -79.5t56 -68t67.5 -71.5q53 -57 83.5 -94t67 -94
t53.5 -119.5t17 -132.5q0 -131 -58.5 -227.5t-154.5 -143.5t-217 -47h-4l-71 -88q133 -34 133 -149q0 -103 -95 -169.5t-245 -84.5z" />
    <glyph glyph-name="uni015F" unicode="&#x15f;" horiz-adv-x="641" 
d="M-16 -522v16q115 27 183.5 81t68.5 124q0 102 -148 115v4l121 153q-117 13 -186 76l-7 232l17 4q46 -136 112.5 -206.5t141.5 -70.5q72 0 121 53t49 138q0 52 -22.5 100.5t-56 85t-73 79t-73 82t-56 94.5t-22.5 116q0 120 75 185t185 65q105 0 180 -41l6 -195l-16 -4
q-91 203 -213 203q-64 0 -102 -45.5t-38 -112.5q0 -42 17 -81.5t44 -72.5t60 -66.5t66 -70t60 -75.5t44 -90.5t17 -108.5q0 -129 -78 -201t-199 -74l-72 -88q134 -34 134 -149q0 -103 -95 -169.5t-245 -84.5z" />
    <glyph glyph-name="Scaron" unicode="&#x160;" horiz-adv-x="897" 
d="M907 1456l15 -299l-19 -4q-26 99 -60 167t-73.5 103.5t-79.5 50.5t-88 15q-116 0 -186 -75.5t-70 -194.5q0 -47 14 -94t30 -79t53.5 -79.5t56 -68t67.5 -71.5q53 -57 83.5 -94t67 -94t53.5 -119.5t17 -132.5q0 -131 -58.5 -227.5t-154.5 -143.5t-217 -47q-181 0 -335 94
l-15 324l17 4q34 -111 75.5 -187t88.5 -117.5t94.5 -59t105.5 -17.5q135 0 218 100t83 240q0 63 -16.5 118.5t-53.5 109t-65.5 86.5t-83.5 90q-56 60 -83 92t-65 88t-54.5 112.5t-16.5 120.5q0 73 21.5 133.5t58.5 102.5t86 71t103 42.5t112 13.5q75 0 149 -20.5t125 -53.5z
M655 1602h-8l-225 319l14 14l234 -190l340 190l8 -14z" />
    <glyph glyph-name="scaron" unicode="&#x161;" horiz-adv-x="641" 
d="M594 963l6 -195l-16 -4q-91 203 -213 203q-64 0 -102 -45.5t-38 -112.5q0 -42 17 -81.5t44 -72.5t60 -66.5t66 -70t60 -75.5t44 -90.5t17 -108.5q0 -129 -78.5 -202t-200.5 -73q-147 0 -237 78l-7 232l17 4q46 -136 112.5 -206.5t141.5 -70.5q72 0 121 53t49 138
q0 52 -22.5 100.5t-56 85t-73 79t-73 82t-56 94.5t-22.5 116q0 120 75 185t185 65q105 0 180 -41zM432 1106h-6l-180 354l16 13l187 -218l294 218l11 -13z" />
    <glyph glyph-name="Tcommaaccent" unicode="&#x162;" horiz-adv-x="1138" 
d="M586 0h-207v4q31 51 49 107t37 159l213 1192l-191 -8q-86 -3 -143.5 -59.5t-191.5 -261.5l-17 8l123 358h963v-362l-17 -4q-58 192 -95.5 254t-96.5 65l-226 8l-213 -1192q-16 -100 -12.5 -154t25.5 -110v-4zM332 -459l-8 13q58 35 94.5 75t36.5 76q0 28 -20 62t-48 57v4
l84 70q74 -63 74 -125q0 -111 -213 -232z" />
    <glyph glyph-name="tcommaaccent" unicode="&#x163;" horiz-adv-x="540" 
d="M182 -31q-56 0 -86 46t-10 145l168 776h-113v4l248 184h4l-33 -151h242l-8 -37h-242l-166 -772q-24 -111 45 -111q45 0 97.5 51t91.5 109l18 -12q-127 -232 -256 -232zM55 -459l-8 13q58 35 94.5 75t36.5 76q0 28 -20 62t-47 57v4l84 70q73 -62 73 -125q0 -111 -213 -232
z" />
    <glyph glyph-name="Tcaron" unicode="&#x164;" horiz-adv-x="1138" 
d="M586 0h-207v4q31 51 49 107t37 159l213 1192l-191 -8q-86 -3 -143.5 -59.5t-191.5 -261.5l-17 8l123 358h963v-362l-17 -4q-58 192 -95.5 254t-96.5 65l-226 8l-213 -1192q-16 -100 -12.5 -154t25.5 -110v-4zM752 1602h-9l-225 319l14 14l234 -190l340 190l8 -14z" />
    <glyph glyph-name="tcaron" unicode="&#x165;" horiz-adv-x="540" 
d="M182 -31q-56 0 -86 46t-10 145l168 776h-113v4l248 184h4l-33 -151h242l-8 -37h-242l-166 -772q-24 -111 45 -111q45 0 97.5 51t91.5 109l18 -12q-127 -232 -256 -232zM518 1176l137 411h136l-261 -416z" />
    <glyph glyph-name="Tbar" unicode="&#x166;" horiz-adv-x="1138" 
d="M586 0h-207v4q31 51 49 107t37 159l82 461h-297l8 41h295l125 690l-191 -8q-86 -3 -143.5 -59.5t-191.5 -261.5l-17 8l123 358h963v-362l-17 -4q-58 192 -95.5 254t-96.5 65l-226 8l-122 -688h319l-8 -41h-320l-82 -463q-16 -100 -12.5 -154t25.5 -110v-4z" />
    <glyph glyph-name="tbar" unicode="&#x167;" horiz-adv-x="540" 
d="M182 -31q-56 0 -86 46t-10 145l102 475h-100l6 33h101l59 268h-113v4l248 184h4l-33 -151h242l-8 -37h-242l-57 -268h250l-6 -33h-252l-101 -471q-24 -111 45 -111q45 0 97.5 51t91.5 109l18 -12q-127 -232 -256 -232z" />
    <glyph glyph-name="Utilde" unicode="&#x168;" horiz-adv-x="1110" 
d="M516 -31q-68 0 -130 17.5t-116.5 55t-89 95.5t-48 139.5t6.5 186.5l140 768q16 100 12.5 154t-25.5 110v4h207v-4q-31 -51 -49 -107t-37 -159l-137 -760q-19 -122 -7 -208.5t55.5 -141.5t101.5 -80t130 -25q84 0 151 34t109 93t67.5 122.5t39.5 139.5l143 760
q23 107 19 173t-47 159v4h209v-4q-65 -92 -88.5 -154t-45.5 -178l-143 -760q-13 -67 -32.5 -125.5t-54.5 -117t-80 -99.5t-112.5 -66.5t-148.5 -25.5zM672 1835q46 0 92 -26t91 -52t87 -26q51 0 84.5 32t65.5 105l14 -2q-10 -36 -23.5 -68t-38.5 -71t-65.5 -62t-91.5 -23
q-38 0 -76.5 16.5t-65 36t-62.5 36t-69 16.5q-50 0 -87 -33t-68 -104l-17 2q9 34 25 68t42.5 71t69 60.5t93.5 23.5z" />
    <glyph glyph-name="utilde" unicode="&#x169;" horiz-adv-x="909" 
d="M532 -18l117 436q-90 -198 -202.5 -323.5t-227.5 -125.5q-89 0 -135.5 74t-9.5 217l135 518q39 150 -66 191v4h211l-182 -715q-25 -104 0 -151.5t86 -47.5q108 0 231 162.5t222 429.5l32 125q40 152 -63 193v4h215l-197 -752q-26 -81 -18.5 -125t70.5 -73v-3zM492 1389
q49 0 124 -34t119 -34q45 0 74 23t55 73l15 -2q-51 -194 -195 -194q-48 0 -123 33.5t-121 33.5q-45 0 -74 -23t-55 -73l-14 2q52 195 195 195z" />
    <glyph glyph-name="Umacron" unicode="&#x16a;" horiz-adv-x="1110" 
d="M516 -31q-68 0 -130 17.5t-116.5 55t-89 95.5t-48 139.5t6.5 186.5l140 768q16 100 12.5 154t-25.5 110v4h207v-4q-31 -51 -49 -107t-37 -159l-137 -760q-19 -122 -7 -208.5t55.5 -141.5t101.5 -80t130 -25q84 0 151 34t109 93t67.5 122.5t39.5 139.5l143 760
q23 107 19 173t-47 159v4h209v-4q-65 -92 -88.5 -154t-45.5 -178l-143 -760q-13 -67 -32.5 -125.5t-54.5 -117t-80 -99.5t-112.5 -66.5t-148.5 -25.5zM524 1716l15 72h520l-15 -72h-520z" />
    <glyph glyph-name="umacron" unicode="&#x16b;" horiz-adv-x="909" 
d="M532 -18l117 436q-90 -198 -202.5 -323.5t-227.5 -125.5q-89 0 -135.5 74t-9.5 217l135 518q39 150 -66 191v4h211l-182 -715q-25 -104 0 -151.5t86 -47.5q108 0 231 162.5t222 429.5l32 125q40 152 -63 193v4h215l-197 -752q-26 -81 -18.5 -125t70.5 -73v-3zM354 1249
l15 72h493l-16 -72h-492z" />
    <glyph glyph-name="Ubreve" unicode="&#x16c;" horiz-adv-x="1110" 
d="M516 -31q-68 0 -130 17.5t-116.5 55t-89 95.5t-48 139.5t6.5 186.5l140 768q16 100 12.5 154t-25.5 110v4h207v-4q-31 -51 -49 -107t-37 -159l-137 -760q-19 -122 -7 -208.5t55.5 -141.5t101.5 -80t130 -25q84 0 151 34t109 93t67.5 122.5t39.5 139.5l143 760
q23 107 19 173t-47 159v4h209v-4q-65 -92 -88.5 -154t-45.5 -178l-143 -760q-13 -67 -32.5 -125.5t-54.5 -117t-80 -99.5t-112.5 -66.5t-148.5 -25.5zM780 1733q196 0 262 165h15q-8 -44 -25.5 -85.5t-49.5 -83.5t-86.5 -67.5t-123.5 -25.5q-56 0 -99.5 18t-68.5 45.5
t-40.5 63.5t-20.5 69t-4 66h14q20 -87 76 -126t151 -39z" />
    <glyph glyph-name="ubreve" unicode="&#x16d;" horiz-adv-x="909" 
d="M532 -18l117 436q-90 -198 -202.5 -323.5t-227.5 -125.5q-89 0 -135.5 74t-9.5 217l135 518q39 150 -66 191v4h211l-182 -715q-25 -104 0 -151.5t86 -47.5q108 0 231 162.5t222 429.5l32 125q40 152 -63 193v4h215l-197 -752q-26 -81 -18.5 -125t70.5 -73v-3zM600 1257
q168 0 223 162h17q-5 -42 -21 -82.5t-44.5 -80t-77.5 -63.5t-111 -24q-48 0 -86 16.5t-60.5 42t-36.5 59.5t-18.5 67t-1.5 65h16q10 -78 63 -120t138 -42z" />
    <glyph glyph-name="Uring" unicode="&#x16e;" horiz-adv-x="1110" 
d="M516 -31q-68 0 -130 17.5t-116.5 55t-89 95.5t-48 139.5t6.5 186.5l140 768q16 100 12.5 154t-25.5 110v4h207v-4q-31 -51 -49 -107t-37 -159l-137 -760q-19 -122 -7 -208.5t55.5 -141.5t101.5 -80t130 -25q84 0 151 34t109 93t67.5 122.5t39.5 139.5l143 760
q23 107 19 173t-47 159v4h209v-4q-65 -92 -88.5 -154t-45.5 -178l-143 -760q-13 -67 -32.5 -125.5t-54.5 -117t-80 -99.5t-112.5 -66.5t-148.5 -25.5zM604 1772q0 75 48.5 124.5t123.5 49.5t123.5 -49.5t48.5 -124.5t-48.5 -122.5t-123.5 -47.5t-123.5 47.5t-48.5 122.5z
M662 1772q0 -63 29 -99.5t85 -36.5t85.5 36.5t29.5 99.5q0 64 -29 101.5t-86 37.5t-85.5 -37.5t-28.5 -101.5z" />
    <glyph glyph-name="uring" unicode="&#x16f;" horiz-adv-x="909" 
d="M532 -18l117 436q-90 -198 -202.5 -323.5t-227.5 -125.5q-89 0 -135.5 74t-9.5 217l135 518q39 150 -66 191v4h211l-182 -715q-25 -104 0 -151.5t86 -47.5q108 0 231 162.5t222 429.5l32 125q40 152 -63 193v4h215l-197 -752q-26 -81 -18.5 -125t70.5 -73v-3zM414 1292
q0 75 48.5 124.5t123.5 49.5t123.5 -49.5t48.5 -124.5t-48.5 -122.5t-123.5 -47.5t-123.5 47.5t-48.5 122.5zM471 1292q0 -63 29.5 -99t85.5 -36t85 36t29 99q0 64 -28.5 102t-85.5 38t-86 -38t-29 -102z" />
    <glyph glyph-name="Uhungarumlaut" unicode="&#x170;" horiz-adv-x="1110" 
d="M516 -31q-68 0 -130 17.5t-116.5 55t-89 95.5t-48 139.5t6.5 186.5l140 768q16 100 12.5 154t-25.5 110v4h207v-4q-31 -51 -49 -107t-37 -159l-137 -760q-19 -122 -7 -208.5t55.5 -141.5t101.5 -80t130 -25q84 0 151 34t109 93t67.5 122.5t39.5 139.5l143 760
q23 107 19 173t-47 159v4h209v-4q-65 -92 -88.5 -154t-45.5 -178l-143 -760q-13 -67 -32.5 -125.5t-54.5 -117t-80 -99.5t-112.5 -66.5t-148.5 -25.5zM852 1610l250 334l90 -103l-332 -239zM518 1610l250 334l90 -103l-332 -239z" />
    <glyph glyph-name="uhungarumlaut" unicode="&#x171;" horiz-adv-x="909" 
d="M532 -18l117 436q-90 -198 -202.5 -323.5t-227.5 -125.5q-89 0 -135.5 74t-9.5 217l135 518q39 150 -66 191v4h211l-182 -715q-25 -104 0 -151.5t86 -47.5q108 0 231 162.5t222 429.5l32 125q40 152 -63 193v4h215l-197 -752q-26 -81 -18.5 -125t70.5 -73v-3zM688 1118
l219 375l84 -63l-289 -322zM403 1118l220 375l84 -63l-289 -322z" />
    <glyph glyph-name="Uogonek" unicode="&#x172;" horiz-adv-x="1110" 
d="M438 -502q-69 0 -109 39t-40 111q0 104 66 187t169 134h-20q-84 0 -157.5 29.5t-129 87t-78 155.5t-0.5 222l140 768q16 100 12.5 154t-25.5 110v4h207v-4q-31 -51 -49 -107t-37 -159l-137 -760q-19 -122 -7 -208.5t55.5 -141.5t101.5 -80t130 -25q84 0 151 34t109 93
t67.5 122.5t39.5 139.5l143 760q23 107 19 173t-47 159v4h209v-4q-65 -92 -88.5 -154t-45.5 -178l-143 -760q-56 -292 -237 -391q-19 -10 -66.5 -25.5t-71.5 -27.5q-93 -47 -137.5 -119.5t-44.5 -150.5q0 -111 102 -111q54 0 101.5 32.5t81.5 86.5l12 -8q-21 -40 -42 -69.5
t-51 -59.5t-69 -46t-84 -16z" />
    <glyph glyph-name="uogonek" unicode="&#x173;" horiz-adv-x="909" 
d="M420 -502q-69 0 -109.5 39t-40.5 111q0 105 75 198t192 146l112 430q-90 -201 -202 -327t-228 -126q-89 0 -135.5 74t-9.5 217l135 518q39 150 -66 191v4h211l-182 -715q-25 -99 0 -149t86 -50q108 0 231 163t222 431l32 123q40 152 -63 193v4h215l-197 -752
q-26 -81 -18.5 -125t70.5 -73v-3q-96 -10 -152 -30q-97 -37 -163 -126t-66 -181q0 -52 27 -78.5t75 -26.5q107 0 182 119l13 -8q-21 -40 -42 -69.5t-51 -59.5t-69 -46t-84 -16z" />
    <glyph glyph-name="Wcircumflex" unicode="&#x174;" horiz-adv-x="1495" 
d="M354 -16h-41l-67 1196q-7 137 -22 200.5t-44 114.5v4h232v-4q-34 -50 -50.5 -120t-9.5 -197l54 -975l436 975v2q-7 135 -23 198t-47 117v4h238v-4q-34 -51 -51.5 -120.5t-10.5 -196.5l53 -977l435 981q30 69 44.5 123.5t12 91t-8.5 56.5t-18 42v4h220v-4
q-62 -48 -97 -100.5t-100 -200.5l-539 -1210h-41l-61 1097zM1229 1602l-234 190l-340 -190l-8 14l363 319h8l225 -319z" />
    <glyph glyph-name="wcircumflex" unicode="&#x175;" horiz-adv-x="1077" 
d="M215 -10h-20l-25 733q-3 111 -18.5 156t-69.5 90v4h184l25 -778l282 481v47q-1 110 -17.5 155t-70.5 91v4h185l10 -774l250 444q52 93 71.5 149t8 100t-61.5 77v4h211v-4l-555 -979h-20l-9 610zM883 1106l-187 217l-295 -217l-10 12l322 355h6l180 -355z" />
    <glyph glyph-name="Ycircumflex" unicode="&#x176;" horiz-adv-x="954" 
d="M262 0v4q54 80 78 140t43 163l70 385l-136 545q-27 105 -53 162.5t-65 95.5v4h252v-4q-62 -73 -21 -244l119 -510l282 467q107 177 31 287v4h234v-4q-44 -46 -68 -73t-59 -75t-70 -106l-340 -559l-65 -375q-19 -104 -16 -164t32 -139l-2 -4h-246zM952 1602l-233 190
l-340 -190l-8 14l362 319h8l226 -319z" />
    <glyph glyph-name="ycircumflex" unicode="&#x177;" horiz-adv-x="741" 
d="M-211 -461l29 139q48 1 82 6t77.5 24t81.5 52.5t84 93.5t95 146l-62 723q-11 130 -24 168t-64 78v4h174l66 -807l247 477q38 73 56.5 117t25 86t-9 70t-53.5 53v4h209v-4l-520 -969q-61 -116 -119 -200t-104 -131t-97 -76t-87.5 -38.5t-86.5 -15.5zM725 1106l-186 217
l-295 -217l-11 12l322 355h6l180 -355z" />
    <glyph glyph-name="Ydieresis" unicode="&#x178;" horiz-adv-x="954" 
d="M262 0v4q54 80 78 140t43 163l70 385l-136 545q-27 105 -53 162.5t-65 95.5v4h252v-4q-62 -73 -21 -244l119 -510l282 467q107 177 31 287v4h234v-4q-44 -46 -68 -73t-59 -75t-70 -106l-340 -559l-65 -375q-19 -104 -16 -164t32 -139l-2 -4h-246zM973 1778
q0 -35 -24.5 -59.5t-59.5 -24.5q-34 0 -59 24.5t-25 59.5t25 59.5t59 24.5q35 0 59.5 -24.5t24.5 -59.5zM580 1778q0 -35 -24.5 -59.5t-59.5 -24.5q-34 0 -59 24.5t-25 59.5t25 59.5t59 24.5q35 0 59.5 -24.5t24.5 -59.5z" />
    <glyph glyph-name="Zacute" unicode="&#x179;" horiz-adv-x="974" 
d="M762 0h-797v23l989 1439l-327 -10q-54 -2 -94.5 -13t-68.5 -23t-67 -55t-61 -72t-81 -110q-4 -6 -6.5 -9t-6 -8t-6.5 -9l-17 6l125 340h746v-22l-988 -1444l367 16q59 3 102.5 15.5t79 32.5t74.5 64.5t73 93t91 136.5l16 -6zM512 1616l459 348l63 -117l-514 -245z" />
    <glyph glyph-name="zacute" unicode="&#x17a;" horiz-adv-x="757" 
d="M580 0h-611v14l674 924l-192 -6q-80 -3 -146.5 -41.5t-163.5 -130.5l-8 4l100 209h545v-19l-674 -923l267 8q40 1 75.5 11t63.5 23t62.5 40t59 50t66.5 64l9 -4zM397 1104l324 430l86 -90l-399 -352z" />
    <glyph glyph-name="Zdotaccent" unicode="&#x17b;" horiz-adv-x="974" 
d="M762 0h-797v23l989 1439l-327 -10q-54 -2 -94.5 -13t-68.5 -23t-67 -55t-61 -72t-81 -110q-4 -6 -6.5 -9t-6 -8t-6.5 -9l-17 6l125 340h746v-22l-988 -1444l367 16q59 3 102.5 15.5t79 32.5t74.5 64.5t73 93t91 136.5l16 -6zM803 1778q0 -35 -24.5 -59.5t-59.5 -24.5
q-34 0 -59 24.5t-25 59.5t25 59.5t59 24.5q35 0 59.5 -24.5t24.5 -59.5z" />
    <glyph glyph-name="zdotaccent" unicode="&#x17c;" horiz-adv-x="757" 
d="M580 0h-611v14l674 924l-192 -6q-80 -3 -146.5 -41.5t-163.5 -130.5l-8 4l100 209h545v-19l-674 -923l267 8q40 1 75.5 11t63.5 23t62.5 40t59 50t66.5 64l9 -4zM598 1350q0 -35 -24.5 -59.5t-59.5 -24.5q-34 0 -59 24.5t-25 59.5t25 59.5t59 24.5q35 0 59.5 -24.5
t24.5 -59.5z" />
    <glyph glyph-name="Zcaron" unicode="&#x17d;" horiz-adv-x="974" 
d="M762 0h-797v23l989 1439l-327 -10q-54 -2 -94.5 -13t-68.5 -23t-67 -55t-61 -72t-81 -110q-4 -6 -6.5 -9t-6 -8t-6.5 -9l-17 6l125 340h746v-22l-988 -1444l367 16q59 3 102.5 15.5t79 32.5t74.5 64.5t73 93t91 136.5l16 -6zM723 1602h-8l-226 319l15 14l233 -190
l340 190l8 -14z" />
    <glyph glyph-name="zcaron" unicode="&#x17e;" horiz-adv-x="757" 
d="M580 0h-611v14l674 924l-192 -6q-80 -3 -146.5 -41.5t-163.5 -130.5l-8 4l100 209h545v-19l-674 -923l267 8q40 1 75.5 11t63.5 23t62.5 40t59 50t66.5 64l9 -4zM506 1106h-6l-181 354l17 13l186 -218l295 218l10 -13z" />
    <glyph glyph-name="uni0192" unicode="&#x192;" horiz-adv-x="892" 
d="M-25 -389q-74 0 -116 20l-19 254l17 4q72 -155 100 -193q33 -44 66 -44q47 0 83.5 81t96.5 285l217 734h-164l10 41h166l74 249q29 97 53.5 165.5t56.5 133.5t66 104t78.5 62t97.5 23q73 0 117 -21l18 -254l-16 -4q-2 5 -7 15q-21 45 -31 66.5t-26.5 53t-26.5 45.5
t-23.5 30.5t-25.5 22t-26 5.5q-47 0 -80.5 -76.5t-97.5 -284.5l-103 -335h203l-8 -41h-207l-201 -654q-26 -85 -44.5 -140.5t-43.5 -117t-49.5 -98.5t-55.5 -69.5t-68 -47t-81 -14.5z" />
    <glyph glyph-name="Aringacute" unicode="&#x1fa;" horiz-adv-x="952" 
d="M676 606l-64 717l-327 -717h391zM139 4v-4h-250v4q71 58 110 113.5t97 179.5l566 1216h38l115 -1263q8 -101 26.5 -148t59.5 -98v-4h-264v4q46 42 62 103t8 153l-27 305h-414l-116 -254q-41 -92 -43 -179t32 -128zM522 1772q0 75 48.5 124.5t123.5 49.5t123.5 -49.5
t48.5 -124.5t-48.5 -122.5t-123.5 -47.5t-123.5 47.5t-48.5 122.5zM580 1772q0 -63 29 -99.5t85 -36.5t85.5 36.5t29.5 99.5q0 64 -29 101.5t-86 37.5t-85.5 -37.5t-28.5 -101.5zM494 2007l458 348l64 -117l-514 -245z" />
    <glyph glyph-name="aringacute" unicode="&#x1fb;" horiz-adv-x="894" 
d="M266 59q49 0 100 36.5t91.5 88t86 131t74.5 141t64 142.5l76 287q-48 71 -148 71q-91 0 -177.5 -66.5t-146.5 -169t-96 -226t-36 -236.5q0 -199 112 -199zM520 -18l119 432q-92 -202 -199.5 -323.5t-226.5 -121.5q-79 0 -125.5 65.5t-46.5 192.5q0 190 87.5 370
t234.5 293.5t307 113.5q95 0 161 -37l50 37h8l-205 -783q-11 -40 -15 -60t-5.5 -45t6 -38.5t23 -28t42.5 -26.5v-3zM416 1292q0 75 48.5 124.5t123.5 49.5t123.5 -49.5t48.5 -124.5t-48.5 -122.5t-123.5 -47.5t-123.5 47.5t-48.5 122.5zM473 1292q0 -63 29.5 -99t85.5 -36
t85 36t29 99q0 64 -28.5 102t-85.5 38t-86 -38t-29 -102zM457 1554l458 349l64 -117l-514 -246z" />
    <glyph glyph-name="AEacute" unicode="&#x1fc;" horiz-adv-x="1650" 
d="M952 1290q8 40 11 78l-478 -762h344zM221 4v-4h-241v4q85 59 135 114t127 179l712 1137q-11 34 -45 61v4h688l23 -297l-16 -4q-68 144 -115.5 197.5t-124.5 54.5l-270 8l-123 -684h198q16 0 31 5t30.5 17t26.5 21.5t27 30t23.5 31t25 36t23.5 33.5h16l-59 -379h-17
q-14 37 -18 47.5t-16 37.5t-19 35t-20 22t-27.5 18t-32.5 4h-200l-125 -696l331 10q29 1 53.5 4.5t49 14t41 17t41 27.5t36.5 30.5t39.5 41t38 43.5t45.5 54.5t48 58.5l16 -6l-123 -332h-770v4q32 50 49 104.5t37 161.5l53 295h-362l-172 -274q-44 -72 -64.5 -128
t-19.5 -91.5t16 -67.5zM1042 1616l459 348l64 -117l-514 -245z" />
    <glyph glyph-name="aeacute" unicode="&#x1fd;" horiz-adv-x="1310" 
d="M1124 967q-104 0 -201 -90t-151 -238q461 43 461 229q0 48 -27.5 73.5t-81.5 25.5zM258 59q52 0 108 47t108 128t93.5 161t81.5 174q49 136 133 236q-18 62 -63.5 106.5t-116.5 44.5q-83 0 -166.5 -66.5t-144.5 -168.5t-99 -226.5t-38 -236.5q0 -199 104 -199zM1200 215
q-53 -111 -140 -178.5t-188 -67.5q-123 0 -194.5 96.5t-71.5 256.5q0 21 4 71q-88 -189 -193.5 -306.5t-209.5 -117.5q-75 0 -120.5 66t-45.5 192q0 141 53.5 283.5t138.5 250t197 175.5t223 68q140 0 215 -113q132 113 283 113q80 0 130 -34.5t50 -103.5q0 -52 -29.5 -95.5
t-93 -80.5t-177 -57t-267.5 -19q-39 -119 -39 -254q0 -309 199 -309q137 0 256 174zM748 1104l323 430l86 -90l-399 -352z" />
    <glyph glyph-name="Oslashacute" unicode="&#x1fe;" horiz-adv-x="1355" 
d="M240 565q0 -222 71 -358l801 1132q-97 150 -278 150q-136 0 -250 -77.5t-188 -207t-115 -295t-41 -344.5zM616 10q137 0 251 77.5t188 207.5t114.5 295t40.5 344q0 224 -71 360l-803 -1132q100 -152 280 -152zM602 -31q-179 0 -311 129l-111 -157h-57l135 192
q-149 179 -149 471q0 182 60 352.5t160 296t236.5 201.5t282.5 76q179 0 309 -127l113 158h57l-137 -193q151 -181 151 -473q0 -182 -60 -352.5t-160 -296t-236.5 -201.5t-282.5 -76zM670 1616l458 348l64 -117l-514 -245z" />
    <glyph glyph-name="oslashacute" unicode="&#x1ff;" horiz-adv-x="839" 
d="M799 647q0 -166 -67 -323.5t-179 -256t-234 -98.5q-108 0 -180 72l-123 -178h-55l148 215q-68 93 -68 248q0 166 67 323.5t178.5 256t233.5 98.5q106 0 178 -72l125 182h56l-150 -217q70 -99 70 -250zM680 664q0 82 -12 143l-482 -696q42 -105 142 -105q67 0 130.5 48.5
t112.5 132.5t79 209t30 268zM160 309q0 -90 10 -141l481 696q-42 103 -139 103q-67 0 -130.5 -48.5t-112.5 -132.5t-79 -209t-30 -268zM389 1104l324 430l86 -90l-400 -352z" />
    <glyph glyph-name="uni0218" unicode="&#x218;" horiz-adv-x="897" 
d="M907 1456l15 -299l-19 -4q-26 99 -60 167t-73.5 103.5t-79.5 50.5t-88 15q-116 0 -186 -75.5t-70 -194.5q0 -47 14 -94t30 -79t53.5 -79.5t56 -68t67.5 -71.5q53 -57 83.5 -94t67 -94t53.5 -119.5t17 -132.5q0 -131 -58.5 -227.5t-154.5 -143.5t-217 -47q-181 0 -335 94
l-15 324l17 4q34 -111 75.5 -187t88.5 -117.5t94.5 -59t105.5 -17.5q135 0 218 100t83 240q0 63 -16.5 118.5t-53.5 109t-65.5 86.5t-83.5 90q-56 60 -83 92t-65 88t-54.5 112.5t-16.5 120.5q0 73 21.5 133.5t58.5 102.5t86 71t103 42.5t112 13.5q75 0 149 -20.5t125 -53.5z
M199 -459l-9 13q58 35 95 75t37 76q0 28 -20 62t-48 57v4l84 70q74 -63 74 -125q0 -111 -213 -232z" />
    <glyph glyph-name="uni0219" unicode="&#x219;" horiz-adv-x="641" 
d="M594 963l6 -195l-16 -4q-91 203 -213 203q-64 0 -102 -45.5t-38 -112.5q0 -42 17 -81.5t44 -72.5t60 -66.5t66 -70t60 -75.5t44 -90.5t17 -108.5q0 -129 -78.5 -202t-200.5 -73q-147 0 -237 78l-7 232l17 4q46 -136 112.5 -206.5t141.5 -70.5q72 0 121 53t49 138
q0 52 -22.5 100.5t-56 85t-73 79t-73 82t-56 94.5t-22.5 116q0 120 75 185t185 65q105 0 180 -41zM68 -459l-9 13q58 35 94.5 75t36.5 76q0 28 -20 62t-47 57v4l84 70q74 -63 74 -125q0 -111 -213 -232z" />
    <glyph glyph-name="uni021A" unicode="&#x21a;" horiz-adv-x="1138" 
d="M586 0h-207v4q31 51 49 107t37 159l213 1192l-191 -8q-86 -3 -143.5 -59.5t-191.5 -261.5l-17 8l123 358h963v-362l-17 -4q-58 192 -95.5 254t-96.5 65l-226 8l-213 -1192q-16 -100 -12.5 -154t25.5 -110v-4zM332 -459l-8 13q58 35 94.5 75t36.5 76q0 28 -20 62t-48 57v4
l84 70q74 -63 74 -125q0 -111 -213 -232z" />
    <glyph glyph-name="uni021B" unicode="&#x21b;" horiz-adv-x="540" 
d="M182 -31q-56 0 -86 46t-10 145l168 776h-113v4l248 184h4l-33 -151h242l-8 -37h-242l-166 -772q-24 -111 45 -111q45 0 97.5 51t91.5 109l18 -12q-127 -232 -256 -232zM55 -459l-8 13q58 35 94.5 75t36.5 76q0 28 -20 62t-47 57v4l84 70q73 -62 73 -125q0 -111 -213 -232
z" />
    <glyph glyph-name="uni0237" unicode="&#x237;" horiz-adv-x="382" 
d="M-121 -430q89 67 129 262l174 866q31 154 -37 244v4l213 68l-241 -1120q-31 -144 -92 -231.5t-142 -102.5z" />
    <glyph glyph-name="circumflex" unicode="&#x2c6;" horiz-adv-x="876" 
d="M795 1106l-187 217l-295 -217l-10 12l322 355h6l180 -355z" />
    <glyph glyph-name="caron" unicode="&#x2c7;" horiz-adv-x="612" 
d="M418 1106h-6l-181 354l17 13l186 -218l295 218l10 -13z" />
    <glyph glyph-name="breve" unicode="&#x2d8;" horiz-adv-x="876" 
d="M602 1257q168 0 223 162h17q-5 -42 -21 -82.5t-44.5 -80t-77.5 -63.5t-111 -24q-48 0 -86 16.5t-60.5 42t-36.5 59.5t-18.5 67t-1.5 65h16q10 -78 63 -120t138 -42z" />
    <glyph glyph-name="dotaccent" unicode="&#x2d9;" horiz-adv-x="876" 
d="M686 1350q0 -35 -24.5 -59.5t-59.5 -24.5q-34 0 -59 24.5t-25 59.5t25 59.5t59 24.5q35 0 59.5 -24.5t24.5 -59.5z" />
    <glyph glyph-name="ring" unicode="&#x2da;" horiz-adv-x="614" 
d="M299 1292q0 75 48.5 124.5t123.5 49.5t123.5 -49.5t48.5 -124.5t-48.5 -122.5t-123.5 -47.5t-123.5 47.5t-48.5 122.5zM356 1292q0 -63 29.5 -99t85.5 -36t85.5 36t29.5 99q0 64 -29 102t-86 38t-86 -38t-29 -102z" />
    <glyph glyph-name="ogonek" unicode="&#x2db;" horiz-adv-x="614" 
d="M297 2h47q-112 -60 -172.5 -148t-60.5 -169q0 -53 27 -80t75 -27q107 0 182 119l13 -8q-47 -86 -104 -138.5t-142 -52.5q-69 0 -109.5 39t-40.5 111q0 100 79 197.5t206 156.5z" />
    <glyph glyph-name="tilde" unicode="&#x2dc;" horiz-adv-x="876" 
d="M498 1389q49 0 124 -34t119 -34q45 0 74 23t55 73l15 -2q-51 -194 -195 -194q-49 0 -123.5 33.5t-120.5 33.5q-45 0 -74 -23t-55 -73l-14 2q52 195 195 195z" />
    <glyph glyph-name="hungarumlaut" unicode="&#x2dd;" horiz-adv-x="874" 
d="M584 1118l219 375l84 -63l-289 -322zM299 1118l219 375l84 -63l-289 -322z" />
    <glyph glyph-name="Wgrave" unicode="&#x1e80;" horiz-adv-x="1495" 
d="M354 -16h-41l-67 1196q-7 137 -22 200.5t-44 114.5v4h232v-4q-34 -50 -50.5 -120t-9.5 -197l54 -975l436 975v2q-7 135 -23 198t-47 117v4h238v-4q-34 -51 -51.5 -120.5t-10.5 -196.5l53 -977l435 981q30 69 44.5 123.5t12 91t-8.5 56.5t-18 42v4h220v-4
q-62 -48 -97 -100.5t-100 -200.5l-539 -1210h-41l-61 1097zM1143 1616l-10 -14l-467 247l84 115z" />
    <glyph glyph-name="wgrave" unicode="&#x1e81;" horiz-adv-x="1077" 
d="M215 -10h-20l-25 733q-3 111 -18.5 156t-69.5 90v4h184l25 -778l282 481v47q-1 110 -17.5 155t-70.5 91v4h185l10 -774l250 444q52 93 71.5 149t8 100t-61.5 77v4h211v-4l-555 -979h-20l-9 610zM731 1104l-16 -12l-299 364l112 78z" />
    <glyph glyph-name="Wacute" unicode="&#x1e82;" horiz-adv-x="1495" 
d="M354 -16h-41l-67 1196q-7 137 -22 200.5t-44 114.5v4h232v-4q-34 -50 -50.5 -120t-9.5 -197l54 -975l436 975v2q-7 135 -23 198t-47 117v4h238v-4q-34 -51 -51.5 -120.5t-10.5 -196.5l53 -977l435 981q30 69 44.5 123.5t12 91t-8.5 56.5t-18 42v4h220v-4
q-62 -48 -97 -100.5t-100 -200.5l-539 -1210h-41l-61 1097zM735 1616l459 348l63 -117l-514 -245z" />
    <glyph glyph-name="wacute" unicode="&#x1e83;" horiz-adv-x="1077" 
d="M215 -10h-20l-25 733q-3 111 -18.5 156t-69.5 90v4h184l25 -778l282 481v47q-1 110 -17.5 155t-70.5 91v4h185l10 -774l250 444q52 93 71.5 149t8 100t-61.5 77v4h211v-4l-555 -979h-20l-9 610zM510 1104l324 430l86 -90l-400 -352z" />
    <glyph glyph-name="Wdieresis" unicode="&#x1e84;" horiz-adv-x="1495" 
d="M354 -16h-41l-67 1196q-7 137 -22 200.5t-44 114.5v4h232v-4q-34 -50 -50.5 -120t-9.5 -197l54 -975l436 975v2q-7 135 -23 198t-47 117v4h238v-4q-34 -51 -51.5 -120.5t-10.5 -196.5l53 -977l435 981q30 69 44.5 123.5t12 91t-8.5 56.5t-18 42v4h220v-4
q-62 -48 -97 -100.5t-100 -200.5l-539 -1210h-41l-61 1097zM1239 1778q0 -35 -24.5 -59.5t-59.5 -24.5q-34 0 -59 24.5t-25 59.5t25 59.5t59 24.5q35 0 59.5 -24.5t24.5 -59.5zM846 1778q0 -35 -24.5 -59.5t-59.5 -24.5q-34 0 -59 24.5t-25 59.5t25 59.5t59 24.5
q35 0 59.5 -24.5t24.5 -59.5z" />
    <glyph glyph-name="wdieresis" unicode="&#x1e85;" horiz-adv-x="1077" 
d="M215 -10h-20l-25 733q-3 111 -18.5 156t-69.5 90v4h184l25 -778l282 481v47q-1 110 -17.5 155t-70.5 91v4h185l10 -774l250 444q52 93 71.5 149t8 100t-61.5 77v4h211v-4l-555 -979h-20l-9 610zM584 1350q0 -35 -24.5 -59.5t-59.5 -24.5q-34 0 -59 24.5t-25 59.5t25 59.5
t59 24.5q35 0 59.5 -24.5t24.5 -59.5zM936 1350q0 -35 -24.5 -59.5t-59.5 -24.5q-34 0 -59 24.5t-25 59.5t25 59.5t59 24.5q35 0 59.5 -24.5t24.5 -59.5z" />
    <glyph glyph-name="Ygrave" unicode="&#x1ef2;" horiz-adv-x="954" 
d="M262 0v4q54 80 78 140t43 163l70 385l-136 545q-27 105 -53 162.5t-65 95.5v4h252v-4q-62 -73 -21 -244l119 -510l282 467q107 177 31 287v4h234v-4q-44 -46 -68 -73t-59 -75t-70 -106l-340 -559l-65 -375q-19 -104 -16 -164t32 -139l-2 -4h-246zM895 1616l-10 -14
l-467 247l84 115z" />
    <glyph glyph-name="ygrave" unicode="&#x1ef3;" horiz-adv-x="741" 
d="M-211 -461l29 139q48 1 82 6t77.5 24t81.5 52.5t84 93.5t95 146l-62 723q-11 130 -24 168t-64 78v4h174l66 -807l247 477q38 73 56.5 117t25 86t-9 70t-53.5 53v4h209v-4l-520 -969q-61 -116 -119 -200t-104 -131t-97 -76t-87.5 -38.5t-86.5 -15.5zM573 1104l-16 -12
l-299 364l113 78z" />
    <glyph glyph-name="uni2009" unicode="&#x2009;" horiz-adv-x="204" 
 />
    <glyph glyph-name="endash" unicode="&#x2013;" horiz-adv-x="952" 
d="M905 555h-813l4 37h815z" />
    <glyph glyph-name="emdash" unicode="&#x2014;" horiz-adv-x="1423" 
d="M1376 555h-1284l4 37h1286z" />
    <glyph glyph-name="quoteleft" unicode="&#x2018;" horiz-adv-x="321" 
d="M444 1546l11 -12q-67 -48 -111.5 -104.5t-44.5 -104.5q0 -49 74 -123v-4l-97 -84q-71 56 -71 129q0 46 22.5 91t64 86t74 67.5t78.5 58.5z" />
    <glyph glyph-name="quoteright" unicode="&#x2019;" horiz-adv-x="321" 
d="M190 1114l-10 12q67 48 111.5 104.5t44.5 104.5q0 49 -74 123v4l96 84q72 -56 72 -129q0 -46 -22.5 -91t-64.5 -86t-74 -67t-79 -59z" />
    <glyph glyph-name="quotesinglbase" unicode="&#x201a;" horiz-adv-x="321" 
d="M-45 -176l-10 12q67 48 111 104.5t44 104.5q0 50 -73 123v4l96 84q72 -56 72 -129q0 -46 -22.5 -91t-64.5 -86t-74 -67t-79 -59z" />
    <glyph glyph-name="quotedblleft" unicode="&#x201c;" horiz-adv-x="598" 
d="M721 1546l10 -12q-67 -48 -111.5 -104.5t-44.5 -104.5q0 -49 74 -123v-4l-96 -84q-72 56 -72 129q0 46 22.5 91t64.5 86t74 67t79 59zM444 1546l11 -12q-67 -48 -111.5 -104.5t-44.5 -104.5q0 -49 74 -123v-4l-97 -84q-71 56 -71 129q0 46 22.5 91t64 86t74 67.5
t78.5 58.5z" />
    <glyph glyph-name="quotedblright" unicode="&#x201d;" horiz-adv-x="598" 
d="M190 1114l-10 12q67 48 111.5 104.5t44.5 104.5q0 49 -74 123v4l96 84q72 -56 72 -129q0 -46 -22.5 -91t-64.5 -86t-74 -67t-79 -59zM467 1114l-10 12q67 48 111 104.5t44 104.5q0 50 -73 123v4l96 84q72 -56 72 -129q0 -46 -22.5 -91t-64.5 -86t-74 -67t-79 -59z" />
    <glyph glyph-name="quotedblbase" unicode="&#x201e;" horiz-adv-x="598" 
d="M-45 -176l-10 12q67 48 111 104.5t44 104.5q0 50 -73 123v4l96 84q72 -56 72 -129q0 -46 -22.5 -91t-64.5 -86t-74 -67t-79 -59zM231 -176l-10 12q67 48 111.5 104.5t44.5 104.5q0 49 -74 123v4l96 84q72 -56 72 -129q0 -46 -22.5 -91t-64.5 -86t-74 -67t-79 -59z" />
    <glyph glyph-name="dagger" unicode="&#x2020;" horiz-adv-x="815" 
d="M453 537l-136 -537h-36l61 557l135 504l-342 -47l23 119l323 -48l21 414h131l-127 -414l340 48l-23 -119l-323 47z" />
    <glyph glyph-name="daggerdbl" unicode="&#x2021;" horiz-adv-x="815" 
d="M709 367l-324 47l-20 -414h-132l127 414l-340 -47l23 118l322 -47l12 316l100 307l-342 -47l23 119l323 -48l21 414h131l-127 -414l340 48l-23 -119l-321 47l-21 -324l-92 -299l342 47z" />
    <glyph glyph-name="bullet" unicode="&#x2022;" horiz-adv-x="466" 
d="M252 432q-62 0 -107 45.5t-45 106.5q0 64 44.5 109.5t107.5 45.5q62 0 106.5 -45.5t44.5 -109.5q0 -60 -45 -106t-106 -46z" />
    <glyph glyph-name="ellipsis" unicode="&#x2026;" horiz-adv-x="1370" 
d="M168 -6q-39 0 -67.5 28.5t-28.5 67.5t28.5 67.5t67.5 28.5q40 0 68 -28t28 -68t-28 -68t-68 -28zM639 -6q-39 0 -67.5 28.5t-28.5 67.5t28.5 67.5t67.5 28.5q40 0 68 -28t28 -68t-28 -68t-68 -28zM1110 -6q-39 0 -67.5 28.5t-28.5 67.5t28.5 67.5t67.5 28.5q40 0 68 -28
t28 -68t-28 -68t-68 -28z" />
    <glyph glyph-name="perthousand" unicode="&#x2030;" horiz-adv-x="2115" 
d="M750 1225q0 -136 -52 -256t-135 -190t-172 -70q-98 0 -157.5 83.5t-59.5 221.5q0 135 52 255.5t135 190.5t171 70q99 0 158.5 -83.5t59.5 -221.5zM393 731q58 0 107 53.5t79.5 139t47 185.5t16.5 198q0 200 -111 200q-57 0 -106 -53.5t-79 -138.5t-47 -185t-17 -198
q0 -201 110 -201zM260 2l-33 27l1067 1493l35 -23zM1372 500q0 -136 -52 -256t-134.5 -190t-171.5 -70q-98 0 -157.5 83.5t-59.5 221.5q0 135 52 255.5t135 190.5t171 70q99 0 158 -83t59 -222zM1016 6q58 0 107 53.5t79.5 139t47 185.5t16.5 198q0 200 -111 200
q-76 0 -135 -92t-87 -221t-28 -262q0 -201 111 -201zM2034 500q0 -136 -52 -256t-135 -190t-172 -70q-98 0 -157.5 83.5t-59.5 221.5q0 135 52.5 255.5t135.5 190.5t171 70q99 0 158 -83t59 -222zM1677 6q58 0 107 53.5t79.5 139t47 185.5t16.5 198q0 200 -110 200
q-76 0 -135 -92t-87 -221t-28 -262q0 -201 110 -201z" />
    <glyph glyph-name="guilsinglleft" unicode="&#x2039;" horiz-adv-x="444" 
d="M309 119l-18 -13l-207 359l10 41l359 358l12 -12l-264 -373z" />
    <glyph glyph-name="guilsinglright" unicode="&#x203a;" horiz-adv-x="444" 
d="M147 852l19 12l207 -358l-11 -41l-358 -359l-12 13l264 373z" />
    <glyph glyph-name="fraction" unicode="&#x2044;" horiz-adv-x="538" 
d="M-207 2l-33 27l1067 1493l35 -23z" />
    <glyph glyph-name="Euro" unicode="&#x20ac;" horiz-adv-x="1224" 
d="M1075 109q-52 -48 -165 -94t-248 -46q-238 0 -362.5 167.5t-129.5 459.5h-174l8 37h166q3 119 27 233h-146l10 37h146q34 132 97 246.5t146.5 199t189.5 133t220 48.5q111 0 213.5 -37.5t147.5 -71.5l20 -264l-16 -4q-74 178 -169 257t-214 79q-94 0 -177 -45.5
t-146 -126t-109 -185t-74 -229.5h432l-10 -37h-430q-22 -120 -25 -233h408l-9 -37h-401v-21q0 -161 39 -286.5t122 -202t200 -76.5q57 0 109.5 19.5t97.5 52t92 85.5t87 109.5t89 135.5l20 -4z" />
    <glyph glyph-name="trademark" unicode="&#x2122;" horiz-adv-x="1333" 
d="M365 825h-136v4q25 39 39 117l97 527l-72 -3q-33 -1 -67.5 -39.5t-90.5 -123.5l-12 6l49 186h483v-190l-12 -2q-35 92 -55 127t-49 36l-86 5l-95 -529q-14 -79 7 -117v-4zM729 829v-4h-104v4q29 40 40 69.5t19 80.5l72 391q8 43 3.5 68.5t-28.5 58.5v2h127l86 -510
l264 510h125v-2q-26 -22 -39 -43.5t-17 -38.5t-13 -67l-72 -402q-12 -70 6 -117v-4h-135v4q25 39 39 117l78 434l-281 -536h-18l-93 542l-73 -407q-10 -48 -7.5 -78.5t21.5 -71.5z" />
    <glyph glyph-name="onethird" unicode="&#x2153;" horiz-adv-x="1298" 
d="M502 1524l-111 -637q-11 -56 -9 -88.5t19 -71.5v-2h-182v2q33 42 47 73.5t23 86.5l82 467h-78l2 10q108 60 197 160h10zM164 2l-33 27l1067 1493l35 -23zM893 -16q-49 0 -90 11t-58 25l-14 170l10 3q31 -91 70.5 -139t93.5 -48q77 0 127.5 90t50.5 195q0 84 -34.5 125
t-90.5 41q-59 0 -120 -47l-9 12l289 268h-274l51 96h354l-2 -10l-334 -307q31 14 72 14q81 0 141 -54.5t60 -154.5q0 -118 -80 -204t-213 -86z" />
    <glyph glyph-name="twothirds" unicode="&#x2154;" horiz-adv-x="1335" 
d="M481 725h-401l4 14q242 219 333 358.5t91 272.5q0 67 -27 102t-69 35q-46 0 -89.5 -46t-97.5 -136l-10 4l51 170q78 31 154 31q94 0 144 -45.5t50 -128.5q0 -127 -97.5 -245.5t-321.5 -289.5h184q53 0 89.5 23t78.5 71l6 -4zM211 2l-33 27l1067 1493l35 -23zM930 -16
q-49 0 -90 11t-58 25l-14 170l10 3q31 -91 70.5 -139t93.5 -48q77 0 127.5 90t50.5 195q0 84 -34.5 125t-90.5 41q-60 0 -121 -47l-8 12l289 268h-274l51 96h354l-2 -10l-334 -307q31 14 72 14q81 0 141 -54.5t60 -154.5q0 -118 -80 -204t-213 -86z" />
    <glyph glyph-name="oneeighth" unicode="&#x215b;" horiz-adv-x="1304" 
d="M934 -16q-88 0 -146.5 47t-58.5 133q0 78 50.5 138.5t150.5 90.5q-50 46 -74.5 87t-24.5 102q0 96 65 157.5t157 61.5q77 0 123.5 -44t46.5 -116q0 -41 -14.5 -78.5t-55 -74.5t-104.5 -56q35 -31 51 -46.5t40 -44.5t34 -60.5t10 -69.5q0 -103 -73.5 -165t-176.5 -62z
M522 1524l-110 -637q-11 -56 -9 -88.5t19 -71.5v-2h-182v2q32 41 46 73t23 87l82 467h-78l2 10q108 60 197 160h10zM940 6q66 0 111 44.5t45 109.5q0 43 -26 87t-50 67t-70 63l-10 8q-137 -81 -137 -221q0 -74 37.5 -116t99.5 -42zM164 2l-33 27l1067 1493l35 -23zM1036 444
l2 -2q107 75 107 209q0 61 -26.5 94t-76.5 33q-56 0 -92.5 -37.5t-36.5 -97.5q0 -58 32.5 -103t90.5 -96z" />
    <glyph glyph-name="threeeighths" unicode="&#x215c;" horiz-adv-x="1320" 
d="M950 -16q-88 0 -146.5 47t-58.5 133q0 78 50.5 138.5t150.5 90.5q-49 46 -73.5 87t-24.5 102q0 96 64.5 157.5t156.5 61.5q77 0 123.5 -44t46.5 -116q0 -41 -14.5 -78.5t-55 -74.5t-104.5 -56q35 -31 51 -46.5t40 -44.5t34 -60.5t10 -69.5q0 -103 -73.5 -165t-176.5 -62z
M287 709q-49 0 -90 11t-58 25l-14 170l10 3q31 -91 70.5 -139t93.5 -48q77 0 127.5 90t50.5 195q0 84 -34.5 125t-90.5 41q-60 0 -121 -47l-8 12l289 268h-274l51 96h354l-2 -10l-334 -307q31 14 72 14q81 0 141 -54.5t60 -154.5q0 -118 -80 -204t-213 -86zM956 6
q66 0 111 44.5t45 109.5q0 33 -12 63t-37.5 60t-43.5 47.5t-52 46.5l-11 8q-137 -81 -137 -221q0 -74 37.5 -116t99.5 -42zM180 2l-33 27l1067 1493l35 -23zM1053 444l2 -2q106 74 106 209q0 62 -26.5 94.5t-75.5 32.5q-56 0 -92.5 -37.5t-36.5 -97.5q0 -58 32.5 -103
t90.5 -96z" />
    <glyph glyph-name="fiveeighths" unicode="&#x215d;" horiz-adv-x="1314" 
d="M944 -16q-88 0 -146.5 47t-58.5 133q0 78 50.5 138.5t150.5 90.5q-49 46 -73.5 87t-24.5 102q0 96 64.5 157.5t156.5 61.5q77 0 123.5 -44t46.5 -116q0 -41 -14.5 -78.5t-55 -74.5t-104.5 -56q35 -31 51 -46.5t40 -44.5t34 -60.5t10 -69.5q0 -103 -73.5 -165t-176.5 -62z
M276 709q-47 0 -87.5 11t-57.5 25l-14 170l10 3q31 -91 70.5 -139t93.5 -48q75 0 123.5 87t48.5 204q0 182 -133 182q-65 0 -127 -47l-6 6l106 350h322l-31 -96h-295l-72 -223q58 35 133 35q94 0 151.5 -53.5t57.5 -161.5q0 -129 -81 -217t-212 -88zM950 6q66 0 111 44.5
t45 109.5q0 33 -12 63t-37.5 60t-43.5 47.5t-52 46.5l-11 8q-137 -81 -137 -221q0 -74 37.5 -116t99.5 -42zM174 2l-33 27l1067 1493l35 -23zM1047 444l2 -2q106 74 106 209q0 62 -26.5 94.5t-75.5 32.5q-56 0 -92.5 -37.5t-36.5 -97.5q0 -58 32.5 -103t90.5 -96z" />
    <glyph glyph-name="seveneighths" unicode="&#x215e;" horiz-adv-x="1327" 
d="M956 -16q-88 0 -146 47t-58 133q0 78 50.5 138.5t149.5 90.5q-49 46 -73.5 87t-24.5 102q0 96 64.5 157.5t156.5 61.5q77 0 123.5 -44t46.5 -116q0 -41 -14.5 -78.5t-55 -74.5t-104.5 -56q35 -31 51 -46.5t40 -44.5t34 -60.5t10 -69.5q0 -103 -73.5 -165t-176.5 -62z
M393 725h-108q137 344 413 692h-362l35 96h403v-10q-266 -399 -381 -778zM963 6q66 0 110.5 44.5t44.5 109.5q0 33 -12 63t-37.5 60t-43.5 47.5t-52 46.5l-10 8q-138 -81 -138 -221q0 -74 38 -116t100 -42zM186 2l-32 27l1067 1493l34 -23zM1059 444l2 -2q106 74 106 209
q0 62 -26.5 94.5t-75.5 32.5q-56 0 -92.5 -37.5t-36.5 -97.5q0 -58 32.5 -103t90.5 -96z" />
    <glyph glyph-name="minus" unicode="&#x2212;" horiz-adv-x="1089" 
d="M1038 610h-905v41h905v-41z" />
    <glyph glyph-name="uni24C5" unicode="&#x24c5;" horiz-adv-x="1736" 
d="M113 752q0 160 62 304.5t166.5 248t248.5 164.5t303 61t304 -61t249.5 -164.5t166.5 -248t62 -304.5q0 -161 -62 -306t-167 -249t-249.5 -165t-303.5 -61t-303 61t-248.5 165t-166.5 249t-62 306zM164 752q0 -151 57.5 -288t155.5 -236t232.5 -157.5t283.5 -58.5
t283.5 58.5t232.5 157.5t155.5 236t57.5 288t-57.5 287.5t-155.5 235t-232.5 156.5t-283.5 58t-283.5 -58t-232.5 -156.5t-155.5 -235t-57.5 -287.5zM662 313v4q27 33 36 59.5t9 72.5v555q0 46 -8.5 72t-36.5 59v4h266q252 0 252 -230q0 -121 -71.5 -189.5t-199.5 -68.5
h-131v-202q0 -47 8 -73t35 -59v-4h-159zM909 1104q-51 0 -131 -2v-414h131q98 0 146.5 60.5t48.5 160.5q0 110 -53 152.5t-142 42.5z" />
    <glyph glyph-name="f.alt" unicode="&#xe4c5;" horiz-adv-x="526" 
d="M47 0v4q25 43 45 99.5t28.5 93t31.5 137.5l131 602h-115l8 37h113l45 205q45 212 137.5 314.5t212.5 102.5q28 0 53.5 -6t35.5 -11l34 -17l14 -187l-8 -2q-57 95 -96.5 137.5t-87.5 42.5q-56 0 -102 -74t-87 -268l-51 -237h205l-8 -37h-203l-127 -596
q-30 -145 -35.5 -209t10.5 -127v-4h-184z" />
    <glyph glyph-name="k.alt" unicode="&#xe4ca;" horiz-adv-x="833" 
d="M190 0h-180v4q9 14 17 27.5t15.5 32t13 30t12 35.5t9.5 33.5t10 40t8.5 39t9.5 46t10 46.5l198 946q20 101 12 149t-49 95v4l205 67l-266 -1257q-30 -144 -35.5 -207.5t10.5 -126.5v-4zM616 -10q-51 0 -98 37t-102 141q-68 126 -142 336l297 297q49 49 65 93t-7 75v4h245
v-4q-85 -30 -159.5 -93.5t-343.5 -332.5q65 -185 133 -314q44 -83 78 -114t73 -31q47 0 86 39l7 -4q-18 -62 -54 -95.5t-78 -33.5z" />
    <glyph glyph-name="v.alt" unicode="&#xe4d5;" horiz-adv-x="755" 
d="M356 973l-188 -744q-22 -94 -3 -138t75 -44q59 0 123.5 50.5t123.5 144.5q73 113 135 278t62 283q0 120 -78 166v4h191v-4q-34 -216 -113.5 -425.5t-171.5 -346.5q-73 -110 -154.5 -169t-156.5 -59q-83 0 -125 66.5t-13 181.5l144 561q36 151 -66 191v4h215z" />
    <glyph glyph-name="w.alt" unicode="&#xe4d6;" horiz-adv-x="1187" 
d="M647 -31q-89 0 -127 65.5t-8 182.5l18 70q-36 -74 -63 -115q-125 -203 -272 -203q-87 0 -124.5 65.5t-7.5 182.5l144 561q36 151 -66 191v4h215l-188 -744q-45 -182 68 -182q112 0 213 172q114 193 192 504l14 55q36 151 -65 191v4h215l-189 -744q-23 -94 -6 -138t76 -44
q61 0 115.5 46t111.5 136q75 124 137 290t62 284q0 120 -78 166v4h191v-4q-34 -216 -114 -427t-175 -358q-69 -106 -139 -160.5t-150 -54.5z" />
    <glyph glyph-name="x.alt" unicode="&#xe4d7;" horiz-adv-x="776" 
d="M276 254q-39 -73 -68.5 -117.5t-68 -80.5t-84 -51t-106.5 -15l18 102q92 0 161 50.5t128 158.5l96 193l-61 239q-28 107 -56 157.5t-81 78.5v4h180l106 -418l103 205q56 119 124.5 171t170.5 52l-19 -102q-178 0 -256 -168l-108 -215l65 -258q27 -106 55.5 -157t81.5 -79
v-4h-176l-112 436z" />
    <glyph glyph-name="y.alt" unicode="&#xe4d8;" horiz-adv-x="741" 
d="M-236 -502l46 140q103 -3 215 46t208 160q-2 467 -40 793q-17 155 -46 226t-90 106v4h185q36 -99 65 -336q28 -242 31 -647q129 203 213 412.5t84 379.5q0 124 -90 187v4h217v-4q-69 -446 -324 -891q-46 -80 -89.5 -145.5t-108.5 -141.5t-132 -130.5t-157 -99.5t-187 -63
z" />
    <glyph glyph-name="z.alt" unicode="&#xe4d9;" horiz-adv-x="737" 
d="M565 0h-606l4 14l703 869l-283 -4q-66 -1 -110.5 -26.5t-116.5 -92.5l-9 4l80 209h561l-6 -19l-704 -870l340 8q77 1 128.5 32.5t117.5 102.5l8 -4z" />
    <glyph glyph-name="idotaccent" 
d="M442 1350q0 -35 -24.5 -59.5t-59.5 -24.5q-34 0 -59 24.5t-25 59.5t25 59.5t59 24.5q35 0 59.5 -24.5t24.5 -59.5zM14 0v4q27 40 47 95t29.5 98t28.5 137l71 364q31 155 -36 244v4l196 68l-149 -762q-11 -59 -15.5 -95.5t-3 -76t12.5 -76.5v-4h-181z" />
    <glyph glyph-name="space_uni0326" horiz-adv-x="614" 
d="M113 -459l-9 13q58 35 95 75t37 76q0 28 -20 62t-48 57v4l84 70q74 -63 74 -125q0 -111 -213 -232z" />
    <glyph glyph-name="five.num" horiz-adv-x="487" 
d="M256 709q-47 0 -87.5 11t-57.5 25l-15 170l10 3q31 -91 70.5 -139t93.5 -48q75 0 123.5 87t48.5 204q0 182 -133 182q-65 0 -127 -47l-6 6l107 350h321l-31 -96h-294l-72 -223q58 35 133 35q94 0 151.5 -53.5t57.5 -161.5q0 -129 -81 -217t-212 -88z" />
    <glyph glyph-name="zero.num" horiz-adv-x="657" 
d="M729 1225q0 -136 -52 -256t-134.5 -190t-171.5 -70q-98 0 -157.5 83.5t-59.5 221.5q0 135 52 255.5t135 190.5t171 70q99 0 158 -83t59 -222zM373 731q58 0 107 53.5t79.5 139t47 185.5t16.5 198q0 200 -111 200q-76 0 -135 -92t-87 -221t-28 -262q0 -201 111 -201z" />
    <glyph glyph-name="one.num" horiz-adv-x="319" 
d="M393 1524l-110 -637q-11 -56 -9 -88.5t19 -71.5v-2h-182v2q32 41 46 73t23 87l82 467h-78l2 10q108 60 197 160h10z" />
    <glyph glyph-name="two.num" horiz-adv-x="524" 
d="M461 725h-402l4 14q242 219 333 358.5t91 272.5q0 67 -27 102t-69 35q-46 0 -88.5 -46t-97.5 -136l-10 4l51 170q78 31 153 31q94 0 144.5 -45.5t50.5 -128.5q0 -127 -98 -245.5t-322 -289.5h184q53 0 89.5 23t78.5 71l6 -4z" />
    <glyph glyph-name="three.num" horiz-adv-x="518" 
d="M266 709q-49 0 -89.5 11t-57.5 25l-15 170l11 3q31 -91 70.5 -139t93.5 -48q77 0 127.5 90t50.5 195q0 84 -34.5 125t-90.5 41q-60 0 -121 -47l-8 12l289 268h-275l51 96h355l-2 -10l-334 -307q32 14 71 14q81 0 141 -54.5t60 -154.5q0 -118 -80 -204t-213 -86z" />
    <glyph glyph-name="four.num" horiz-adv-x="507" 
d="M317 725l2 2q27 41 39 72.5t21 87.5l8 43h-289l2 14l389 569h117l-477 -559h262l47 265h101l-45 -265h75l-10 -24h-70l-8 -43q-11 -58 -10 -89.5t14 -70.5v-2h-168z" />
    <glyph glyph-name="six.num" horiz-adv-x="565" 
d="M334 709q-89 0 -140 66.5t-51 176.5q0 78 26 158.5t78 159.5t141 148t204 112l2 -10q-105 -54 -181 -149.5t-120 -211.5q59 90 151 90q78 0 125 -52.5t47 -147.5q0 -138 -86.5 -239t-195.5 -101zM336 731q70 0 121 98.5t51 223.5q0 153 -94 153q-88 0 -135 -94v2
q-33 -106 -33 -213q0 -170 90 -170z" />
    <glyph glyph-name="seven.num" horiz-adv-x="448" 
d="M242 725h-109q136 342 414 692h-363l35 96h404v-10q-266 -399 -381 -778z" />
    <glyph glyph-name="eight.num" horiz-adv-x="555" 
d="M348 709q-88 0 -146.5 47t-58.5 133q0 78 50.5 138.5t150.5 90.5q-49 46 -73.5 87t-24.5 102q0 96 64.5 157.5t156.5 61.5q77 0 123.5 -44t46.5 -116q0 -41 -14.5 -78.5t-55 -74.5t-104.5 -56q35 -31 51 -46.5t40 -44.5t34 -60.5t10 -69.5q0 -103 -73.5 -165t-176.5 -62z
M354 731q66 0 111 44.5t45 109.5q0 33 -12 63t-37.5 60t-43.5 47.5t-52 46.5l-11 8q-137 -81 -137 -221q0 -74 37.5 -116t99.5 -42zM451 1169l2 -2q106 74 106 209q0 62 -26.5 94.5t-75.5 32.5q-56 0 -92.5 -37.5t-36.5 -97.5q0 -58 32.5 -103t90.5 -96z" />
    <glyph glyph-name="nine.num" horiz-adv-x="565" 
d="M207 719q105 54 181 149t118 211q-57 -90 -150 -90q-78 0 -125 53t-47 148q0 138 86.5 239t196.5 101q89 0 139.5 -66.5t50.5 -177.5q0 -61 -15.5 -124.5t-50.5 -130t-86 -125t-127 -110.5t-169 -87zM522 1126v-2q33 103 33 213q0 170 -90 170q-70 0 -121 -98.5
t-51 -222.5q0 -154 94 -154q88 0 135 94z" />
    <glyph glyph-name="five.den" horiz-adv-x="487" 
d="M123 -16q-47 0 -88 11t-58 25l-14 170l10 3q31 -91 70.5 -139t93.5 -48q75 0 123.5 87t48.5 204q0 182 -133 182q-65 0 -127 -47l-6 6l107 350h321l-31 -96h-295l-71 -223q58 35 133 35q94 0 151.5 -53.5t57.5 -161.5q0 -129 -81 -217t-212 -88z" />
    <glyph glyph-name="zero.den" horiz-adv-x="657" 
d="M596 500q0 -136 -52 -256t-134.5 -190t-171.5 -70q-98 0 -158 83.5t-60 221.5q0 135 52.5 255.5t135.5 190.5t171 70q99 0 158 -83t59 -222zM240 6q77 0 135.5 92t86 221t27.5 263q0 200 -110 200q-76 0 -135 -92t-87 -221t-28 -262q0 -201 111 -201z" />
    <glyph glyph-name="one.den" horiz-adv-x="319" 
d="M276 799l-110 -637q-11 -56 -9 -88.5t19 -71.5v-2h-182v2q32 41 46 73t23 87l82 467h-77l2 10q106 59 196 160h10z" />
    <glyph glyph-name="two.den" horiz-adv-x="524" 
d="M328 0h-402l4 14q242 219 333 358.5t91 272.5q0 67 -27 102t-69 35q-46 0 -88.5 -46t-97.5 -136l-11 4l52 170q78 31 153 31q94 0 144.5 -45.5t50.5 -128.5q0 -127 -98 -245.5t-322 -289.5h184q53 0 89.5 23t78.5 71l6 -4z" />
    <glyph glyph-name="three.den" horiz-adv-x="518" 
d="M133 -16q-49 0 -89.5 11t-57.5 25l-15 170l11 3q31 -91 70 -139t93 -48q77 0 128 90t51 195q0 84 -34.5 125t-90.5 41q-60 0 -121 -47l-8 12l288 268h-274l51 96h354l-2 -10l-333 -307q32 14 71 14q81 0 141 -54.5t60 -154.5q0 -118 -80 -204t-213 -86z" />
    <glyph glyph-name="four.den" horiz-adv-x="507" 
d="M184 0l2 2q27 41 39 72.5t21 87.5l8 43h-289l2 14l389 569h117l-477 -559h262l47 265h101l-46 -265h76l-10 -24h-70l-8 -43q-11 -58 -10 -89.5t14 -70.5v-2h-168z" />
    <glyph glyph-name="six.den" horiz-adv-x="565" 
d="M201 -16q-89 0 -140 66.5t-51 176.5q0 78 26 158.5t78 159.5t141 148t204 112l2 -10q-105 -54 -181 -149.5t-120 -211.5q59 90 151 90q78 0 125 -52.5t47 -147.5q0 -138 -86.5 -239t-195.5 -101zM203 6q70 0 121 98.5t51 223.5q0 153 -94 153q-89 0 -136 -94v2
q-32 -103 -32 -213q0 -170 90 -170z" />
    <glyph glyph-name="seven.den" horiz-adv-x="448" 
d="M109 0h-109q136 342 414 692h-363l35 96h403v-10q-264 -397 -380 -778z" />
    <glyph glyph-name="eight.den" horiz-adv-x="555" 
d="M215 -16q-88 0 -146.5 47t-58.5 133q0 78 50.5 138.5t150.5 90.5q-49 46 -73.5 87t-24.5 102q0 96 64.5 157.5t156.5 61.5q76 0 123 -44t47 -116q0 -41 -14.5 -78.5t-55 -74.5t-104.5 -56q35 -31 51 -46.5t40 -44.5t34 -60.5t10 -69.5q0 -103 -73.5 -165t-176.5 -62z
M221 6q66 0 111 44.5t45 109.5q0 43 -26 87t-50 67t-70 63l-10 8q-137 -81 -137 -221q0 -74 37.5 -116t99.5 -42zM317 444l2 -2q107 75 107 209q0 62 -26.5 94.5t-75.5 32.5q-56 0 -92.5 -37.5t-36.5 -97.5q0 -58 32 -103.5t90 -95.5z" />
    <glyph glyph-name="nine.den" horiz-adv-x="565" 
d="M74 -6q105 54 181 149t118 211q-57 -90 -150 -90q-78 0 -125 53t-47 148q0 138 86.5 239t196.5 101q89 0 139.5 -66.5t50.5 -177.5q0 -61 -15.5 -124.5t-50.5 -130t-86 -125t-127 -110.5t-169 -87zM389 401v-2q33 103 33 213q0 170 -90 170q-70 0 -121 -98.5t-51 -222.5
q0 -154 94 -154q88 0 135 94z" />
    <glyph glyph-name="five.sub" horiz-adv-x="487" 
d="M98 -180q-47 0 -87.5 11.5t-57.5 25.5l-14 170l10 2q31 -91 70.5 -139t93.5 -48q75 0 123.5 87t48.5 204q0 182 -133 182q-65 0 -127 -47l-7 6l107 351h321l-30 -97h-295l-72 -223q58 35 133 35q94 0 151.5 -53.5t57.5 -161.5q0 -129 -81 -217t-212 -88z" />
    <glyph glyph-name="zero.sub" horiz-adv-x="657" 
d="M571 336q0 -136 -52 -256t-134.5 -190t-171.5 -70q-98 0 -157.5 83.5t-59.5 221.5q0 135 52 255.5t135 190.5t171 70q99 0 158 -83t59 -222zM215 -158q58 0 107 53.5t79.5 139t47 185.5t16.5 198q0 200 -111 200q-76 0 -135 -92t-87 -221t-28 -262q0 -201 111 -201z" />
    <glyph glyph-name="one.sub" horiz-adv-x="319" 
d="M252 635l-111 -637q-11 -57 -8.5 -88.5t19.5 -71.5v-2h-183v2q33 42 47 73.5t23 86.5l82 467h-78l2 10q108 60 197 160h10z" />
    <glyph glyph-name="two.sub" horiz-adv-x="524" 
d="M303 -164h-401l4 14q242 219 333 358.5t91 272.5q0 67 -27.5 102t-69.5 35q-46 0 -88.5 -46t-97.5 -136l-10 4l51 170q78 31 154 31q94 0 144 -45.5t50 -128.5q0 -127 -98 -245.5t-322 -289.5h185q53 0 89 23.5t79 71.5l6 -4z" />
    <glyph glyph-name="three.sub" horiz-adv-x="518" 
d="M109 -180q-48 0 -89.5 11.5t-58.5 25.5l-14 170l10 2q31 -91 70.5 -139t93.5 -48q77 0 127.5 90t50.5 195q0 84 -34.5 125t-90.5 41q-60 0 -121 -47l-8 12l289 268h-275l52 97h354l-2 -11l-334 -307q31 14 72 14q81 0 140.5 -54t59.5 -154q0 -119 -80 -205t-212 -86z" />
    <glyph glyph-name="four.sub" horiz-adv-x="507" 
d="M160 -164l2 2q27 40 38.5 72t20.5 88l8 43h-288l2 14l389 570h117l-478 -559h262l48 264h100l-45 -264h76l-11 -25h-69l-8 -43q-11 -58 -10 -89.5t14 -70.5v-2h-168z" />
    <glyph glyph-name="six.sub" horiz-adv-x="565" 
d="M176 -180q-89 0 -139.5 66t-50.5 177q0 78 26 158.5t77.5 159.5t140.5 148t204 112l2 -10q-105 -54 -181 -149.5t-120 -211.5q26 39 65 64.5t87 25.5q78 0 125 -52.5t47 -147.5q0 -138 -86.5 -239t-196.5 -101zM178 -158q70 0 121 98.5t51 223.5q0 153 -94 153
q-88 0 -135 -94v2q-33 -106 -33 -213q0 -170 90 -170z" />
    <glyph glyph-name="seven.sub" horiz-adv-x="448" 
d="M84 -164h-109q136 342 414 692h-362l34 97h404v-11q-266 -399 -381 -778z" />
    <glyph glyph-name="eight.sub" horiz-adv-x="555" 
d="M190 -180q-88 0 -146 47t-58 133q0 78 50.5 138.5t149.5 90.5q-49 46 -73.5 87t-24.5 102q0 96 64.5 157.5t156.5 61.5q77 0 123.5 -44t46.5 -116q0 -41 -14.5 -78.5t-55 -74.5t-104.5 -56q35 -31 51 -46.5t40 -44.5t34 -60.5t10 -69.5q0 -103 -73.5 -165t-176.5 -62z
M197 -158q66 0 110.5 44.5t44.5 109.5q0 33 -12 63t-37.5 60t-43.5 47.5t-52 46.5l-10 8q-138 -81 -138 -221q0 -74 38 -116t100 -42zM293 281l2 -2q106 74 106 208q0 62 -26.5 94.5t-75.5 32.5q-56 0 -92.5 -37.5t-36.5 -97.5q0 -58 32 -102.5t91 -95.5z" />
    <glyph glyph-name="nine.sub" horiz-adv-x="565" 
d="M297 641q89 0 139.5 -66.5t50.5 -177.5q0 -61 -15.5 -124.5t-50.5 -130t-86 -125t-127 -110.5t-169 -87l-2 10q105 54 181 149t120 211q-26 -39 -65 -64.5t-87 -25.5q-78 0 -125 53t-47 148q0 138 86.5 239t196.5 101zM295 618q-70 0 -121 -98.5t-51 -222.5
q0 -154 94 -154q87 0 135 95v-2q33 106 33 213q0 169 -90 169z" />
    <glyph glyph-name="plus.sub" horiz-adv-x="645" 
d="M553 217h-252v-252h-41v252h-250v37h250v252h41v-252h252v-37z" />
    <glyph glyph-name="minus.sub" horiz-adv-x="645" 
d="M553 217h-543v37h543v-37z" />
    <glyph glyph-name="five.sup" horiz-adv-x="487" 
d="M276 872q-47 0 -87.5 11.5t-57.5 25.5l-14 170l10 2q31 -91 70.5 -138.5t93.5 -47.5q75 0 123.5 87t48.5 204q0 182 -133 182q-65 0 -127 -47l-6 6l106 350h322l-31 -96h-295l-72 -223q58 35 133 35q94 0 151.5 -53.5t57.5 -161.5q0 -129 -81 -217.5t-212 -88.5z" />
    <glyph glyph-name="zero.sup" horiz-adv-x="657" 
d="M750 1389q0 -136 -52 -256.5t-135 -190.5t-172 -70q-98 0 -157.5 84t-59.5 222q0 135 52 255.5t135 190.5t171 70q99 0 158.5 -83.5t59.5 -221.5zM393 895q77 0 136 92t86.5 220.5t27.5 262.5q0 201 -111 201q-57 0 -106 -53.5t-79 -138.5t-47 -185t-17 -198
q0 -201 110 -201z" />
    <glyph glyph-name="one.sup" horiz-adv-x="319" 
d="M420 1688l-111 -637q-11 -56 -9 -88.5t19 -71.5v-2h-182v2q33 42 47 73.5t23 86.5l82 467h-78l2 10q108 60 197 160h10z" />
    <glyph glyph-name="two.sup" horiz-adv-x="524" 
d="M481 889h-401l4 14q242 219 333 358.5t91 272.5q0 67 -27 102t-69 35q-46 0 -89.5 -46t-97.5 -136l-10 4l51 170q78 31 154 31q94 0 144 -45.5t50 -128.5q0 -127 -97.5 -245.5t-321.5 -289.5h184q53 0 89.5 23t78.5 71l6 -4z" />
    <glyph glyph-name="three.sup" horiz-adv-x="518" 
d="M287 872q-48 0 -89.5 11.5t-58.5 25.5l-14 170l10 2q31 -91 70.5 -138.5t93.5 -47.5q77 0 127.5 90t50.5 195q0 84 -34.5 125t-90.5 41q-59 0 -121 -48l-8 13l289 268h-274l51 96h354l-2 -10l-334 -307q31 14 72 14q81 0 141 -54.5t60 -154.5q0 -118 -80.5 -204.5
t-212.5 -86.5z" />
    <glyph glyph-name="four.sup" horiz-adv-x="507" 
d="M338 889l2 2q27 40 38.5 72t20.5 88l9 43h-289l2 14l389 569h117l-477 -559h262l47 264h100l-45 -264h76l-10 -24h-70l-8 -43q-11 -58 -10 -89.5t14 -70.5v-2h-168z" />
    <glyph glyph-name="six.sup" horiz-adv-x="565" 
d="M354 872q-89 0 -139.5 66.5t-50.5 177.5q0 78 26 158.5t77.5 159.5t140.5 148t204 112l2 -11q-105 -54 -181 -149t-120 -211q26 39 65 64.5t87 25.5q78 0 125 -53t47 -148q0 -138 -86.5 -239t-196.5 -101zM356 895q70 0 121 98.5t51 223.5q0 153 -94 153q-88 0 -135 -94
v2q-33 -106 -33 -213q0 -170 90 -170z" />
    <glyph glyph-name="seven.sup" horiz-adv-x="448" 
d="M262 889h-108q137 344 413 692h-362l35 96h403v-10q-266 -399 -381 -778z" />
    <glyph glyph-name="eight.sup" horiz-adv-x="555" 
d="M369 872q-88 0 -146.5 47.5t-58.5 133.5q0 78 50.5 138.5t150.5 90.5q-50 46 -74.5 86.5t-24.5 101.5q0 96 65 158t156 62q77 0 123.5 -44t46.5 -116q0 -41 -14.5 -78.5t-55 -74.5t-104.5 -56q35 -31 51 -46.5t40 -44.5t34 -60.5t10 -69.5q0 -103 -73 -165.5t-176 -62.5z
M375 895q66 0 110.5 44.5t44.5 109.5q0 33 -12 63t-37.5 60t-43.5 47.5t-52 46.5l-10 8q-137 -81 -137 -221q0 -74 37.5 -116t99.5 -42zM471 1333l2 -2q107 75 107 209q0 61 -26.5 94t-76.5 33q-56 0 -92.5 -37.5t-36.5 -97.5q0 -58 32.5 -103t90.5 -96z" />
    <glyph glyph-name="nine.sup" horiz-adv-x="565" 
d="M227 883q105 54 181 149t118 211q-57 -90 -149 -90q-78 0 -125 53t-47 148q0 138 86.5 239t195.5 101q89 0 140 -66.5t51 -177.5q0 -78 -26 -158.5t-78 -159.5t-141 -148t-204 -112zM543 1290v-2q32 100 32 213q0 170 -90 170q-70 0 -121 -98.5t-51 -222.5
q0 -154 95 -154q88 0 135 94z" />
    <glyph glyph-name="plus.sup" horiz-adv-x="645" 
d="M733 1262h-252v-252h-41v252h-250v36h250v252h41v-252h252v-36z" />
    <glyph glyph-name="minus.sup" horiz-adv-x="645" 
d="M733 1262h-543v36h543v-36z" />
    <glyph glyph-name="space_uni0326.alt" horiz-adv-x="614" 
d="M586 1544l8 -12q-58 -34 -94.5 -75t-36.5 -77q0 -28 20 -61.5t47 -56.5v-5l-84 -69q-73 62 -73 125q0 110 213 231z" />
    <glyph glyph-name="caron.alt" horiz-adv-x="874" 
d="M330 1176l137 411h135l-260 -416z" />
    <glyph glyph-name="space.uc" horiz-adv-x="391" 
 />
    <glyph glyph-name="questiondown.uc" horiz-adv-x="757" 
d="M647 1102h33q-24 -83 -69.5 -157.5t-98.5 -129t-112 -106.5t-112.5 -102.5t-97.5 -104t-70 -122t-26 -147.5q0 -112 51.5 -169.5t151.5 -57.5q104 0 188 67t191 220l14 -6l-90 -252q-52 -24 -137.5 -45t-173.5 -21q-148 0 -232 69.5t-84 201.5q0 76 29 144t78 122
t109.5 105t128 104t128.5 107.5t115.5 127t85.5 152.5zM717 1505q39 0 67.5 -28.5t28.5 -67.5t-28.5 -67.5t-67.5 -28.5q-40 0 -68 28t-28 68t28 68t68 28z" />
    <glyph glyph-name="exclamdown.uc" horiz-adv-x="409" 
d="M35 0v4l278 1098h29l-184 -1098l-2 -4h-121zM387 1505q39 0 67.5 -28.5t28.5 -67.5t-28.5 -67.5t-67.5 -28.5q-40 0 -68 28t-28 68t28 68t68 28z" />
    <glyph glyph-name="hyphen.uc" horiz-adv-x="577" 
d="M553 743h-440l16 82h438z" />
    <glyph glyph-name="endash.uc" horiz-adv-x="952" 
d="M932 760h-813l4 37h815z" />
    <glyph glyph-name="emdash.uc" horiz-adv-x="1423" 
d="M1403 760h-1284l4 37h1286z" />
    <glyph glyph-name="guilsinglleft.uc" horiz-adv-x="489" 
d="M354 242l-18 -13l-207 359l10 41l359 358l12 -12l-264 -373z" />
    <glyph glyph-name="guilsinglright.uc" horiz-adv-x="489" 
d="M174 975l19 12l206 -358l-10 -41l-358 -359l-13 13l265 372z" />
    <glyph glyph-name="guillemotleft.uc" horiz-adv-x="731" 
d="M621 242l-19 -13l-207 359l11 41l358 358l12 -12l-264 -373zM334 242l-19 -13l-206 359l10 41l358 358l12 -12l-264 -373z" />
    <glyph glyph-name="guillemotright.uc" horiz-adv-x="731" 
d="M455 975l18 12l207 -358l-10 -41l-359 -359l-12 13l264 372zM168 975l18 12l207 -358l-10 -41l-358 -359l-13 13l264 372z" />
    <glyph glyph-name="parenleft.uc" horiz-adv-x="563" 
d="M383 -166l-18 -18q-89 97 -155.5 282t-66.5 418q0 181 43 346t122 303t179.5 251.5t227.5 211.5l16 -20q-108 -101 -195 -217t-157 -257t-108 -310t-38 -351q0 -208 43 -380t107 -259z" />
    <glyph glyph-name="parenright.uc" horiz-adv-x="563" 
d="M262 1610l19 18q88 -96 154.5 -281.5t66.5 -418.5q0 -181 -43 -346t-122 -303t-179.5 -251.5t-227.5 -211.5l-16 20q108 101 195 217t157 257t108 310t38 351q0 208 -43 380t-107 259z" />
    <glyph glyph-name="bracketleft.uc" horiz-adv-x="604" 
d="M41 -184l354 1812h377l-8 -37h-295l-338 -1738h297l-10 -37h-377z" />
    <glyph glyph-name="bracketright.uc" horiz-adv-x="604" 
d="M645 1628l-354 -1812h-377l8 37h295l338 1738h-297l10 37h377z" />
    <glyph glyph-name="braceleft.uc" horiz-adv-x="573" 
d="M385 -184h-72q-119 0 -181 51.5t-62 140.5q0 53 21.5 109.5t52 106.5t61.5 101t52.5 110.5t21.5 117.5q0 81 -47.5 115t-137.5 34h-24l8 39h24q215 0 252 189q10 52 5.5 116t-14.5 114.5t-13.5 114.5t6.5 116q21 111 105.5 174t224.5 63h71l-6 -37h-71q-84 0 -148 -49.5
t-86 -157.5q-16 -74 -7 -227.5t-5 -224.5q-20 -105 -82 -151.5t-152 -59.5l-2 -6q70 -8 115 -47t45 -115q0 -56 -27 -130.5t-60 -136t-60 -139t-27 -139.5q0 -82 43.5 -118.5t112.5 -36.5h71z" />
    <glyph glyph-name="braceright.uc" horiz-adv-x="573" 
d="M270 1628h72q119 0 181.5 -51.5t62.5 -140.5q0 -53 -21.5 -109.5t-52 -106.5t-61.5 -101t-52.5 -110.5t-21.5 -117.5q0 -81 47 -115.5t137 -34.5h25l-8 -39h-25q-215 0 -252 -188q-10 -52 -5.5 -116t14.5 -114.5t13.5 -114.5t-6.5 -116q-21 -111 -105 -174t-224 -63h-72
l6 37h72q84 0 147.5 49t85.5 157q16 74 7.5 228t5.5 225q10 55 33.5 95.5t57 63t67 34.5t75.5 18l2 6q-70 8 -115 47t-45 115q0 56 27 130.5t60 136t60 139t27 139.5q0 82 -43 118.5t-112 36.5h-72z" />
    <glyph glyph-name="slash.uc" horiz-adv-x="733" 
d="M-176 -184l1096 1865h55l-1096 -1865h-55z" />
    <glyph glyph-name="backslash.uc" horiz-adv-x="733" 
d="M104 1681h50l585 -1865h-49z" />
    <glyph glyph-name="bar.uc" horiz-adv-x="415" 
d="M283 -182h-47v1865h47v-1865z" />
    <glyph glyph-name="at.uc" horiz-adv-x="1697" 
d="M877 -84q-221 0 -393.5 89t-271.5 257.5t-99 390.5q0 179 66 342.5t182.5 285.5t287 194.5t367.5 72.5q310 0 491 -166.5t181 -463.5q0 -163 -54.5 -300.5t-158.5 -222t-236 -84.5q-78 0 -129 30.5t-70 82.5t-19 112.5t19 129.5l15 53q-49 -119 -108 -212t-131.5 -153.5
t-141.5 -60.5q-73 0 -115.5 56t-42.5 163q0 162 75.5 314.5t201.5 248.5t264 96q85 0 145 -34l58 34h8l-133 -499q-19 -73 -25 -127t3 -100.5t43.5 -70.5t94.5 -24q108 0 192.5 77t128.5 203.5t44 278.5q0 286 -164.5 442t-441.5 156q-179 0 -331.5 -68.5t-255 -185
t-160.5 -272t-58 -328.5q0 -160 49.5 -291.5t139 -220t215.5 -136.5t276 -48q122 0 237.5 32t200.5 91l16 -33q-187 -131 -462 -131zM719 373q41 0 84.5 31.5t78.5 76t73.5 112t63.5 121t54 120.5l60 231q-39 68 -125 68q-103 0 -195 -95t-143.5 -232t-51.5 -267
q0 -166 101 -166z" />
    <glyph glyph-name="grave.uc" horiz-adv-x="874" 
d="M838 1616l-11 -14l-467 247l84 115z" />
    <glyph glyph-name="dieresis.uc" horiz-adv-x="876" 
d="M942 1778q0 -35 -24.5 -59.5t-59.5 -24.5q-34 0 -59 24.5t-25 59.5t25 59.5t59 24.5q35 0 59.5 -24.5t24.5 -59.5zM549 1778q0 -35 -24.5 -59.5t-59.5 -24.5q-34 0 -59 24.5t-25 59.5t25 59.5t59 24.5q35 0 59.5 -24.5t24.5 -59.5z" />
    <glyph glyph-name="macron.uc" horiz-adv-x="610" 
d="M260 1716l14 72h521l-15 -72h-520z" />
    <glyph glyph-name="acute.uc" horiz-adv-x="874" 
d="M381 1616l459 348l63 -117l-514 -245z" />
    <glyph glyph-name="circumflex.uc" horiz-adv-x="876" 
d="M932 1602l-234 190l-340 -190l-8 14l363 319h8l225 -319z" />
    <glyph glyph-name="caron.uc" horiz-adv-x="612" 
d="M530 1602h-8l-225 319l14 14l234 -190l340 190l8 -14z" />
    <glyph glyph-name="breve.uc" horiz-adv-x="876" 
d="M666 1733q196 0 262 165h14q-8 -44 -25.5 -85.5t-49.5 -83.5t-86.5 -67.5t-123.5 -25.5q-56 0 -99.5 18t-68.5 45.5t-40.5 63.5t-20.5 69t-4 66h14q20 -87 76.5 -126t151.5 -39z" />
    <glyph glyph-name="dotaccent.uc" horiz-adv-x="876" 
d="M745 1778q0 -35 -24 -59.5t-59 -24.5q-34 0 -59 24.5t-25 59.5t25 59.5t59 24.5q35 0 59 -24.5t24 -59.5z" />
    <glyph glyph-name="ring.uc" horiz-adv-x="614" 
d="M336 1772q0 75 48.5 124.5t123.5 49.5t123.5 -49.5t48.5 -124.5t-48.5 -122.5t-123.5 -47.5t-123.5 47.5t-48.5 122.5zM393 1772q0 -63 29.5 -99.5t85.5 -36.5t85.5 36.5t29.5 99.5q0 64 -29 101.5t-86 37.5t-86 -37.5t-29 -101.5z" />
    <glyph glyph-name="tilde.uc" horiz-adv-x="876" 
d="M551 1835q46 0 92 -26t91 -52t87 -26q51 0 84.5 32t65.5 105l14 -2q-10 -36 -23.5 -68t-38.5 -71t-65.5 -62t-91.5 -23q-38 0 -76 16.5t-65 36t-62.5 36t-68.5 16.5q-51 0 -88 -33t-68 -104l-16 2q7 26 17.5 52.5t30 58.5t43.5 56t60.5 40t77.5 16z" />
    <glyph glyph-name="hungarumlaut.uc" horiz-adv-x="874" 
d="M684 1610l250 334l90 -103l-332 -239zM350 1610l250 334l90 -103l-332 -239z" />
    <glyph glyph-name="Cacute.pl" horiz-adv-x="1224" 
d="M1157 408l-82 -299q-59 -48 -179.5 -94t-264.5 -46q-257 0 -389.5 173t-132.5 472q0 178 56 345t152.5 293t237 202t299.5 76q115 0 218.5 -37.5t148.5 -71.5l22 -284l-16 -4q-74 189 -172.5 272.5t-229.5 83.5q-92 0 -174 -36t-145.5 -99.5t-114 -150t-83.5 -188.5
t-50.5 -213.5t-17.5 -226.5q0 -161 43 -286.5t134 -202t218 -76.5q154 0 271 101.5t231 300.5zM811 1610l152 358l116 -61l-252 -305z" />
    <glyph glyph-name="Nacute.pl" horiz-adv-x="1222" 
d="M934 -6l-565 1331l-179 -989q-22 -104 -17.5 -172t46.5 -160v-4h-207v4q64 92 87.5 153.5t45.5 178.5l150 827v-2q11 67 14 90t5.5 65t-4 63.5t-20 52t-38.5 63.5v4h164l547 -1290l172 954q22 104 17.5 172t-46.5 160v4h207v-4q-65 -93 -89 -155.5t-44 -176.5l-209 -1163
zM805 1610l151 358l117 -61l-252 -305z" />
    <glyph glyph-name="Oacute.pl" horiz-adv-x="1355" 
d="M1341 895q0 -182 -60 -352.5t-160 -296t-236.5 -201.5t-282.5 -76q-217 0 -355 178.5t-138 456.5q0 182 60 352.5t160 296t236.5 201.5t282.5 76q217 0 355 -178.5t138 -456.5zM240 565q0 -163 39.5 -286t126 -196t210.5 -73q137 0 251 77.5t188 207.5t114.5 295
t40.5 344q0 163 -39.5 286t-126 196t-210.5 73q-136 0 -250 -77.5t-188 -207t-115 -295t-41 -344.5zM862 1610l152 358l116 -61l-251 -305z" />
    <glyph glyph-name="Sacute.pl" horiz-adv-x="897" 
d="M907 1456l15 -299l-19 -4q-26 99 -60 167t-73.5 103.5t-79.5 50.5t-88 15q-116 0 -186 -75.5t-70 -194.5q0 -47 14 -94t30 -79t53.5 -79.5t56 -68t67.5 -71.5q53 -57 83.5 -94t67 -94t53.5 -119.5t17 -132.5q0 -131 -58.5 -227.5t-154.5 -143.5t-217 -47q-181 0 -335 94
l-15 324l17 4q34 -111 75.5 -187t88.5 -117.5t94.5 -59t105.5 -17.5q135 0 218 100t83 240q0 63 -16.5 118.5t-53.5 109t-65.5 86.5t-83.5 90q-56 60 -83 92t-65 88t-54.5 112.5t-16.5 120.5q0 73 21.5 133.5t58.5 102.5t86 71t103 42.5t112 13.5q75 0 149 -20.5t125 -53.5z
M637 1610l151 358l117 -61l-252 -305z" />
    <glyph glyph-name="Zacute.pl" horiz-adv-x="974" 
d="M762 0h-797v23l989 1439l-327 -10q-54 -2 -94.5 -13t-68.5 -23t-67 -55t-61 -72t-81 -110q-4 -6 -6.5 -9t-6 -8t-6.5 -9l-17 6l125 340h746v-22l-988 -1444l367 16q59 3 102.5 15.5t79 32.5t74.5 64.5t73 93t91 136.5l16 -6zM674 1610l151 358l117 -61l-252 -305z" />
    <glyph glyph-name="acute.pl" horiz-adv-x="614" 
d="M299 1118l150 416l112 -45l-250 -377z" />
    <glyph glyph-name="acute.ucpl" horiz-adv-x="614" 
d="M442 1610l152 358l117 -61l-252 -305z" />
    <glyph glyph-name="cacute.pl" horiz-adv-x="765" 
d="M653 279l21 -9q-45 -138 -132 -219.5t-208 -81.5q-140 0 -216.5 106t-76.5 275q0 164 69.5 315t189 245t255.5 94q100 0 178 -54l17 -200l-21 -5q-22 50 -41.5 85t-45.5 68.5t-57.5 51t-68.5 17.5q-43 0 -91 -23.5t-95 -72t-85 -114.5t-61.5 -160.5t-23.5 -201.5
q0 -167 57 -252.5t168 -85.5q72 0 138.5 47t129.5 175zM459 1118l149 416l113 -45l-250 -377z" />
    <glyph glyph-name="divide.osf" horiz-adv-x="1089" 
d="M997 477h-905v41h905v-41zM510 59q-38 0 -67 28.5t-29 68.5q0 39 28.5 67.5t67.5 28.5q40 0 68 -28t28 -68t-28 -68.5t-68 -28.5zM510 743q-38 0 -67 28.5t-29 68.5q0 39 28.5 67.5t67.5 28.5q40 0 68 -28t28 -68t-28 -68.5t-68 -28.5z" />
    <glyph glyph-name="eight.osf" horiz-adv-x="872" 
d="M391 -20q-69 0 -131 21.5t-111.5 62t-78.5 105.5t-29 146q0 148 98 273.5t291 189.5q-51 48 -82.5 82.5t-67 85t-52.5 107.5t-17 121q0 160 102 258t246 98q128 0 215.5 -81.5t87.5 -219.5q0 -55 -15 -109.5t-47.5 -110.5t-93 -107t-143.5 -87q223 -211 223 -440
q0 -93 -33.5 -169.5t-89 -125t-126 -74.5t-146.5 -26zM299 1221q0 -29 4 -55.5t15 -53t18.5 -45.5t28.5 -46t29.5 -39.5t37 -40.5t36 -36t41 -38.5t38.5 -35.5q217 150 217 379q0 126 -59.5 202.5t-163.5 76.5q-107 0 -174.5 -75.5t-67.5 -192.5zM408 20q131 0 205.5 83.5
t74.5 222.5q0 68 -18.5 130t-55 116.5t-73.5 96t-90 91.5l-5 2q-303 -163 -303 -447q0 -140 70 -217.5t195 -77.5z" />
    <glyph glyph-name="equal.osf" horiz-adv-x="1089" 
d="M997 643h-905v41h905v-41zM997 352h-905v41h905v-41z" />
    <glyph glyph-name="f.short" horiz-adv-x="526" 
d="M8 -338l273 1274h-115l8 37h113l41 188q47 224 121 329t165 105q28 0 57 -8t40 -18l14 -195l-8 -2q-14 24 -29 51t-23.5 42.5t-18 32t-16 25t-14.5 16.5t-15.5 10.5t-16.5 2.5q-23 0 -43 -26.5t-47.5 -108.5t-57.5 -223l-47 -221h203l-8 -37h-203l-270 -1274h-103z" />
    <glyph glyph-name="f_f.short" horiz-adv-x="974" 
d="M8 -338l273 1274h-115l8 37h115l30 147q47 223 141.5 328.5t217.5 105.5q18 0 34.5 -2.5t24 -5t22.5 -9t19 -7.5l15 -174l-9 -2q-43 80 -79 118.5t-82 38.5q-37 0 -67 -26.5t-64 -108.5t-64 -223l-39 -180h348l41 188q47 224 121.5 329t165.5 105q28 0 56.5 -8t39.5 -18
l15 -195l-9 -2q-14 24 -29 51t-23.5 42.5t-18 32t-16 25t-14.5 16.5t-15.5 10.5t-16.5 2.5q-22 0 -42.5 -26.5t-47.5 -108.5t-57 -223l-47 -221h202l-8 -37h-203l-270 -1274h-102l272 1274h-350l-270 -1274h-103z" />
    <glyph glyph-name="five.osf" horiz-adv-x="731" 
d="M133 -502q-95 0 -177 32.5t-116 74.5l-20 258l10 2q53 -167 130.5 -247.5t189.5 -80.5q99 0 172 60t108 154t35 206q0 178 -93 306.5t-278 187.5l230 567h464l-40 -103h-418l-154 -378q177 -56 281 -193t104 -338q0 -104 -28 -195.5t-81 -161.5t-135 -110.5t-184 -40.5z
" />
    <glyph glyph-name="four.osf" horiz-adv-x="823" 
d="M369 -399l71 399h-501v16l774 1022h14l-174 -956h197l-29 -82h-182l-74 -399h-96zM455 82l127 719l-545 -719h418z" />
    <glyph glyph-name="four.osfalt" horiz-adv-x="823" 
d="M371 -399l69 399h-501v16l729 961h149l-831 -932h463l57 324h98l-57 -324h188l-14 -45h-182l-70 -399h-98z" />
    <glyph glyph-name="greater.osf" horiz-adv-x="1085" 
d="M1014 467l-881 -426v51l838 402l-838 401v51l881 -426v-53z" />
    <glyph glyph-name="less.osf" horiz-adv-x="1085" 
d="M932 41l-881 426v53l881 426v-51l-838 -401l838 -402v-51z" />
    <glyph glyph-name="minus.osf" horiz-adv-x="1089" 
d="M997 477h-905v41h905v-41z" />
    <glyph glyph-name="multiply.osf" horiz-adv-x="966" 
d="M831 117l-348 348l-348 -348l-31 30l349 349l-349 348l31 30l348 -348l348 348l31 -30l-348 -348l348 -349z" />
    <glyph glyph-name="nacute.pl" horiz-adv-x="954" 
d="M594 -18l166 751q20 75 0 133t-80 58q-86 0 -204.5 -143t-248.5 -439l-20 -90q-18 -83 -20 -134.5t14 -113.5v-4h-181v4q9 14 17 27.5t15.5 32t13 30t12 35.5t9.5 33.5t10 40t8.5 39t9.5 46t10 46.5l78 364q33 151 -37 244v4l205 68l-119 -537q105 237 231.5 382
t249.5 145q87 0 120.5 -74t4.5 -203l-110 -491q-29 -115 -14 -164t95 -56v-4zM551 1118l149 416l113 -45l-250 -377z" />
    <glyph glyph-name="nine.osf" horiz-adv-x="935" 
d="M545 1047q152 0 242 -120t90 -321q0 -119 -32 -243t-102.5 -253t-171.5 -243t-250 -214.5t-327 -166.5l-6 18q216 95 378.5 263.5t262.5 375.5q-108 -125 -267 -125q-149 0 -230 107t-81 281q0 162 67 310t181.5 239.5t245.5 91.5zM541 1006q-75 0 -139 -43.5
t-106.5 -113.5t-73 -158t-44.5 -175.5t-14 -167.5q0 -293 207 -293q176 0 297 178q96 230 96 443q0 157 -58.5 243.5t-164.5 86.5z" />
    <glyph glyph-name="oacute.pl" horiz-adv-x="839" 
d="M799 647q0 -166 -67 -323.5t-179 -256t-234 -98.5q-124 0 -201 95.5t-77 261.5t67 323.5t178.5 256t233.5 98.5q124 0 201.5 -95.5t77.5 -261.5zM160 309q0 -303 168 -303q67 0 130.5 48.5t112.5 132.5t79 209t30 268q0 303 -168 303q-67 0 -130.5 -48.5t-112.5 -132.5
t-79 -209t-30 -268zM489 1118l150 416l113 -45l-250 -377z" />
    <glyph glyph-name="one.osf" horiz-adv-x="499" 
d="M274 254q-17 -105 -11 -151.5t40 -98.5v-4h-258v4q60 51 87 101t44 149l107 625h-156l4 22l279 137h4z" />
    <glyph glyph-name="plus.osf" horiz-adv-x="1089" 
d="M997 477h-430v-430h-45v430h-430v41h430v430h45v-430h430v-41z" />
    <glyph glyph-name="sacute.pl" horiz-adv-x="641" 
d="M594 963l6 -195l-16 -4q-91 203 -213 203q-64 0 -102 -45.5t-38 -112.5q0 -42 17 -81.5t44 -72.5t60 -66.5t66 -70t60 -75.5t44 -90.5t17 -108.5q0 -129 -78.5 -202t-200.5 -73q-147 0 -237 78l-7 232l17 4q46 -136 112.5 -206.5t141.5 -70.5q72 0 121 53t49 138
q0 52 -22.5 100.5t-56 85t-73 79t-73 82t-56 94.5t-22.5 116q0 120 75 185t185 65q105 0 180 -41zM399 1118l150 416l113 -45l-250 -377z" />
    <glyph glyph-name="seven.osf" horiz-adv-x="792" 
d="M90 -502h-137q133 372 357 767.5t431 649.5h-628l39 103h692v-21q-200 -254 -412 -673.5t-342 -825.5z" />
    <glyph glyph-name="six.osf" horiz-adv-x="935" 
d="M389 -20q-152 0 -242 119.5t-90 320.5q0 119 32 243t102.5 253t171.5 243t250 214.5t327 166.5l6 -18q-216 -95 -378.5 -263.5t-262.5 -375.5q108 125 266 125q150 0 231 -106.5t81 -280.5q0 -162 -67 -310t-181.5 -239.5t-245.5 -91.5zM393 20q75 0 139 43.5
t106.5 113.5t73 158t44.5 175.5t14 167.5q0 293 -207 293q-176 0 -297 -178q-96 -230 -96 -443q0 -157 58.5 -243.5t164.5 -86.5z" />
    </font>
</defs>
</svg>
