<?xml version="1.0" standalone="no"?>
<!DOCTYPE svg PUBLIC "-//W3C//DTD SVG 1.1//EN" "http://www.w3.org/Graphics/SVG/1.1/DTD/svg11.dtd" >
<svg xmlns="http://www.w3.org/2000/svg" xmlns:xlink="http://www.w3.org/1999/xlink" version="1.1">
<metadata>
Created by FontForge 20170731 at Thu Feb 23 12:24:51 2023
 By Aleksey,,,
Copyright (C)2016 Commercial Type.
</metadata>
<defs>
<font id="Canela-Thin" horiz-adv-x="978" >
  <font-face 
    font-family="Canela Thin"
    font-weight="100"
    font-stretch="normal"
    units-per-em="2048"
    panose-1="0 0 0 0 0 0 0 0 0 0"
    ascent="1587"
    descent="-461"
    x-height="973"
    cap-height="1499"
    bbox="-266 -532 2277 2374"
    underline-thickness="40"
    underline-position="-204"
    unicode-range="U+0020-FB04"
  />
<missing-glyph horiz-adv-x="329" 
 />
    <glyph glyph-name="f_b" unicode="fb" horiz-adv-x="1654" 
d="M1075 -31q-200 0 -309 121l-49 -90h-21v1288q0 121 -54.5 193.5t-137.5 72.5q-197 0 -197 -288v-293h242v-37h-242v-651q0 -201 47 -281v-4h-198v4q27 40 38 103t11 178v651h-129v37h129v203q0 199 83.5 309t239.5 110q92 0 177 -43l94 43v-766h6q54 86 143 130.5
t193 44.5q190 0 311 -135t121 -355q0 -106 -31.5 -202t-91 -173.5t-156.5 -123.5t-219 -46zM1100 6q152 0 253 134t101 354q0 206 -104.5 324t-264.5 116q-88 -1 -167.5 -45t-118.5 -103v-440q0 -168 86 -254t215 -86z" />
    <glyph glyph-name="f_f_b" unicode="ffb" horiz-adv-x="2146" 
d="M1567 -31q-201 0 -310 121l-49 -90h-20v1288q0 121 -54.5 193.5t-138.5 72.5q-196 0 -196 -288v-293h241v-37h-241v-651q0 -201 47 -281v-4h-199v4q27 40 38 103t11 178v651h-389v-651q0 -201 47 -281v-4h-198v4q27 40 38 103t11 178v651h-129v37h129v162q0 198 78 308.5
t219 110.5q85 0 121 -28l24 -164l-12 -4q-63 91 -97.5 123t-82.5 32q-66 0 -107 -75t-41 -213v-252h389v203q0 199 84 309t240 110q91 0 176 -43l94 43v-766h6q54 86 143 130.5t193 44.5q190 0 311 -135t121 -355q0 -84 -19 -162.5t-59.5 -148.5t-98 -122t-140 -82
t-180.5 -30zM1591 6q153 0 254 134t101 354q0 206 -104.5 324t-264.5 116q-88 -1 -168 -45t-119 -103v-440q0 -168 86 -254t215 -86z" />
    <glyph glyph-name="f_f_h" unicode="ffh" horiz-adv-x="2091" 
d="M156 0v4q27 40 38 103t11 178v651h-129v37h129v162q0 198 78 308.5t219 110.5q85 0 121 -28l24 -164l-12 -4q-63 91 -97.5 123t-82.5 32q-66 0 -107 -75t-41 -213v-252h389v203q0 199 84 309t240 110q91 0 176 -43l94 43v-770q76 90 171.5 134.5t197.5 44.5
q140 0 213.5 -79t73.5 -220v-459q0 -96 7.5 -144.5t37.5 -97.5v-4h-193v4q27 49 36 102.5t9 137.5v438q0 111 -54 176.5t-175 65.5q-86 0 -171.5 -33.5t-152.5 -102.5v-544q0 -92 7.5 -142t37.5 -98v-4h-192v4q28 50 36.5 101t8.5 139v1044q0 121 -54.5 193.5t-138.5 72.5
q-196 0 -196 -288v-293h241v-37h-241v-651q0 -201 47 -281v-4h-199v4q27 40 38 103t11 178v651h-389v-651q0 -201 47 -281v-4h-198z" />
    <glyph glyph-name="f_f_j" unicode="ffj" horiz-adv-x="1419" 
d="M1286 -115q0 -162 -54 -236.5t-173 -88.5l-4 10q48 26 75 56.5t42.5 86.5t15.5 144v927q0 108 -74 152h-315v-651q0 -201 47 -281v-4h-199v4q27 40 38 103t11 178v651h-389v-651q0 -201 47 -281v-4h-198v4q27 40 38 103t11 178v651h-129v37h129v162q0 198 78 308.5
t219 110.5q85 0 121 -28l24 -164l-12 -4q-63 91 -97.5 123t-82.5 32q-66 0 -107 -75t-41 -213v-252h389v203q0 198 78 308.5t217 110.5q56 0 100 -16t64 -39l45 -219l-12 -4q-81 135 -128 186t-104 51q-72 0 -114.5 -74.5t-42.5 -213.5v-293h315q106 0 176 41z" />
    <glyph glyph-name="f_f_k" unicode="ffk" horiz-adv-x="1927" 
d="M1907 0h-185l-381 510l291 330q72 83 -18 129v4h237v-4q-49 -21 -80 -42.5t-46.5 -38t-57.5 -65.5l-231 -262l278 -373q58 -77 99 -116t94 -68v-4zM156 0v4q27 40 38 103t11 178v651h-129v37h129v162q0 198 78 308.5t219 110.5q85 0 121 -28l24 -164l-12 -4
q-63 91 -97.5 123t-82.5 32q-66 0 -107 -75t-41 -213v-252h389v203q0 419 318 419q97 0 182 -43l94 43v-1351q0 -92 7.5 -142t37.5 -98v-4h-192v4q28 50 36.5 101t8.5 139v1044q0 121 -56.5 193.5t-144.5 72.5q-188 0 -188 -288v-293h241v-37h-241v-651q0 -201 47 -281v-4
h-199v4q27 40 38 103t11 178v651h-389v-651q0 -201 47 -281v-4h-198z" />
    <glyph glyph-name="f_h" unicode="fh" horiz-adv-x="1599" 
d="M354 0h-198v4q27 40 38 103t11 178v651h-129v37h129v203q0 199 83.5 309t239.5 110q89 0 174 -43l97 43v-770q76 90 171 134.5t197 44.5q140 0 213.5 -79t73.5 -220v-459q0 -96 7.5 -144.5t37.5 -97.5v-4h-192v4q27 49 36 102.5t9 137.5v438q0 110 -54.5 176t-175.5 66
q-86 0 -171 -33t-152 -103v-544q0 -92 7.5 -142t37.5 -98v-4h-193v4q28 50 36.5 101t8.5 139v1044q0 121 -54.5 193.5t-137.5 72.5q-197 0 -197 -288v-293h242v-37h-242v-651q0 -201 47 -281v-4z" />
    <glyph glyph-name="f_j" unicode="fj" horiz-adv-x="929" 
d="M795 -115q0 -161 -54.5 -236t-173.5 -89l-4 10q48 26 75 56.5t42.5 86.5t15.5 144v927q0 109 -73 152h-316v-651q0 -201 47 -281v-4h-198v4q27 40 38 103t11 178v651h-129v37h129v203q0 198 78 308.5t217 110.5q56 0 100 -16t64 -39l45 -219l-13 -4q-82 136 -128.5 186.5
t-102.5 50.5q-72 0 -115 -74.5t-43 -213.5v-293h316q106 0 176 41z" />
    <glyph glyph-name="f_k" unicode="fk" horiz-adv-x="1435" 
d="M354 0h-198v4q27 40 38 103t11 178v651h-129v37h129v203q0 419 317 419q95 0 180 -43l97 43v-1351q0 -92 7.5 -142t37.5 -98v-4h-193v4q28 50 36.5 101t8.5 139v1044q0 121 -56 193.5t-144 72.5q-189 0 -189 -288v-293h242v-37h-242v-651q0 -201 47 -281v-4zM1415 0h-184
l-381 510l291 330q71 82 -19 129v4h238v-4q-49 -21 -80 -42.5t-46.5 -38t-57.5 -65.5l-232 -262l279 -373q59 -77 99 -116t93 -68v-4z" />
    <glyph glyph-name="f_t" unicode="ft" horiz-adv-x="1165" 
d="M1114 68q-19 -20 -44.5 -39.5t-76 -39.5t-102.5 -20q-39 0 -73 11t-65 35.5t-49 70.5t-18 109v741h-379v-651q0 -201 47 -281v-4h-198v4q27 40 38 103t11 178v651h-129v37h129v203q0 198 78 308.5t219 110.5q85 0 121 -28l24 -164l-12 -4q-63 91 -97.5 123t-82.5 32
q-66 0 -107 -75t-41 -213v-293h305l172 149h4v-149h304v-37h-304v-746q0 -157 150 -157q89 0 172 43z" />
    <glyph glyph-name="f_f_t" unicode="fft" horiz-adv-x="1656" 
d="M1606 68q-32 -34 -90.5 -66.5t-133.5 -32.5q-39 0 -73 11t-64.5 35.5t-48.5 70.5t-18 109v741h-379v-651q0 -201 47 -281v-4h-199v4q27 40 38 103t11 178v651h-389v-651q0 -201 47 -281v-4h-198v4q27 40 38 103t11 178v651h-129v37h129v162q0 198 78 308.5t219 110.5
q85 0 121 -28l24 -164l-12 -4q-63 91 -97.5 123t-82.5 32q-66 0 -107 -75t-41 -213v-252h389v203q0 198 78 308.5t219 110.5q85 0 121 -28l25 -164l-13 -4q-63 91 -97.5 123t-82.5 32q-65 0 -106 -75t-41 -213v-293h305l172 149h4v-149h303v-37h-303v-746q0 -157 150 -157
q89 0 172 43z" />
    <glyph glyph-name="f_f" unicode="ff" horiz-adv-x="1087" 
d="M156 0v4q27 40 38 103t11 178v651h-129v37h129v162q0 198 78 308.5t219 110.5q85 0 121 -28l24 -164l-12 -4q-63 91 -97.5 123t-82.5 32q-66 0 -107 -75t-41 -213v-252h389v203q0 198 78 308.5t219 110.5q85 0 121 -28l25 -164l-13 -4q-63 91 -97.5 123t-82.5 32
q-65 0 -106 -75t-41 -213v-293h241v-37h-241v-651q0 -201 47 -281v-4h-199v4q27 40 38 103t11 178v651h-389v-651q0 -201 47 -281v-4h-198z" />
    <glyph glyph-name="f_i" unicode="fi" horiz-adv-x="944" 
d="M354 0h-198v4q27 40 38 103t11 178v651h-129v37h129v203q0 198 78 308.5t217 110.5q56 0 100 -16t64 -39l45 -219l-13 -4q-82 136 -128.5 186.5t-102.5 50.5q-72 0 -115 -74.5t-43 -213.5v-293h316q106 0 176 41v-768q0 -94 7.5 -144t37.5 -98v-4h-193v4q27 50 36 103
t9 137v540q0 108 -90 152h-299v-651q0 -201 47 -281v-4z" />
    <glyph glyph-name="f_l" unicode="fl" horiz-adv-x="944" 
d="M354 4v-4h-198v4q27 40 38 103t11 178v651h-129v37h129v203q0 419 317 419q95 0 180 -43l97 43v-1351q0 -92 7.5 -142t37.5 -98v-4h-193v4q28 50 36.5 101t8.5 139v1044q0 121 -56 193.5t-144 72.5q-189 0 -189 -288v-293h242v-37h-242v-651q0 -201 47 -281z" />
    <glyph glyph-name="f_f_i" unicode="ffi" horiz-adv-x="1435" 
d="M354 0h-198v4q27 40 38 103t11 178v651h-129v37h129v162q0 198 78 308.5t219 110.5q85 0 121 -28l24 -164l-12 -4q-63 91 -97.5 123t-82.5 32q-66 0 -107 -75t-41 -213v-252h389v203q0 198 78 308.5t217 110.5q56 0 100 -16t64 -39l45 -219l-12 -4q-81 135 -128 186
t-104 51q-72 0 -114.5 -74.5t-42.5 -213.5v-293h315q106 0 176 41v-768q0 -94 7.5 -144t37.5 -98v-4h-192v4q27 50 36 103t9 137v540q0 108 -90 152h-299v-651q0 -201 47 -281v-4h-199v4q27 40 38 103t11 178v651h-389v-651q0 -201 47 -281v-4z" />
    <glyph glyph-name="f_f_l" unicode="ffl" horiz-adv-x="1435" 
d="M156 0v4q27 40 38 103t11 178v651h-129v37h129v162q0 198 78 308.5t219 110.5q85 0 121 -28l24 -164l-12 -4q-63 91 -97.5 123t-82.5 32q-66 0 -107 -75t-41 -213v-252h389v203q0 199 84 309t240 110q89 0 174 -43l96 43v-1351q0 -92 7.5 -142t37.5 -98v-4h-192v4
q28 50 36.5 101t8.5 139v1044q0 121 -54.5 193.5t-138.5 72.5q-196 0 -196 -288v-293h241v-37h-241v-651q0 -201 47 -281v-4h-199v4q27 40 38 103t11 178v651h-389v-651q0 -201 47 -281v-4h-198z" />
    <glyph glyph-name=".notdef" horiz-adv-x="329" 
 />
    <glyph glyph-name=".null" horiz-adv-x="0" 
 />
    <glyph glyph-name="nonmarkingreturn" horiz-adv-x="682" 
 />
    <glyph glyph-name="space" unicode=" " horiz-adv-x="307" 
 />
    <glyph glyph-name="exclam" unicode="!" horiz-adv-x="438" 
d="M279 1499v-4l-46 -1098h-28l-43 1098v4h117zM219 -6q-39 0 -67.5 28.5t-28.5 67.5t28.5 67.5t67.5 28.5q40 0 68 -28t28 -68t-28 -68t-68 -28z" />
    <glyph glyph-name="quotedbl" unicode="&#x22;" horiz-adv-x="614" 
d="M164 1110l-58 389h136l-58 -389h-20zM430 1110l-57 389h135l-57 -389h-21z" />
    <glyph glyph-name="numbersign" unicode="#" horiz-adv-x="1179" 
d="M741 510l90 479h-393l-90 -479h393zM647 0l88 473h-393l-88 -473h-47l88 473h-264v37h270l90 479h-264v37h270l88 473h47l-88 -473h394l88 473h47l-88 -473h264v-37h-270l-91 -479h265v-37h-271l-88 -473h-47z" />
    <glyph glyph-name="dollar" unicode="$" horiz-adv-x="1071" 
d="M545 -233h-47v202q-211 3 -385 78l-41 291l16 6q66 -164 162 -243.5t248 -88.5v742q-54 23 -85.5 37.5t-79 40t-75 47t-61 54.5t-51 67t-30 80t-12.5 98q0 160 106 250.5t288 99.5v155h47v-153q180 0 332 -62l41 -284l-17 -6q-57 162 -145.5 232.5t-210.5 76.5v-627
q5 -2 23 -9.5t28 -10.5q55 -23 90.5 -39.5t85 -43.5t81 -51.5t66.5 -60.5t55 -74t33 -88.5t13 -107.5q0 -102 -38 -179.5t-105 -124.5t-150 -71.5t-182 -28.5v-204zM911 334q0 49 -11 92.5t-27.5 76t-46.5 63t-56.5 51.5t-69.5 44.5t-74 37.5t-81 36v-725h2q179 0 271.5 86
t92.5 238zM190 1214q0 -66 23 -118t70.5 -91.5t94.5 -65.5t120 -58v608q-79 -2 -140 -26t-96.5 -63.5t-53.5 -86.5t-18 -99z" />
    <glyph glyph-name="percent" unicode="%" horiz-adv-x="1576" 
d="M379 709q-133 0 -225.5 118.5t-92.5 292.5q0 173 92 291.5t226 118.5q135 0 228 -118.5t93 -291.5q0 -174 -93.5 -292.5t-227.5 -118.5zM379 739q205 0 205 381q0 379 -205 379q-71 0 -117 -51t-65 -133t-19 -195q0 -114 19 -196.5t65 -133.5t117 -51zM1194 -16
q-133 0 -225 118.5t-92 292.5q0 173 91.5 291.5t225.5 118.5q135 0 228.5 -118.5t93.5 -291.5q0 -174 -94 -292.5t-228 -118.5zM1194 14q205 0 205 381q0 379 -205 379q-71 0 -117 -51t-65 -133t-19 -195q0 -114 19 -196.5t65 -133.5t117 -51zM287 2l-33 27l1067 1493
l35 -23z" />
    <glyph glyph-name="ampersand" unicode="&#x26;" horiz-adv-x="1529" 
d="M1227 -31q-170 0 -314 174q-84 -87 -180 -130.5t-217 -43.5q-106 0 -190 32.5t-136.5 89t-80 129.5t-27.5 157q0 158 91 273t251 179q-75 109 -110 194t-35 173q0 148 88.5 241t224.5 93q129 0 204.5 -81.5t75.5 -207.5q0 -131 -87.5 -234.5t-247.5 -160.5
q22 -29 69.5 -90.5t71.5 -93.5q62 -80 156.5 -218.5t134.5 -189.5q94 131 146 290.5t52 250.5q0 50 -26 75t-99 35v8h373v-8q-88 -19 -133 -71q-36 -43 -80 -154q-5 -15 -23 -65t-27.5 -74.5t-29.5 -72t-37.5 -80.5t-43 -76t-54.5 -81q70 -85 136.5 -128.5t146.5 -43.5
q81 0 144.5 45.5t96.5 133.5l9 -5q-71 -264 -293 -264zM360 1241q0 -87 38.5 -172.5t125.5 -204.5q130 52 203.5 147t73.5 220q0 110 -54.5 186t-160.5 76q-98 0 -162 -66.5t-64 -185.5zM557 23q190 0 336 143q-50 63 -148 215.5t-155 226.5q-13 18 -69.5 91t-80.5 108
q-256 -125 -256 -397q0 -170 97 -278.5t276 -108.5z" />
    <glyph glyph-name="quotesingle" unicode="'" horiz-adv-x="348" 
d="M164 1110l-58 389h136l-58 -389h-20z" />
    <glyph glyph-name="parenleft" unicode="(" horiz-adv-x="557" 
d="M526 -246l-16 -20q-174 154 -270.5 386.5t-96.5 518.5q0 287 96.5 520t270.5 387l16 -20q-132 -158 -208 -386t-76 -501t76 -500t208 -385z" />
    <glyph glyph-name="parenright" unicode=")" horiz-adv-x="557" 
d="M47 -266l-16 20q132 158 208 385t76 500t-76 501t-208 386l16 20q174 -154 270.5 -387t96.5 -520q0 -286 -96.5 -518.5t-270.5 -386.5z" />
    <glyph glyph-name="asterisk" unicode="*" horiz-adv-x="741" 
d="M487 971l-116 223l-117 -223l-90 63l176 180l-248 43l35 105l225 -113l-37 250h111l-37 -250l225 113l35 -105l-250 -43l176 -180z" />
    <glyph glyph-name="plus" unicode="+" horiz-adv-x="1089" 
d="M997 610h-430v-430h-45v430h-430v41h430v430h45v-430h430v-41z" />
    <glyph glyph-name="comma" unicode="," horiz-adv-x="417" 
d="M98 -303l-16 20q54 50 88.5 115.5t34.5 120.5q0 30 -22.5 72t-53.5 73v4l115 86q33 -25 53 -62.5t20 -76.5q0 -180 -219 -352z" />
    <glyph glyph-name="hyphen" unicode="-" horiz-adv-x="575" 
d="M514 539h-453v82h453v-82z" />
    <glyph glyph-name="period" unicode="." horiz-adv-x="405" 
d="M203 -6q-39 0 -68 28.5t-29 67.5t29 67.5t68 28.5q40 0 68 -28t28 -68t-28 -68t-68 -28z" />
    <glyph glyph-name="slash" unicode="/" horiz-adv-x="825" 
d="M-41 -266l789 1865h47l-789 -1865h-47z" />
    <glyph glyph-name="zero" unicode="0" horiz-adv-x="1310" 
d="M653 -31q-155 0 -286.5 103.5t-208 283.5t-76.5 394t76 393.5t207.5 283t287.5 103.5t288.5 -103t210 -283t77.5 -394t-78 -394t-210.5 -283.5t-287.5 -103.5zM653 8q110 0 195 58t137.5 160t79.5 234.5t27 289.5t-27 289.5t-79.5 234.5t-137.5 159.5t-195 57.5
t-194.5 -57.5t-136 -160t-77.5 -234.5t-26 -289q0 -125 16 -234.5t50.5 -203.5t84.5 -161t122.5 -105t160.5 -38z" />
    <glyph glyph-name="one" unicode="1" horiz-adv-x="628" 
d="M498 0h-318v4q63 64 83 114t20 138v1024h-181v4q152 87 285 246h8v-1274q0 -88 20 -138t83 -114v-4z" />
    <glyph glyph-name="two" unicode="2" horiz-adv-x="1046" 
d="M901 0h-881v20q232 187 388.5 339.5t248.5 283t131 240t39 223.5q0 185 -89.5 285t-250.5 100q-62 0 -113 -16t-87.5 -40.5t-71.5 -68t-58.5 -83.5t-54.5 -101l-12 4l53 278q168 66 351 66q121 0 211.5 -31t143.5 -87.5t79 -128.5t26 -161q0 -123 -48 -242t-152 -245
t-239.5 -249t-336.5 -280h535q51 0 86 9t65 33.5t50.5 51t54.5 79.5l16 -7z" />
    <glyph glyph-name="three" unicode="3" horiz-adv-x="1083" 
d="M496 -31q-99 0 -203 25.5t-168 64.5l-43 258l12 5q98 -152 142 -200q82 -91 189 -109q34 -5 73 -5q99 0 172.5 35.5t117 98.5t64 143t20.5 176q0 214 -95.5 323t-280.5 109q-86 0 -145 -23t-118 -67l-18 20l612 570h-661l45 106h766v-20l-617 -574q79 29 172 29
q203 0 336 -122t133 -343q0 -225 -139.5 -362.5t-365.5 -137.5z" />
    <glyph glyph-name="four" unicode="4" horiz-adv-x="1120" 
d="M672 0v4q50 64 66 113.5t16 138.5v133h-734v21l713 1089h141l-802 -1065h682v570h110v-570h185l-17 -45h-168v-133q0 -89 16 -138.5t66 -113.5v-4h-274z" />
    <glyph glyph-name="five" unicode="5" horiz-adv-x="1077" 
d="M481 -31q-105 0 -202 26.5t-160 63.5l-47 279l12 4q47 -85 85 -140t87.5 -102.5t109 -69.5t132.5 -22q94 0 166 35.5t115.5 99.5t65 146t21.5 180q0 208 -98 327t-295 119q-170 0 -289 -96l-20 17l108 663h695l-21 -106h-649l-86 -521q117 86 287 86q224 0 360.5 -128.5
t136.5 -348.5q0 -229 -139 -370.5t-375 -141.5z" />
    <glyph glyph-name="six" unicode="6" horiz-adv-x="1159" 
d="M584 -31q-141 0 -254.5 79t-175.5 211.5t-62 289.5q0 100 24.5 205t83.5 220.5t145 216.5t220 191.5t299 147.5l8 -25q-124 -51 -227 -129t-175.5 -171t-122 -190.5t-79.5 -203.5q50 79 144 131.5t219 52.5q194 0 320 -135t126 -350q0 -228 -144.5 -384.5t-348.5 -156.5z
M586 8q159 0 260.5 133t101.5 346q0 204 -95.5 321.5t-264.5 117.5q-109 0 -202 -51t-136 -144q-23 -103 -23 -207q0 -76 12.5 -147.5t40 -139t68.5 -118t102 -81t136 -30.5z" />
    <glyph glyph-name="seven" unicode="7" horiz-adv-x="956" 
d="M301 0h-145q192 693 721 1393h-805l24 106h871v-20q-111 -158 -203.5 -312t-186 -342t-164.5 -398.5t-112 -426.5z" />
    <glyph glyph-name="eight" unicode="8" horiz-adv-x="1085" 
d="M541 -31q-210 0 -339.5 106t-129.5 285q0 68 20.5 131t61.5 119t111 98t161 62q-281 142 -281 391q0 161 111 265t287 104q168 0 277.5 -94.5t109.5 -247.5q0 -53 -14.5 -102t-47.5 -98.5t-95.5 -91t-149.5 -67.5q391 -166 391 -448q0 -102 -37.5 -182t-102.5 -129.5
t-149.5 -75t-183.5 -25.5zM541 8q179 0 284 89t105 241q0 130 -97 213.5t-362 198.5l-12 6q-299 -108 -299 -394q0 -167 99.5 -260.5t281.5 -93.5zM227 1202q0 -66 24 -118t75 -95t112 -75.5t154 -71.5q250 115 250 348q0 140 -77 220.5t-220 80.5q-146 0 -232 -81.5
t-86 -207.5z" />
    <glyph glyph-name="nine" unicode="9" horiz-adv-x="1159" 
d="M295 -31l-8 25q124 51 227 129t175.5 171t122 190.5t79.5 203.5q-50 -79 -144 -131.5t-219 -52.5q-194 0 -320 135t-126 350q0 228 144.5 384.5t348.5 156.5q141 0 254.5 -79t175.5 -211.5t62 -289.5q0 -100 -24.5 -205t-83.5 -220.5t-145 -216.5t-220 -191.5
t-299 -147.5zM569 573q110 0 203.5 51t136.5 144q23 103 23 207q0 76 -12.5 147.5t-40 139t-68.5 118t-102 81t-136 30.5q-159 0 -260.5 -133t-101.5 -346q0 -204 95 -321.5t263 -117.5z" />
    <glyph glyph-name="colon" unicode=":" horiz-adv-x="405" 
d="M203 653q-39 0 -68 29t-29 68t29 67.5t68 28.5q40 0 68 -28t28 -68t-28 -68.5t-68 -28.5zM203 -6q-39 0 -68 28.5t-29 67.5t29 67.5t68 28.5q40 0 68 -28t28 -68t-28 -68t-68 -28z" />
    <glyph glyph-name="semicolon" unicode=";" horiz-adv-x="405" 
d="M76 -303l-17 20q54 50 88.5 115.5t34.5 120.5q0 30 -22.5 72t-53.5 73v4l115 86q33 -25 53.5 -62.5t20.5 -76.5q0 -180 -219 -352zM203 653q-39 0 -68 29t-29 68t29 67.5t68 28.5q40 0 68 -28t28 -68t-28 -68.5t-68 -28.5z" />
    <glyph glyph-name="less" unicode="&#x3c;" horiz-adv-x="1085" 
d="M973 174l-881 426v53l881 426v-51l-838 -401l838 -402v-51z" />
    <glyph glyph-name="equal" unicode="=" horiz-adv-x="1089" 
d="M997 776h-905v41h905v-41zM997 485h-905v41h905v-41z" />
    <glyph glyph-name="greater" unicode="&#x3e;" horiz-adv-x="1085" 
d="M993 600l-880 -426v51l837 402l-837 401v51l880 -426v-53z" />
    <glyph glyph-name="question" unicode="?" horiz-adv-x="886" 
d="M311 397h-32q9 73 37 136.5t64 110.5t77.5 92t81 90.5t72 96t52 119t19.5 148.5q0 148 -63 225.5t-189 77.5q-119 0 -192.5 -68.5t-131.5 -218.5l-14 4l39 254q169 66 309 66q172 0 268.5 -88t96.5 -250q0 -78 -23 -144.5t-61 -116.5t-84.5 -96t-97 -92.5t-94.5 -94.5
t-81 -113t-53 -138zM307 -6q-39 0 -67.5 28.5t-28.5 67.5t28.5 67.5t67.5 28.5q40 0 68 -28t28 -68t-28 -68t-68 -28z" />
    <glyph glyph-name="at" unicode="@" horiz-adv-x="1738" 
d="M846 -330q-221 0 -393.5 89t-271.5 258t-99 391q0 179 66 342.5t182.5 285.5t287 194.5t367.5 72.5q309 0 490.5 -166.5t181.5 -464.5q0 -163 -54.5 -300.5t-158.5 -221.5t-236 -84q-78 0 -128.5 30.5t-69.5 82t-19 112t19 129.5l14 53q-49 -119 -108 -212t-131.5 -153.5
t-141.5 -60.5q-73 0 -115.5 56t-42.5 163q0 162 75.5 315t201.5 249t264 96q84 0 145 -35l58 35h8l-133 -500q-19 -73 -24.5 -127t3.5 -100.5t43.5 -70.5t94.5 -24q108 0 192.5 77t128 204t43.5 279q0 286 -164.5 442t-441.5 156q-179 0 -331.5 -68.5t-255 -185t-160.5 -272
t-58 -328.5q0 -214 86 -372.5t239.5 -241.5t354.5 -83q122 0 237.5 32t200.5 91l17 -33q-187 -131 -463 -131zM688 127q41 0 84.5 31.5t78.5 76t73.5 112t63.5 121t54 120.5l60 231q-39 68 -125 68q-77 0 -150.5 -56.5t-125 -143.5t-82.5 -192.5t-31 -201.5q0 -166 100 -166
z" />
    <glyph glyph-name="A" unicode="A" horiz-adv-x="1280" 
d="M885 606l-275 774l-276 -774h551zM240 4v-4h-230v4q54 53 77.5 95t62.5 149l462 1270h56l469 -1289q42 -117 62.5 -152.5t70.5 -72.5v-4h-256v4q58 79 4 229l-119 332h-582l-116 -327q-54 -149 39 -234z" />
    <glyph glyph-name="B" unicode="B" horiz-adv-x="1181" 
d="M586 0h-480v4q50 64 66 113t16 137v991q0 88 -16 137t-66 113v4q196 0 314 4t160 4q487 2 487 -346q0 -136 -70 -236t-200 -134q88 -10 155 -44.5t106 -86.5t58 -113t19 -131q0 -193 -137.5 -304.5t-411.5 -111.5zM299 801h348q67 0 120.5 20t87.5 53.5t57 79t32.5 93.5
t9.5 100q0 319 -381 319q-144 0 -274 -10v-655zM580 41q218 0 325 97.5t107 269.5q0 161 -88 256.5t-256 95.5h-369v-705q143 -14 281 -14z" />
    <glyph glyph-name="C" unicode="C" horiz-adv-x="1519" 
d="M1417 442l-41 -313q-74 -56 -228 -108t-325 -52q-172 0 -313 61t-234 167t-143.5 248.5t-50.5 306.5q0 219 95 394.5t277.5 279.5t422.5 104q135 0 268.5 -31.5t222.5 -71.5l41 -288l-16 -4q-100 187 -225.5 270.5t-299.5 83.5q-162 0 -287.5 -55.5t-204.5 -155
t-119 -232.5t-40 -294t38 -294.5t112 -234.5t192.5 -157t271.5 -56q149 0 260 53t183 146t127 237z" />
    <glyph glyph-name="D" unicode="D" horiz-adv-x="1468" 
d="M106 0v4q50 75 66 133.5t16 161.5v901q0 103 -16 161.5t-66 133.5v4q136 0 285.5 4t290.5 4q332 0 518 -195t186 -556q0 -364 -193.5 -560t-551.5 -196h-535zM662 1466l-363 2v-1429l322 2q332 1 481 172t149 514q0 376 -147 556.5t-442 182.5z" />
    <glyph glyph-name="E" unicode="E" horiz-adv-x="1198" 
d="M1167 332l-92 -332h-969v4q43 68 61.5 118t18.5 114v1028q0 65 -18 113.5t-62 117.5v4h867l80 -297l-17 -6q-14 19 -39 54t-38.5 53.5t-34 45.5t-34.5 42t-30 30.5t-30 22.5t-27 8l-504 12v-690h330q19 0 41 20t36 41.5t36.5 60.5t31.5 52h17v-379h-17q-9 12 -30.5 47
t-36.5 57t-37 41t-41 19h-330v-698l518 14q91 3 165 73t169 216z" />
    <glyph glyph-name="F" unicode="F" horiz-adv-x="1085" 
d="M383 4v-4h-277v4q49 61 65.5 108.5t16.5 129.5v1015q0 83 -16 129.5t-66 108.5v4h885l64 -297l-17 -6q-17 22 -53 73t-53.5 73.5t-43.5 53t-45.5 43t-37.5 13.5l-504 12v-669h330q19 0 41 20t36 41.5t36.5 60.5t31.5 52h17v-379h-17q-9 12 -30.5 47t-36.5 57t-37 41
t-41 19h-330v-512q0 -84 16 -130.5t66 -107.5z" />
    <glyph glyph-name="G" unicode="G" horiz-adv-x="1642" 
d="M1491 186q-2 -1 -32.5 -22t-39.5 -27t-43 -27t-52.5 -30t-56.5 -27.5t-66 -27.5t-71 -21.5t-81.5 -19t-86 -11t-96.5 -4.5q-178 0 -326.5 60.5t-248 165.5t-154.5 248t-55 307q0 163 57.5 305.5t161.5 248t259.5 166t342.5 60.5q290 0 524 -98l43 -293l-16 -6
q-83 187 -216 271.5t-353 84.5q-166 0 -295.5 -57t-210 -158t-121.5 -234t-41 -292q0 -127 22 -236t71.5 -202.5t124 -159t184.5 -103t247 -37.5q154 0 270.5 36t184.5 110.5t68 179.5q0 156 -19.5 226t-75.5 114v4h279v-4q-50 -49 -66 -106.5t-16 -178.5v-205z" />
    <glyph glyph-name="H" unicode="H" horiz-adv-x="1458" 
d="M106 0v4q50 64 66 113t16 137v991q0 88 -16 137t-66 113v4h275v-4q-50 -64 -66 -112.5t-16 -137.5v-450h860v450q0 88 -16 137t-66 113v4h275v-4q-50 -64 -66 -112.5t-16 -137.5v-991q0 -89 16 -137.5t66 -112.5v-4h-275v4q50 64 66 113t16 137v500h-860v-500
q0 -89 16 -137.5t66 -112.5v-4h-275z" />
    <glyph glyph-name="I" unicode="I" horiz-adv-x="487" 
d="M106 0l3 4q49 63 64 112t15 138v991q0 88 -16 137t-66 113v4h275v-4q-50 -64 -66 -112.5t-16 -137.5v-991q0 -88 16.5 -136.5t67.5 -113.5l-2 -4h-275z" />
    <glyph glyph-name="J" unicode="J" horiz-adv-x="727" 
d="M559 242q0 -131 -68 -202t-194 -71q-105 0 -201 45l-37 256l17 6q130 -266 256 -266q55 0 86 50.5t31 148.5v1036q0 89 -16 137.5t-66 112.5v4h274v-4q-50 -64 -66 -112.5t-16 -137.5v-1003z" />
    <glyph glyph-name="K" unicode="K" horiz-adv-x="1236" 
d="M106 0l3 4q49 63 64 112t15 138v991q0 88 -16 137t-66 113v4h275v-4q-50 -64 -66 -112.5t-16 -137.5v-991q0 -88 16.5 -136.5t67.5 -113.5l-2 -4h-275zM1217 0h-205l-639 780l465 492q112 119 4 223v4h338v-4q-28 -13 -53 -27.5t-42.5 -25t-40 -28t-32 -25t-31.5 -29
t-26.5 -26t-28.5 -30t-27 -28.5l-424 -449l479 -585q95 -116 143 -160t117 -78z" />
    <glyph glyph-name="L" unicode="L" horiz-adv-x="1107" 
d="M983 0h-877v4q50 64 66 113t16 137v991q0 88 -16 137t-66 113v4h275v-4q-50 -64 -66 -112.5t-16 -137.5v-1210l426 14q98 4 174.5 71.5t161.5 217.5l16 -6z" />
    <glyph glyph-name="M" unicode="M" horiz-adv-x="1726" 
d="M383 0h-303v4q66 75 87 130.5t21 152.5v1011q-6 69 -32.5 110t-92.5 87v4h226l581 -1300l586 1300h207v-4q-76 -53 -100.5 -102t-24.5 -150v-983q0 -89 16 -139.5t66 -116.5v-4h-272v4q51 66 67.5 117t16.5 139v1079l-584 -1294h-31l-588 1301l7 -1059q0 -97 29 -152.5
t118 -130.5v-4z" />
    <glyph glyph-name="N" unicode="N" horiz-adv-x="1466" 
d="M1264 -6l-1037 1300l9 -1011q0 -97 27.5 -152t115.5 -127v-4h-293v4q63 72 82.5 127t19.5 152v1056q-79 115 -163 156v4h182l1034 -1298l-6 1016q-2 98 -25 152t-98 126v4h272v-4q-64 -72 -83 -126t-19 -152v-1217z" />
    <glyph glyph-name="O" unicode="O" horiz-adv-x="1660" 
d="M829 -31q-157 0 -296 60t-238 163.5t-156 248t-57 307.5t57.5 308t156 249t237.5 164.5t296 60.5t296.5 -60.5t239 -164.5t157 -249t57.5 -308q0 -218 -98 -396.5t-270 -280.5t-382 -102zM829 10q186 0 326.5 96t214.5 263t74 379q0 211 -74 378.5t-215 265t-326 97.5
t-325.5 -97.5t-213.5 -265t-73 -378.5t73 -378t213.5 -263.5t325.5 -96.5z" />
    <glyph glyph-name="P" unicode="P" horiz-adv-x="1120" 
d="M106 0v4q50 64 66 113t16 137v991q0 88 -16 137t-66 113v4h498q107 0 190 -22t136 -58.5t87 -89.5t48 -110t14 -125q0 -209 -132.5 -334t-371.5 -125h-276v-381q0 -89 16 -137.5t66 -112.5v-4h-275zM575 1458q-135 0 -276 -6v-776h274q134 0 223.5 54.5t129 146
t39.5 217.5q0 88 -21 153.5t-55.5 105t-86.5 64t-106 33t-121 8.5z" />
    <glyph glyph-name="Q" unicode="Q" horiz-adv-x="1660" 
d="M1391 -348q-103 0 -198 27t-157.5 62.5t-118.5 85t-82 81t-47 63.5q-200 10 -361.5 113.5t-253 278t-91.5 385.5q0 163 57.5 308t156 249t237.5 164.5t296 60.5t296.5 -60.5t239 -164.5t157 -249t57.5 -308q0 -162 -57 -306t-155 -247.5t-235.5 -164t-293.5 -61.5
q100 -86 205 -139t191.5 -70.5t172 -13.5t145 20t111.5 41l-51 -108q-76 -47 -221 -47zM829 10q186 0 326.5 96t214.5 263t74 379q0 211 -74 378.5t-215 265t-326 97.5t-325.5 -97.5t-213.5 -265t-73 -378.5t73 -378t213.5 -263.5t325.5 -96.5z" />
    <glyph glyph-name="R" unicode="R" horiz-adv-x="1265" 
d="M381 0h-275v4q50 64 66 113t16 137v991q0 88 -16 137t-66 113v4h527q215 0 317.5 -92.5t102.5 -259.5q0 -154 -71.5 -268t-211.5 -154l252 -473q55 -108 104.5 -163.5t118.5 -84.5v-4h-215l-375 707h-356v-453q0 -89 16 -137.5t66 -112.5v-4zM612 1458q-161 0 -313 -2
v-708h315q85 0 149 32t101 88t54.5 125.5t17.5 151.5q0 151 -73.5 232t-250.5 81z" />
    <glyph glyph-name="S" unicode="S" horiz-adv-x="1091" 
d="M877 1468l41 -284l-17 -6q-59 172 -156 241.5t-233 69.5q-83 0 -146.5 -23t-101 -62.5t-56 -87.5t-18.5 -102q0 -73 25 -127t89 -99t105 -65.5t141 -62.5q10 -5 15.5 -7t14.5 -6t16 -7q55 -23 90.5 -39.5t85 -43.5t81 -51.5t66.5 -60.5t55 -74t33 -88.5t13 -107.5
q0 -86 -27.5 -155t-75 -115.5t-114 -77.5t-140.5 -44.5t-157 -13.5q-209 0 -393 78l-41 291l16 6q70 -175 177 -254.5t282 -79.5q179 0 271.5 86t92.5 238q0 71 -22 128.5t-55.5 96t-87.5 73.5t-103 58.5t-117 52.5q-4 1 -6 2q-48 20 -70 29.5t-65.5 30.5t-65.5 34.5t-57 37
t-53.5 44t-42 50t-34.5 59.5t-19.5 68t-8.5 80q0 170 119 261t322 91q180 0 332 -62z" />
    <glyph glyph-name="T" unicode="T" horiz-adv-x="1298" 
d="M786 4v-4h-274v4q51 63 66.5 112t15.5 138v1208l-313 -8q-13 0 -28 -10t-33 -32t-32.5 -41t-37 -55l-35 -56t-36.5 -61.5t-32 -55.5l-16 6l80 350h1077l80 -350l-17 -6q-9 16 -32 55.5t-36.5 61.5t-34.5 56.5t-36.5 54.5t-33 41.5t-32.5 31.5t-28 10l-313 8v-1208
q0 -88 16 -137t65 -113z" />
    <glyph glyph-name="U" unicode="U" horiz-adv-x="1400" 
d="M723 -31q-93 0 -174.5 18t-153 58t-122.5 99.5t-80 147t-29 195.5v752q0 90 -16 140.5t-66 115.5v4h274v-4q-44 -59 -63 -115t-19 -141v-745q0 -128 36.5 -223t102 -150t147 -81t181.5 -26q102 0 181.5 27t130 73t83 111t45.5 135t13 152v700q0 98 -28.5 153.5
t-118.5 129.5v4h317v-4q-77 -75 -102 -131t-25 -152v-698q0 -91 -16 -169.5t-54 -148.5t-95.5 -119.5t-146.5 -78.5t-202 -29z" />
    <glyph glyph-name="V" unicode="V" horiz-adv-x="1277" 
d="M666 -16h-56l-463 1282q-36 98 -65.5 144.5t-81.5 84.5v4h301v-4q-21 -23 -34 -55.5t-16 -80.5t17 -99l402 -1131l379 1059q22 62 26.5 114t-8.5 89.5t-26.5 59t-34.5 44.5v4h272v-4q-66 -50 -96.5 -105t-79.5 -192z" />
    <glyph glyph-name="W" unicode="W" horiz-adv-x="1943" 
d="M582 -18h-56l-385 1288q-34 112 -53.5 151t-67.5 74v4h285v-4q-1 -2 -10 -13t-12 -15.5t-11.5 -16.5t-11 -20.5t-8 -22.5t-6 -28t-0.5 -32t3.5 -38t10.5 -43l328 -1102l348 975l-45 131q-36 106 -60.5 147.5t-74.5 77.5v4h301v-4l-13 -12q-12 -12 -14.5 -15t-13 -15.5
t-12.5 -20t-8.5 -22t-6 -28t0.5 -32t5 -39.5t13 -45l381 -1112l309 1044q46 179 -47 297v4h272v-4q-70 -53 -104 -111.5t-72 -185.5l-363 -1216h-55l-368 1085z" />
    <glyph glyph-name="X" unicode="X" horiz-adv-x="1253" 
d="M289 4v-4h-279v4q78 50 131.5 109t122.5 168l311 497l-325 520q-55 86 -91 127t-87 70v4h309v-4q-48 -23 -49.5 -72.5t39.5 -113.5l282 -451l240 361q46 70 67.5 111.5t22.5 73.5t-18 51t-62 40v4h279v-4q-26 -17 -48 -35.5t-37 -33t-36 -42t-31.5 -43.5t-38 -57.5
t-43.5 -64.5l-270 -402l387 -616q55 -86 91 -127t87 -70v-4h-309v4q48 23 49.5 72.5t-39.5 113.5l-342 545l-283 -454q-26 -41 -38.5 -61.5t-28.5 -49.5t-21 -42.5t-10 -32.5t-1 -28.5t12 -22t22 -21.5t35 -19z" />
    <glyph glyph-name="Y" unicode="Y" horiz-adv-x="1167" 
d="M440 0v4q49 55 65.5 98t16.5 115v483l-346 596q-47 81 -85 125t-91 74v4h317v-4q-48 -23 -51.5 -73.5t33.5 -112.5l319 -553l277 463q44 74 53 128.5t-6.5 86.5t-52.5 61v4h278v-4q-18 -11 -32.5 -22t-29 -24.5t-24 -22.5t-23.5 -27t-20.5 -27t-22 -33t-21.5 -34
t-25 -41.5t-27 -44.5l-309 -514v-488q0 -74 16 -116t66 -97v-4h-275z" />
    <glyph glyph-name="Z" unicode="Z" horiz-adv-x="1245" 
d="M1083 0h-1022v23l953 1443l-539 -16q-103 -3 -185.5 -80.5t-164.5 -228.5l-16 6l96 352h950v-22l-950 -1446l612 18q101 3 185.5 83t164.5 239l17 -6z" />
    <glyph glyph-name="bracketleft" unicode="[" horiz-adv-x="612" 
d="M205 -266v1812h377v-37h-279v-1738h279v-37h-377z" />
    <glyph glyph-name="backslash" unicode="\" horiz-adv-x="825" 
d="M866 -266h-47l-788 1865h47z" />
    <glyph glyph-name="bracketright" unicode="]" horiz-adv-x="612" 
d="M408 1546v-1812h-377v37h278v1738h-278v37h377z" />
    <glyph glyph-name="asciicircum" unicode="^" horiz-adv-x="843" 
d="M764 991l-342 363l-342 -363l-19 17l355 518h12l354 -518z" />
    <glyph glyph-name="underscore" unicode="_" horiz-adv-x="1003" 
d="M942 -205h-881v37h881v-37z" />
    <glyph glyph-name="grave" unicode="`" horiz-adv-x="643" 
d="M485 1104l-14 -12l-352 364l100 78z" />
    <glyph glyph-name="a" unicode="a" horiz-adv-x="950" 
d="M369 43q79 0 154 31t120 76v362q-89 -12 -166 -34t-145.5 -57.5t-108 -90.5t-39.5 -123q0 -74 46.5 -119t138.5 -45zM774 -25q-63 0 -96 38.5t-35 101.5q-59 -63 -144.5 -104.5t-179.5 -41.5q-108 0 -173.5 56t-65.5 153q0 85 54 154.5t141.5 112t180.5 67.5t187 33v188
q0 209 -231 209q-158 0 -287 -90l-10 14q64 64 155.5 101t200.5 37q82 0 138 -20t84.5 -57.5t40 -78.5t11.5 -94v-619q0 -88 80 -88q50 0 99 49l6 -4q-14 -44 -53 -80.5t-103 -36.5z" />
    <glyph glyph-name="b" unicode="b" horiz-adv-x="1085" 
d="M506 -31q-200 0 -309 121l-50 -90h-20v1378q0 77 -90 127v4l192 86v-766h7q54 86 142.5 130.5t192.5 44.5q190 0 311.5 -135t121.5 -355q0 -106 -31.5 -202t-91 -173.5t-156.5 -123.5t-219 -46zM530 6q153 0 254 134t101 354q0 206 -104.5 324t-264.5 116
q-88 -1 -168 -45t-119 -103v-440q0 -168 86 -254t215 -86z" />
    <glyph glyph-name="c" unicode="c" 
d="M897 231l10 -4q-39 -117 -141.5 -187.5t-241.5 -70.5q-196 0 -319 134t-123 356q0 125 42 229t113 172.5t164 106t195 37.5q129 0 274 -68l15 -193l-13 -4q-71 122 -139 175t-172 53q-167 0 -266.5 -120.5t-99.5 -332.5q0 -202 94 -326.5t270 -124.5q101 0 194.5 42.5
t143.5 125.5z" />
    <glyph glyph-name="d" unicode="d" horiz-adv-x="1112" 
d="M553 39q94 0 172.5 48.5t130.5 129.5v463q0 81 -23.5 140t-63.5 89.5t-84 44t-95 13.5q-169 0 -279 -135.5t-110 -344.5q0 -206 98 -327t254 -121zM866 176h-8q-50 -91 -140 -149t-224 -58q-187 0 -299.5 130t-112.5 352q0 109 38.5 209t107 176.5t170.5 122t220 45.5
q140 0 238 -56v430q0 77 -90 127v4l192 86v-1376q0 -64 9.5 -98t27 -49.5t54.5 -30.5v-4l-183 -62v201z" />
    <glyph glyph-name="e" unicode="e" 
d="M532 967q-129 0 -215 -85.5t-112 -240.5l567 12v13q0 301 -240 301zM907 227q-39 -117 -141.5 -187.5t-243.5 -70.5q-198 0 -319 138.5t-121 363.5q0 118 37 219t99.5 169.5t145.5 106.5t175 38q114 0 200.5 -56.5t127.5 -146t34 -191.5h-700q-6 -44 -6 -94
q0 -204 93.5 -328.5t270.5 -124.5q103 0 195.5 42.5t142.5 125.5z" />
    <glyph glyph-name="f" unicode="f" horiz-adv-x="595" 
d="M156 0v4q27 40 38 103t11 178v651h-129v37h129v203q0 198 78 308.5t219 110.5q85 0 121 -28l24 -164l-12 -4q-63 91 -97.5 123t-82.5 32q-66 0 -107 -75t-41 -213v-293h242v-37h-242v-651q0 -201 47 -281v-4h-198z" />
    <glyph glyph-name="g" unicode="g" horiz-adv-x="976" 
d="M459 358q118 0 182 87.5t64 216.5q0 62 -15 115.5t-44 96.5t-78 68t-111 25q-82 0 -139 -45.5t-81 -112.5t-24 -147q0 -79 26.5 -146.5t84 -112.5t135.5 -45zM942 -160q0 -136 -130.5 -218.5t-350.5 -82.5q-196 0 -313 66.5t-117 179.5q0 81 57 144t135 83
q-147 33 -147 146q0 56 36.5 99.5t83.5 65.5t105 35q-90 42 -146.5 125t-56.5 179q0 137 105.5 239.5t253.5 102.5q139 0 241 -89l244 111l4 -2v-131h-8l-219 4q100 -100 100 -235q0 -138 -106.5 -239t-253.5 -101q-69 0 -131 24q-156 -50 -156 -149q0 -42 38 -69t140 -30
l236 -8q183 -6 269.5 -74.5t86.5 -175.5zM496 -424q167 0 262.5 59t95.5 168q0 186 -301 195l-227 4q-42 0 -72 6q-48 -13 -84.5 -68.5t-36.5 -127.5q0 -115 97.5 -175.5t265.5 -60.5z" />
    <glyph glyph-name="h" unicode="h" horiz-adv-x="1058" 
d="M303 0h-192v4q28 50 36.5 101t8.5 139v1108q0 95 -90 153v4l192 86v-770q76 90 171.5 134.5t197.5 44.5q140 0 213 -79t73 -220v-459q0 -96 7.5 -144.5t37.5 -97.5v-4h-192v4q27 49 36 102.5t9 137.5v438q0 111 -54 176.5t-175 65.5q-86 0 -171.5 -33.5t-152.5 -102.5
v-544q0 -92 7.5 -142t37.5 -98v-4z" />
    <glyph glyph-name="i" unicode="i" horiz-adv-x="403" 
d="M285 1350q0 -35 -24.5 -59.5t-59.5 -24.5q-34 0 -59 24.5t-25 59.5t25 59.5t59 24.5q35 0 59.5 -24.5t24.5 -59.5zM111 0v4q27 50 36 103t9 137v508q0 93 -90 151v4l192 107v-768q0 -94 7.5 -144t37.5 -98v-4h-192z" />
    <glyph glyph-name="j" unicode="j" horiz-adv-x="389" 
d="M285 1350q0 -35 -24.5 -59.5t-59.5 -24.5q-34 0 -59 24.5t-25 59.5t25 59.5t59 24.5q35 0 59.5 -24.5t24.5 -59.5zM27 -440l-4 10q48 26 75 56.5t42.5 86.5t15.5 144v895q0 93 -90 151v4l192 107l-4 -1129q0 -162 -54 -236.5t-173 -88.5z" />
    <glyph glyph-name="k" unicode="k" horiz-adv-x="894" 
d="M111 0v4q28 49 36.5 101t8.5 139v1134q0 77 -90 127v4l192 86v-1349q0 -93 7.5 -143.5t37.5 -98.5v-4h-192zM874 0h-184l-381 510l291 330q72 83 -18 129v4h237v-4q-49 -21 -80 -42.5t-46.5 -38t-57.5 -65.5l-232 -262l279 -373q59 -77 99 -116t93 -68v-4z" />
    <glyph glyph-name="l" unicode="l" horiz-adv-x="403" 
d="M111 0v4q28 49 36.5 101t8.5 139v1134q0 77 -90 127v4l192 86v-1349q0 -93 7.5 -143.5t37.5 -98.5v-4h-192z" />
    <glyph glyph-name="m" unicode="m" horiz-adv-x="1531" 
d="M305 4v-4h-194v4q28 49 37.5 99.5t9.5 136.5v505q0 98 -92 160v4l186 109v-191l8 -2q58 83 143 131t187 48q100 0 153.5 -46t73.5 -135l6 -2q60 84 144.5 133.5t187.5 49.5q125 0 178 -71t53 -208v-483q0 -91 8.5 -140.5t37.5 -97.5v-4h-193v4q26 49 35.5 101.5
t9.5 134.5v465q0 49 -7.5 85t-26 68t-56 49t-92.5 17q-147 0 -279 -140v-542q0 -92 8.5 -141t38.5 -97v-4h-194v4q27 48 36 100t9 136v465q0 49 -7 85t-26 68.5t-57 49t-94 16.5q-149 0 -277 -136v-546q0 -89 8 -140t37 -98z" />
    <glyph glyph-name="n" unicode="n" horiz-adv-x="1058" 
d="M303 4v-4h-192v4q28 50 36.5 101t8.5 139v506q0 95 -90 153v4l184 107v-187l8 -2q76 90 171.5 134.5t197.5 44.5q140 0 213 -79t73 -220v-459q0 -96 7.5 -144.5t37.5 -97.5v-4h-192v4q27 49 36 102.5t9 137.5v438q0 111 -54 176.5t-175 65.5q-88 0 -174.5 -34
t-149.5 -102v-542q0 -94 7.5 -144t37.5 -98z" />
    <glyph glyph-name="o" unicode="o" horiz-adv-x="1150" 
d="M575 -31q-101 0 -194 40.5t-160.5 109t-108 164.5t-40.5 202q0 142 68 261.5t184 188.5t251 69t251 -69t184.5 -188.5t68.5 -261.5t-68.5 -261t-184.5 -187t-251 -68zM575 6q180 0 278.5 135t98.5 344q0 136 -41.5 243.5t-128.5 173t-207 65.5t-206.5 -66t-128 -173
t-41.5 -243q0 -209 98 -344t278 -135z" />
    <glyph glyph-name="p" unicode="p" horiz-adv-x="1114" 
d="M535 6q170 0 274 132.5t104 353.5q0 207 -102 324.5t-256 117.5q-94 0 -175.5 -44t-121.5 -104v-645q104 -135 277 -135zM303 -461h-192v4q28 50 36.5 101t8.5 139v967q0 95 -90 153v4l184 107v-183l14 -2q54 86 143 130.5t193 44.5q190 0 311 -135t121 -355
q0 -106 -31.5 -202t-92 -173.5t-160 -123.5t-224.5 -46q-163 0 -266 80v-264q0 -94 7.5 -144t37.5 -98v-4z" />
    <glyph glyph-name="q" unicode="q" horiz-adv-x="1091" 
d="M809 -461v4q28 50 37.5 103t9.5 137v389q-50 -89 -140 -146t-222 -57q-187 0 -299.5 130t-112.5 352q0 109 38.5 209t107 176.5t170.5 122t220 45.5q162 0 261 -70l75 63h4v-1212q0 -93 8 -143t38 -99v-4h-195zM553 39q94 0 172.5 48.5t130.5 129.5v463q0 66 -15.5 117
t-41 82.5t-61 51.5t-71.5 28t-77 8q-169 0 -279 -135.5t-110 -344.5q0 -206 98 -327t254 -121z" />
    <glyph glyph-name="r" unicode="r" horiz-adv-x="632" 
d="M111 0v4q28 50 36.5 101t8.5 139v506q0 95 -90 153v4l184 107v-248l10 -2q22 21 57.5 61.5t61.5 66.5t60.5 54.5t72.5 43t80 14.5v-164h-4q-21 13 -66 21.5t-84 8.5q-25 0 -75.5 -44.5t-104.5 -108.5v-471q0 -94 7.5 -144t37.5 -98v-4h-192z" />
    <glyph glyph-name="s" unicode="s" horiz-adv-x="768" 
d="M641 967l21 -183l-17 -4q-54 104 -116.5 145.5t-143.5 41.5q-96 0 -157.5 -50t-61.5 -131q0 -26 7.5 -49t17 -40t30.5 -34t36.5 -27.5t47.5 -25t50.5 -22t57.5 -22.5l4.5 -1.5t4 -1.5t4.5 -2q53 -20 86.5 -35.5t76.5 -43t68 -57t42.5 -75t17.5 -100.5q0 -131 -93.5 -206
t-267.5 -75q-148 0 -270 60l-20 209l16 4q51 -123 123.5 -179.5t179.5 -56.5q118 0 183 59t65 150q0 40 -15 73t-36 55.5t-59 44.5t-68 35t-80 32q-43 16 -69.5 27.5t-65.5 31t-63 40.5t-48 49.5t-35.5 65t-11.5 79.5q0 68 29 119.5t78.5 80t107 42.5t123.5 14
q119 0 221 -37z" />
    <glyph glyph-name="t" unicode="t" horiz-adv-x="653" 
d="M379 -31q-39 0 -73 11t-65 35.5t-49 70.5t-18 109v741h-111v4l209 182h4v-149h304v-37h-304v-746q0 -157 150 -157q89 0 172 43l4 -8q-19 -20 -44.5 -39.5t-76 -39.5t-102.5 -20z" />
    <glyph glyph-name="u" unicode="u" horiz-adv-x="1003" 
d="M741 -25v177q-148 -183 -342 -183q-130 0 -201 76.5t-71 210.5v582q0 85 -86 131v4h188v-684q0 -240 213 -240q166 0 289 129v660q0 88 -90 131v4h193v-746q0 -64 10.5 -99.5t27.5 -51t54 -31.5v-4z" />
    <glyph glyph-name="v" unicode="v" horiz-adv-x="843" 
d="M418 -10l-297 770q-36 94 -60.5 137.5t-60.5 71.5v4h240v-4q-34 -31 -38.5 -77t27.5 -136l228 -600l219 583q34 91 28 146t-53 84v4h203v-4q-46 -35 -71.5 -76t-59.5 -137l-293 -766h-12z" />
    <glyph glyph-name="w" unicode="w" horiz-adv-x="1302" 
d="M389 -12h-12l-244 774q-50 160 -113 207v4h230v-4q-10 -13 -17 -39t-5.5 -69t14.5 -89l174 -602l217 590v2q-32 91 -55.5 139t-55.5 68v4h219v-4q-10 -13 -15 -39t0 -75t24 -107l188 -576l180 565q30 92 24 147.5t-52 84.5v4h202v-4q-46 -34 -69.5 -75.5t-55.5 -137.5
l-252 -768h-12l-250 717z" />
    <glyph glyph-name="x" unicode="x" horiz-adv-x="866" 
d="M227 4v-4h-217v4q70 45 101.5 74t72.5 94l197 311l-174 281q-39 65 -89.5 123t-86.5 82v4h239v-4q-15 -18 -19 -36t6 -44.5t22 -48t40 -66.5l134 -217l147 236q38 62 39 104.5t-31 71.5v4h217v-4q-70 -45 -101.5 -74t-72.5 -94l-176 -279l195 -313q39 -65 89.5 -123
t86.5 -82v-4h-240v4q15 18 19 36t-6 44.5t-22 48t-40 66.5l-154 247l-167 -266q-72 -113 -9 -176z" />
    <glyph glyph-name="y" unicode="y" horiz-adv-x="843" 
d="M45 -461l-4 113q31 1 69.5 12.5t85 36.5t89 74.5t67.5 115.5l51 134l-282 735q-36 94 -60.5 137.5t-60.5 71.5v4h240v-4q-34 -31 -38 -77.5t27 -135.5l226 -598l221 581q34 91 28 146t-53 84v4h203v-4q-46 -34 -70 -74.5t-61 -138.5l-354 -922q-57 -147 -134.5 -215
t-189.5 -80z" />
    <glyph glyph-name="z" unicode="z" horiz-adv-x="843" 
d="M711 0h-670v14l610 924l-311 -8q-19 0 -36.5 -4.5t-30 -8t-29.5 -16t-25.5 -18.5t-26.5 -26t-24 -27t-28 -33.5t-29 -34.5l-11 4l68 207h612v-17l-608 -921l344 6q36 1 66 10t51 20.5t47.5 40t42 49.5t49.5 68l10 -4z" />
    <glyph glyph-name="braceleft" unicode="{" horiz-adv-x="579" 
d="M549 -266h-72q-141 0 -217 64.5t-76 181.5q0 62 28 142.5t56.5 166.5t28.5 160q0 172 -211 172h-25v38h25q211 0 211 172q0 74 -28.5 160t-56.5 166.5t-28 142.5q0 117 76 181.5t217 64.5h72v-37h-72q-42 0 -72 -8t-57.5 -28.5t-42 -63.5t-14.5 -106q0 -51 37 -212.5
t37 -246.5q0 -54 -16 -93t-46.5 -60.5t-62 -32t-72.5 -15.5v-6q41 -5 72.5 -15.5t62 -32t46.5 -60.5t16 -93q0 -85 -37 -246.5t-37 -212.5q0 -63 14.5 -106t42 -63.5t57.5 -28.5t72 -8h72v-37z" />
    <glyph glyph-name="bar" unicode="|" horiz-adv-x="419" 
d="M233 -266h-47v1865h47v-1865z" />
    <glyph glyph-name="braceright" unicode="}" horiz-adv-x="579" 
d="M102 -266h-71v37h71q42 0 72.5 8t58 28.5t42 63.5t14.5 106q0 51 -37 212.5t-37 246.5q0 54 16 93t46.5 60.5t62 32t72.5 15.5v6q-41 5 -72.5 15.5t-62 32t-46.5 60.5t-16 93q0 85 37 246.5t37 212.5q0 63 -14.5 106t-42 63.5t-58 28.5t-72.5 8h-71v37h71
q141 0 217 -64.5t76 -181.5q0 -62 -28 -142.5t-56 -166.5t-28 -160q0 -172 211 -172h24v-38h-24q-211 0 -211 -172q0 -74 28 -160t56 -166.5t28 -142.5q0 -117 -76 -181.5t-217 -64.5z" />
    <glyph glyph-name="asciitilde" unicode="~" horiz-adv-x="925" 
d="M274 672q42 0 118.5 -30t159.5 -59.5t142 -29.5q60 0 92.5 30t47.5 95l16 -4q-3 -35 -12 -67t-28.5 -68t-59 -58t-93.5 -22q-53 0 -135 29.5t-161.5 59.5t-124.5 30q-114 0 -142 -129l-18 4q2 26 8.5 52.5t21 57.5t35.5 54.5t55.5 39t77.5 15.5z" />
    <glyph glyph-name="uni00A0" unicode="&#xa0;" horiz-adv-x="307" 
 />
    <glyph glyph-name="exclamdown" unicode="&#xa1;" horiz-adv-x="438" 
d="M279 -498v-4h-117v4l43 1098h28zM219 1004q40 0 68 -28.5t28 -68.5t-28 -68t-68 -28q-39 0 -67.5 28.5t-28.5 67.5t28.5 68t67.5 29z" />
    <glyph glyph-name="cent" unicode="&#xa2;" 
d="M543 -233h-47v202q-185 11 -299.5 143.5t-114.5 346.5q0 216 117 358t297 176v148h47v-140q24 3 53 3q129 0 274 -68l15 -193l-13 -4q-71 122 -139 175t-172 53h-18v-904h16q101 0 194.5 42.5t143.5 125.5l10 -4q-37 -114 -134.5 -184t-229.5 -74v-202zM195 514
q0 -184 77 -303.5t224 -142.5v893q-139 -24 -220 -141t-81 -306z" />
    <glyph glyph-name="sterling" unicode="&#xa3;" horiz-adv-x="1091" 
d="M1081 332l-125 -332h-925v16q51 39 76.5 60t59 55.5t49.5 66t34 81t28 111t17 145.5l16 198h-170l9 37h165l17 197q24 284 126 423.5t257 139.5q60 0 118.5 -19t94.5 -43l41 -284l-17 -6q-55 156 -129.5 233.5t-154.5 77.5q-51 0 -86 -37.5t-67 -145.5t-58 -302l-31 -234
h291l-8 -37h-289l-21 -151q-16 -120 -45.5 -213t-65.5 -147.5t-67.5 -85t-62.5 -44.5h551q133 0 199.5 47.5t156.5 198.5z" />
    <glyph glyph-name="yen" unicode="&#xa5;" horiz-adv-x="1105" 
d="M410 0v4q49 55 65.5 98t16.5 115v174h-369v37h369v234h-369v36h356l-303 598q-39 80 -79 123t-97 76v4h317v-4q-90 -42 -18 -186l287 -574l248 484q40 78 48.5 132t-5.5 84.5t-50 59.5v4h279v-4q-78 -50 -121.5 -104t-103.5 -172l-269 -521h359v-36h-369v-234h369v-37
h-369v-174q0 -74 16 -116t66 -97v-4h-274z" />
    <glyph glyph-name="brokenbar" unicode="&#xa6;" horiz-adv-x="419" 
d="M233 748h-47v851h47v-851zM233 -266h-47v850h47v-850z" />
    <glyph glyph-name="section" unicode="&#xa7;" horiz-adv-x="993" 
d="M487 340q83 -42 111 -61q85 14 142 84.5t57 171.5q0 36 -9.5 69t-20.5 57t-37.5 51t-42.5 41.5t-55 39t-55 33.5t-61 34q-102 60 -113 68q-89 -11 -147.5 -81.5t-58.5 -176.5q0 -52 17.5 -96t37.5 -72.5t66 -61.5t71 -47.5t85 -45.5l3 -1.5l3 -1.5t3.5 -2t3.5 -2z
M412 -336q-152 0 -242 51l-16 203l14 4q50 -117 118 -168t163 -51q107 0 175 66.5t68 175.5q0 40 -9.5 75t-31 63.5t-42 50.5t-57.5 45.5t-61.5 37.5t-68.5 37q-4 2 -6.5 3.5t-6 3t-6.5 3.5q-51 27 -87 49t-77 56t-66.5 70t-42.5 86t-17 108q0 125 74.5 211.5t191.5 101.5
q-143 106 -143 268q0 83 31.5 146t84.5 99t115 53.5t131 17.5q99 0 195 -29l16 -180l-14 -4q-56 98 -106 136t-134 38q-105 0 -169 -66t-64 -170q0 -34 8.5 -65t19.5 -54t35 -48.5t40 -40.5t51.5 -38.5t53 -33.5t58.5 -33q9 -5 14 -8q53 -30 84 -50t73 -55t65 -68.5t40 -83
t17 -106.5q0 -122 -72 -207t-184 -104q73 -51 113 -116.5t40 -161.5q0 -88 -32 -152.5t-86.5 -99t-116 -50.5t-131.5 -16z" />
    <glyph glyph-name="dieresis" unicode="&#xa8;" horiz-adv-x="921" 
d="M750 1350q0 -35 -24.5 -59.5t-59.5 -24.5q-34 0 -59 24.5t-25 59.5t25 59.5t59 24.5q35 0 59.5 -24.5t24.5 -59.5zM340 1350q0 -35 -24.5 -59.5t-59.5 -24.5q-34 0 -59 24.5t-25 59.5t25 59.5t59 24.5q35 0 59.5 -24.5t24.5 -59.5z" />
    <glyph glyph-name="copyright" unicode="&#xa9;" horiz-adv-x="1726" 
d="M82 752q0 160 62 304.5t166.5 248t248.5 164.5t303 61t304 -61t250 -164.5t167 -248t62 -304.5q0 -161 -62.5 -306t-167.5 -249t-249.5 -165t-303.5 -61t-303 61t-248.5 165t-166.5 249t-62 306zM133 752q0 -151 57.5 -288t155.5 -236t232.5 -157.5t283.5 -58.5
t283.5 58.5t232.5 157.5t155.5 236t57.5 288t-57.5 287.5t-155.5 235t-232.5 156.5t-283.5 58t-283.5 -58t-232.5 -156.5t-155.5 -235t-57.5 -287.5zM1155 408q-42 -31 -122.5 -58.5t-170.5 -27.5q-185 0 -293 122.5t-108 309.5q0 183 115.5 304.5t306.5 121.5
q139 0 268 -56l23 -186l-11 -4q-58 104 -127 157.5t-168 53.5q-146 0 -225.5 -109t-79.5 -282q0 -178 77 -288t222 -110q115 0 186.5 69t116.5 187l13 -4z" />
    <glyph glyph-name="ordfeminine" unicode="&#xaa;" horiz-adv-x="749" 
d="M309 786q58 0 108 22.5t81 57.5v269q-324 -51 -324 -226q0 -57 33 -90t102 -33zM602 725q-48 0 -73 29t-27 80q-45 -50 -108.5 -82.5t-139.5 -32.5q-85 0 -133.5 43.5t-48.5 118.5q0 66 40.5 119.5t106 87t136 53.5t143.5 28v136q0 79 -38 119t-130 40q-137 0 -224 -69
l-12 16q49 55 123.5 87t165.5 32q219 0 219 -203v-475q0 -70 49 -70q29 0 64 39l6 -4q-12 -36 -41 -64t-78 -28z" />
    <glyph glyph-name="guillemotleft" unicode="&#xab;" horiz-adv-x="821" 
d="M709 119l-17 -13l-282 359v41l282 358l17 -12l-187 -367zM401 119l-16 -13l-283 359v41l283 358l16 -12l-186 -367z" />
    <glyph glyph-name="registered" unicode="&#xae;" horiz-adv-x="962" 
d="M51 1108q0 177 127 299.5t307 122.5q179 0 302.5 -122t123.5 -300q0 -176 -127 -298t-305 -122q-180 0 -304 121t-124 299zM98 1108q0 -160 111.5 -270.5t271.5 -110.5t271.5 110t111.5 271t-111.5 272t-271.5 111q-161 0 -272 -111t-111 -272zM330 885v4
q15 19 19.5 32.5t4.5 39.5v299q0 26 -4.5 39.5t-19.5 33.5v4h166q73 0 109 -31t36 -85q0 -41 -23.5 -71.5t-66.5 -43.5l80 -145q29 -50 42 -60q10 -8 23 -12v-4h-90l-110 202h-80v-126q0 -26 4.5 -39.5t19.5 -32.5v-4h-110zM479 1300h-63v-172h67q49 0 72 25.5t23 67.5
q0 79 -99 79z" />
    <glyph glyph-name="macron" unicode="&#xaf;" horiz-adv-x="921" 
d="M168 1249v72h584v-72h-584z" />
    <glyph glyph-name="degree" unicode="&#xb0;" horiz-adv-x="604" 
d="M31 1260q0 112 81 191t195 79t190 -78t76 -192t-80.5 -193.5t-193.5 -79.5q-116 0 -192 79t-76 194zM80 1260q0 -99 63 -165.5t160 -66.5q96 0 158.5 66.5t62.5 165.5q0 98 -62.5 163.5t-158.5 65.5q-97 0 -160 -65.5t-63 -163.5z" />
    <glyph glyph-name="acute" unicode="&#xb4;" horiz-adv-x="919" 
d="M305 1104l266 430l101 -78l-353 -364z" />
    <glyph glyph-name="paragraph" unicode="&#xb6;" horiz-adv-x="937" 
d="M774 0h-119v2q19 50 25 86t6 102v1119q0 66 -6 103t-25 85v2h119v-2q-19 -50 -25 -86.5t-6 -101.5v-1119q0 -66 6 -103t25 -85v-2zM590 0h-119v2q19 50 25 86t6 102v619h-115q-144 0 -245 102.5t-101 245.5q0 141 101 241.5t245 100.5h203v-2q-19 -50 -25 -86.5
t-6 -101.5v-1119q0 -66 6 -103t25 -85v-2z" />
    <glyph glyph-name="periodcentered" unicode="&#xb7;" horiz-adv-x="376" 
d="M188 465q-39 0 -67.5 28.5t-28.5 67.5t28.5 67.5t67.5 28.5q40 0 68.5 -28t28.5 -68t-28.5 -68t-68.5 -28z" />
    <glyph glyph-name="cedilla" unicode="&#xb8;" horiz-adv-x="919" 
d="M311 -522l-4 16q109 40 162 81t53 106q0 39 -19 66.5t-50.5 40.5t-55.5 18.5t-51 7.5l-2 4q84 139 115 186h57l-76 -121q78 -18 124 -62.5t46 -113.5q0 -169 -299 -229z" />
    <glyph glyph-name="ordmasculine" unicode="&#xba;" horiz-adv-x="901" 
d="M451 719q-165 0 -283 119t-117 286q0 167 118.5 286.5t281.5 119.5t281 -119.5t118 -286.5t-118 -286t-281 -119zM451 752q90 0 154.5 51.5t95 134t30.5 186.5t-30.5 187t-95 134.5t-154.5 51.5q-134 0 -208.5 -106.5t-74.5 -266.5q0 -161 74 -266.5t209 -105.5z" />
    <glyph glyph-name="guillemotright" unicode="&#xbb;" horiz-adv-x="821" 
d="M436 106l-16 13l186 366l-186 367l16 12l283 -358v-41zM129 106l-16 13l186 366l-186 367l16 12l283 -358v-41z" />
    <glyph glyph-name="onequarter" unicode="&#xbc;" horiz-adv-x="1218" 
d="M313 725h-217v2q35 41 46.5 72.5t11.5 87.5v469h-99v8q104 58 189 160h10v-637q0 -57 11 -88t48 -72v-2zM121 2l-33 27l1067 1493l35 -23zM956 0v2q28 42 38 74t10 86v43h-355v14l369 569h117l-439 -550h308v258h98v-258h100l-8 -33h-92v-43q0 -55 10 -86t39 -74v-2h-195
z" />
    <glyph glyph-name="onehalf" unicode="&#xbd;" horiz-adv-x="1341" 
d="M100 2l-32 27l1067 1493l34 -23zM1260 0h-478v14q228 192 317 320.5t89 253.5q0 88 -41.5 137t-116.5 49q-66 0 -108 -45.5t-91 -142.5l-10 4l25 180q98 35 186 35q130 0 193 -58t63 -155q0 -79 -46 -160.5t-125.5 -161t-211.5 -184.5h215q68 0 109.5 35t85.5 110l10 -4z
M313 725h-217v2q35 41 46.5 72.5t11.5 87.5v469h-99v8q104 58 189 160h10v-637q0 -57 11 -88t48 -72v-2z" />
    <glyph glyph-name="threequarters" unicode="&#xbe;" horiz-adv-x="1323" 
d="M285 709q-58 0 -114 13t-89 34l-27 170l11 2q62 -100 109 -144.5t120 -44.5q89 0 132.5 64.5t43.5 167.5q0 211 -186 211q-80 0 -142 -45l-14 18l301 268h-332l29 88h436v-10l-332 -295q42 11 78 11q111 0 186.5 -64.5t75.5 -181.5q0 -118 -79 -190t-207 -72zM225 2
l-32 27l1067 1493l34 -23zM1061 0v2q28 42 37.5 73.5t9.5 86.5v43h-354v14l368 569h117l-438 -550h307v258h98v-258h101l-9 -33h-92v-43q0 -55 10 -86t39 -74v-2h-194z" />
    <glyph glyph-name="questiondown" unicode="&#xbf;" horiz-adv-x="886" 
d="M575 600h33q-9 -73 -37 -136.5t-64 -110.5t-77.5 -92t-81 -90.5t-72 -96t-52 -119t-19.5 -148.5q0 -148 63 -225.5t189 -77.5q119 0 192 68.5t131 218.5l15 -4l-39 -254q-167 -65 -310 -65q-172 0 -268 87.5t-96 249.5q0 78 23 144.5t60.5 116.5t84.5 96t97 92.5
t94.5 94.5t81 113t52.5 138zM580 1004q38 0 67 -29t29 -68t-28.5 -67.5t-67.5 -28.5q-40 0 -68.5 28t-28.5 68t28.5 68.5t68.5 28.5z" />
    <glyph glyph-name="Agrave" unicode="&#xc0;" horiz-adv-x="1280" 
d="M885 606l-275 774l-276 -774h551zM240 4v-4h-230v4q54 53 77.5 95t62.5 149l462 1270h56l469 -1289q42 -117 62.5 -152.5t70.5 -72.5v-4h-256v4q58 79 4 229l-119 332h-582l-116 -327q-54 -149 39 -234zM809 1616l-8 -14l-473 251l75 111z" />
    <glyph glyph-name="Aacute" unicode="&#xc1;" horiz-adv-x="1280" 
d="M885 606l-275 774l-276 -774h551zM240 4v-4h-230v4q54 53 77.5 95t62.5 149l462 1270h56l469 -1289q42 -117 62.5 -152.5t70.5 -72.5v-4h-256v4q58 79 4 229l-119 332h-582l-116 -327q-54 -149 39 -234zM442 1616l406 348l67 -111l-464 -251z" />
    <glyph glyph-name="Acircumflex" unicode="&#xc2;" horiz-adv-x="1280" 
d="M885 606l-275 774l-276 -774h551zM240 4v-4h-230v4q54 53 77.5 95t62.5 149l462 1270h56l469 -1289q42 -117 62.5 -152.5t70.5 -72.5v-4h-256v4q58 79 4 229l-119 332h-582l-116 -327q-54 -149 39 -234zM940 1602l-301 202l-301 -202l-12 14l309 319h8l309 -319z" />
    <glyph glyph-name="Atilde" unicode="&#xc3;" horiz-adv-x="1280" 
d="M885 606l-275 774l-276 -774h551zM240 4v-4h-230v4q54 53 77.5 95t62.5 149l462 1270h56l469 -1289q42 -117 62.5 -152.5t70.5 -72.5v-4h-256v4q58 79 4 229l-119 332h-582l-116 -327q-54 -149 39 -234zM483 1847q44 0 94.5 -17.5t88 -38.5t85 -38.5t87.5 -17.5
q55 0 83 30.5t46 102.5l16 -2q-12 -236 -176 -236q-44 0 -94.5 17.5t-88 39t-84.5 39t-87 17.5q-55 0 -83 -30.5t-46 -102.5l-17 2q12 235 176 235z" />
    <glyph glyph-name="Adieresis" unicode="&#xc4;" horiz-adv-x="1280" 
d="M885 606l-275 774l-276 -774h551zM240 4v-4h-230v4q54 53 77.5 95t62.5 149l462 1270h56l469 -1289q42 -117 62.5 -152.5t70.5 -72.5v-4h-256v4q58 79 4 229l-119 332h-582l-116 -327q-54 -149 39 -234zM979 1778q0 -35 -24.5 -59.5t-59.5 -24.5q-34 0 -59 24.5t-25 59.5
t25 59.5t59 24.5q35 0 59.5 -24.5t24.5 -59.5zM446 1778q0 -35 -24.5 -59.5t-59.5 -24.5q-34 0 -58.5 24.5t-24.5 59.5t24.5 59.5t58.5 24.5q35 0 59.5 -24.5t24.5 -59.5z" />
    <glyph glyph-name="Aring" unicode="&#xc5;" horiz-adv-x="1280" 
d="M885 606l-275 774l-276 -774h551zM240 4v-4h-230v4q54 53 77.5 95t62.5 149l462 1270h56l469 -1289q42 -117 62.5 -152.5t70.5 -72.5v-4h-256v4q58 79 4 229l-119 332h-582l-116 -327q-54 -149 39 -234zM457 1772q0 75 48.5 124.5t123.5 49.5t123.5 -49.5t48.5 -124.5
t-48.5 -122.5t-123.5 -47.5t-123.5 47.5t-48.5 122.5zM514 1772q0 -63 29.5 -99.5t85.5 -36.5t85 36.5t29 99.5q0 64 -28.5 101.5t-85.5 37.5t-86 -37.5t-29 -101.5z" />
    <glyph glyph-name="AE" unicode="&#xc6;" horiz-adv-x="1941" 
d="M930 1264q0 71 -25 129l-440 -787h465v658zM252 4v-4h-242v4q69 56 106.5 101.5t96.5 148.5l668 1180q-25 32 -72 61v4h907l80 -297l-16 -6l-39 54t-38.5 53.5t-34 45.5t-35 42t-30.5 30t-30.5 23t-26.5 8l-504 12v-690h330q19 0 41 20t36 41.5t37.5 60.5t31.5 52h16
v-379h-16q-9 12 -31 47.5t-37 56.5t-37 40.5t-41 19.5h-330v-698l519 14q91 3 164.5 73t168.5 216l17 -6l-92 -332h-969v4q43 68 61.5 118t18.5 114v329h-488l-182 -325q-90 -160 -8 -236z" />
    <glyph glyph-name="Ccedilla" unicode="&#xc7;" horiz-adv-x="1519" 
d="M627 -522l-4 16q109 40 162 81t53 106q0 39 -19 66.5t-50.5 40.5t-55.5 18.5t-51 7.5l-3 4q58 96 95 155q-208 15 -362 123t-232 277.5t-78 378.5q0 219 95 394.5t277.5 279.5t422.5 104q135 0 268.5 -31.5t222.5 -71.5l41 -288l-16 -4q-100 187 -225.5 270.5
t-299.5 83.5q-162 0 -287.5 -55.5t-204.5 -155t-119 -232.5t-40 -294t38 -294.5t112 -234.5t192.5 -157t271.5 -56q149 0 260 53t183 146t127 237l16 -4l-41 -313q-74 -56 -228 -108t-325 -52h-14l-53 -86q78 -18 124 -62.5t46 -113.5q0 -169 -299 -229z" />
    <glyph glyph-name="Egrave" unicode="&#xc8;" horiz-adv-x="1198" 
d="M1167 332l-92 -332h-969v4q43 68 61.5 118t18.5 114v1028q0 65 -18 113.5t-62 117.5v4h867l80 -297l-17 -6q-14 19 -39 54t-38.5 53.5t-34 45.5t-34.5 42t-30 30.5t-30 22.5t-27 8l-504 12v-690h330q19 0 41 20t36 41.5t36.5 60.5t31.5 52h17v-379h-17q-9 12 -30.5 47
t-36.5 57t-37 41t-41 19h-330v-698l518 14q91 3 165 73t169 216zM745 1616l-8 -14l-473 251l76 111z" />
    <glyph glyph-name="Eacute" unicode="&#xc9;" horiz-adv-x="1198" 
d="M1167 332l-92 -332h-969v4q43 68 61.5 118t18.5 114v1028q0 65 -18 113.5t-62 117.5v4h867l80 -297l-17 -6q-14 19 -39 54t-38.5 53.5t-34 45.5t-34.5 42t-30 30.5t-30 22.5t-27 8l-504 12v-690h330q19 0 41 20t36 41.5t36.5 60.5t31.5 52h17v-379h-17q-9 12 -30.5 47
t-36.5 57t-37 41t-41 19h-330v-698l518 14q91 3 165 73t169 216zM379 1616l405 348l68 -111l-465 -251z" />
    <glyph glyph-name="Ecircumflex" unicode="&#xca;" horiz-adv-x="1198" 
d="M1167 332l-92 -332h-969v4q43 68 61.5 118t18.5 114v1028q0 65 -18 113.5t-62 117.5v4h867l80 -297l-17 -6q-14 19 -39 54t-38.5 53.5t-34 45.5t-34.5 42t-30 30.5t-30 22.5t-27 8l-504 12v-690h330q19 0 41 20t36 41.5t36.5 60.5t31.5 52h17v-379h-17q-9 12 -30.5 47
t-36.5 57t-37 41t-41 19h-330v-698l518 14q91 3 165 73t169 216zM907 1602l-301 202l-301 -202l-12 14l309 319h8l310 -319z" />
    <glyph glyph-name="Edieresis" unicode="&#xcb;" horiz-adv-x="1198" 
d="M1167 332l-92 -332h-969v4q43 68 61.5 118t18.5 114v1028q0 65 -18 113.5t-62 117.5v4h867l80 -297l-17 -6q-14 19 -39 54t-38.5 53.5t-34 45.5t-34.5 42t-30 30.5t-30 22.5t-27 8l-504 12v-690h330q19 0 41 20t36 41.5t36.5 60.5t31.5 52h17v-379h-17q-9 12 -30.5 47
t-36.5 57t-37 41t-41 19h-330v-698l518 14q91 3 165 73t169 216zM915 1778q0 -35 -24.5 -59.5t-59.5 -24.5q-34 0 -58.5 24.5t-24.5 59.5t24.5 59.5t58.5 24.5q35 0 59.5 -24.5t24.5 -59.5zM383 1778q0 -35 -24.5 -59.5t-59.5 -24.5q-34 0 -59 24.5t-25 59.5t25 59.5
t59 24.5q35 0 59.5 -24.5t24.5 -59.5z" />
    <glyph glyph-name="Igrave" unicode="&#xcc;" horiz-adv-x="487" 
d="M106 0l3 4q49 63 64 112t15 138v991q0 88 -16 137t-66 113v4h275v-4q-50 -64 -66 -112.5t-16 -137.5v-991q0 -88 16.5 -136.5t67.5 -113.5l-2 -4h-275zM424 1616l-8 -14l-473 251l75 111z" />
    <glyph glyph-name="Iacute" unicode="&#xcd;" horiz-adv-x="487" 
d="M106 0l3 4q49 63 64 112t15 138v991q0 88 -16 137t-66 113v4h275v-4q-50 -64 -66 -112.5t-16 -137.5v-991q0 -88 16.5 -136.5t67.5 -113.5l-2 -4h-275zM57 1616l406 348l67 -111l-464 -251z" />
    <glyph glyph-name="Icircumflex" unicode="&#xce;" horiz-adv-x="487" 
d="M106 0l3 4q49 63 64 112t15 138v991q0 88 -16 137t-66 113v4h275v-4q-50 -64 -66 -112.5t-16 -137.5v-991q0 -88 16.5 -136.5t67.5 -113.5l-2 -4h-275zM545 1602l-301 202l-301 -202l-13 14l310 319h8l309 -319z" />
    <glyph glyph-name="Idieresis" unicode="&#xcf;" horiz-adv-x="487" 
d="M532 1778q0 -35 -24 -59.5t-59 -24.5q-34 0 -59 24.5t-25 59.5t25 59.5t59 24.5q35 0 59 -24.5t24 -59.5zM123 1778q0 -35 -24.5 -59.5t-59.5 -24.5q-34 0 -59 24.5t-25 59.5t25 59.5t59 24.5q35 0 59.5 -24.5t24.5 -59.5zM106 0l3 4q49 63 64 112t15 138v991
q0 88 -16 137t-66 113v4h275v-4q-50 -64 -66 -112.5t-16 -137.5v-991q0 -88 16.5 -136.5t67.5 -113.5l-2 -4h-275z" />
    <glyph glyph-name="Eth" unicode="&#xd0;" horiz-adv-x="1488" 
d="M4 733v37h205v430q0 103 -16 161.5t-66 133.5v4q136 0 285 4t290 4q332 0 518.5 -195.5t186.5 -555.5q0 -364 -193.5 -560t-551.5 -196h-535v4q50 75 66 133.5t16 161.5v434h-205zM682 1466l-363 2v-698h459v-37h-459v-694l322 2q332 1 481.5 172t149.5 514
q0 376 -147.5 556.5t-442.5 182.5z" />
    <glyph glyph-name="Ntilde" unicode="&#xd1;" horiz-adv-x="1466" 
d="M1264 -6l-1037 1300l9 -1011q0 -97 27.5 -152t115.5 -127v-4h-293v4q63 72 82.5 127t19.5 152v1056q-79 115 -163 156v4h182l1034 -1298l-6 1016q-2 98 -25 152t-98 126v4h272v-4q-64 -72 -83 -126t-19 -152v-1217zM586 1847q56 0 119.5 -28t124.5 -56t110 -28
q55 0 83 30.5t46 102.5l16 -2q-12 -236 -176 -236q-44 0 -94.5 17.5t-88 39t-84.5 39t-87 17.5q-55 0 -83 -30.5t-46 -102.5l-16 2q12 235 176 235z" />
    <glyph glyph-name="Ograve" unicode="&#xd2;" horiz-adv-x="1660" 
d="M829 -31q-157 0 -296 60t-238 163.5t-156 248t-57 307.5t57.5 308t156 249t237.5 164.5t296 60.5t296.5 -60.5t239 -164.5t157 -249t57.5 -308q0 -218 -98 -396.5t-270 -280.5t-382 -102zM829 10q186 0 326.5 96t214.5 263t74 379q0 211 -74 378.5t-215 265t-326 97.5
t-325.5 -97.5t-213.5 -265t-73 -378.5t73 -378t213.5 -263.5t325.5 -96.5zM1010 1616l-9 -14l-473 251l76 111z" />
    <glyph glyph-name="Oacute" unicode="&#xd3;" horiz-adv-x="1660" 
d="M829 -31q-157 0 -296 60t-238 163.5t-156 248t-57 307.5t57.5 308t156 249t237.5 164.5t296 60.5t296.5 -60.5t239 -164.5t157 -249t57.5 -308q0 -218 -98 -396.5t-270 -280.5t-382 -102zM829 10q186 0 326.5 96t214.5 263t74 379q0 211 -74 378.5t-215 265t-326 97.5
t-325.5 -97.5t-213.5 -265t-73 -378.5t73 -378t213.5 -263.5t325.5 -96.5zM643 1616l406 348l67 -111l-465 -251z" />
    <glyph glyph-name="Ocircumflex" unicode="&#xd4;" horiz-adv-x="1660" 
d="M829 -31q-157 0 -296 60t-238 163.5t-156 248t-57 307.5t57.5 308t156 249t237.5 164.5t296 60.5t296.5 -60.5t239 -164.5t157 -249t57.5 -308q0 -218 -98 -396.5t-270 -280.5t-382 -102zM829 10q186 0 326.5 96t214.5 263t74 379q0 211 -74 378.5t-215 265t-326 97.5
t-325.5 -97.5t-213.5 -265t-73 -378.5t73 -378t213.5 -263.5t325.5 -96.5zM1130 1602l-301 202l-301 -202l-12 14l309 319h9l309 -319z" />
    <glyph glyph-name="Otilde" unicode="&#xd5;" horiz-adv-x="1660" 
d="M829 -31q-157 0 -296 60t-238 163.5t-156 248t-57 307.5t57.5 308t156 249t237.5 164.5t296 60.5t296.5 -60.5t239 -164.5t157 -249t57.5 -308q0 -218 -98 -396.5t-270 -280.5t-382 -102zM829 10q186 0 326.5 96t214.5 263t74 379q0 211 -74 378.5t-215 265t-326 97.5
t-325.5 -97.5t-213.5 -265t-73 -378.5t73 -378t213.5 -263.5t325.5 -96.5zM668 1847q56 0 119.5 -28t124.5 -56t110 -28q55 0 83 30.5t46 102.5l16 -2q-12 -236 -176 -236q-44 0 -94.5 17.5t-88 39t-84.5 39t-87 17.5q-55 0 -83 -30.5t-46 -102.5l-16 2q12 235 176 235z" />
    <glyph glyph-name="Odieresis" unicode="&#xd6;" horiz-adv-x="1660" 
d="M829 -31q-157 0 -296 60t-238 163.5t-156 248t-57 307.5t57.5 308t156 249t237.5 164.5t296 60.5t296.5 -60.5t239 -164.5t157 -249t57.5 -308q0 -218 -98 -396.5t-270 -280.5t-382 -102zM829 10q186 0 326.5 96t214.5 263t74 379q0 211 -74 378.5t-215 265t-326 97.5
t-325.5 -97.5t-213.5 -265t-73 -378.5t73 -378t213.5 -263.5t325.5 -96.5zM1180 1778q0 -35 -24.5 -59.5t-59.5 -24.5q-34 0 -59 24.5t-25 59.5t25 59.5t59 24.5q35 0 59.5 -24.5t24.5 -59.5zM647 1778q0 -35 -24.5 -59.5t-59.5 -24.5q-34 0 -59 24.5t-25 59.5t25 59.5
t59 24.5q35 0 59.5 -24.5t24.5 -59.5z" />
    <glyph glyph-name="multiply" unicode="&#xd7;" horiz-adv-x="966" 
d="M831 250l-348 348l-348 -348l-31 31l349 348l-349 348l31 31l348 -349l348 349l31 -31l-348 -348l348 -348z" />
    <glyph glyph-name="Oslash" unicode="&#xd8;" horiz-adv-x="1660" 
d="M217 748q0 -178 53 -326t152 -248l780 1182q-155 133 -373 133q-185 0 -325.5 -97.5t-213.5 -265t-73 -378.5zM829 10q186 0 326.5 96t214.5 263t74 379q0 178 -54.5 327.5t-154.5 249.5l-780 -1182q158 -133 374 -133zM829 -31q-227 0 -409 121l-98 -149h-54l115 174
q-140 106 -220.5 271.5t-80.5 361.5q0 163 57.5 308t156 249t237.5 164.5t296 60.5q230 0 408 -121l100 152h54l-117 -177q142 -108 223.5 -274t81.5 -362q0 -218 -98 -396.5t-270 -280.5t-382 -102z" />
    <glyph glyph-name="Ugrave" unicode="&#xd9;" horiz-adv-x="1400" 
d="M723 -31q-93 0 -174.5 18t-153 58t-122.5 99.5t-80 147t-29 195.5v752q0 90 -16 140.5t-66 115.5v4h274v-4q-44 -59 -63 -115t-19 -141v-745q0 -128 36.5 -223t102 -150t147 -81t181.5 -26q102 0 181.5 27t130 73t83 111t45.5 135t13 152v700q0 98 -28.5 153.5
t-118.5 129.5v4h317v-4q-77 -75 -102 -131t-25 -152v-698q0 -91 -16 -169.5t-54 -148.5t-95.5 -119.5t-146.5 -78.5t-202 -29zM918 1616l-9 -14l-473 251l76 111z" />
    <glyph glyph-name="Uacute" unicode="&#xda;" horiz-adv-x="1400" 
d="M723 -31q-93 0 -174.5 18t-153 58t-122.5 99.5t-80 147t-29 195.5v752q0 90 -16 140.5t-66 115.5v4h274v-4q-44 -59 -63 -115t-19 -141v-745q0 -128 36.5 -223t102 -150t147 -81t181.5 -26q102 0 181.5 27t130 73t83 111t45.5 135t13 152v700q0 98 -28.5 153.5
t-118.5 129.5v4h317v-4q-77 -75 -102 -131t-25 -152v-698q0 -91 -16 -169.5t-54 -148.5t-95.5 -119.5t-146.5 -78.5t-202 -29zM551 1616l405 348l68 -111l-465 -251z" />
    <glyph glyph-name="Ucircumflex" unicode="&#xdb;" horiz-adv-x="1400" 
d="M723 -31q-93 0 -174.5 18t-153 58t-122.5 99.5t-80 147t-29 195.5v752q0 90 -16 140.5t-66 115.5v4h274v-4q-44 -59 -63 -115t-19 -141v-745q0 -128 36.5 -223t102 -150t147 -81t181.5 -26q102 0 181.5 27t130 73t83 111t45.5 135t13 152v700q0 98 -28.5 153.5
t-118.5 129.5v4h317v-4q-77 -75 -102 -131t-25 -152v-698q0 -91 -16 -169.5t-54 -148.5t-95.5 -119.5t-146.5 -78.5t-202 -29zM1038 1602l-301 202l-301 -202l-12 14l309 319h8l310 -319z" />
    <glyph glyph-name="Udieresis" unicode="&#xdc;" horiz-adv-x="1400" 
d="M723 -31q-93 0 -174.5 18t-153 58t-122.5 99.5t-80 147t-29 195.5v752q0 90 -16 140.5t-66 115.5v4h274v-4q-44 -59 -63 -115t-19 -141v-745q0 -128 36.5 -223t102 -150t147 -81t181.5 -26q102 0 181.5 27t130 73t83 111t45.5 135t13 152v700q0 98 -28.5 153.5
t-118.5 129.5v4h317v-4q-77 -75 -102 -131t-25 -152v-698q0 -91 -16 -169.5t-54 -148.5t-95.5 -119.5t-146.5 -78.5t-202 -29zM1087 1778q0 -35 -24 -59.5t-59 -24.5q-34 0 -59 24.5t-25 59.5t25 59.5t59 24.5q35 0 59 -24.5t24 -59.5zM555 1778q0 -35 -24.5 -59.5
t-59.5 -24.5q-34 0 -59 24.5t-25 59.5t25 59.5t59 24.5q35 0 59.5 -24.5t24.5 -59.5z" />
    <glyph glyph-name="Yacute" unicode="&#xdd;" horiz-adv-x="1167" 
d="M440 0v4q49 55 65.5 98t16.5 115v483l-346 596q-47 81 -85 125t-91 74v4h317v-4q-48 -23 -51.5 -73.5t33.5 -112.5l319 -553l277 463q44 74 53 128.5t-6.5 86.5t-52.5 61v4h278v-4q-18 -11 -32.5 -22t-29 -24.5t-24 -22.5t-23.5 -27t-20.5 -27t-22 -33t-21.5 -34
t-25 -41.5t-27 -44.5l-309 -514v-488q0 -74 16 -116t66 -97v-4h-275zM422 1616l405 348l68 -111l-465 -251z" />
    <glyph glyph-name="Thorn" unicode="&#xde;" horiz-adv-x="1099" 
d="M557 1110q-121 0 -258 -6v-674h274q188 0 279.5 96.5t91.5 257.5q0 96 -31.5 163t-88.5 101t-121 48t-146 14zM383 4l-2 -4h-275l3 4q49 63 64 112t15 138v991q0 88 -16 137t-66 113v4h275v-4q-50 -64 -66 -112.5t-16 -137.5v-94h287q128 0 222 -28.5t147.5 -79.5
t78.5 -115.5t25 -143.5q0 -184 -126.5 -289.5t-357.5 -105.5h-276v-135q0 -88 16.5 -136.5t67.5 -113.5z" />
    <glyph glyph-name="germandbls" unicode="&#xdf;" horiz-adv-x="1124" 
d="M760 -31q-138 0 -256 68l-21 209l17 4q45 -126 110 -185t168 -59q108 0 170 58.5t62 152.5q0 58 -26 101t-67 69.5t-91 48.5t-100.5 44.5t-91.5 51t-67 75.5t-26 110q0 68 31 124.5t74.5 99t87.5 87t75 109.5t31 145q0 116 -62.5 194t-185.5 78q-135 0 -210 -92.5
t-75 -257.5v-1204h-151v4q27 40 38 103t11 178v651h-129v37h129v145q0 217 103.5 347t283.5 130q141 0 240.5 -81t99.5 -224q0 -78 -34 -143.5t-82 -110t-96 -85t-82 -89t-34 -102.5q0 -49 27 -84.5t70 -58t95.5 -42.5t105 -45t95.5 -58t70 -88.5t27 -129.5
q0 -136 -88 -210.5t-246 -74.5z" />
    <glyph glyph-name="agrave" unicode="&#xe0;" horiz-adv-x="950" 
d="M369 43q79 0 154 31t120 76v362q-89 -12 -166 -34t-145.5 -57.5t-108 -90.5t-39.5 -123q0 -74 46.5 -119t138.5 -45zM774 -25q-63 0 -96 38.5t-35 101.5q-59 -63 -144.5 -104.5t-179.5 -41.5q-108 0 -173.5 56t-65.5 153q0 85 54 154.5t141.5 112t180.5 67.5t187 33v188
q0 209 -231 209q-158 0 -287 -90l-10 14q64 64 155.5 101t200.5 37q82 0 138 -20t84.5 -57.5t40 -78.5t11.5 -94v-619q0 -88 80 -88q50 0 99 49l6 -4q-14 -44 -53 -80.5t-103 -36.5zM596 1104l-14 -12l-353 364l101 78z" />
    <glyph glyph-name="aacute" unicode="&#xe1;" horiz-adv-x="950" 
d="M369 43q79 0 154 31t120 76v362q-89 -12 -166 -34t-145.5 -57.5t-108 -90.5t-39.5 -123q0 -74 46.5 -119t138.5 -45zM774 -25q-63 0 -96 38.5t-35 101.5q-59 -63 -144.5 -104.5t-179.5 -41.5q-108 0 -173.5 56t-65.5 153q0 85 54 154.5t141.5 112t180.5 67.5t187 33v188
q0 209 -231 209q-158 0 -287 -90l-10 14q64 64 155.5 101t200.5 37q82 0 138 -20t84.5 -57.5t40 -78.5t11.5 -94v-619q0 -88 80 -88q50 0 99 49l6 -4q-14 -44 -53 -80.5t-103 -36.5zM340 1104l266 430l101 -78l-353 -364z" />
    <glyph glyph-name="acircumflex" unicode="&#xe2;" horiz-adv-x="950" 
d="M369 43q79 0 154 31t120 76v362q-89 -12 -166 -34t-145.5 -57.5t-108 -90.5t-39.5 -123q0 -74 46.5 -119t138.5 -45zM774 -25q-63 0 -96 38.5t-35 101.5q-59 -63 -144.5 -104.5t-179.5 -41.5q-108 0 -173.5 56t-65.5 153q0 85 54 154.5t141.5 112t180.5 67.5t187 33v188
q0 209 -231 209q-158 0 -287 -90l-10 14q64 64 155.5 101t200.5 37q82 0 138 -20t84.5 -57.5t40 -78.5t11.5 -94v-619q0 -88 80 -88q50 0 99 49l6 -4q-14 -44 -53 -80.5t-103 -36.5zM733 1106l-272 227l-264 -227l-15 12l275 355h8l283 -355z" />
    <glyph glyph-name="atilde" unicode="&#xe3;" horiz-adv-x="950" 
d="M369 43q79 0 154 31t120 76v362q-89 -12 -166 -34t-145.5 -57.5t-108 -90.5t-39.5 -123q0 -74 46.5 -119t138.5 -45zM774 -25q-63 0 -96 38.5t-35 101.5q-59 -63 -144.5 -104.5t-179.5 -41.5q-108 0 -173.5 56t-65.5 153q0 85 54 154.5t141.5 112t180.5 67.5t187 33v188
q0 209 -231 209q-158 0 -287 -90l-10 14q64 64 155.5 101t200.5 37q82 0 138 -20t84.5 -57.5t40 -78.5t11.5 -94v-619q0 -88 80 -88q50 0 99 49l6 -4q-14 -44 -53 -80.5t-103 -36.5zM311 1397q55 0 142.5 -45t146.5 -45q53 0 82 26.5t43 83.5l16 -2q-2 -33 -9 -62.5t-23 -64
t-49.5 -55.5t-81.5 -21q-55 0 -142.5 45.5t-146.5 45.5q-53 0 -82 -27t-43 -84l-17 2q2 32 9 62t23.5 64.5t50 55.5t81.5 21z" />
    <glyph glyph-name="adieresis" unicode="&#xe4;" horiz-adv-x="950" 
d="M369 43q79 0 154 31t120 76v362q-89 -12 -166 -34t-145.5 -57.5t-108 -90.5t-39.5 -123q0 -74 46.5 -119t138.5 -45zM774 -25q-63 0 -96 38.5t-35 101.5q-59 -63 -144.5 -104.5t-179.5 -41.5q-108 0 -173.5 56t-65.5 153q0 85 54 154.5t141.5 112t180.5 67.5t187 33v188
q0 209 -231 209q-158 0 -287 -90l-10 14q64 64 155.5 101t200.5 37q82 0 138 -20t84.5 -57.5t40 -78.5t11.5 -94v-619q0 -88 80 -88q50 0 99 49l6 -4q-14 -44 -53 -80.5t-103 -36.5zM733 1350q0 -35 -24.5 -59.5t-59.5 -24.5q-34 0 -59 24.5t-25 59.5t25 59.5t59 24.5
q35 0 59.5 -24.5t24.5 -59.5zM324 1350q0 -35 -24.5 -59.5t-59.5 -24.5q-34 0 -59 24.5t-25 59.5t25 59.5t59 24.5q35 0 59.5 -24.5t24.5 -59.5z" />
    <glyph glyph-name="aring" unicode="&#xe5;" horiz-adv-x="950" 
d="M369 43q79 0 154 31t120 76v362q-89 -12 -166 -34t-145.5 -57.5t-108 -90.5t-39.5 -123q0 -74 46.5 -119t138.5 -45zM774 -25q-63 0 -96 38.5t-35 101.5q-59 -63 -144.5 -104.5t-179.5 -41.5q-108 0 -173.5 56t-65.5 153q0 85 54 154.5t141.5 112t180.5 67.5t187 33v188
q0 209 -231 209q-158 0 -287 -90l-10 14q64 64 155.5 101t200.5 37q82 0 138 -20t84.5 -57.5t40 -78.5t11.5 -94v-619q0 -88 80 -88q50 0 99 49l6 -4q-14 -44 -53 -80.5t-103 -36.5zM293 1339q0 75 48.5 124.5t123.5 49.5t123.5 -49.5t48.5 -124.5t-48.5 -122.5
t-123.5 -47.5t-123.5 47.5t-48.5 122.5zM350 1339q0 -63 29.5 -99t85.5 -36t85.5 36t29.5 99q0 64 -29 102t-86 38t-86 -38t-29 -102z" />
    <glyph glyph-name="ae" unicode="&#xe6;" horiz-adv-x="1503" 
d="M1053 -31q-128 0 -225 62.5t-150 175.5q-59 -104 -153.5 -171t-219.5 -67q-110 0 -176 56t-66 153q0 85 54 154.5t141.5 112t181 67.5t187.5 33v188q0 94 -53.5 151.5t-178.5 57.5q-157 0 -286 -90l-11 14q64 64 156 101t201 37q134 0 194 -53.5t72 -143.5
q57 95 145.5 146t196.5 51q168 0 266.5 -115t87.5 -279h-672q-6 -43 -6 -94q0 -206 89 -329.5t262 -123.5q100 0 191.5 42.5t139.5 125.5l11 -4q-37 -117 -138.5 -187.5t-240.5 -70.5zM1061 967q-123 0 -204.5 -85.5t-106.5 -240.5l538 12v13q0 301 -227 301zM354 47
q102 0 182.5 57t127.5 142q-37 93 -37 221v45q-88 -12 -163 -33.5t-142 -57t-105.5 -90.5t-38.5 -124q0 -73 44 -116.5t132 -43.5z" />
    <glyph glyph-name="ccedilla" unicode="&#xe7;" 
d="M315 -522l-4 16q109 40 162 81t53 106q0 39 -19 66.5t-50.5 40.5t-55.5 18.5t-51 7.5l-2 4q59 100 96 159q-164 27 -263 155.5t-99 326.5q0 125 42 229t113 172.5t164 106t195 37.5q129 0 274 -68l15 -193l-13 -4q-71 122 -139 175t-172 53q-167 0 -266.5 -120.5
t-99.5 -332.5q0 -202 94 -326.5t270 -124.5q101 0 194.5 42.5t143.5 125.5l10 -4q-39 -117 -141.5 -187.5t-241.5 -70.5h-26l-54 -86q78 -18 124 -62.5t46 -113.5q0 -169 -299 -229z" />
    <glyph glyph-name="egrave" unicode="&#xe8;" 
d="M532 967q-129 0 -215 -85.5t-112 -240.5l567 12v13q0 301 -240 301zM907 227q-39 -117 -141.5 -187.5t-243.5 -70.5q-198 0 -319 138.5t-121 363.5q0 118 37 219t99.5 169.5t145.5 106.5t175 38q114 0 200.5 -56.5t127.5 -146t34 -191.5h-700q-6 -44 -6 -94
q0 -204 93.5 -328.5t270.5 -124.5q103 0 195.5 42.5t142.5 125.5zM631 1104l-15 -12l-352 364l101 78z" />
    <glyph glyph-name="eacute" unicode="&#xe9;" 
d="M532 967q-129 0 -215 -85.5t-112 -240.5l567 12v13q0 301 -240 301zM907 227q-39 -117 -141.5 -187.5t-243.5 -70.5q-198 0 -319 138.5t-121 363.5q0 118 37 219t99.5 169.5t145.5 106.5t175 38q114 0 200.5 -56.5t127.5 -146t34 -191.5h-700q-6 -44 -6 -94
q0 -204 93.5 -328.5t270.5 -124.5q103 0 195.5 42.5t142.5 125.5zM375 1104l266 430l100 -78l-352 -364z" />
    <glyph glyph-name="ecircumflex" unicode="&#xea;" 
d="M532 967q-129 0 -215 -85.5t-112 -240.5l567 12v13q0 301 -240 301zM907 227q-39 -117 -141.5 -187.5t-243.5 -70.5q-198 0 -319 138.5t-121 363.5q0 118 37 219t99.5 169.5t145.5 106.5t175 38q114 0 200.5 -56.5t127.5 -146t34 -191.5h-700q-6 -44 -6 -94
q0 -204 93.5 -328.5t270.5 -124.5q103 0 195.5 42.5t142.5 125.5zM768 1106l-272 227l-265 -227l-14 12l275 355h8l282 -355z" />
    <glyph glyph-name="edieresis" unicode="&#xeb;" 
d="M532 967q-129 0 -215 -85.5t-112 -240.5l567 12v13q0 301 -240 301zM907 227q-39 -117 -141.5 -187.5t-243.5 -70.5q-198 0 -319 138.5t-121 363.5q0 118 37 219t99.5 169.5t145.5 106.5t175 38q114 0 200.5 -56.5t127.5 -146t34 -191.5h-700q-6 -44 -6 -94
q0 -204 93.5 -328.5t270.5 -124.5q103 0 195.5 42.5t142.5 125.5zM788 1350q0 -35 -24 -59.5t-59 -24.5q-34 0 -59 24.5t-25 59.5t25 59.5t59 24.5q35 0 59 -24.5t24 -59.5zM379 1350q0 -35 -24.5 -59.5t-59.5 -24.5q-34 0 -59 24.5t-25 59.5t25 59.5t59 24.5
q35 0 59.5 -24.5t24.5 -59.5z" />
    <glyph glyph-name="igrave" unicode="&#xec;" horiz-adv-x="403" 
d="M111 0v4q27 50 36 103t9 137v508q0 93 -90 151v4l192 107v-768q0 -94 7.5 -144t37.5 -98v-4h-192zM317 1104l-14 -12l-352 364l100 78z" />
    <glyph glyph-name="iacute" unicode="&#xed;" horiz-adv-x="403" 
d="M111 0v4q27 50 36 103t9 137v508q0 93 -90 151v4l192 107v-768q0 -94 7.5 -144t37.5 -98v-4h-192zM104 1104l267 430l100 -78l-352 -364z" />
    <glyph glyph-name="icircumflex" unicode="&#xee;" horiz-adv-x="403" 
d="M111 0v4q27 50 36 103t9 137v508q0 93 -90 151v4l192 107v-768q0 -94 7.5 -144t37.5 -98v-4h-192zM477 1106l-272 227l-264 -227l-15 12l275 355h8l283 -355z" />
    <glyph glyph-name="idieresis" unicode="&#xef;" horiz-adv-x="403" 
d="M436 1350q0 -35 -24.5 -59.5t-59.5 -24.5q-34 0 -59 24.5t-25 59.5t25 59.5t59 24.5q35 0 59.5 -24.5t24.5 -59.5zM129 1350q0 -35 -24.5 -59.5t-59.5 -24.5q-34 0 -59 24.5t-25 59.5t25 59.5t59 24.5q35 0 59.5 -24.5t24.5 -59.5zM111 0v4q27 50 36 103t9 137v508
q0 93 -90 151v4l192 107v-768q0 -94 7.5 -144t37.5 -98v-4h-192z" />
    <glyph glyph-name="eth" unicode="&#xf0;" horiz-adv-x="1150" 
d="M575 -31q-101 0 -194 40.5t-160.5 109t-108 164.5t-40.5 202q0 217 136.5 359.5t348.5 142.5q75 0 139.5 -19t108.5 -51.5t73.5 -65t49.5 -67.5q-72 320 -285 541l-240 -164l-22 33l233 160q-145 141 -335 219l8 20q212 -74 381 -204l233 157l23 -33l-224 -151
q193 -163 286 -375t93 -420q0 -137 -40 -251t-109 -189t-160.5 -116.5t-194.5 -41.5zM575 6q185 0 283 137.5t98 376.5q0 68 -10 160q-62 132 -163 197t-220 65q-171 0 -269.5 -126.5t-98.5 -330.5q0 -136 42 -242.5t129.5 -171.5t208.5 -65z" />
    <glyph glyph-name="ntilde" unicode="&#xf1;" horiz-adv-x="1058" 
d="M303 4v-4h-192v4q28 50 36.5 101t8.5 139v506q0 95 -90 153v4l184 107v-187l8 -2q76 90 171.5 134.5t197.5 44.5q140 0 213 -79t73 -220v-459q0 -96 7.5 -144.5t37.5 -97.5v-4h-192v4q27 49 36 102.5t9 137.5v438q0 111 -54 176.5t-175 65.5q-88 0 -174.5 -34
t-149.5 -102v-542q0 -94 7.5 -144t37.5 -98zM412 1397q55 0 142 -45t146 -45q53 0 82 26.5t43 83.5l17 -2q-2 -32 -9 -62t-23.5 -64.5t-50 -55.5t-81.5 -21q-55 0 -142.5 45.5t-146.5 45.5q-53 0 -82 -27t-43 -84l-16 2q2 32 9 62t23.5 64.5t50 55.5t81.5 21z" />
    <glyph glyph-name="ograve" unicode="&#xf2;" horiz-adv-x="1150" 
d="M575 -31q-101 0 -194 40.5t-160.5 109t-108 164.5t-40.5 202q0 142 68 261.5t184 188.5t251 69t251 -69t184.5 -188.5t68.5 -261.5t-68.5 -261t-184.5 -187t-251 -68zM575 6q180 0 278.5 135t98.5 344q0 136 -41.5 243.5t-128.5 173t-207 65.5t-206.5 -66t-128 -173
t-41.5 -243q0 -209 98 -344t278 -135zM666 1104l-15 -12l-352 364l100 78z" />
    <glyph glyph-name="oacute" unicode="&#xf3;" horiz-adv-x="1150" 
d="M575 -31q-101 0 -194 40.5t-160.5 109t-108 164.5t-40.5 202q0 142 68 261.5t184 188.5t251 69t251 -69t184.5 -188.5t68.5 -261.5t-68.5 -261t-184.5 -187t-251 -68zM575 6q180 0 278.5 135t98.5 344q0 136 -41.5 243.5t-128.5 173t-207 65.5t-206.5 -66t-128 -173
t-41.5 -243q0 -209 98 -344t278 -135zM492 1104l266 430l100 -78l-352 -364z" />
    <glyph glyph-name="ocircumflex" unicode="&#xf4;" horiz-adv-x="1150" 
d="M575 -31q-101 0 -194 40.5t-160.5 109t-108 164.5t-40.5 202q0 142 68 261.5t184 188.5t251 69t251 -69t184.5 -188.5t68.5 -261.5t-68.5 -261t-184.5 -187t-251 -68zM575 6q180 0 278.5 135t98.5 344q0 136 -41.5 243.5t-128.5 173t-207 65.5t-206.5 -66t-128 -173
t-41.5 -243q0 -209 98 -344t278 -135zM844 1106l-273 227l-264 -227l-14 12l274 355h8l283 -355z" />
    <glyph glyph-name="otilde" unicode="&#xf5;" horiz-adv-x="1150" 
d="M575 -31q-101 0 -194 40.5t-160.5 109t-108 164.5t-40.5 202q0 142 68 261.5t184 188.5t251 69t251 -69t184.5 -188.5t68.5 -261.5t-68.5 -261t-184.5 -187t-251 -68zM575 6q180 0 278.5 135t98.5 344q0 136 -41.5 243.5t-128.5 173t-207 65.5t-206.5 -66t-128 -173
t-41.5 -243q0 -209 98 -344t278 -135zM442 1397q55 0 142.5 -45t146.5 -45q53 0 82 26.5t43 83.5l16 -2q-2 -33 -9 -62.5t-23 -64t-49.5 -55.5t-81.5 -21q-55 0 -142.5 45.5t-146.5 45.5q-53 0 -82 -27t-43 -84l-16 2q2 33 9 62.5t23 64t49.5 55.5t81.5 21z" />
    <glyph glyph-name="odieresis" unicode="&#xf6;" horiz-adv-x="1150" 
d="M575 -31q-101 0 -194 40.5t-160.5 109t-108 164.5t-40.5 202q0 142 68 261.5t184 188.5t251 69t251 -69t184.5 -188.5t68.5 -261.5t-68.5 -261t-184.5 -187t-251 -68zM575 6q180 0 278.5 135t98.5 344q0 136 -41.5 243.5t-128.5 173t-207 65.5t-206.5 -66t-128 -173
t-41.5 -243q0 -209 98 -344t278 -135zM864 1350q0 -35 -24.5 -59.5t-59.5 -24.5q-34 0 -59 24.5t-25 59.5t25 59.5t59 24.5q35 0 59.5 -24.5t24.5 -59.5zM455 1350q0 -35 -24.5 -59.5t-59.5 -24.5q-34 0 -59 24.5t-25 59.5t25 59.5t59 24.5q35 0 59.5 -24.5t24.5 -59.5z" />
    <glyph glyph-name="divide" unicode="&#xf7;" horiz-adv-x="1118" 
d="M1012 610h-906v41h906v-41zM559 193q-39 0 -67.5 28.5t-28.5 67.5t28.5 67.5t67.5 28.5q40 0 68 -28t28 -68t-28 -68t-68 -28zM559 877q-39 0 -67.5 28.5t-28.5 67.5t28.5 67.5t67.5 28.5q40 0 68 -28t28 -68t-28 -68t-68 -28z" />
    <glyph glyph-name="oslash" unicode="&#xf8;" horiz-adv-x="1150" 
d="M575 -31q-149 0 -276 84l-131 -190h-51l149 215q-91 72 -142.5 177.5t-51.5 229.5q0 142 68 261.5t184 188.5t251 69q149 0 273 -84l135 194h51l-151 -219q91 -72 143.5 -179t52.5 -231q0 -142 -68.5 -261t-184.5 -187t-251 -68zM575 6q180 0 278.5 135t98.5 344
q0 223 -108 355l-512 -740q97 -94 243 -94zM199 485q0 -224 104 -352l512 739q-95 95 -240 95q-120 0 -206.5 -66t-128 -173t-41.5 -243z" />
    <glyph glyph-name="ugrave" unicode="&#xf9;" horiz-adv-x="1003" 
d="M741 -25v177q-148 -183 -342 -183q-130 0 -201 76.5t-71 210.5v582q0 85 -86 131v4h188v-684q0 -240 213 -240q166 0 289 129v660q0 88 -90 131v4h193v-746q0 -64 10.5 -99.5t27.5 -51t54 -31.5v-4zM578 1104l-15 -12l-352 364l100 78z" />
    <glyph glyph-name="uacute" unicode="&#xfa;" horiz-adv-x="1003" 
d="M741 -25v177q-148 -183 -342 -183q-130 0 -201 76.5t-71 210.5v582q0 85 -86 131v4h188v-684q0 -240 213 -240q166 0 289 129v660q0 88 -90 131v4h193v-746q0 -64 10.5 -99.5t27.5 -51t54 -31.5v-4zM403 1104l267 430l100 -78l-352 -364z" />
    <glyph glyph-name="ucircumflex" unicode="&#xfb;" horiz-adv-x="1003" 
d="M741 -25v177q-148 -183 -342 -183q-130 0 -201 76.5t-71 210.5v582q0 85 -86 131v4h188v-684q0 -240 213 -240q166 0 289 129v660q0 88 -90 131v4h193v-746q0 -64 10.5 -99.5t27.5 -51t54 -31.5v-4zM743 1106l-272 227l-264 -227l-14 12l274 355h8l283 -355z" />
    <glyph glyph-name="udieresis" unicode="&#xfc;" horiz-adv-x="1003" 
d="M741 -25v177q-148 -183 -342 -183q-130 0 -201 76.5t-71 210.5v582q0 85 -86 131v4h188v-684q0 -240 213 -240q166 0 289 129v660q0 88 -90 131v4h193v-746q0 -64 10.5 -99.5t27.5 -51t54 -31.5v-4zM756 1350q0 -35 -24.5 -59.5t-59.5 -24.5q-34 0 -59 24.5t-25 59.5
t25 59.5t59 24.5q35 0 59.5 -24.5t24.5 -59.5zM346 1350q0 -35 -24.5 -59.5t-59.5 -24.5q-34 0 -59 24.5t-25 59.5t25 59.5t59 24.5q35 0 59.5 -24.5t24.5 -59.5z" />
    <glyph glyph-name="yacute" unicode="&#xfd;" horiz-adv-x="843" 
d="M45 -461l-4 113q31 1 69.5 12.5t85 36.5t89 74.5t67.5 115.5l51 134l-282 735q-36 94 -60.5 137.5t-60.5 71.5v4h240v-4q-34 -31 -38 -77.5t27 -135.5l226 -598l221 581q34 91 28 146t-53 84v4h203v-4q-46 -34 -70 -74.5t-61 -138.5l-354 -922q-57 -147 -134.5 -215
t-189.5 -80zM377 1104l266 430l100 -78l-352 -364z" />
    <glyph glyph-name="thorn" unicode="&#xfe;" horiz-adv-x="1103" 
d="M524 6q170 0 274.5 132.5t104.5 353.5q0 207 -102 324.5t-256 117.5q-94 0 -175.5 -44t-121.5 -104v-645q104 -135 276 -135zM293 -457v-4h-193v4q28 50 36.5 101t8.5 139v1595q0 77 -90 127v4l193 86v-766h6q54 86 143 130.5t193 44.5q190 0 311 -135t121 -355
q0 -106 -31.5 -202t-92 -173.5t-160 -123.5t-224.5 -46q-163 0 -266 80v-264q0 -94 7.5 -144t37.5 -98z" />
    <glyph glyph-name="ydieresis" unicode="&#xff;" horiz-adv-x="843" 
d="M45 -461l-4 113q31 1 69.5 12.5t85 36.5t89 74.5t67.5 115.5l51 134l-282 735q-36 94 -60.5 137.5t-60.5 71.5v4h240v-4q-34 -31 -38 -77.5t27 -135.5l226 -598l221 581q34 91 28 146t-53 84v4h203v-4q-46 -34 -70 -74.5t-61 -138.5l-354 -922q-57 -147 -134.5 -215
t-189.5 -80zM745 1350q0 -35 -24 -59.5t-59 -24.5q-34 0 -59 24.5t-25 59.5t25 59.5t59 24.5q35 0 59 -24.5t24 -59.5zM336 1350q0 -35 -24.5 -59.5t-59.5 -24.5q-34 0 -59 24.5t-25 59.5t25 59.5t59 24.5q35 0 59.5 -24.5t24.5 -59.5z" />
    <glyph glyph-name="Amacron" unicode="&#x100;" horiz-adv-x="1280" 
d="M885 606l-275 774l-276 -774h551zM240 4v-4h-230v4q54 53 77.5 95t62.5 149l462 1270h56l469 -1289q42 -117 62.5 -152.5t70.5 -72.5v-4h-256v4q58 79 4 229l-119 332h-582l-116 -327q-54 -149 39 -234zM324 1716v72h612v-72h-612z" />
    <glyph glyph-name="amacron" unicode="&#x101;" horiz-adv-x="950" 
d="M369 43q79 0 154 31t120 76v362q-89 -12 -166 -34t-145.5 -57.5t-108 -90.5t-39.5 -123q0 -74 46.5 -119t138.5 -45zM774 -25q-63 0 -96 38.5t-35 101.5q-59 -63 -144.5 -104.5t-179.5 -41.5q-108 0 -173.5 56t-65.5 153q0 85 54 154.5t141.5 112t180.5 67.5t187 33v188
q0 209 -231 209q-158 0 -287 -90l-10 14q64 64 155.5 101t200.5 37q82 0 138 -20t84.5 -57.5t40 -78.5t11.5 -94v-619q0 -88 80 -88q50 0 99 49l6 -4q-14 -44 -53 -80.5t-103 -36.5zM174 1249v72h584v-72h-584z" />
    <glyph glyph-name="Abreve" unicode="&#x102;" horiz-adv-x="1280" 
d="M885 606l-275 774l-276 -774h551zM240 4v-4h-230v4q54 53 77.5 95t62.5 149l462 1270h56l469 -1289q42 -117 62.5 -152.5t70.5 -72.5v-4h-256v4q58 79 4 229l-119 332h-582l-116 -327q-54 -149 39 -234zM627 1720q100 0 169 48.5t101 132.5h16q-5 -36 -14.5 -68.5
t-31 -70.5t-51.5 -65.5t-79.5 -46t-111.5 -18.5q-60 0 -108 18.5t-77 46t-50 65.5t-30.5 70.5t-15.5 68.5h16q75 -181 267 -181z" />
    <glyph glyph-name="abreve" unicode="&#x103;" horiz-adv-x="950" 
d="M369 43q79 0 154 31t120 76v362q-89 -12 -166 -34t-145.5 -57.5t-108 -90.5t-39.5 -123q0 -74 46.5 -119t138.5 -45zM774 -25q-63 0 -96 38.5t-35 101.5q-59 -63 -144.5 -104.5t-179.5 -41.5q-108 0 -173.5 56t-65.5 153q0 85 54 154.5t141.5 112t180.5 67.5t187 33v188
q0 209 -231 209q-158 0 -287 -90l-10 14q64 64 155.5 101t200.5 37q82 0 138 -20t84.5 -57.5t40 -78.5t11.5 -94v-619q0 -88 80 -88q50 0 99 49l6 -4q-14 -44 -53 -80.5t-103 -36.5zM444 1257q91 0 151.5 43t84.5 119h16q-2 -32 -9.5 -63t-26 -66t-45.5 -61t-72 -43
t-101 -17q-54 0 -97.5 17t-69.5 43t-44 61t-25.5 66t-10.5 63h16q55 -162 233 -162z" />
    <glyph glyph-name="Aogonek" unicode="&#x104;" horiz-adv-x="1280" 
d="M932 -508q-84 0 -130 44t-46 120q0 46 16.5 88.5t52 84.5t69.5 73.5t89 77.5q35 31 48 59t13 67q0 53 -26 127l-119 332h-582l-116 -327q-54 -149 39 -234v-4h-230v4q54 53 77.5 95t62.5 149l462 1270h56l469 -1289q42 -117 62.5 -152.5t70.5 -72.5v-4h-215
q-99 -74 -152 -155t-53 -160q0 -64 34.5 -95.5t96.5 -31.5q109 0 205 112l16 -12q-30 -45 -60.5 -77.5t-86.5 -60.5t-123 -28zM885 606l-275 774l-276 -774h551z" />
    <glyph glyph-name="aogonek" unicode="&#x105;" horiz-adv-x="950" 
d="M682 -508q-88 0 -135 44t-47 120q0 88 72.5 178.5t179.5 142.5q-103 14 -107 140q-62 -64 -147 -106t-179 -42q-108 0 -173.5 56t-65.5 153q0 85 54 154.5t141.5 112t180.5 67.5t187 33v188q0 209 -231 209q-158 0 -287 -90l-10 14q64 64 155.5 101t200.5 37
q82 0 138 -20t84.5 -57.5t40 -78.5t11.5 -94v-619q0 -88 80 -88q50 0 99 49l6 -4q-15 -48 -53 -80q-13 -11 -28.5 -19.5t-36.5 -17.5t-30 -14q-74 -38 -131 -113.5t-57 -162.5q0 -64 34.5 -95.5t96.5 -31.5q109 0 205 112l16 -12q-110 -166 -264 -166zM377 47q74 0 147.5 30
t118.5 73v362q-88 -12 -163 -33.5t-141.5 -57t-105 -90t-38.5 -122.5q0 -74 45.5 -118t136.5 -44z" />
    <glyph glyph-name="Cacute" unicode="&#x106;" horiz-adv-x="1519" 
d="M1417 442l-41 -313q-74 -56 -228 -108t-325 -52q-172 0 -313 61t-234 167t-143.5 248.5t-50.5 306.5q0 219 95 394.5t277.5 279.5t422.5 104q135 0 268.5 -31.5t222.5 -71.5l41 -288l-16 -4q-100 187 -225.5 270.5t-299.5 83.5q-162 0 -287.5 -55.5t-204.5 -155
t-119 -232.5t-40 -294t38 -294.5t112 -234.5t192.5 -157t271.5 -56q149 0 260 53t183 146t127 237zM647 1616l406 348l67 -111l-465 -251z" />
    <glyph glyph-name="cacute" unicode="&#x107;" 
d="M897 231l10 -4q-39 -117 -141.5 -187.5t-241.5 -70.5q-196 0 -319 134t-123 356q0 125 42 229t113 172.5t164 106t195 37.5q129 0 274 -68l15 -193l-13 -4q-71 122 -139 175t-172 53q-167 0 -266.5 -120.5t-99.5 -332.5q0 -202 94 -326.5t270 -124.5q101 0 194.5 42.5
t143.5 125.5zM401 1104l267 430l100 -78l-352 -364z" />
    <glyph glyph-name="Ccircumflex" unicode="&#x108;" horiz-adv-x="1519" 
d="M1417 442l-41 -313q-74 -56 -228 -108t-325 -52q-172 0 -313 61t-234 167t-143.5 248.5t-50.5 306.5q0 219 95 394.5t277.5 279.5t422.5 104q135 0 268.5 -31.5t222.5 -71.5l41 -288l-16 -4q-100 187 -225.5 270.5t-299.5 83.5q-162 0 -287.5 -55.5t-204.5 -155
t-119 -232.5t-40 -294t38 -294.5t112 -234.5t192.5 -157t271.5 -56q149 0 260 53t183 146t127 237zM1135 1602l-301 202l-302 -202l-12 14l309 319h9l309 -319z" />
    <glyph glyph-name="ccircumflex" unicode="&#x109;" 
d="M897 231l10 -4q-39 -117 -141.5 -187.5t-241.5 -70.5q-196 0 -319 134t-123 356q0 125 42 229t113 172.5t164 106t195 37.5q129 0 274 -68l15 -193l-13 -4q-71 122 -139 175t-172 53q-167 0 -266.5 -120.5t-99.5 -332.5q0 -202 94 -326.5t270 -124.5q101 0 194.5 42.5
t143.5 125.5zM795 1106l-273 227l-264 -227l-14 12l274 355h8l283 -355z" />
    <glyph glyph-name="Cdotaccent" unicode="&#x10a;" horiz-adv-x="1519" 
d="M1417 442l-41 -313q-74 -56 -228 -108t-325 -52q-172 0 -313 61t-234 167t-143.5 248.5t-50.5 306.5q0 219 95 394.5t277.5 279.5t422.5 104q135 0 268.5 -31.5t222.5 -71.5l41 -288l-16 -4q-100 187 -225.5 270.5t-299.5 83.5q-162 0 -287.5 -55.5t-204.5 -155
t-119 -232.5t-40 -294t38 -294.5t112 -234.5t192.5 -157t271.5 -56q149 0 260 53t183 146t127 237zM918 1778q0 -35 -24.5 -59.5t-59.5 -24.5q-34 0 -59 24.5t-25 59.5t25 59.5t59 24.5q35 0 59.5 -24.5t24.5 -59.5z" />
    <glyph glyph-name="cdotaccent" unicode="&#x10b;" 
d="M897 231l10 -4q-39 -117 -141.5 -187.5t-241.5 -70.5q-196 0 -319 134t-123 356q0 125 42 229t113 172.5t164 106t195 37.5q129 0 274 -68l15 -193l-13 -4q-71 122 -139 175t-172 53q-167 0 -266.5 -120.5t-99.5 -332.5q0 -202 94 -326.5t270 -124.5q101 0 194.5 42.5
t143.5 125.5zM610 1350q0 -35 -24.5 -59.5t-59.5 -24.5q-34 0 -59 24.5t-25 59.5t25 59.5t59 24.5q35 0 59.5 -24.5t24.5 -59.5z" />
    <glyph glyph-name="Ccaron" unicode="&#x10c;" horiz-adv-x="1519" 
d="M1417 442l-41 -313q-74 -56 -228 -108t-325 -52q-172 0 -313 61t-234 167t-143.5 248.5t-50.5 306.5q0 219 95 394.5t277.5 279.5t422.5 104q135 0 268.5 -31.5t222.5 -71.5l41 -288l-16 -4q-100 187 -225.5 270.5t-299.5 83.5q-162 0 -287.5 -55.5t-204.5 -155
t-119 -232.5t-40 -294t38 -294.5t112 -234.5t192.5 -157t271.5 -56q149 0 260 53t183 146t127 237zM838 1602h-9l-309 319l12 14l302 -202l301 202l12 -14z" />
    <glyph glyph-name="ccaron" unicode="&#x10d;" 
d="M897 231l10 -4q-39 -117 -141.5 -187.5t-241.5 -70.5q-196 0 -319 134t-123 356q0 125 42 229t113 172.5t164 106t195 37.5q129 0 274 -68l15 -193l-13 -4q-71 122 -139 175t-172 53q-167 0 -266.5 -120.5t-99.5 -332.5q0 -202 94 -326.5t270 -124.5q101 0 194.5 42.5
t143.5 125.5zM518 1106l-274 354l14 13l264 -228l273 228l14 -13l-283 -354h-8z" />
    <glyph glyph-name="Dcaron" unicode="&#x10e;" horiz-adv-x="1468" 
d="M106 0v4q50 75 66 133.5t16 161.5v901q0 103 -16 161.5t-66 133.5v4q136 0 285.5 4t290.5 4q332 0 518 -195t186 -556q0 -364 -193.5 -560t-551.5 -196h-535zM662 1466l-363 2v-1429l322 2q332 1 481 172t149 514q0 376 -147 556.5t-442 182.5zM668 1602h-9l-309 319
l12 14l302 -202l301 202l12 -14z" />
    <glyph glyph-name="dcaron" unicode="&#x10f;" horiz-adv-x="1112" 
d="M553 39q94 0 172.5 48.5t130.5 129.5v463q0 81 -23.5 140t-63.5 89.5t-84 44t-95 13.5q-169 0 -279 -135.5t-110 -344.5q0 -206 98 -327t254 -121zM866 176h-8q-50 -91 -140 -149t-224 -58q-187 0 -299.5 130t-112.5 352q0 109 38.5 209t107 176.5t170.5 122t220 45.5
q140 0 238 -56v430q0 77 -90 127v4l192 86v-1376q0 -64 9.5 -98t27 -49.5t54.5 -30.5v-4l-183 -62v201zM1038 1176l66 411h129l-180 -416z" />
    <glyph glyph-name="Dcroat" unicode="&#x110;" horiz-adv-x="1488" 
d="M4 733v37h205v430q0 103 -16 161.5t-66 133.5v4q136 0 285 4t290 4q332 0 518.5 -195.5t186.5 -555.5q0 -364 -193.5 -560t-551.5 -196h-535v4q50 75 66 133.5t16 161.5v434h-205zM682 1466l-363 2v-698h459v-37h-459v-694l322 2q332 1 481.5 172t149.5 514
q0 376 -147.5 556.5t-442.5 182.5z" />
    <glyph glyph-name="dcroat" unicode="&#x111;" horiz-adv-x="1112" 
d="M866 176h-8q-50 -91 -140 -149t-224 -58q-187 0 -299.5 130t-112.5 352q0 109 38.5 209t107 176.5t170.5 122t220 45.5q140 0 238 -56v238h-399v37h399v155q0 77 -90 127v4l192 86v-372h154v-37h-154v-967q0 -64 9.5 -98t27 -49.5t54.5 -30.5v-4l-183 -62v201zM553 39
q94 0 172.5 48.5t130.5 129.5v463q0 81 -23.5 140t-63.5 89.5t-84 44t-95 13.5q-169 0 -279 -135.5t-110 -344.5q0 -206 98 -327t254 -121z" />
    <glyph glyph-name="Emacron" unicode="&#x112;" horiz-adv-x="1198" 
d="M1167 332l-92 -332h-969v4q43 68 61.5 118t18.5 114v1028q0 65 -18 113.5t-62 117.5v4h867l80 -297l-17 -6q-14 19 -39 54t-38.5 53.5t-34 45.5t-34.5 42t-30 30.5t-30 22.5t-27 8l-504 12v-690h330q19 0 41 20t36 41.5t36.5 60.5t31.5 52h17v-379h-17q-9 12 -30.5 47
t-36.5 57t-37 41t-41 19h-330v-698l518 14q91 3 165 73t169 216zM260 1716v72h612v-72h-612z" />
    <glyph glyph-name="emacron" unicode="&#x113;" 
d="M532 967q-129 0 -215 -85.5t-112 -240.5l567 12v13q0 301 -240 301zM907 227q-39 -117 -141.5 -187.5t-243.5 -70.5q-198 0 -319 138.5t-121 363.5q0 118 37 219t99.5 169.5t145.5 106.5t175 38q114 0 200.5 -56.5t127.5 -146t34 -191.5h-700q-6 -44 -6 -94
q0 -204 93.5 -328.5t270.5 -124.5q103 0 195.5 42.5t142.5 125.5zM209 1249v72h584v-72h-584z" />
    <glyph glyph-name="Ebreve" unicode="&#x114;" horiz-adv-x="1198" 
d="M1167 332l-92 -332h-969v4q43 68 61.5 118t18.5 114v1028q0 65 -18 113.5t-62 117.5v4h867l80 -297l-17 -6q-14 19 -39 54t-38.5 53.5t-34 45.5t-34.5 42t-30 30.5t-30 22.5t-27 8l-504 12v-690h330q19 0 41 20t36 41.5t36.5 60.5t31.5 52h17v-379h-17q-9 12 -30.5 47
t-36.5 57t-37 41t-41 19h-330v-698l518 14q91 3 165 73t169 216zM563 1720q100 0 169.5 48.5t101.5 132.5h16q-5 -36 -14.5 -68.5t-31 -70.5t-52 -65.5t-80 -46t-111.5 -18.5q-60 0 -107.5 18.5t-76.5 45.5t-50.5 65.5t-30.5 71t-15 68.5h16q75 -181 266 -181z" />
    <glyph glyph-name="ebreve" unicode="&#x115;" 
d="M532 967q-129 0 -215 -85.5t-112 -240.5l567 12v13q0 301 -240 301zM907 227q-39 -117 -141.5 -187.5t-243.5 -70.5q-198 0 -319 138.5t-121 363.5q0 118 37 219t99.5 169.5t145.5 106.5t175 38q114 0 200.5 -56.5t127.5 -146t34 -191.5h-700q-6 -44 -6 -94
q0 -204 93.5 -328.5t270.5 -124.5q103 0 195.5 42.5t142.5 125.5zM479 1257q91 0 151.5 43t84.5 119h16q-2 -32 -9.5 -63t-26 -66t-45.5 -61t-72 -43t-101 -17q-54 0 -97.5 17t-70 43t-44.5 61t-25.5 66t-10.5 63h17q55 -162 233 -162z" />
    <glyph glyph-name="Edotaccent" unicode="&#x116;" horiz-adv-x="1198" 
d="M1167 332l-92 -332h-969v4q43 68 61.5 118t18.5 114v1028q0 65 -18 113.5t-62 117.5v4h867l80 -297l-17 -6q-14 19 -39 54t-38.5 53.5t-34 45.5t-34.5 42t-30 30.5t-30 22.5t-27 8l-504 12v-690h330q19 0 41 20t36 41.5t36.5 60.5t31.5 52h17v-379h-17q-9 12 -30.5 47
t-36.5 57t-37 41t-41 19h-330v-698l518 14q91 3 165 73t169 216zM649 1778q0 -35 -24.5 -59.5t-59.5 -24.5q-34 0 -59 24.5t-25 59.5t25 59.5t59 24.5q35 0 59.5 -24.5t24.5 -59.5z" />
    <glyph glyph-name="edotaccent" unicode="&#x117;" 
d="M532 967q-129 0 -215 -85.5t-112 -240.5l567 12v13q0 301 -240 301zM907 227q-39 -117 -141.5 -187.5t-243.5 -70.5q-198 0 -319 138.5t-121 363.5q0 118 37 219t99.5 169.5t145.5 106.5t175 38q114 0 200.5 -56.5t127.5 -146t34 -191.5h-700q-6 -44 -6 -94
q0 -204 93.5 -328.5t270.5 -124.5q103 0 195.5 42.5t142.5 125.5zM584 1350q0 -35 -24.5 -59.5t-59.5 -24.5q-34 0 -59 24.5t-25 59.5t25 59.5t59 24.5q35 0 59.5 -24.5t24.5 -59.5z" />
    <glyph glyph-name="Eogonek" unicode="&#x118;" horiz-adv-x="1198" 
d="M1167 332l-92 -332h-162q-97 -72 -149.5 -154t-52.5 -161q0 -64 34.5 -95.5t96.5 -31.5q109 0 205 112l16 -12q-110 -166 -264 -166q-88 0 -135.5 44t-47.5 120q0 88 61.5 165t190.5 179h-762v4q43 68 61.5 118t18.5 114v1028q0 65 -18 113.5t-62 117.5v4h867l80 -297
l-17 -6q-14 19 -39 54t-38.5 53.5t-34 45.5t-34.5 42t-30 30.5t-30 22.5t-27 8l-504 12v-690h330q19 0 41 20t36 41.5t36.5 60.5t31.5 52h17v-379h-17q-9 12 -30.5 47t-36.5 57t-37 41t-41 19h-330v-698l518 14q91 3 165 73t169 216z" />
    <glyph glyph-name="eogonek" unicode="&#x119;" 
d="M532 967q-128 0 -214.5 -85.5t-112.5 -240.5l559 12v13q0 301 -232 301zM815 -342q-110 -166 -264 -166q-88 0 -135 44t-47 122q0 91 64.5 171.5t172.5 143.5q-50 -4 -86 -4q-198 0 -318 134.5t-120 361.5q0 123 37 225.5t100 170.5t146.5 105.5t175.5 37.5
q112 0 196 -54.5t123.5 -143.5t32.5 -196h-692q-6 -44 -6 -94q0 -134 38 -234t121.5 -159.5t204.5 -59.5q101 0 194.5 42.5t143.5 125.5l10 -4q-40 -116 -141 -188q-25 -18 -123 -80q-180 -115 -180 -270q0 -131 131 -131q109 0 205 112z" />
    <glyph glyph-name="Ecaron" unicode="&#x11a;" horiz-adv-x="1198" 
d="M1167 332l-92 -332h-969v4q43 68 61.5 118t18.5 114v1028q0 65 -18 113.5t-62 117.5v4h867l80 -297l-17 -6q-14 19 -39 54t-38.5 53.5t-34 45.5t-34.5 42t-30 30.5t-30 22.5t-27 8l-504 12v-690h330q19 0 41 20t36 41.5t36.5 60.5t31.5 52h17v-379h-17q-9 12 -30.5 47
t-36.5 57t-37 41t-41 19h-330v-698l518 14q91 3 165 73t169 216zM610 1602h-8l-309 319l12 14l301 -202l301 202l13 -14z" />
    <glyph glyph-name="ecaron" unicode="&#x11b;" 
d="M532 967q-129 0 -215 -85.5t-112 -240.5l567 12v13q0 301 -240 301zM907 227q-39 -117 -141.5 -187.5t-243.5 -70.5q-198 0 -319 138.5t-121 363.5q0 118 37 219t99.5 169.5t145.5 106.5t175 38q114 0 200.5 -56.5t127.5 -146t34 -191.5h-700q-6 -44 -6 -94
q0 -204 93.5 -328.5t270.5 -124.5q103 0 195.5 42.5t142.5 125.5zM492 1106l-275 354l14 13l265 -228l272 228l14 -13l-282 -354h-8z" />
    <glyph glyph-name="Gcircumflex" unicode="&#x11c;" horiz-adv-x="1642" 
d="M1491 186q-2 -1 -32.5 -22t-39.5 -27t-43 -27t-52.5 -30t-56.5 -27.5t-66 -27.5t-71 -21.5t-81.5 -19t-86 -11t-96.5 -4.5q-178 0 -326.5 60.5t-248 165.5t-154.5 248t-55 307q0 163 57.5 305.5t161.5 248t259.5 166t342.5 60.5q290 0 524 -98l43 -293l-16 -6
q-83 187 -216 271.5t-353 84.5q-166 0 -295.5 -57t-210 -158t-121.5 -234t-41 -292q0 -127 22 -236t71.5 -202.5t124 -159t184.5 -103t247 -37.5q154 0 270.5 36t184.5 110.5t68 179.5q0 156 -19.5 226t-75.5 114v4h279v-4q-50 -49 -66 -106.5t-16 -178.5v-205zM1135 1602
l-301 202l-302 -202l-12 14l309 319h9l309 -319z" />
    <glyph glyph-name="gcircumflex" unicode="&#x11d;" horiz-adv-x="976" 
d="M459 358q118 0 182 87.5t64 216.5q0 62 -15 115.5t-44 96.5t-78 68t-111 25q-82 0 -139 -45.5t-81 -112.5t-24 -147q0 -79 26.5 -146.5t84 -112.5t135.5 -45zM942 -160q0 -136 -130.5 -218.5t-350.5 -82.5q-196 0 -313 66.5t-117 179.5q0 81 57 144t135 83
q-147 33 -147 146q0 56 36.5 99.5t83.5 65.5t105 35q-90 42 -146.5 125t-56.5 179q0 137 105.5 239.5t253.5 102.5q139 0 241 -89l244 111l4 -2v-131h-8l-219 4q100 -100 100 -235q0 -138 -106.5 -239t-253.5 -101q-69 0 -131 24q-156 -50 -156 -149q0 -42 38 -69t140 -30
l236 -8q183 -6 269.5 -74.5t86.5 -175.5zM496 -424q167 0 262.5 59t95.5 168q0 186 -301 195l-227 4q-42 0 -72 6q-48 -13 -84.5 -68.5t-36.5 -127.5q0 -115 97.5 -175.5t265.5 -60.5zM727 1106l-272 227l-265 -227l-14 12l275 355h8l282 -355z" />
    <glyph glyph-name="Gbreve" unicode="&#x11e;" horiz-adv-x="1642" 
d="M1491 186q-2 -1 -32.5 -22t-39.5 -27t-43 -27t-52.5 -30t-56.5 -27.5t-66 -27.5t-71 -21.5t-81.5 -19t-86 -11t-96.5 -4.5q-178 0 -326.5 60.5t-248 165.5t-154.5 248t-55 307q0 163 57.5 305.5t161.5 248t259.5 166t342.5 60.5q290 0 524 -98l43 -293l-16 -6
q-83 187 -216 271.5t-353 84.5q-166 0 -295.5 -57t-210 -158t-121.5 -234t-41 -292q0 -127 22 -236t71.5 -202.5t124 -159t184.5 -103t247 -37.5q154 0 270.5 36t184.5 110.5t68 179.5q0 156 -19.5 226t-75.5 114v4h279v-4q-50 -49 -66 -106.5t-16 -178.5v-205zM831 1720
q100 0 169.5 48.5t101.5 132.5h16q-5 -36 -14.5 -68.5t-31 -70.5t-52 -65.5t-80 -46t-111.5 -18.5q-60 0 -107.5 18.5t-76.5 45.5t-50.5 65.5t-30.5 71t-15 68.5h16q75 -181 266 -181z" />
    <glyph glyph-name="gbreve" unicode="&#x11f;" horiz-adv-x="976" 
d="M459 358q118 0 182 87.5t64 216.5q0 62 -15 115.5t-44 96.5t-78 68t-111 25q-82 0 -139 -45.5t-81 -112.5t-24 -147q0 -79 26.5 -146.5t84 -112.5t135.5 -45zM942 -160q0 -136 -130.5 -218.5t-350.5 -82.5q-196 0 -313 66.5t-117 179.5q0 81 57 144t135 83
q-147 33 -147 146q0 56 36.5 99.5t83.5 65.5t105 35q-90 42 -146.5 125t-56.5 179q0 137 105.5 239.5t253.5 102.5q139 0 241 -89l244 111l4 -2v-131h-8l-219 4q100 -100 100 -235q0 -138 -106.5 -239t-253.5 -101q-69 0 -131 24q-156 -50 -156 -149q0 -42 38 -69t140 -30
l236 -8q183 -6 269.5 -74.5t86.5 -175.5zM496 -424q167 0 262.5 59t95.5 168q0 186 -301 195l-227 4q-42 0 -72 6q-48 -13 -84.5 -68.5t-36.5 -127.5q0 -115 97.5 -175.5t265.5 -60.5zM467 1257q91 0 151 43t84 119h17q-2 -32 -9.5 -63t-26 -66t-45.5 -61t-72 -43t-101 -17
q-54 0 -97.5 17t-70 43t-44.5 61t-25.5 66t-10.5 63h16q55 -162 234 -162z" />
    <glyph glyph-name="Gdotaccent" unicode="&#x120;" horiz-adv-x="1642" 
d="M1491 186q-2 -1 -32.5 -22t-39.5 -27t-43 -27t-52.5 -30t-56.5 -27.5t-66 -27.5t-71 -21.5t-81.5 -19t-86 -11t-96.5 -4.5q-178 0 -326.5 60.5t-248 165.5t-154.5 248t-55 307q0 163 57.5 305.5t161.5 248t259.5 166t342.5 60.5q290 0 524 -98l43 -293l-16 -6
q-83 187 -216 271.5t-353 84.5q-166 0 -295.5 -57t-210 -158t-121.5 -234t-41 -292q0 -127 22 -236t71.5 -202.5t124 -159t184.5 -103t247 -37.5q154 0 270.5 36t184.5 110.5t68 179.5q0 156 -19.5 226t-75.5 114v4h279v-4q-50 -49 -66 -106.5t-16 -178.5v-205zM918 1778
q0 -35 -24.5 -59.5t-59.5 -24.5q-34 0 -59 24.5t-25 59.5t25 59.5t59 24.5q35 0 59.5 -24.5t24.5 -59.5z" />
    <glyph glyph-name="gdotaccent" unicode="&#x121;" horiz-adv-x="976" 
d="M459 358q118 0 182 87.5t64 216.5q0 62 -15 115.5t-44 96.5t-78 68t-111 25q-82 0 -139 -45.5t-81 -112.5t-24 -147q0 -79 26.5 -146.5t84 -112.5t135.5 -45zM942 -160q0 -136 -130.5 -218.5t-350.5 -82.5q-196 0 -313 66.5t-117 179.5q0 81 57 144t135 83
q-147 33 -147 146q0 56 36.5 99.5t83.5 65.5t105 35q-90 42 -146.5 125t-56.5 179q0 137 105.5 239.5t253.5 102.5q139 0 241 -89l244 111l4 -2v-131h-8l-219 4q100 -100 100 -235q0 -138 -106.5 -239t-253.5 -101q-69 0 -131 24q-156 -50 -156 -149q0 -42 38 -69t140 -30
l236 -8q183 -6 269.5 -74.5t86.5 -175.5zM496 -424q167 0 262.5 59t95.5 168q0 186 -301 195l-227 4q-42 0 -72 6q-48 -13 -84.5 -68.5t-36.5 -127.5q0 -115 97.5 -175.5t265.5 -60.5zM543 1350q0 -35 -24.5 -59.5t-59.5 -24.5q-34 0 -59 24.5t-25 59.5t25 59.5t59 24.5
q35 0 59.5 -24.5t24.5 -59.5z" />
    <glyph glyph-name="uni0122" unicode="&#x122;" horiz-adv-x="1642" 
d="M1491 186q-2 -1 -32.5 -22t-39.5 -27t-43 -27t-52.5 -30t-56.5 -27.5t-66 -27.5t-71 -21.5t-81.5 -19t-86 -11t-96.5 -4.5q-178 0 -326.5 60.5t-248 165.5t-154.5 248t-55 307q0 163 57.5 305.5t161.5 248t259.5 166t342.5 60.5q290 0 524 -98l43 -293l-16 -6
q-83 187 -216 271.5t-353 84.5q-166 0 -295.5 -57t-210 -158t-121.5 -234t-41 -292q0 -127 22 -236t71.5 -202.5t124 -159t184.5 -103t247 -37.5q154 0 270.5 36t184.5 110.5t68 179.5q0 156 -19.5 226t-75.5 114v4h279v-4q-50 -49 -66 -106.5t-16 -178.5v-205zM758 -459
l-8 13q42 33 71 74t29 75q0 29 -20 63.5t-48 57.5v4l99 74q30 -21 47.5 -54t17.5 -71q0 -113 -188 -236z" />
    <glyph glyph-name="uni0123" unicode="&#x123;" horiz-adv-x="976" 
d="M459 358q118 0 182 87.5t64 216.5q0 62 -15 115.5t-44 96.5t-78 68t-111 25q-82 0 -139 -45.5t-81 -112.5t-24 -147q0 -79 26.5 -146.5t84 -112.5t135.5 -45zM942 -160q0 -136 -130.5 -218.5t-350.5 -82.5q-196 0 -313 66.5t-117 179.5q0 81 57 144t135 83
q-147 33 -147 146q0 56 36.5 99.5t83.5 65.5t105 35q-90 42 -146.5 125t-56.5 179q0 137 105.5 239.5t253.5 102.5q139 0 241 -89l244 111l4 -2v-131h-8l-219 4q100 -100 100 -235q0 -138 -106.5 -239t-253.5 -101q-69 0 -131 24q-156 -50 -156 -149q0 -42 38 -69t140 -30
l236 -8q183 -6 269.5 -74.5t86.5 -175.5zM496 -424q167 0 262.5 59t95.5 168q0 186 -301 195l-227 4q-42 0 -72 6q-48 -13 -84.5 -68.5t-36.5 -127.5q0 -115 97.5 -175.5t265.5 -60.5zM563 1544l8 -12q-42 -32 -71 -74t-29 -76q0 -29 20 -63t48 -57v-5l-99 -73
q-30 21 -47.5 54t-17.5 71q0 112 188 235z" />
    <glyph glyph-name="Hcircumflex" unicode="&#x124;" horiz-adv-x="1458" 
d="M106 0v4q50 64 66 113t16 137v991q0 88 -16 137t-66 113v4h275v-4q-50 -64 -66 -112.5t-16 -137.5v-450h860v450q0 88 -16 137t-66 113v4h275v-4q-50 -64 -66 -112.5t-16 -137.5v-991q0 -89 16 -137.5t66 -112.5v-4h-275v4q50 64 66 113t16 137v500h-860v-500
q0 -89 16 -137.5t66 -112.5v-4h-275zM1030 1602l-301 202l-301 -202l-12 14l309 319h8l309 -319z" />
    <glyph glyph-name="hcircumflex" unicode="&#x125;" horiz-adv-x="1058" 
d="M303 0h-192v4q28 50 36.5 101t8.5 139v1108q0 95 -90 153v4l192 86v-770q76 90 171.5 134.5t197.5 44.5q140 0 213 -79t73 -220v-459q0 -96 7.5 -144.5t37.5 -97.5v-4h-192v4q27 49 36 102.5t9 137.5v438q0 111 -54 176.5t-175 65.5q-86 0 -171.5 -33.5t-152.5 -102.5
v-544q0 -92 7.5 -142t37.5 -98v-4zM866 1663l-301 203l-301 -203l-12 14l309 320h8l310 -320z" />
    <glyph glyph-name="Hbar" unicode="&#x126;" horiz-adv-x="1499" 
d="M127 0v4q50 64 66 113t16 137v868h-205v37h205v86q0 88 -16 137t-66 113v4h274v-4q-50 -64 -66 -112.5t-16 -137.5v-86h861v86q0 88 -16 137t-66 113v4h274v-4q-50 -64 -66 -112.5t-16 -137.5v-86h205v-37h-205v-868q0 -89 16 -137.5t66 -112.5v-4h-274v4q50 64 66 113
t16 137v500h-861v-500q0 -89 16 -137.5t66 -112.5v-4h-274zM319 795h861v327h-861v-327z" />
    <glyph glyph-name="hbar" unicode="&#x127;" horiz-adv-x="1058" 
d="M297 0h-193v4q28 50 37 101.5t9 138.5v942h-150v37h150v129q0 94 -91 153v4l193 86v-372h403v-37h-403v-361q76 90 171.5 134.5t197.5 44.5q140 0 213 -79t73 -220v-459q0 -96 7.5 -144.5t37.5 -97.5v-4h-192v4q27 49 36 102.5t9 137.5v438q0 110 -54.5 176t-175.5 66
q-86 0 -171 -33t-152 -103v-544q0 -92 7.5 -142t37.5 -98v-4z" />
    <glyph glyph-name="Itilde" unicode="&#x128;" horiz-adv-x="487" 
d="M106 0l3 4q49 63 64 112t15 138v991q0 88 -16 137t-66 113v4h275v-4q-50 -64 -66 -112.5t-16 -137.5v-991q0 -88 16.5 -136.5t67.5 -113.5l-2 -4h-275zM82 1847q56 0 119.5 -28t124.5 -56t110 -28q55 0 83 30.5t46 102.5l17 -2q-12 -236 -176 -236q-44 0 -94.5 17.5
t-88 39t-85 39t-87.5 17.5q-55 0 -83 -30.5t-46 -102.5l-16 2q12 235 176 235z" />
    <glyph glyph-name="itilde" unicode="&#x129;" horiz-adv-x="403" 
d="M111 0v4q27 50 36 103t9 137v508q0 93 -90 151v4l192 107v-768q0 -94 7.5 -144t37.5 -98v-4h-192zM57 1397q55 0 142.5 -45t146.5 -45q53 0 82 26.5t43 83.5l16 -2q-2 -33 -9 -62.5t-23 -64t-49.5 -55.5t-81.5 -21q-55 0 -142.5 45.5t-146.5 45.5q-53 0 -82 -27t-43 -84
l-16 2q2 33 9 62.5t23 64t49.5 55.5t81.5 21z" />
    <glyph glyph-name="Imacron" unicode="&#x12a;" horiz-adv-x="487" 
d="M106 0l3 4q49 63 64 112t15 138v991q0 88 -16 137t-66 113v4h275v-4q-50 -64 -66 -112.5t-16 -137.5v-991q0 -88 16.5 -136.5t67.5 -113.5l-2 -4h-275zM-61 1716v72h612v-72h-612z" />
    <glyph glyph-name="imacron" unicode="&#x12b;" horiz-adv-x="403" 
d="M-20 1249v72h399v-72h-399zM111 0v4q27 50 36 103t9 137v508q0 93 -90 151v4l192 107v-768q0 -94 7.5 -144t37.5 -98v-4h-192z" />
    <glyph glyph-name="Ibreve" unicode="&#x12c;" horiz-adv-x="487" 
d="M106 0l3 4q49 63 64 112t15 138v991q0 88 -16 137t-66 113v4h275v-4q-50 -64 -66 -112.5t-16 -137.5v-991q0 -88 16.5 -136.5t67.5 -113.5l-2 -4h-275zM242 1720q100 0 169 48.5t101 132.5h16q-5 -36 -14.5 -68.5t-31 -70.5t-51.5 -65.5t-79.5 -46t-111.5 -18.5
q-60 0 -108 18.5t-77 46t-50 65.5t-30.5 70.5t-15.5 68.5h16q75 -181 267 -181z" />
    <glyph glyph-name="ibreve" unicode="&#x12d;" horiz-adv-x="403" 
d="M111 0v4q27 50 36 103t9 137v508q0 93 -90 151v4l192 107v-768q0 -94 7.5 -144t37.5 -98v-4h-192zM193 1257q91 0 151 43t84 119h16q-2 -32 -9.5 -63t-26 -66t-45.5 -61t-72 -43t-101 -17q-54 0 -97.5 17t-69.5 43t-44 61t-25.5 66t-10.5 63h16q55 -162 234 -162z" />
    <glyph glyph-name="Iogonek" unicode="&#x12e;" horiz-adv-x="487" 
d="M106 0l3 4q49 63 64 112t15 138v991q0 88 -16 137t-66 113v4h275v-4q-50 -64 -66 -112.5t-16 -137.5v-991q0 -88 16.5 -136.5t67.5 -113.5l-2 -4h-55q-97 -72 -150 -154t-53 -161q0 -64 34.5 -95.5t96.5 -31.5q109 0 205 112l16 -12q-110 -166 -264 -166q-88 0 -135 44
t-47 120q0 88 61.5 165t190.5 179h-175z" />
    <glyph glyph-name="iogonek" unicode="&#x12f;" horiz-adv-x="403" 
d="M111 0v4q27 50 36 103t9 137v508q0 93 -90 151v4l192 107v-768q0 -94 7.5 -144t37.5 -98v-4h-37q-97 -72 -150 -154t-53 -161q0 -64 35 -95.5t97 -31.5q108 0 204 112l17 -12q-110 -166 -264 -166q-88 0 -135.5 44t-47.5 120q0 88 61.5 165t190.5 179h-110zM285 1350
q0 -35 -24.5 -59.5t-59.5 -24.5q-34 0 -59 24.5t-25 59.5t25 59.5t59 24.5q35 0 59.5 -24.5t24.5 -59.5z" />
    <glyph glyph-name="Idotaccent" unicode="&#x130;" horiz-adv-x="487" 
d="M106 0l3 4q49 63 64 112t15 138v991q0 88 -16 137t-66 113v4h275v-4q-50 -64 -66 -112.5t-16 -137.5v-991q0 -88 16.5 -136.5t67.5 -113.5l-2 -4h-275zM328 1778q0 -35 -24.5 -59.5t-59.5 -24.5q-34 0 -59 24.5t-25 59.5t25 59.5t59 24.5q35 0 59.5 -24.5t24.5 -59.5z
" />
    <glyph glyph-name="dotlessi" unicode="&#x131;" horiz-adv-x="403" 
d="M111 0v4q27 50 36 103t9 137v508q0 93 -90 151v4l192 107v-768q0 -94 7.5 -144t37.5 -98v-4h-192z" />
    <glyph glyph-name="IJ" unicode="&#x132;" horiz-adv-x="1232" 
d="M106 0l3 4q49 63 64 112t15 138v991q0 88 -16 137t-66 113v4h275v-4q-50 -64 -66 -112.5t-16 -137.5v-991q0 -88 16.5 -136.5t67.5 -113.5l-2 -4h-275zM1065 242q0 -131 -68 -202t-194 -71q-105 0 -201 45l-37 256l17 6q130 -266 256 -266q55 0 85.5 50.5t30.5 148.5
v1036q0 89 -16 137.5t-66 112.5v4h275v-4q-50 -64 -66 -112.5t-16 -137.5v-1003z" />
    <glyph glyph-name="ij" unicode="&#x133;" horiz-adv-x="798" 
d="M285 1350q0 -35 -24.5 -59.5t-59.5 -24.5q-34 0 -59 24.5t-25 59.5t25 59.5t59 24.5q35 0 59.5 -24.5t24.5 -59.5zM111 0v4q27 50 36 103t9 137v508q0 93 -90 151v4l192 107v-768q0 -94 7.5 -144t37.5 -98v-4h-192zM694 1350q0 -35 -24.5 -59.5t-59.5 -24.5
q-34 0 -59 24.5t-25 59.5t25 59.5t59 24.5q35 0 59.5 -24.5t24.5 -59.5zM436 -440l-4 10q48 26 75 56.5t42.5 86.5t15.5 144v895q0 93 -90 151v4l193 107l-4 -1129q0 -161 -54.5 -236t-173.5 -89z" />
    <glyph glyph-name="Jcircumflex" unicode="&#x134;" horiz-adv-x="727" 
d="M559 242q0 -131 -68 -202t-194 -71q-105 0 -201 45l-37 256l17 6q130 -266 256 -266q55 0 86 50.5t31 148.5v1036q0 89 -16 137.5t-66 112.5v4h274v-4q-50 -64 -66 -112.5t-16 -137.5v-1003zM805 1602l-301 202l-301 -202l-13 14l310 319h8l309 -319z" />
    <glyph glyph-name="jcircumflex" unicode="&#x135;" horiz-adv-x="389" 
d="M33 -498l-4 11q48 26 75 56.5t42.5 86t15.5 143.5v953q0 93 -90 151v4l192 107l-4 -1186q0 -162 -54 -237t-173 -89zM479 1106l-272 227l-264 -227l-15 12l275 355h8l283 -355z" />
    <glyph glyph-name="uni0136" unicode="&#x136;" horiz-adv-x="1236" 
d="M106 0l3 4q49 63 64 112t15 138v991q0 88 -16 137t-66 113v4h275v-4q-50 -64 -66 -112.5t-16 -137.5v-991q0 -88 16.5 -136.5t67.5 -113.5l-2 -4h-275zM1217 0h-205l-639 780l465 492q112 119 4 223v4h338v-4q-28 -13 -53 -27.5t-42.5 -25t-40 -28t-32 -25t-31.5 -29
t-26.5 -26t-28.5 -30t-27 -28.5l-424 -449l479 -585q95 -116 143 -160t117 -78zM567 -459l-8 13q42 33 71 74t29 75q0 30 -19.5 64t-47.5 57v4l98 74q66 -46 66 -125q0 -112 -189 -236z" />
    <glyph glyph-name="uni0137" unicode="&#x137;" horiz-adv-x="894" 
d="M111 0v4q28 49 36.5 101t8.5 139v1134q0 77 -90 127v4l192 86v-1349q0 -93 7.5 -143.5t37.5 -98.5v-4h-192zM874 0h-184l-381 510l291 330q72 83 -18 129v4h237v-4q-49 -21 -80 -42.5t-46.5 -38t-57.5 -65.5l-232 -262l279 -373q59 -77 99 -116t93 -68v-4zM362 -459
l-8 13q42 33 71.5 74t29.5 75q0 29 -20 63.5t-48 57.5v4l98 74q66 -46 66 -125q0 -112 -189 -236z" />
    <glyph glyph-name="Lacute" unicode="&#x139;" horiz-adv-x="1107" 
d="M983 0h-877v4q50 64 66 113t16 137v991q0 88 -16 137t-66 113v4h275v-4q-50 -64 -66 -112.5t-16 -137.5v-1210l426 14q98 4 174.5 71.5t161.5 217.5l16 -6zM57 1616l406 348l67 -111l-464 -251z" />
    <glyph glyph-name="lacute" unicode="&#x13a;" horiz-adv-x="403" 
d="M111 0v4q28 49 36.5 101t8.5 139v1134q0 77 -90 127v4l192 86v-1349q0 -93 7.5 -143.5t37.5 -98.5v-4h-192zM-10 1616l405 348l68 -111l-465 -251z" />
    <glyph glyph-name="uni013B" unicode="&#x13b;" horiz-adv-x="1107" 
d="M983 0h-877v4q50 64 66 113t16 137v991q0 88 -16 137t-66 113v4h275v-4q-50 -64 -66 -112.5t-16 -137.5v-1210l426 14q98 4 174.5 71.5t161.5 217.5l16 -6zM508 -459l-8 13q42 33 71 74t29 75q0 29 -20 63.5t-48 57.5v4l99 74q30 -21 47.5 -54t17.5 -71q0 -113 -188 -236
z" />
    <glyph glyph-name="uni013C" unicode="&#x13c;" horiz-adv-x="403" 
d="M111 0v4q28 49 36.5 101t8.5 139v1134q0 77 -90 127v4l192 86v-1349q0 -93 7.5 -143.5t37.5 -98.5v-4h-192zM94 -459l-8 13q42 33 71 74t29 75q0 30 -19.5 64t-47.5 57v4l98 74q66 -46 66 -125q0 -112 -189 -236z" />
    <glyph glyph-name="Lcaron" unicode="&#x13d;" horiz-adv-x="1107" 
d="M983 0h-877v4q50 64 66 113t16 137v991q0 88 -16 137t-66 113v4h275v-4q-50 -64 -66 -112.5t-16 -137.5v-1210l426 14q98 4 174.5 71.5t161.5 217.5l16 -6zM438 1087l66 412h129l-180 -416z" />
    <glyph glyph-name="lcaron" unicode="&#x13e;" horiz-adv-x="403" 
d="M111 0v4q28 49 36.5 101t8.5 139v1134q0 77 -90 127v4l192 86v-1349q0 -93 7.5 -143.5t37.5 -98.5v-4h-192zM338 1176l65 411h129l-180 -416z" />
    <glyph glyph-name="Ldot" unicode="&#x13f;" horiz-adv-x="1107" 
d="M983 0h-877v4q50 64 66 113t16 137v991q0 88 -16 137t-66 113v4h275v-4q-50 -64 -66 -112.5t-16 -137.5v-1210l426 14q98 4 174.5 71.5t161.5 217.5l16 -6zM879 649q-39 0 -68 28.5t-29 67.5t29 68t68 29q40 0 68 -28.5t28 -68.5t-28 -68t-68 -28z" />
    <glyph glyph-name="ldot" unicode="&#x140;" horiz-adv-x="616" 
d="M111 0v4q28 49 36.5 101t8.5 139v1134q0 77 -90 127v4l192 86v-1349q0 -93 7.5 -143.5t37.5 -98.5v-4h-192zM508 629q-39 0 -67.5 28.5t-28.5 67.5t28.5 67.5t67.5 28.5q40 0 68 -28t28 -68t-28 -68t-68 -28z" />
    <glyph glyph-name="Lslash" unicode="&#x141;" horiz-adv-x="1128" 
d="M37 449v49l172 94v653q0 88 -16 137t-66 113v4h274v-4q-50 -64 -66 -112.5t-16 -137.5v-594l517 285v-49l-517 -285v-567l426 14q98 4 174.5 71.5t161.5 217.5l17 -6l-94 -332h-877v4q50 64 66 113t16 137v289z" />
    <glyph glyph-name="lslash" unicode="&#x142;" horiz-adv-x="454" 
d="M41 530v58l135 141v649q0 77 -90 127v4l193 86v-759l131 137v-58l-131 -137v-532q0 -93 7.5 -143.5t37.5 -98.5v-4h-193v4q28 49 36.5 101t8.5 139v428z" />
    <glyph glyph-name="Nacute" unicode="&#x143;" horiz-adv-x="1466" 
d="M1264 -6l-1037 1300l9 -1011q0 -97 27.5 -152t115.5 -127v-4h-293v4q63 72 82.5 127t19.5 152v1056q-79 115 -163 156v4h182l1034 -1298l-6 1016q-2 98 -25 152t-98 126v4h272v-4q-64 -72 -83 -126t-19 -152v-1217zM561 1616l406 348l67 -111l-465 -251z" />
    <glyph glyph-name="nacute" unicode="&#x144;" horiz-adv-x="1058" 
d="M303 4v-4h-192v4q28 50 36.5 101t8.5 139v506q0 95 -90 153v4l184 107v-187l8 -2q76 90 171.5 134.5t197.5 44.5q140 0 213 -79t73 -220v-459q0 -96 7.5 -144.5t37.5 -97.5v-4h-192v4q27 49 36 102.5t9 137.5v438q0 111 -54 176.5t-175 65.5q-88 0 -174.5 -34
t-149.5 -102v-542q0 -94 7.5 -144t37.5 -98zM420 1104l266 430l100 -78l-352 -364z" />
    <glyph glyph-name="uni0145" unicode="&#x145;" horiz-adv-x="1466" 
d="M1264 -6l-1037 1300l9 -1011q0 -97 27.5 -152t115.5 -127v-4h-293v4q63 72 82.5 127t19.5 152v1056q-79 115 -163 156v4h182l1034 -1298l-6 1016q-2 98 -25 152t-98 126v4h272v-4q-64 -72 -83 -126t-19 -152v-1217zM631 -459l-8 13q42 33 71 74t29 75q0 29 -20 63.5
t-48 57.5v4l99 74q30 -21 47.5 -54t17.5 -71q0 -113 -188 -236z" />
    <glyph glyph-name="uni0146" unicode="&#x146;" horiz-adv-x="1058" 
d="M303 4v-4h-192v4q28 50 36.5 101t8.5 139v506q0 95 -90 153v4l184 107v-187l8 -2q76 90 171.5 134.5t197.5 44.5q140 0 213 -79t73 -220v-459q0 -96 7.5 -144.5t37.5 -97.5v-4h-192v4q27 49 36 102.5t9 137.5v438q0 111 -54 176.5t-175 65.5q-88 0 -174.5 -34
t-149.5 -102v-542q0 -94 7.5 -144t37.5 -98zM438 -459l-8 13q42 33 71 74t29 75q0 30 -19.5 64t-47.5 57v4l98 74q66 -46 66 -125q0 -112 -189 -236z" />
    <glyph glyph-name="Ncaron" unicode="&#x147;" horiz-adv-x="1466" 
d="M1264 -6l-1037 1300l9 -1011q0 -97 27.5 -152t115.5 -127v-4h-293v4q63 72 82.5 127t19.5 152v1056q-79 115 -163 156v4h182l1034 -1298l-6 1016q-2 98 -25 152t-98 126v4h272v-4q-64 -72 -83 -126t-19 -152v-1217zM752 1602h-9l-309 319l12 14l302 -202l301 202l12 -14z
" />
    <glyph glyph-name="ncaron" unicode="&#x148;" horiz-adv-x="1058" 
d="M303 4v-4h-192v4q28 50 36.5 101t8.5 139v506q0 95 -90 153v4l184 107v-187l8 -2q76 90 171.5 134.5t197.5 44.5q140 0 213 -79t73 -220v-459q0 -96 7.5 -144.5t37.5 -97.5v-4h-192v4q27 49 36 102.5t9 137.5v438q0 111 -54 176.5t-175 65.5q-88 0 -174.5 -34
t-149.5 -102v-542q0 -94 7.5 -144t37.5 -98zM537 1106l-275 354l14 13l265 -228l272 228l14 -13l-282 -354h-8z" />
    <glyph glyph-name="napostrophe" unicode="&#x149;" horiz-adv-x="1058" 
d="M303 4v-4h-192v4q28 50 36.5 101t8.5 139v506q0 95 -90 153v4l184 107v-187l8 -2q76 90 171.5 134.5t197.5 44.5q140 0 213 -79t73 -220v-459q0 -96 7.5 -144.5t37.5 -97.5v-4h-192v4q27 49 36 102.5t9 137.5v438q0 111 -54 176.5t-175 65.5q-88 0 -174.5 -34
t-149.5 -102v-542q0 -94 7.5 -144t37.5 -98zM-12 1114l-13 12q107 123 107 209q0 53 -78 123v4l105 84q32 -22 51.5 -55.5t19.5 -67.5q0 -48 -18 -94.5t-51 -87.5t-59.5 -68t-63.5 -59z" />
    <glyph glyph-name="Eng" unicode="&#x14a;" horiz-adv-x="1466" 
d="M1014 -461q-111 0 -221 45l-37 256l16 6q74 -136 139 -201t140 -65q87 0 138.5 81.5t51.5 229.5v132l-1014 1271l9 -1011q0 -97 27.5 -152t115.5 -127v-4h-293v4q63 72 82.5 127t19.5 152v1056q-79 115 -163 156v4h182l1032 -1296l-4 1014q0 96 -23.5 150.5t-99.5 127.5
v4h272v-4q-64 -72 -83 -126t-19 -152v-1303q0 -186 -62.5 -280.5t-205.5 -94.5z" />
    <glyph glyph-name="eng" unicode="&#x14b;" horiz-adv-x="1017" 
d="M682 -440l-4 10q48 26 75 56.5t42.5 86.5t15.5 144v825q0 111 -54 176.5t-175 65.5q-88 0 -174.5 -34t-149.5 -102v-542q0 -94 7.5 -144t37.5 -98v-4h-192v4q28 50 36.5 101t8.5 139v506q0 95 -90 153v4l184 107v-187l8 -2q76 90 171.5 134.5t197.5 44.5q140 0 213 -79
t73 -220l-4 -820q-1 -162 -54.5 -236.5t-172.5 -88.5z" />
    <glyph glyph-name="Omacron" unicode="&#x14c;" horiz-adv-x="1660" 
d="M829 -31q-157 0 -296 60t-238 163.5t-156 248t-57 307.5t57.5 308t156 249t237.5 164.5t296 60.5t296.5 -60.5t239 -164.5t157 -249t57.5 -308q0 -218 -98 -396.5t-270 -280.5t-382 -102zM829 10q186 0 326.5 96t214.5 263t74 379q0 211 -74 378.5t-215 265t-326 97.5
t-325.5 -97.5t-213.5 -265t-73 -378.5t73 -378t213.5 -263.5t325.5 -96.5zM524 1716v72h613v-72h-613z" />
    <glyph glyph-name="omacron" unicode="&#x14d;" horiz-adv-x="1150" 
d="M575 -31q-101 0 -194 40.5t-160.5 109t-108 164.5t-40.5 202q0 142 68 261.5t184 188.5t251 69t251 -69t184.5 -188.5t68.5 -261.5t-68.5 -261t-184.5 -187t-251 -68zM575 6q180 0 278.5 135t98.5 344q0 136 -41.5 243.5t-128.5 173t-207 65.5t-206.5 -66t-128 -173
t-41.5 -243q0 -209 98 -344t278 -135zM285 1249v72h583v-72h-583z" />
    <glyph glyph-name="Obreve" unicode="&#x14e;" horiz-adv-x="1660" 
d="M829 -31q-157 0 -296 60t-238 163.5t-156 248t-57 307.5t57.5 308t156 249t237.5 164.5t296 60.5t296.5 -60.5t239 -164.5t157 -249t57.5 -308q0 -218 -98 -396.5t-270 -280.5t-382 -102zM829 10q186 0 326.5 96t214.5 263t74 379q0 211 -74 378.5t-215 265t-326 97.5
t-325.5 -97.5t-213.5 -265t-73 -378.5t73 -378t213.5 -263.5t325.5 -96.5zM827 1720q100 0 169.5 48.5t101.5 132.5h16q-5 -36 -14.5 -68.5t-31 -70.5t-52 -65.5t-80 -46t-111.5 -18.5q-60 0 -107.5 18.5t-76.5 45.5t-50.5 65.5t-30.5 71t-15 68.5h16q75 -181 266 -181z" />
    <glyph glyph-name="obreve" unicode="&#x14f;" horiz-adv-x="1150" 
d="M575 -31q-101 0 -194 40.5t-160.5 109t-108 164.5t-40.5 202q0 142 68 261.5t184 188.5t251 69t251 -69t184.5 -188.5t68.5 -261.5t-68.5 -261t-184.5 -187t-251 -68zM575 6q180 0 278.5 135t98.5 344q0 136 -41.5 243.5t-128.5 173t-207 65.5t-206.5 -66t-128 -173
t-41.5 -243q0 -209 98 -344t278 -135zM575 1257q91 0 151.5 43t84.5 119h16q-2 -32 -9.5 -63t-26 -66t-45.5 -61t-72 -43t-101 -17q-54 0 -97.5 17t-69.5 43t-44 61t-25.5 66t-10.5 63h16q55 -162 233 -162z" />
    <glyph glyph-name="Ohungarumlaut" unicode="&#x150;" horiz-adv-x="1660" 
d="M829 -31q-157 0 -296 60t-238 163.5t-156 248t-57 307.5t57.5 308t156 249t237.5 164.5t296 60.5t296.5 -60.5t239 -164.5t157 -249t57.5 -308q0 -218 -98 -396.5t-270 -280.5t-382 -102zM829 10q186 0 326.5 96t214.5 263t74 379q0 211 -74 378.5t-215 265t-326 97.5
t-325.5 -97.5t-213.5 -265t-73 -378.5t73 -378t213.5 -263.5t325.5 -96.5zM942 1616l287 328l82 -107l-359 -235zM547 1616l287 328l81 -107l-358 -235z" />
    <glyph glyph-name="ohungarumlaut" unicode="&#x151;" horiz-adv-x="1150" 
d="M575 -31q-101 0 -194 40.5t-160.5 109t-108 164.5t-40.5 202q0 142 68 261.5t184 188.5t251 69t251 -69t184.5 -188.5t68.5 -261.5t-68.5 -261t-184.5 -187t-251 -68zM575 6q180 0 278.5 135t98.5 344q0 136 -41.5 243.5t-128.5 173t-207 65.5t-206.5 -66t-128 -173
t-41.5 -243q0 -209 98 -344t278 -135zM670 1122l231 371l80 -74l-297 -311zM379 1122l231 371l80 -74l-297 -311z" />
    <glyph glyph-name="OE" unicode="&#x152;" horiz-adv-x="2099" 
d="M889 41l141 -4q57 99 57 199v1028q0 58 -14 100t-49 98l-176 -4q-310 -8 -470.5 -182t-160.5 -533q0 -349 162 -520.5t510 -181.5zM2068 332l-92 -332h-1108q-370 0 -578 197.5t-208 558.5q0 357 200 550t545 193h1047l80 -297l-17 -6q-14 19 -39 54t-38.5 53.5t-34 45.5
t-34.5 42t-30 30.5t-30 22.5t-27 8l-504 12v-690h330q19 0 41 20t36 41.5t36.5 60.5t31.5 52h17v-379h-17q-9 12 -30.5 47t-36.5 57t-37 41t-41 19h-330v-698l518 14q91 3 165 73t169 216z" />
    <glyph glyph-name="oe" unicode="&#x153;" horiz-adv-x="1863" 
d="M1417 967q-128 0 -214.5 -85.5t-112.5 -240.5l559 12v13q0 301 -232 301zM575 6q121 0 209 65t130 172t42 242q0 208 -101 345t-280 137q-120 0 -207.5 -65.5t-130 -173.5t-42.5 -243q0 -136 42 -242.5t129.5 -171.5t208.5 -65zM1792 227q-39 -118 -142 -188t-245 -70
q-139 0 -242 70.5t-153 198.5q-64 -123 -180.5 -196t-254.5 -73q-101 0 -194 40.5t-160.5 109t-108 164.5t-40.5 202q0 142 68 261.5t184 188.5t251 69q143 0 262 -78t181 -207q56 134 165.5 209.5t241.5 75.5q112 0 196 -54t124 -143.5t33 -196.5h-693q-6 -43 -6 -94
q0 -100 22 -181.5t66 -143t114.5 -95t162.5 -33.5q101 0 194.5 42.5t143.5 125.5z" />
    <glyph glyph-name="Racute" unicode="&#x154;" horiz-adv-x="1265" 
d="M381 0h-275v4q50 64 66 113t16 137v991q0 88 -16 137t-66 113v4h527q215 0 317.5 -92.5t102.5 -259.5q0 -154 -71.5 -268t-211.5 -154l252 -473q55 -108 104.5 -163.5t118.5 -84.5v-4h-215l-375 707h-356v-453q0 -89 16 -137.5t66 -112.5v-4zM612 1458q-161 0 -313 -2
v-708h315q85 0 149 32t101 88t54.5 125.5t17.5 151.5q0 151 -73.5 232t-250.5 81zM383 1616l405 348l68 -111l-465 -251z" />
    <glyph glyph-name="racute" unicode="&#x155;" horiz-adv-x="632" 
d="M111 0v4q28 50 36.5 101t8.5 139v506q0 95 -90 153v4l184 107v-248l10 -2q22 21 57.5 61.5t61.5 66.5t60.5 54.5t72.5 43t80 14.5v-164h-4q-21 13 -66 21.5t-84 8.5q-25 0 -75.5 -44.5t-104.5 -108.5v-471q0 -94 7.5 -144t37.5 -98v-4h-192zM256 1104l266 430l101 -78
l-353 -364z" />
    <glyph glyph-name="uni0156" unicode="&#x156;" horiz-adv-x="1265" 
d="M381 0h-275v4q50 64 66 113t16 137v991q0 88 -16 137t-66 113v4h527q215 0 317.5 -92.5t102.5 -259.5q0 -154 -71.5 -268t-211.5 -154l252 -473q55 -108 104.5 -163.5t118.5 -84.5v-4h-215l-375 707h-356v-453q0 -89 16 -137.5t66 -112.5v-4zM612 1458q-161 0 -313 -2
v-708h315q85 0 149 32t101 88t54.5 125.5t17.5 151.5q0 151 -73.5 232t-250.5 81zM555 -459l-8 13q42 33 71 74t29 75q0 30 -19.5 64t-47.5 57v4l98 74q30 -21 47.5 -54t17.5 -71q0 -113 -188 -236z" />
    <glyph glyph-name="uni0157" unicode="&#x157;" horiz-adv-x="632" 
d="M111 0v4q28 50 36.5 101t8.5 139v506q0 95 -90 153v4l184 107v-248l10 -2q22 21 57.5 61.5t61.5 66.5t60.5 54.5t72.5 43t80 14.5v-164h-4q-21 13 -66 21.5t-84 8.5q-25 0 -75.5 -44.5t-104.5 -108.5v-471q0 -94 7.5 -144t37.5 -98v-4h-192zM94 -459l-8 13q42 33 71 74
t29 75q0 30 -19.5 64t-47.5 57v4l98 74q66 -46 66 -125q0 -112 -189 -236z" />
    <glyph glyph-name="Rcaron" unicode="&#x158;" horiz-adv-x="1265" 
d="M381 0h-275v4q50 64 66 113t16 137v991q0 88 -16 137t-66 113v4h527q215 0 317.5 -92.5t102.5 -259.5q0 -154 -71.5 -268t-211.5 -154l252 -473q55 -108 104.5 -163.5t118.5 -84.5v-4h-215l-375 707h-356v-453q0 -89 16 -137.5t66 -112.5v-4zM612 1458q-161 0 -313 -2
v-708h315q85 0 149 32t101 88t54.5 125.5t17.5 151.5q0 151 -73.5 232t-250.5 81zM573 1602h-8l-309 319l12 14l301 -202l301 202l13 -14z" />
    <glyph glyph-name="rcaron" unicode="&#x159;" horiz-adv-x="632" 
d="M111 0v4q28 50 36.5 101t8.5 139v506q0 95 -90 153v4l184 107v-248l10 -2q22 21 57.5 61.5t61.5 66.5t60.5 54.5t72.5 43t80 14.5v-164h-4q-21 13 -66 21.5t-84 8.5q-25 0 -75.5 -44.5t-104.5 -108.5v-471q0 -94 7.5 -144t37.5 -98v-4h-192zM373 1106l-275 354l15 13
l264 -228l272 228l15 -13l-283 -354h-8z" />
    <glyph glyph-name="Sacute" unicode="&#x15a;" horiz-adv-x="1091" 
d="M877 1468l41 -284l-17 -6q-59 172 -156 241.5t-233 69.5q-83 0 -146.5 -23t-101 -62.5t-56 -87.5t-18.5 -102q0 -73 25 -127t89 -99t105 -65.5t141 -62.5q10 -5 15.5 -7t14.5 -6t16 -7q55 -23 90.5 -39.5t85 -43.5t81 -51.5t66.5 -60.5t55 -74t33 -88.5t13 -107.5
q0 -86 -27.5 -155t-75 -115.5t-114 -77.5t-140.5 -44.5t-157 -13.5q-209 0 -393 78l-41 291l16 6q70 -175 177 -254.5t282 -79.5q179 0 271.5 86t92.5 238q0 71 -22 128.5t-55.5 96t-87.5 73.5t-103 58.5t-117 52.5q-4 1 -6 2q-48 20 -70 29.5t-65.5 30.5t-65.5 34.5t-57 37
t-53.5 44t-42 50t-34.5 59.5t-19.5 68t-8.5 80q0 170 119 261t322 91q180 0 332 -62zM352 1616l406 348l67 -111l-465 -251z" />
    <glyph glyph-name="sacute" unicode="&#x15b;" horiz-adv-x="768" 
d="M641 967l21 -183l-17 -4q-54 104 -116.5 145.5t-143.5 41.5q-96 0 -157.5 -50t-61.5 -131q0 -26 7.5 -49t17 -40t30.5 -34t36.5 -27.5t47.5 -25t50.5 -22t57.5 -22.5l4.5 -1.5t4 -1.5t4.5 -2q53 -20 86.5 -35.5t76.5 -43t68 -57t42.5 -75t17.5 -100.5q0 -131 -93.5 -206
t-267.5 -75q-148 0 -270 60l-20 209l16 4q51 -123 123.5 -179.5t179.5 -56.5q118 0 183 59t65 150q0 40 -15 73t-36 55.5t-59 44.5t-68 35t-80 32q-43 16 -69.5 27.5t-65.5 31t-63 40.5t-48 49.5t-35.5 65t-11.5 79.5q0 68 29 119.5t78.5 80t107 42.5t123.5 14
q119 0 221 -37zM293 1104l266 430l100 -78l-352 -364z" />
    <glyph glyph-name="Scircumflex" unicode="&#x15c;" horiz-adv-x="1091" 
d="M877 1468l41 -284l-17 -6q-59 172 -156 241.5t-233 69.5q-83 0 -146.5 -23t-101 -62.5t-56 -87.5t-18.5 -102q0 -73 25 -127t89 -99t105 -65.5t141 -62.5q10 -5 15.5 -7t14.5 -6t16 -7q55 -23 90.5 -39.5t85 -43.5t81 -51.5t66.5 -60.5t55 -74t33 -88.5t13 -107.5
q0 -86 -27.5 -155t-75 -115.5t-114 -77.5t-140.5 -44.5t-157 -13.5q-209 0 -393 78l-41 291l16 6q70 -175 177 -254.5t282 -79.5q179 0 271.5 86t92.5 238q0 71 -22 128.5t-55.5 96t-87.5 73.5t-103 58.5t-117 52.5q-4 1 -6 2q-48 20 -70 29.5t-65.5 30.5t-65.5 34.5t-57 37
t-53.5 44t-42 50t-34.5 59.5t-19.5 68t-8.5 80q0 170 119 261t322 91q180 0 332 -62zM840 1602l-301 202l-301 -202l-13 14l310 319h8l309 -319z" />
    <glyph glyph-name="scircumflex" unicode="&#x15d;" horiz-adv-x="768" 
d="M641 967l21 -183l-17 -4q-54 104 -116.5 145.5t-143.5 41.5q-96 0 -157.5 -50t-61.5 -131q0 -26 7.5 -49t17 -40t30.5 -34t36.5 -27.5t47.5 -25t50.5 -22t57.5 -22.5l4.5 -1.5t4 -1.5t4.5 -2q53 -20 86.5 -35.5t76.5 -43t68 -57t42.5 -75t17.5 -100.5q0 -131 -93.5 -206
t-267.5 -75q-148 0 -270 60l-20 209l16 4q51 -123 123.5 -179.5t179.5 -56.5q118 0 183 59t65 150q0 40 -15 73t-36 55.5t-59 44.5t-68 35t-80 32q-43 16 -69.5 27.5t-65.5 31t-63 40.5t-48 49.5t-35.5 65t-11.5 79.5q0 68 29 119.5t78.5 80t107 42.5t123.5 14
q119 0 221 -37zM645 1106l-272 227l-264 -227l-15 12l275 355h8l282 -355z" />
    <glyph glyph-name="uni015E" unicode="&#x15e;" horiz-adv-x="1091" 
d="M375 -522l-4 16q109 40 162 81t53 106q0 39 -19 66.5t-50.5 40.5t-55.5 18.5t-51 7.5l-2 4q55 92 92 151q-213 3 -387 78l-41 291l16 6q70 -175 177 -254.5t282 -79.5q179 0 271.5 86t92.5 238q0 71 -22 128.5t-55.5 96t-87.5 73.5t-103 58.5t-117 52.5q-4 1 -6 2
q-48 20 -70 29.5t-65.5 30.5t-65.5 34.5t-57 37t-53.5 44t-42 50t-34.5 59.5t-19.5 68t-8.5 80q0 170 119 261t322 91q180 0 332 -62l41 -284l-17 -6q-59 172 -156 241.5t-233 69.5q-83 0 -146.5 -23t-101 -62.5t-56 -87.5t-18.5 -102q0 -73 25 -127t89 -99t105 -65.5
t141 -62.5q10 -5 15.5 -7t14.5 -6t16 -7q55 -23 90.5 -39.5t85 -43.5t81 -51.5t66.5 -60.5t55 -74t33 -88.5t13 -107.5q0 -100 -36.5 -177t-101.5 -124t-145.5 -72.5t-177.5 -30.5l-55 -88q78 -18 124 -62.5t46 -113.5q0 -169 -299 -229z" />
    <glyph glyph-name="uni015F" unicode="&#x15f;" horiz-adv-x="768" 
d="M229 -522l-4 16q109 40 162 81t53 106q0 39 -19 66.5t-50.5 40.5t-55.5 18.5t-51 7.5l-2 4q55 92 92 151q-146 0 -268 60l-20 209l16 4q51 -123 123.5 -179.5t179.5 -56.5q118 0 183 59t65 150q0 40 -15 73t-36 55.5t-59 44.5t-68 35t-80 32q-43 16 -69.5 27.5t-65.5 31
t-63 40.5t-48 49.5t-35.5 65t-11.5 79.5q0 68 29 119.5t78.5 80t107 42.5t123.5 14q119 0 221 -37l21 -183l-17 -4q-54 104 -116.5 145.5t-143.5 41.5q-96 0 -157.5 -50t-61.5 -131q0 -26 7.5 -49t17 -40t30.5 -34t36.5 -27.5t47.5 -25t50.5 -22t57.5 -22.5l4.5 -1.5t4 -1.5
t4.5 -2q53 -20 86.5 -35.5t76.5 -43t68 -57t42.5 -75t17.5 -100.5q0 -120 -78 -193.5t-225 -85.5l-56 -88q78 -18 124 -62.5t46 -113.5q0 -169 -299 -229z" />
    <glyph glyph-name="Scaron" unicode="&#x160;" horiz-adv-x="1091" 
d="M877 1468l41 -284l-17 -6q-59 172 -156 241.5t-233 69.5q-83 0 -146.5 -23t-101 -62.5t-56 -87.5t-18.5 -102q0 -73 25 -127t89 -99t105 -65.5t141 -62.5q10 -5 15.5 -7t14.5 -6t16 -7q55 -23 90.5 -39.5t85 -43.5t81 -51.5t66.5 -60.5t55 -74t33 -88.5t13 -107.5
q0 -86 -27.5 -155t-75 -115.5t-114 -77.5t-140.5 -44.5t-157 -13.5q-209 0 -393 78l-41 291l16 6q70 -175 177 -254.5t282 -79.5q179 0 271.5 86t92.5 238q0 71 -22 128.5t-55.5 96t-87.5 73.5t-103 58.5t-117 52.5q-4 1 -6 2q-48 20 -70 29.5t-65.5 30.5t-65.5 34.5t-57 37
t-53.5 44t-42 50t-34.5 59.5t-19.5 68t-8.5 80q0 170 119 261t322 91q180 0 332 -62zM543 1602h-8l-310 319l13 14l301 -202l301 202l12 -14z" />
    <glyph glyph-name="scaron" unicode="&#x161;" horiz-adv-x="768" 
d="M641 967l21 -183l-17 -4q-54 104 -116.5 145.5t-143.5 41.5q-96 0 -157.5 -50t-61.5 -131q0 -26 7.5 -49t17 -40t30.5 -34t36.5 -27.5t47.5 -25t50.5 -22t57.5 -22.5l4.5 -1.5t4 -1.5t4.5 -2q53 -20 86.5 -35.5t76.5 -43t68 -57t42.5 -75t17.5 -100.5q0 -131 -93.5 -206
t-267.5 -75q-148 0 -270 60l-20 209l16 4q51 -123 123.5 -179.5t179.5 -56.5q118 0 183 59t65 150q0 40 -15 73t-36 55.5t-59 44.5t-68 35t-80 32q-43 16 -69.5 27.5t-65.5 31t-63 40.5t-48 49.5t-35.5 65t-11.5 79.5q0 68 29 119.5t78.5 80t107 42.5t123.5 14
q119 0 221 -37zM389 1106l-274 354l14 13l264 -228l273 228l14 -13l-283 -354h-8z" />
    <glyph glyph-name="Tcommaaccent" unicode="&#x162;" horiz-adv-x="1298" 
d="M786 4v-4h-274v4q51 63 66.5 112t15.5 138v1208l-313 -8q-13 0 -28 -10t-33 -32t-32.5 -41t-37 -55l-35 -56t-36.5 -61.5t-32 -55.5l-16 6l80 350h1077l80 -350l-17 -6q-9 16 -32 55.5t-36.5 61.5t-34.5 56.5t-36.5 54.5t-33 41.5t-32.5 31.5t-28 10l-313 8v-1208
q0 -88 16 -137t65 -113zM532 -459l-8 13q42 33 71.5 74t29.5 75q0 29 -20 63.5t-48 57.5v4l98 74q66 -46 66 -125q0 -112 -189 -236z" />
    <glyph glyph-name="tcommaaccent" unicode="&#x163;" horiz-adv-x="653" 
d="M379 -31q-39 0 -73 11t-65 35.5t-49 70.5t-18 109v741h-111v4l209 182h4v-149h304v-37h-304v-746q0 -157 150 -157q89 0 172 43l4 -8q-19 -20 -44.5 -39.5t-76 -39.5t-102.5 -20zM244 -459l-8 13q42 33 71 74t29 75q0 29 -20 63.5t-48 57.5v4l99 74q30 -21 47.5 -54
t17.5 -71q0 -113 -188 -236z" />
    <glyph glyph-name="Tcaron" unicode="&#x164;" horiz-adv-x="1298" 
d="M786 4v-4h-274v4q51 63 66.5 112t15.5 138v1208l-313 -8q-13 0 -28 -10t-33 -32t-32.5 -41t-37 -55l-35 -56t-36.5 -61.5t-32 -55.5l-16 6l80 350h1077l80 -350l-17 -6q-9 16 -32 55.5t-36.5 61.5t-34.5 56.5t-36.5 54.5t-33 41.5t-32.5 31.5t-28 10l-313 8v-1208
q0 -88 16 -137t65 -113zM653 1602h-8l-309 319l12 14l301 -202l301 202l13 -14z" />
    <glyph glyph-name="tcaron" unicode="&#x165;" horiz-adv-x="653" 
d="M379 -31q-39 0 -73 11t-65 35.5t-49 70.5t-18 109v741h-111v4l209 182h4v-149h304v-37h-304v-746q0 -157 150 -157q89 0 172 43l4 -8q-19 -20 -44.5 -39.5t-76 -39.5t-102.5 -20zM432 1176l66 411h129l-181 -416z" />
    <glyph glyph-name="Tbar" unicode="&#x166;" horiz-adv-x="1298" 
d="M246 731v41h348v690l-313 -8q-13 0 -28 -10t-33 -32t-32.5 -41t-37 -55l-35 -56t-36.5 -61.5t-32 -55.5l-16 6l80 350h1077l80 -350l-17 -6q-9 16 -32 55.5t-36.5 61.5t-34.5 56.5t-36.5 54.5t-33 41.5t-32.5 31.5t-28 10l-313 8v-690h348v-41h-348v-477q0 -88 16 -137
t65 -113v-4h-274v4q51 63 66.5 112t15.5 138v477h-348z" />
    <glyph glyph-name="tbar" unicode="&#x167;" horiz-adv-x="653" 
d="M399 -31q-39 0 -73 11t-64.5 35.5t-48.5 70.5t-18 109v440h-132v33h132v268h-111v4l209 182h4v-149h303v-37h-303v-268h283v-33h-283v-445q0 -157 149 -157q89 0 172 43l5 -8q-32 -34 -90.5 -66.5t-133.5 -32.5z" />
    <glyph glyph-name="Utilde" unicode="&#x168;" horiz-adv-x="1400" 
d="M723 -31q-93 0 -174.5 18t-153 58t-122.5 99.5t-80 147t-29 195.5v752q0 90 -16 140.5t-66 115.5v4h274v-4q-44 -59 -63 -115t-19 -141v-745q0 -128 36.5 -223t102 -150t147 -81t181.5 -26q102 0 181.5 27t130 73t83 111t45.5 135t13 152v700q0 98 -28.5 153.5
t-118.5 129.5v4h317v-4q-77 -75 -102 -131t-25 -152v-698q0 -91 -16 -169.5t-54 -148.5t-95.5 -119.5t-146.5 -78.5t-202 -29zM575 1847q44 0 94.5 -17.5t88 -38.5t85 -38.5t87.5 -17.5q55 0 83 30.5t46 102.5l16 -2q-12 -236 -176 -236q-44 0 -94.5 17.5t-88 39t-84.5 39
t-87 17.5q-55 0 -83 -30.5t-46 -102.5l-17 2q12 235 176 235z" />
    <glyph glyph-name="utilde" unicode="&#x169;" horiz-adv-x="1003" 
d="M741 -25v177q-148 -183 -342 -183q-130 0 -201 76.5t-71 210.5v582q0 85 -86 131v4h188v-684q0 -240 213 -240q166 0 289 129v660q0 88 -90 131v4h193v-746q0 -64 10.5 -99.5t27.5 -51t54 -31.5v-4zM334 1397q55 0 142.5 -45t146.5 -45q53 0 82 26.5t43 83.5l16 -2
q-2 -32 -9 -62t-23.5 -64.5t-50 -55.5t-81.5 -21q-55 0 -142.5 45.5t-146.5 45.5q-53 0 -82 -27t-43 -84l-16 2q2 32 9 62t23.5 64.5t50 55.5t81.5 21z" />
    <glyph glyph-name="Umacron" unicode="&#x16a;" horiz-adv-x="1400" 
d="M723 -31q-93 0 -174.5 18t-153 58t-122.5 99.5t-80 147t-29 195.5v752q0 90 -16 140.5t-66 115.5v4h274v-4q-44 -59 -63 -115t-19 -141v-745q0 -128 36.5 -223t102 -150t147 -81t181.5 -26q102 0 181.5 27t130 73t83 111t45.5 135t13 152v700q0 98 -28.5 153.5
t-118.5 129.5v4h317v-4q-77 -75 -102 -131t-25 -152v-698q0 -91 -16 -169.5t-54 -148.5t-95.5 -119.5t-146.5 -78.5t-202 -29zM432 1716v72h612v-72h-612z" />
    <glyph glyph-name="umacron" unicode="&#x16b;" horiz-adv-x="1003" 
d="M741 -25v177q-148 -183 -342 -183q-130 0 -201 76.5t-71 210.5v582q0 85 -86 131v4h188v-684q0 -240 213 -240q166 0 289 129v660q0 88 -90 131v4h193v-746q0 -64 10.5 -99.5t27.5 -51t54 -31.5v-4zM176 1249v72h584v-72h-584z" />
    <glyph glyph-name="Ubreve" unicode="&#x16c;" horiz-adv-x="1400" 
d="M723 -31q-93 0 -174.5 18t-153 58t-122.5 99.5t-80 147t-29 195.5v752q0 90 -16 140.5t-66 115.5v4h274v-4q-44 -59 -63 -115t-19 -141v-745q0 -128 36.5 -223t102 -150t147 -81t181.5 -26q102 0 181.5 27t130 73t83 111t45.5 135t13 152v700q0 98 -28.5 153.5
t-118.5 129.5v4h317v-4q-77 -75 -102 -131t-25 -152v-698q0 -91 -16 -169.5t-54 -148.5t-95.5 -119.5t-146.5 -78.5t-202 -29zM735 1720q100 0 169.5 48.5t101.5 132.5h16q-5 -36 -14.5 -68.5t-31 -70.5t-52 -65.5t-80 -46t-111.5 -18.5q-60 0 -107.5 18.5t-76.5 45.5
t-50.5 65.5t-30.5 71t-15 68.5h16q75 -181 266 -181z" />
    <glyph glyph-name="ubreve" unicode="&#x16d;" horiz-adv-x="1003" 
d="M741 -25v177q-148 -183 -342 -183q-130 0 -201 76.5t-71 210.5v582q0 85 -86 131v4h188v-684q0 -240 213 -240q166 0 289 129v660q0 88 -90 131v4h193v-746q0 -64 10.5 -99.5t27.5 -51t54 -31.5v-4zM467 1257q91 0 151 43t84 119h17q-2 -32 -9.5 -63t-26 -66t-45.5 -61
t-72 -43t-101 -17q-54 0 -97.5 17t-70 43t-44.5 61t-25.5 66t-10.5 63h16q55 -162 234 -162z" />
    <glyph glyph-name="Uring" unicode="&#x16e;" horiz-adv-x="1400" 
d="M723 -31q-93 0 -174.5 18t-153 58t-122.5 99.5t-80 147t-29 195.5v752q0 90 -16 140.5t-66 115.5v4h274v-4q-44 -59 -63 -115t-19 -141v-745q0 -128 36.5 -223t102 -150t147 -81t181.5 -26q102 0 181.5 27t130 73t83 111t45.5 135t13 152v700q0 98 -28.5 153.5
t-118.5 129.5v4h317v-4q-77 -75 -102 -131t-25 -152v-698q0 -91 -16 -169.5t-54 -148.5t-95.5 -119.5t-146.5 -78.5t-202 -29zM565 1772q0 75 48.5 124.5t123.5 49.5t123.5 -49.5t48.5 -124.5t-48.5 -122.5t-123.5 -47.5t-123.5 47.5t-48.5 122.5zM623 1772q0 -63 29 -99.5
t85 -36.5t85.5 36.5t29.5 99.5q0 64 -29 101.5t-86 37.5t-85.5 -37.5t-28.5 -101.5z" />
    <glyph glyph-name="uring" unicode="&#x16f;" horiz-adv-x="1003" 
d="M741 -25v177q-148 -183 -342 -183q-130 0 -201 76.5t-71 210.5v582q0 85 -86 131v4h188v-684q0 -240 213 -240q166 0 289 129v660q0 88 -90 131v4h193v-746q0 -64 10.5 -99.5t27.5 -51t54 -31.5v-4zM311 1339q0 75 48.5 124.5t123.5 49.5t123.5 -49.5t48.5 -124.5
t-48.5 -122.5t-123.5 -47.5t-123.5 47.5t-48.5 122.5zM369 1339q0 -63 29 -99t85 -36t85.5 36t29.5 99q0 64 -29 102t-86 38t-85.5 -38t-28.5 -102z" />
    <glyph glyph-name="Uhungarumlaut" unicode="&#x170;" horiz-adv-x="1400" 
d="M723 -31q-93 0 -174.5 18t-153 58t-122.5 99.5t-80 147t-29 195.5v752q0 90 -16 140.5t-66 115.5v4h274v-4q-44 -59 -63 -115t-19 -141v-745q0 -128 36.5 -223t102 -150t147 -81t181.5 -26q102 0 181.5 27t130 73t83 111t45.5 135t13 152v700q0 98 -28.5 153.5
t-118.5 129.5v4h317v-4q-77 -75 -102 -131t-25 -152v-698q0 -91 -16 -169.5t-54 -148.5t-95.5 -119.5t-146.5 -78.5t-202 -29zM850 1616l287 328l82 -107l-359 -235zM455 1616l286 328l82 -107l-358 -235z" />
    <glyph glyph-name="uhungarumlaut" unicode="&#x171;" horiz-adv-x="1003" 
d="M741 -25v177q-148 -183 -342 -183q-130 0 -201 76.5t-71 210.5v582q0 85 -86 131v4h188v-684q0 -240 213 -240q166 0 289 129v660q0 88 -90 131v4h193v-746q0 -64 10.5 -99.5t27.5 -51t54 -31.5v-4zM567 1122l232 371l80 -74l-297 -311zM276 1122l232 371l80 -74
l-297 -311z" />
    <glyph glyph-name="Uogonek" unicode="&#x172;" horiz-adv-x="1400" 
d="M774 -508q-88 0 -135 44t-47 120q0 155 231 319q-43 -6 -100 -6q-93 0 -174.5 18t-153 58t-122.5 99.5t-80 147t-29 195.5v752q0 90 -16 140.5t-66 115.5v4h274v-4q-44 -59 -63 -115t-19 -141v-745q0 -128 36.5 -223t102 -150t147 -81t181.5 -26q102 0 181.5 27t130 73
t83 111t45.5 135t13 152v700q0 98 -28.5 153.5t-118.5 129.5v4h317v-4q-77 -75 -102 -131t-25 -152v-698q0 -90 -16.5 -167.5t-51.5 -145.5t-95 -120t-142 -81q-47 -17 -93 -50.5t-77 -72.5q-76 -98 -76 -192q0 -64 34.5 -95.5t96.5 -31.5q109 0 205 112l16 -12
q-110 -166 -264 -166z" />
    <glyph glyph-name="uogonek" unicode="&#x173;" horiz-adv-x="1003" 
d="M659 -508q-88 0 -135 44t-47 120q0 93 67 175.5t197 170.5v150q-148 -183 -342 -183q-130 0 -201 76.5t-71 210.5v582q0 85 -86 131v4h188v-684q0 -240 213 -240q166 0 289 129v660q0 88 -90 131v4h193v-746q0 -64 10.5 -99.5t27.5 -51t54 -31.5v-4q-121 -39 -176 -74
q-179 -116 -179 -276q0 -133 131 -133q109 0 205 112l17 -12q-110 -166 -265 -166z" />
    <glyph glyph-name="Wcircumflex" unicode="&#x174;" horiz-adv-x="1943" 
d="M582 -18h-56l-385 1288q-34 112 -53.5 151t-67.5 74v4h285v-4q-1 -2 -10 -13t-12 -15.5t-11.5 -16.5t-11 -20.5t-8 -22.5t-6 -28t-0.5 -32t3.5 -38t10.5 -43l328 -1102l348 975l-45 131q-36 106 -60.5 147.5t-74.5 77.5v4h301v-4l-13 -12q-12 -12 -14.5 -15t-13 -15.5
t-12.5 -20t-8.5 -22t-6 -28t0.5 -32t5 -39.5t13 -45l381 -1112l309 1044q46 179 -47 297v4h272v-4q-70 -53 -104 -111.5t-72 -185.5l-363 -1216h-55l-368 1085zM1233 1602l-301 202l-301 -202l-13 14l310 319h8l309 -319z" />
    <glyph glyph-name="wcircumflex" unicode="&#x175;" horiz-adv-x="1302" 
d="M389 -12h-12l-244 774q-50 160 -113 207v4h230v-4q-10 -13 -17 -39t-5.5 -69t14.5 -89l174 -602l217 590v2q-32 91 -55.5 139t-55.5 68v4h219v-4q-10 -13 -15 -39t0 -75t24 -107l188 -576l180 565q30 92 24 147.5t-52 84.5v4h202v-4q-46 -34 -69.5 -75.5t-55.5 -137.5
l-252 -768h-12l-250 717zM940 1106l-272 227l-265 -227l-14 12l275 355h8l282 -355z" />
    <glyph glyph-name="Ycircumflex" unicode="&#x176;" horiz-adv-x="1167" 
d="M440 0v4q49 55 65.5 98t16.5 115v483l-346 596q-47 81 -85 125t-91 74v4h317v-4q-48 -23 -51.5 -73.5t33.5 -112.5l319 -553l277 463q44 74 53 128.5t-6.5 86.5t-52.5 61v4h278v-4q-18 -11 -32.5 -22t-29 -24.5t-24 -22.5t-23.5 -27t-20.5 -27t-22 -33t-21.5 -34
t-25 -41.5t-27 -44.5l-309 -514v-488q0 -74 16 -116t66 -97v-4h-275zM909 1602l-301 202l-301 -202l-12 14l309 319h8l310 -319z" />
    <glyph glyph-name="ycircumflex" unicode="&#x177;" horiz-adv-x="843" 
d="M45 -461l-4 113q31 1 69.5 12.5t85 36.5t89 74.5t67.5 115.5l51 134l-282 735q-36 94 -60.5 137.5t-60.5 71.5v4h240v-4q-34 -31 -38 -77.5t27 -135.5l226 -598l221 581q34 91 28 146t-53 84v4h203v-4q-46 -34 -70 -74.5t-61 -138.5l-354 -922q-57 -147 -134.5 -215
t-189.5 -80zM725 1106l-272 227l-265 -227l-14 12l275 355h8l282 -355z" />
    <glyph glyph-name="Ydieresis" unicode="&#x178;" horiz-adv-x="1167" 
d="M440 0v4q49 55 65.5 98t16.5 115v483l-346 596q-47 81 -85 125t-91 74v4h317v-4q-48 -23 -51.5 -73.5t33.5 -112.5l319 -553l277 463q44 74 53 128.5t-6.5 86.5t-52.5 61v4h278v-4q-18 -11 -32.5 -22t-29 -24.5t-24 -22.5t-23.5 -27t-20.5 -27t-22 -33t-21.5 -34
t-25 -41.5t-27 -44.5l-309 -514v-488q0 -74 16 -116t66 -97v-4h-275zM958 1778q0 -35 -24.5 -59.5t-59.5 -24.5q-34 0 -58.5 24.5t-24.5 59.5t24.5 59.5t58.5 24.5q35 0 59.5 -24.5t24.5 -59.5zM426 1778q0 -35 -24.5 -59.5t-59.5 -24.5q-34 0 -59 24.5t-25 59.5t25 59.5
t59 24.5q35 0 59.5 -24.5t24.5 -59.5z" />
    <glyph glyph-name="Zacute" unicode="&#x179;" horiz-adv-x="1245" 
d="M1083 0h-1022v23l953 1443l-539 -16q-103 -3 -185.5 -80.5t-164.5 -228.5l-16 6l96 352h950v-22l-950 -1446l612 18q101 3 185.5 83t164.5 239l17 -6zM489 1616l406 348l68 -111l-465 -251z" />
    <glyph glyph-name="zacute" unicode="&#x17a;" horiz-adv-x="843" 
d="M711 0h-670v14l610 924l-311 -8q-19 0 -36.5 -4.5t-30 -8t-29.5 -16t-25.5 -18.5t-26.5 -26t-24 -27t-28 -33.5t-29 -34.5l-11 4l68 207h612v-17l-608 -921l344 6q36 1 66 10t51 20.5t47.5 40t42 49.5t49.5 68l10 -4zM326 1104l266 430l100 -78l-352 -364z" />
    <glyph glyph-name="Zdotaccent" unicode="&#x17b;" horiz-adv-x="1245" 
d="M1083 0h-1022v23l953 1443l-539 -16q-103 -3 -185.5 -80.5t-164.5 -228.5l-16 6l96 352h950v-22l-950 -1446l612 18q101 3 185.5 83t164.5 239l17 -6zM760 1778q0 -35 -24.5 -59.5t-59.5 -24.5q-34 0 -59 24.5t-25 59.5t25 59.5t59 24.5q35 0 59.5 -24.5t24.5 -59.5z" />
    <glyph glyph-name="zdotaccent" unicode="&#x17c;" horiz-adv-x="843" 
d="M711 0h-670v14l610 924l-311 -8q-19 0 -36.5 -4.5t-30 -8t-29.5 -16t-25.5 -18.5t-26.5 -26t-24 -27t-28 -33.5t-29 -34.5l-11 4l68 207h612v-17l-608 -921l344 6q36 1 66 10t51 20.5t47.5 40t42 49.5t49.5 68l10 -4zM535 1350q0 -35 -24.5 -59.5t-59.5 -24.5
q-34 0 -59 24.5t-25 59.5t25 59.5t59 24.5q35 0 59.5 -24.5t24.5 -59.5z" />
    <glyph glyph-name="Zcaron" unicode="&#x17d;" horiz-adv-x="1245" 
d="M1083 0h-1022v23l953 1443l-539 -16q-103 -3 -185.5 -80.5t-164.5 -228.5l-16 6l96 352h950v-22l-950 -1446l612 18q101 3 185.5 83t164.5 239l17 -6zM680 1602h-8l-310 319l13 14l301 -202l301 202l12 -14z" />
    <glyph glyph-name="zcaron" unicode="&#x17e;" horiz-adv-x="843" 
d="M711 0h-670v14l610 924l-311 -8q-19 0 -36.5 -4.5t-30 -8t-29.5 -16t-25.5 -18.5t-26.5 -26t-24 -27t-28 -33.5t-29 -34.5l-11 4l68 207h612v-17l-608 -921l344 6q36 1 66 10t51 20.5t47.5 40t42 49.5t49.5 68l10 -4zM442 1106l-274 354l14 13l264 -228l273 228l14 -13
l-282 -354h-9z" />
    <glyph glyph-name="uni0192" unicode="&#x192;" horiz-adv-x="1024" 
d="M43 -389q-77 0 -137 29l-29 206l17 4q24 -45 34 -64t30.5 -51.5t35 -46t35.5 -25t43 -11.5q65 0 112 89t88 277l160 734h-170l10 41h168l56 249q52 240 136 364t214 124q77 0 137 -29l14 -248l-16 -4q-57 140 -80 178q-39 62 -86 62q-62 0 -109.5 -88t-87.5 -273
l-73 -335h221l-8 -41h-221l-144 -654q-54 -240 -137 -363.5t-213 -123.5z" />
    <glyph glyph-name="Aringacute" unicode="&#x1fa;" horiz-adv-x="1280" 
d="M885 606l-275 774l-276 -774h551zM240 4v-4h-230v4q54 53 77.5 95t62.5 149l462 1270h56l469 -1289q42 -117 62.5 -152.5t70.5 -72.5v-4h-256v4q58 79 4 229l-119 332h-582l-116 -327q-54 -149 39 -234zM457 1772q0 75 48.5 124.5t123.5 49.5t123.5 -49.5t48.5 -124.5
t-48.5 -122.5t-123.5 -47.5t-123.5 47.5t-48.5 122.5zM514 1772q0 -63 29.5 -99.5t85.5 -36.5t85 36.5t29 99.5q0 64 -28.5 101.5t-85.5 37.5t-86 -37.5t-29 -101.5zM442 2025l406 349l67 -111l-464 -252z" />
    <glyph glyph-name="aringacute" unicode="&#x1fb;" horiz-adv-x="950" 
d="M369 43q79 0 154 31t120 76v362q-89 -12 -166 -34t-145.5 -57.5t-108 -90.5t-39.5 -123q0 -74 46.5 -119t138.5 -45zM774 -25q-63 0 -96 38.5t-35 101.5q-59 -63 -144.5 -104.5t-179.5 -41.5q-108 0 -173.5 56t-65.5 153q0 85 54 154.5t141.5 112t180.5 67.5t187 33v188
q0 209 -231 209q-158 0 -287 -90l-10 14q64 64 155.5 101t200.5 37q82 0 138 -20t84.5 -57.5t40 -78.5t11.5 -94v-619q0 -88 80 -88q50 0 99 49l6 -4q-14 -44 -53 -80.5t-103 -36.5zM293 1339q0 75 48.5 124.5t123.5 49.5t123.5 -49.5t48.5 -124.5t-48.5 -122.5
t-123.5 -47.5t-123.5 47.5t-48.5 122.5zM350 1339q0 -63 29.5 -99t85.5 -36t85.5 36t29.5 99q0 64 -29 102t-86 38t-86 -38t-29 -102zM279 1616l405 348l68 -111l-465 -251z" />
    <glyph glyph-name="AEacute" unicode="&#x1fc;" horiz-adv-x="1941" 
d="M930 1264q0 71 -25 129l-440 -787h465v658zM252 4v-4h-242v4q69 56 106.5 101.5t96.5 148.5l668 1180q-25 32 -72 61v4h907l80 -297l-16 -6l-39 54t-38.5 53.5t-34 45.5t-35 42t-30.5 30t-30.5 23t-26.5 8l-504 12v-690h330q19 0 41 20t36 41.5t37.5 60.5t31.5 52h16
v-379h-16q-9 12 -31 47.5t-37 56.5t-37 40.5t-41 19.5h-330v-698l519 14q91 3 164.5 73t168.5 216l17 -6l-92 -332h-969v4q43 68 61.5 118t18.5 114v329h-488l-182 -325q-90 -160 -8 -236zM1038 1616l406 348l67 -111l-464 -251z" />
    <glyph glyph-name="aeacute" unicode="&#x1fd;" horiz-adv-x="1503" 
d="M1053 -31q-128 0 -225 62.5t-150 175.5q-59 -104 -153.5 -171t-219.5 -67q-110 0 -176 56t-66 153q0 85 54 154.5t141.5 112t181 67.5t187.5 33v188q0 94 -53.5 151.5t-178.5 57.5q-157 0 -286 -90l-11 14q64 64 156 101t201 37q134 0 194 -53.5t72 -143.5
q57 95 145.5 146t196.5 51q168 0 266.5 -115t87.5 -279h-672q-6 -43 -6 -94q0 -206 89 -329.5t262 -123.5q100 0 191.5 42.5t139.5 125.5l11 -4q-37 -117 -138.5 -187.5t-240.5 -70.5zM1061 967q-123 0 -204.5 -85.5t-106.5 -240.5l538 12v13q0 301 -227 301zM354 47
q102 0 182.5 57t127.5 142q-37 93 -37 221v45q-88 -12 -163 -33.5t-142 -57t-105.5 -90.5t-38.5 -124q0 -73 44 -116.5t132 -43.5zM645 1104l266 430l101 -78l-353 -364z" />
    <glyph glyph-name="Oslashacute" unicode="&#x1fe;" horiz-adv-x="1660" 
d="M217 748q0 -178 53 -326t152 -248l780 1182q-155 133 -373 133q-185 0 -325.5 -97.5t-213.5 -265t-73 -378.5zM829 10q186 0 326.5 96t214.5 263t74 379q0 178 -54.5 327.5t-154.5 249.5l-780 -1182q158 -133 374 -133zM829 -31q-227 0 -409 121l-98 -149h-54l115 174
q-140 106 -220.5 271.5t-80.5 361.5q0 163 57.5 308t156 249t237.5 164.5t296 60.5q230 0 408 -121l100 152h54l-117 -177q142 -108 223.5 -274t81.5 -362q0 -218 -98 -396.5t-270 -280.5t-382 -102zM643 1616l406 348l67 -111l-465 -251z" />
    <glyph glyph-name="oslashacute" unicode="&#x1ff;" horiz-adv-x="1150" 
d="M575 -31q-149 0 -276 84l-131 -190h-51l149 215q-91 72 -142.5 177.5t-51.5 229.5q0 142 68 261.5t184 188.5t251 69q149 0 273 -84l135 194h51l-151 -219q91 -72 143.5 -179t52.5 -231q0 -142 -68.5 -261t-184.5 -187t-251 -68zM575 6q180 0 278.5 135t98.5 344
q0 223 -108 355l-512 -740q97 -94 243 -94zM199 485q0 -224 104 -352l512 739q-95 95 -240 95q-120 0 -206.5 -66t-128 -173t-41.5 -243zM492 1104l266 430l100 -78l-352 -364z" />
    <glyph glyph-name="uni0218" unicode="&#x218;" horiz-adv-x="1091" 
d="M877 1468l41 -284l-17 -6q-59 172 -156 241.5t-233 69.5q-83 0 -146.5 -23t-101 -62.5t-56 -87.5t-18.5 -102q0 -73 25 -127t89 -99t105 -65.5t141 -62.5q10 -5 15.5 -7t14.5 -6t16 -7q55 -23 90.5 -39.5t85 -43.5t81 -51.5t66.5 -60.5t55 -74t33 -88.5t13 -107.5
q0 -86 -27.5 -155t-75 -115.5t-114 -77.5t-140.5 -44.5t-157 -13.5q-209 0 -393 78l-41 291l16 6q70 -175 177 -254.5t282 -79.5q179 0 271.5 86t92.5 238q0 71 -22 128.5t-55.5 96t-87.5 73.5t-103 58.5t-117 52.5q-4 1 -6 2q-48 20 -70 29.5t-65.5 30.5t-65.5 34.5t-57 37
t-53.5 44t-42 50t-34.5 59.5t-19.5 68t-8.5 80q0 170 119 261t322 91q180 0 332 -62zM463 -459l-8 13q42 33 71 74t29 75q0 29 -20 63.5t-48 57.5v4l99 74q30 -21 47.5 -54t17.5 -71q0 -113 -188 -236z" />
    <glyph glyph-name="uni0219" unicode="&#x219;" horiz-adv-x="768" 
d="M641 967l21 -183l-17 -4q-54 104 -116.5 145.5t-143.5 41.5q-96 0 -157.5 -50t-61.5 -131q0 -26 7.5 -49t17 -40t30.5 -34t36.5 -27.5t47.5 -25t50.5 -22t57.5 -22.5l4.5 -1.5t4 -1.5t4.5 -2q53 -20 86.5 -35.5t76.5 -43t68 -57t42.5 -75t17.5 -100.5q0 -131 -93.5 -206
t-267.5 -75q-148 0 -270 60l-20 209l16 4q51 -123 123.5 -179.5t179.5 -56.5q118 0 183 59t65 150q0 40 -15 73t-36 55.5t-59 44.5t-68 35t-80 32q-43 16 -69.5 27.5t-65.5 31t-63 40.5t-48 49.5t-35.5 65t-11.5 79.5q0 68 29 119.5t78.5 80t107 42.5t123.5 14
q119 0 221 -37zM287 -459l-8 13q42 33 71 74t29 75q0 29 -20 63.5t-48 57.5v4l99 74q30 -21 47.5 -54t17.5 -71q0 -113 -188 -236z" />
    <glyph glyph-name="uni021A" unicode="&#x21a;" horiz-adv-x="1298" 
d="M786 4v-4h-274v4q51 63 66.5 112t15.5 138v1208l-313 -8q-13 0 -28 -10t-33 -32t-32.5 -41t-37 -55l-35 -56t-36.5 -61.5t-32 -55.5l-16 6l80 350h1077l80 -350l-17 -6q-9 16 -32 55.5t-36.5 61.5t-34.5 56.5t-36.5 54.5t-33 41.5t-32.5 31.5t-28 10l-313 8v-1208
q0 -88 16 -137t65 -113zM532 -459l-8 13q42 33 71.5 74t29.5 75q0 29 -20 63.5t-48 57.5v4l98 74q66 -46 66 -125q0 -112 -189 -236z" />
    <glyph glyph-name="uni021B" unicode="&#x21b;" horiz-adv-x="653" 
d="M379 -31q-39 0 -73 11t-65 35.5t-49 70.5t-18 109v741h-111v4l209 182h4v-149h304v-37h-304v-746q0 -157 150 -157q89 0 172 43l4 -8q-19 -20 -44.5 -39.5t-76 -39.5t-102.5 -20zM244 -459l-8 13q42 33 71 74t29 75q0 29 -20 63.5t-48 57.5v4l99 74q30 -21 47.5 -54
t17.5 -71q0 -113 -188 -236z" />
    <glyph glyph-name="uni0237" unicode="&#x237;" horiz-adv-x="444" 
d="M33 -498l-4 11q48 26 75 56.5t42.5 86t15.5 143.5v953q0 93 -90 151v4l192 107l-4 -1186q0 -162 -54 -237t-173 -89z" />
    <glyph glyph-name="circumflex" unicode="&#x2c6;" horiz-adv-x="921" 
d="M733 1106l-272 227l-264 -227l-15 12l275 355h8l283 -355z" />
    <glyph glyph-name="caron" unicode="&#x2c7;" horiz-adv-x="921" 
d="M457 1106l-275 354l15 13l264 -228l272 228l15 -13l-283 -354h-8z" />
    <glyph glyph-name="breve" unicode="&#x2d8;" horiz-adv-x="921" 
d="M459 1257q91 0 151 43t84 119h17q-2 -32 -9.5 -63t-26 -66t-45.5 -61t-72 -43t-101 -17q-54 0 -97.5 17t-70 43t-44.5 61t-25.5 66t-10.5 63h16q55 -162 234 -162z" />
    <glyph glyph-name="dotaccent" unicode="&#x2d9;" horiz-adv-x="921" 
d="M545 1350q0 -35 -24.5 -59.5t-59.5 -24.5q-34 0 -59 24.5t-25 59.5t25 59.5t59 24.5q35 0 59.5 -24.5t24.5 -59.5z" />
    <glyph glyph-name="ring" unicode="&#x2da;" horiz-adv-x="614" 
d="M135 1339q0 75 48.5 124.5t123.5 49.5t123.5 -49.5t48.5 -124.5t-48.5 -122.5t-123.5 -47.5t-123.5 47.5t-48.5 122.5zM193 1339q0 -63 29 -99t85 -36t85.5 36t29.5 99q0 64 -29 102t-86 38t-85.5 -38t-28.5 -102z" />
    <glyph glyph-name="ogonek" unicode="&#x2db;" horiz-adv-x="614" 
d="M344 2h45q-99 -74 -153 -156t-54 -161q0 -64 34.5 -95.5t96.5 -31.5q109 0 205 112l17 -12q-110 -166 -265 -166q-88 0 -135 44t-47 120q0 46 17.5 89.5t55 87t78.5 81t105 88.5z" />
    <glyph glyph-name="tilde" unicode="&#x2dc;" horiz-adv-x="921" 
d="M328 1397q55 0 142 -45t146 -45q53 0 82 26.5t43 83.5l17 -2q-2 -32 -9 -62t-23.5 -64.5t-50 -55.5t-81.5 -21q-55 0 -142.5 45.5t-146.5 45.5q-53 0 -82 -27t-43 -84l-16 2q2 32 9 62t23.5 64.5t50 55.5t81.5 21z" />
    <glyph glyph-name="hungarumlaut" unicode="&#x2dd;" horiz-adv-x="919" 
d="M453 1122l231 371l80 -74l-297 -311zM162 1122l231 371l80 -74l-297 -311z" />
    <glyph glyph-name="Wgrave" unicode="&#x1e80;" horiz-adv-x="1943" 
d="M582 -18h-56l-385 1288q-34 112 -53.5 151t-67.5 74v4h285v-4q-1 -2 -10 -13t-12 -15.5t-11.5 -16.5t-11 -20.5t-8 -22.5t-6 -28t-0.5 -32t3.5 -38t10.5 -43l328 -1102l348 975l-45 131q-36 106 -60.5 147.5t-74.5 77.5v4h301v-4l-13 -12q-12 -12 -14.5 -15t-13 -15.5
t-12.5 -20t-8.5 -22t-6 -28t0.5 -32t5 -39.5t13 -45l381 -1112l309 1044q46 179 -47 297v4h272v-4q-70 -53 -104 -111.5t-72 -185.5l-363 -1216h-55l-368 1085zM1092 1616l-9 -14l-473 251l76 111z" />
    <glyph glyph-name="wgrave" unicode="&#x1e81;" horiz-adv-x="1302" 
d="M389 -12h-12l-244 774q-50 160 -113 207v4h230v-4q-10 -13 -17 -39t-5.5 -69t14.5 -89l174 -602l217 590v2q-32 91 -55.5 139t-55.5 68v4h219v-4q-10 -13 -15 -39t0 -75t24 -107l188 -576l180 565q30 92 24 147.5t-52 84.5v4h202v-4q-46 -34 -69.5 -75.5t-55.5 -137.5
l-252 -768h-12l-250 717zM762 1104l-14 -12l-353 364l101 78z" />
    <glyph glyph-name="Wacute" unicode="&#x1e82;" horiz-adv-x="1943" 
d="M582 -18h-56l-385 1288q-34 112 -53.5 151t-67.5 74v4h285v-4q-1 -2 -10 -13t-12 -15.5t-11.5 -16.5t-11 -20.5t-8 -22.5t-6 -28t-0.5 -32t3.5 -38t10.5 -43l328 -1102l348 975l-45 131q-36 106 -60.5 147.5t-74.5 77.5v4h301v-4l-13 -12q-12 -12 -14.5 -15t-13 -15.5
t-12.5 -20t-8.5 -22t-6 -28t0.5 -32t5 -39.5t13 -45l381 -1112l309 1044q46 179 -47 297v4h272v-4q-70 -53 -104 -111.5t-72 -185.5l-363 -1216h-55l-368 1085zM725 1616l405 348l68 -111l-465 -251z" />
    <glyph glyph-name="wacute" unicode="&#x1e83;" horiz-adv-x="1302" 
d="M389 -12h-12l-244 774q-50 160 -113 207v4h230v-4q-10 -13 -17 -39t-5.5 -69t14.5 -89l174 -602l217 590v2q-32 91 -55.5 139t-55.5 68v4h219v-4q-10 -13 -15 -39t0 -75t24 -107l188 -576l180 565q30 92 24 147.5t-52 84.5v4h202v-4q-46 -34 -69.5 -75.5t-55.5 -137.5
l-252 -768h-12l-250 717zM547 1104l266 430l100 -78l-352 -364z" />
    <glyph glyph-name="Wdieresis" unicode="&#x1e84;" horiz-adv-x="1943" 
d="M582 -18h-56l-385 1288q-34 112 -53.5 151t-67.5 74v4h285v-4q-1 -2 -10 -13t-12 -15.5t-11.5 -16.5t-11 -20.5t-8 -22.5t-6 -28t-0.5 -32t3.5 -38t10.5 -43l328 -1102l348 975l-45 131q-36 106 -60.5 147.5t-74.5 77.5v4h301v-4l-13 -12q-12 -12 -14.5 -15t-13 -15.5
t-12.5 -20t-8.5 -22t-6 -28t0.5 -32t5 -39.5t13 -45l381 -1112l309 1044q46 179 -47 297v4h272v-4q-70 -53 -104 -111.5t-72 -185.5l-363 -1216h-55l-368 1085zM1262 1778q0 -35 -24.5 -59.5t-59.5 -24.5q-34 0 -59 24.5t-25 59.5t25 59.5t59 24.5q35 0 59.5 -24.5
t24.5 -59.5zM729 1778q0 -35 -24.5 -59.5t-59.5 -24.5q-34 0 -59 24.5t-25 59.5t25 59.5t59 24.5q35 0 59.5 -24.5t24.5 -59.5z" />
    <glyph glyph-name="wdieresis" unicode="&#x1e85;" horiz-adv-x="1302" 
d="M389 -12h-12l-244 774q-50 160 -113 207v4h230v-4q-10 -13 -17 -39t-5.5 -69t14.5 -89l174 -602l217 590v2q-32 91 -55.5 139t-55.5 68v4h219v-4q-10 -13 -15 -39t0 -75t24 -107l188 -576l180 565q30 92 24 147.5t-52 84.5v4h202v-4q-46 -34 -69.5 -75.5t-55.5 -137.5
l-252 -768h-12l-250 717zM961 1350q0 -35 -24.5 -59.5t-59.5 -24.5q-34 0 -59 24.5t-25 59.5t25 59.5t59 24.5q35 0 59.5 -24.5t24.5 -59.5zM551 1350q0 -35 -24.5 -59.5t-59.5 -24.5q-34 0 -59 24.5t-25 59.5t25 59.5t59 24.5q35 0 59.5 -24.5t24.5 -59.5z" />
    <glyph glyph-name="Ygrave" unicode="&#x1ef2;" horiz-adv-x="1167" 
d="M440 0v4q49 55 65.5 98t16.5 115v483l-346 596q-47 81 -85 125t-91 74v4h317v-4q-48 -23 -51.5 -73.5t33.5 -112.5l319 -553l277 463q44 74 53 128.5t-6.5 86.5t-52.5 61v4h278v-4q-18 -11 -32.5 -22t-29 -24.5t-24 -22.5t-23.5 -27t-20.5 -27t-22 -33t-21.5 -34
t-25 -41.5t-27 -44.5l-309 -514v-488q0 -74 16 -116t66 -97v-4h-275zM788 1616l-8 -14l-473 251l76 111z" />
    <glyph glyph-name="ygrave" unicode="&#x1ef3;" horiz-adv-x="843" 
d="M45 -461l-4 113q31 1 69.5 12.5t85 36.5t89 74.5t67.5 115.5l51 134l-282 735q-36 94 -60.5 137.5t-60.5 71.5v4h240v-4q-34 -31 -38 -77.5t27 -135.5l226 -598l221 581q34 91 28 146t-53 84v4h203v-4q-46 -34 -70 -74.5t-61 -138.5l-354 -922q-57 -147 -134.5 -215
t-189.5 -80zM547 1104l-15 -12l-352 364l101 78z" />
    <glyph glyph-name="endash" unicode="&#x2013;" horiz-adv-x="1003" 
d="M942 555h-881v37h881v-37z" />
    <glyph glyph-name="emdash" unicode="&#x2014;" horiz-adv-x="1515" 
d="M1454 555h-1393v37h1393v-37z" />
    <glyph glyph-name="quoteleft" unicode="&#x2018;" horiz-adv-x="425" 
d="M315 1546l13 -12q-107 -123 -107 -209q0 -53 78 -123v-4l-104 -84q-32 23 -52 56t-20 67q0 48 18 94.5t51 87.5t59.5 68t63.5 59z" />
    <glyph glyph-name="quoteright" unicode="&#x2019;" horiz-adv-x="425" 
d="M111 1114l-13 12q107 123 107 209q0 53 -78 123v4l104 84q32 -23 52 -56t20 -67q0 -48 -18 -94.5t-51 -87.5t-59.5 -68t-63.5 -59z" />
    <glyph glyph-name="quotesinglbase" unicode="&#x201a;" horiz-adv-x="425" 
d="M111 -176l-13 12q107 123 107 209q0 53 -78 123v4l104 84q32 -23 52 -56t20 -67q0 -48 -18 -94.5t-51 -87.5t-59.5 -68t-63.5 -59z" />
    <glyph glyph-name="quotedblleft" unicode="&#x201c;" horiz-adv-x="692" 
d="M315 1546l13 -12q-107 -123 -107 -209q0 -53 78 -123v-4l-104 -84q-32 23 -52 56t-20 67q0 48 18 94.5t51 87.5t59.5 68t63.5 59zM582 1546l12 -12q-107 -123 -107 -209q0 -53 78 -123v-4l-104 -84q-32 23 -52 56t-20 67q0 48 18 94.5t51.5 88t60 68t63.5 58.5z" />
    <glyph glyph-name="quotedblright" unicode="&#x201d;" horiz-adv-x="712" 
d="M397 1114l-12 12q107 123 107 209q0 53 -78 123v4l104 84q32 -23 52 -56t20 -67q0 -48 -18 -94.5t-51.5 -88t-60 -68t-63.5 -58.5zM111 1114l-13 12q107 123 107 209q0 53 -78 123v4l104 84q32 -23 52 -56t20 -67q0 -48 -18 -94.5t-51 -87.5t-59.5 -68t-63.5 -59z" />
    <glyph glyph-name="quotedblbase" unicode="&#x201e;" horiz-adv-x="712" 
d="M111 -176l-13 12q107 123 107 209q0 53 -78 123v4l104 84q32 -23 52 -56t20 -67q0 -48 -18 -94.5t-51 -87.5t-59.5 -68t-63.5 -59zM397 -176l-12 12q107 123 107 209q0 53 -78 123v4l104 84q32 -23 52 -56t20 -67q0 -48 -18 -94.5t-51.5 -88t-60 -68t-63.5 -58.5z" />
    <glyph glyph-name="dagger" unicode="&#x2020;" horiz-adv-x="851" 
d="M481 537l-37 -537h-36l-37 537l45 524l-334 -47v119l332 -48l-54 414h132l-54 -414l332 48v-119l-334 47z" />
    <glyph glyph-name="daggerdbl" unicode="&#x2021;" horiz-adv-x="851" 
d="M770 367l-332 47l54 -414h-132l54 414l-332 -47v118l332 -47l-37 312l37 311l-332 -47v119l332 -48l-54 414h132l-54 -414l332 48v-119l-332 47l37 -311l-37 -312l332 47v-118z" />
    <glyph glyph-name="bullet" unicode="&#x2022;" horiz-adv-x="487" 
d="M244 432q-62 0 -107 45.5t-45 106.5q0 64 44.5 109.5t107.5 45.5q62 0 106.5 -45.5t44.5 -109.5q0 -60 -45 -106t-106 -46z" />
    <glyph glyph-name="ellipsis" unicode="&#x2026;" horiz-adv-x="1429" 
d="M203 -6q-39 0 -68 28.5t-29 67.5t29 67.5t68 28.5q40 0 68 -28t28 -68t-28 -68t-68 -28zM715 -6q-39 0 -68 28.5t-29 67.5t29 67.5t68 28.5q40 0 68 -28t28 -68t-28 -68t-68 -28zM1227 -6q-39 0 -68 28.5t-29 67.5t29 67.5t68 28.5q40 0 68 -28t28 -68t-28 -68t-68 -28z
" />
    <glyph glyph-name="perthousand" unicode="&#x2030;" horiz-adv-x="2338" 
d="M379 709q-133 0 -225.5 118.5t-92.5 292.5q0 173 92 291.5t226 118.5q135 0 228 -118.5t93 -291.5q0 -174 -93.5 -292.5t-227.5 -118.5zM379 739q205 0 205 381q0 379 -205 379q-71 0 -117 -51t-65 -133t-19 -195q0 -114 19 -196.5t65 -133.5t117 -51zM1194 -16
q-133 0 -225 118.5t-92 292.5q0 173 91.5 291.5t225.5 118.5q135 0 228.5 -118.5t93.5 -291.5q0 -174 -94 -292.5t-228 -118.5zM1956 -16q-133 0 -225.5 118.5t-92.5 292.5q0 173 92 291.5t226 118.5q135 0 228 -118.5t93 -291.5q0 -174 -93.5 -292.5t-227.5 -118.5z
M1194 14q205 0 205 381q0 379 -205 379q-71 0 -117 -51t-65 -133t-19 -195q0 -114 19 -196.5t65 -133.5t117 -51zM1956 14q205 0 205 381q0 379 -205 379q-71 0 -117 -51t-65 -133t-19 -195q0 -114 19 -196.5t65 -133.5t117 -51zM287 2l-33 27l1067 1493l35 -23z" />
    <glyph glyph-name="guilsinglleft" unicode="&#x2039;" horiz-adv-x="514" 
d="M401 119l-16 -13l-283 359v41l283 358l16 -12l-186 -367z" />
    <glyph glyph-name="guilsinglright" unicode="&#x203a;" horiz-adv-x="514" 
d="M129 106l-16 13l186 366l-186 367l16 12l283 -358v-41z" />
    <glyph glyph-name="fraction" unicode="&#x2044;" horiz-adv-x="569" 
d="M-233 2l-33 27l1067 1493l35 -23z" />
    <glyph glyph-name="Euro" unicode="&#x20ac;" horiz-adv-x="1427" 
d="M1284 129q-60 -56 -185.5 -108t-264.5 -52q-259 0 -425 174t-204 453h-195v37h191q-6 58 -6 119q0 58 6 114h-191v37h195q21 135 77.5 249.5t142.5 198.5t205 131.5t257 47.5q106 0 211.5 -31.5t177.5 -71.5l41 -288l-17 -4q-81 187 -181.5 270.5t-239.5 83.5
q-236 0 -373 -158.5t-168 -427.5h514v-37h-518q-4 -74 -4 -114q0 -41 4 -119h518v-37h-514q29 -268 157 -427t347 -159q92 0 165.5 28.5t129 86.5t97 136t75.5 185l16 -4z" />
    <glyph glyph-name="trademark" unicode="&#x2122;" horiz-adv-x="1533" 
d="M457 829v-4h-164v4q23 29 30 49.5t7 59.5v537l-101 -5q-12 0 -26.5 -10t-31 -29.5t-29.5 -37t-31.5 -44.5t-28.5 -40l-10 4l41 186h524l41 -186l-10 -4q-8 11 -29 40t-33 45t-29.5 36.5t-31.5 30t-25 9.5l-100 5v-537q0 -37 7.5 -58t29.5 -51zM883 829v-4h-150v4
q31 36 40 58.5t9 66.5v435q0 41 -10.5 61t-44.5 45v4h139l230 -528l235 528h131v-4q-34 -23 -44.5 -45t-10.5 -66v-442q0 -40 7 -61t30 -52v-4h-164v4q23 31 30 52t7 61v453l-246 -551h-14l-242 553v-443q0 -42 13 -65t55 -60z" />
    <glyph glyph-name="onethird" unicode="&#x2153;" horiz-adv-x="1368" 
d="M313 725h-217v2q35 41 46.5 72.5t11.5 87.5v469h-99v8q104 58 189 160h10v-637q0 -57 11 -88t48 -72v-2zM121 2l-33 27l1067 1493l35 -23zM1038 -16q-58 0 -113.5 13t-88.5 34l-27 170l10 2q62 -100 109.5 -144.5t120.5 -44.5q89 0 132.5 64.5t43.5 167.5q0 211 -187 211
q-79 0 -141 -45l-14 18l301 268h-332l29 88h436v-10l-332 -295q42 11 78 11q111 0 186.5 -64.5t75.5 -181.5q0 -118 -79.5 -190t-207.5 -72z" />
    <glyph glyph-name="twothirds" unicode="&#x2154;" horiz-adv-x="1492" 
d="M506 725h-477v14q228 192 316.5 320.5t88.5 253.5q0 88 -41.5 137t-116.5 49q-66 0 -107.5 -45.5t-90.5 -142.5l-10 4l24 180q98 35 187 35q130 0 193 -58t63 -155q0 -79 -46 -160.5t-125.5 -161t-211.5 -184.5h215q67 0 108.5 35t85.5 110l10 -4zM256 2l-33 27
l1067 1493l35 -23zM1163 -16q-58 0 -113.5 13t-88.5 34l-27 170l10 2q62 -100 109.5 -144.5t120.5 -44.5q89 0 132.5 64.5t43.5 167.5q0 211 -187 211q-79 0 -141 -45l-14 18l301 268h-332l29 88h436v-10l-332 -295q42 11 78 11q111 0 186.5 -64.5t75.5 -181.5
q0 -118 -79.5 -190t-207.5 -72z" />
    <glyph glyph-name="oneeighth" unicode="&#x215b;" horiz-adv-x="1267" 
d="M971 -16q-105 0 -177.5 53.5t-72.5 146.5q0 73 46.5 129.5t139.5 83.5q-147 75 -147 195q0 95 61.5 154t157.5 59q90 0 151.5 -50.5t61.5 -133.5q0 -58 -36 -109t-120 -76q195 -87 195 -229q0 -100 -74 -161.5t-186 -61.5zM973 14q83 0 132.5 41.5t49.5 112.5
q0 68 -49.5 113.5t-171.5 103.5q-139 -67 -139 -201q0 -82 47.5 -126t130.5 -44zM313 725h-217v2q35 41 46.5 72.5t11.5 87.5v469h-99v8q104 58 189 160h10v-637q0 -57 11 -88t48 -72v-2zM100 2l-32 27l1067 1493l34 -23zM831 641q0 -64 43 -106t140 -86q104 62 104 172
q0 73 -38 113t-103 40q-64 0 -105 -37t-41 -96z" />
    <glyph glyph-name="threeeighths" unicode="&#x215c;" horiz-adv-x="1392" 
d="M1096 -16q-105 0 -177.5 53.5t-72.5 146.5q0 73 46.5 129.5t139.5 83.5q-147 75 -147 195q0 95 61.5 154t157.5 59q90 0 151.5 -50.5t61.5 -133.5q0 -58 -36 -109t-120 -76q195 -87 195 -229q0 -100 -74 -161.5t-186 -61.5zM285 709q-58 0 -114 13t-89 34l-27 170l11 2
q62 -100 109 -144.5t120 -44.5q89 0 132.5 64.5t43.5 167.5q0 211 -186 211q-80 0 -142 -45l-14 18l301 268h-332l29 88h436v-10l-332 -295q42 11 78 11q111 0 186.5 -64.5t75.5 -181.5q0 -118 -79 -190t-207 -72zM1098 14q83 0 132.5 41.5t49.5 112.5q0 68 -49.5 113.5
t-171.5 103.5q-139 -67 -139 -201q0 -82 47.5 -126t130.5 -44zM225 2l-32 27l1067 1493l34 -23zM956 641q0 -64 43 -106t140 -86q104 62 104 172q0 73 -38 113t-103 40q-64 0 -105 -37t-41 -96z" />
    <glyph glyph-name="fiveeighths" unicode="&#x215d;" horiz-adv-x="1386" 
d="M1090 -16q-105 0 -177.5 53.5t-72.5 146.5q0 73 46.5 129.5t139.5 83.5q-147 75 -147 195q0 95 61.5 154t157.5 59q90 0 151.5 -50.5t61.5 -133.5q0 -58 -36 -109t-120 -76q195 -87 195 -229q0 -100 -74 -161.5t-186 -61.5zM262 709q-117 0 -188 47l-25 164l10 2
q52 -93 99.5 -138t115.5 -45q79 0 128 57t49 167q0 115 -53.5 178t-149.5 63q-84 0 -135 -51l-15 10l60 350h379l-17 -86h-344l-39 -231q55 41 139 41q115 0 194 -70t79 -196q0 -124 -79.5 -193t-207.5 -69zM1092 14q83 0 132.5 41.5t49.5 112.5q0 68 -49.5 113.5
t-171.5 103.5q-140 -67 -140 -201q0 -82 48 -126t131 -44zM219 2l-33 27l1067 1493l35 -23zM950 641q0 -64 43 -106t140 -86q104 62 104 172q0 73 -38 113t-103 40q-64 0 -105 -37t-41 -96z" />
    <glyph glyph-name="seveneighths" unicode="&#x215e;" horiz-adv-x="1269" 
d="M973 -16q-105 0 -177.5 53.5t-72.5 146.5q0 73 46.5 129.5t139.5 83.5q-147 75 -147 195q0 95 61.5 154t157.5 59q90 0 151.5 -50.5t61.5 -133.5q0 -58 -36 -109t-120 -76q195 -87 195 -229q0 -100 -74 -161.5t-186 -61.5zM975 14q83 0 132.5 41.5t49.5 112.5
q0 68 -49.5 113.5t-171.5 103.5q-139 -67 -139 -201q0 -82 47.5 -126t130.5 -44zM254 725h-109q106 390 340 702h-403l16 86h473v-10q-247 -377 -317 -778zM102 2l-32 27l1067 1493l34 -23zM834 641q0 -64 42.5 -106t139.5 -86q104 62 104 172q0 73 -38 113t-103 40
q-64 0 -104.5 -37t-40.5 -96z" />
    <glyph glyph-name="minus" unicode="&#x2212;" horiz-adv-x="1089" 
d="M997 610h-905v41h905v-41z" />
    <glyph glyph-name="uni24C5" unicode="&#x24c5;" horiz-adv-x="1726" 
d="M82 752q0 160 62 304.5t166.5 248t248.5 164.5t303 61t304 -61t250 -164.5t167 -248t62 -304.5q0 -161 -62.5 -306t-167.5 -249t-249.5 -165t-303.5 -61t-303 61t-248.5 165t-166.5 249t-62 306zM133 752q0 -151 57.5 -288t155.5 -236t232.5 -157.5t283.5 -58.5
t283.5 58.5t232.5 157.5t155.5 236t57.5 288t-57.5 287.5t-155.5 235t-232.5 156.5t-283.5 58t-283.5 -58t-232.5 -156.5t-155.5 -235t-57.5 -287.5zM631 313v4q27 33 36 59.5t9 72.5v555q0 46 -8.5 72t-36.5 59v4h266q252 0 252 -230q0 -122 -71.5 -190t-198.5 -68h-131
v-202q0 -47 8 -73t35 -59v-4h-160zM879 1104q-51 0 -131 -2v-414h131q98 0 146 60.5t48 160.5q0 110 -52.5 152.5t-141.5 42.5z" />
    <glyph glyph-name="idotaccent" horiz-adv-x="403" 
d="M285 1350q0 -35 -24.5 -59.5t-59.5 -24.5q-34 0 -59 24.5t-25 59.5t25 59.5t59 24.5q35 0 59.5 -24.5t24.5 -59.5zM111 0v4q27 50 36 103t9 137v508q0 93 -90 151v4l192 107v-768q0 -94 7.5 -144t37.5 -98v-4h-192z" />
    <glyph glyph-name="space_uni0326" horiz-adv-x="921" 
d="M367 -459l-9 13q42 33 71.5 74t29.5 75q0 29 -20 63.5t-48 57.5v4l98 74q66 -46 66 -125q0 -113 -188 -236z" />
    <glyph glyph-name="five.num" horiz-adv-x="587" 
d="M252 709q-118 0 -189 47l-24 164l10 2q52 -93 99.5 -138t115.5 -45q79 0 127.5 57t48.5 167q0 115 -53 178t-149 63q-85 0 -136 -51l-14 10l59 350h379l-16 -86h-344l-39 -231q55 41 139 41q115 0 194 -70t79 -196q0 -124 -79.5 -193t-207.5 -69z" />
    <glyph glyph-name="zero.num" horiz-adv-x="733" 
d="M367 709q-133 0 -225.5 118.5t-92.5 292.5q0 173 92 291.5t226 118.5q135 0 228 -118.5t93 -291.5q0 -174 -93.5 -292.5t-227.5 -118.5zM367 739q204 0 204 381q0 379 -204 379q-71 0 -117 -51t-65 -133t-19 -195q0 -114 19 -196.5t65 -133.5t117 -51z" />
    <glyph glyph-name="one.num" horiz-adv-x="372" 
d="M303 725h-217v2q35 41 46 72.5t11 87.5v469h-98v8q102 57 188 160h11v-637q0 -57 11 -88t48 -72v-2z" />
    <glyph glyph-name="two.num" horiz-adv-x="620" 
d="M496 725h-478v14q228 192 317 320.5t89 253.5q0 88 -41.5 137t-116.5 49q-66 0 -107.5 -45.5t-90.5 -142.5l-11 4l25 180q98 35 186 35q130 0 193 -58t63 -155q0 -79 -46 -160.5t-125.5 -161t-211.5 -184.5h215q68 0 109.5 35t85.5 110l10 -4z" />
    <glyph glyph-name="three.num" horiz-adv-x="606" 
d="M274 709q-58 0 -113.5 13t-88.5 34l-27 170l10 2q62 -100 109.5 -144.5t120.5 -44.5q89 0 132.5 64.5t43.5 167.5q0 211 -187 211q-79 0 -141 -45l-14 18l301 268h-332l29 88h436v-10l-332 -295q42 11 78 11q111 0 186.5 -64.5t75.5 -181.5q0 -118 -79.5 -190t-207.5 -72
z" />
    <glyph glyph-name="four.num" horiz-adv-x="626" 
d="M336 725v2q28 42 37.5 73.5t9.5 86.5v43h-354v14l368 569h117l-438 -550h307v258h98v-258h101l-9 -33h-92v-43q0 -55 10 -86t39 -74v-2h-194z" />
    <glyph glyph-name="six.num" horiz-adv-x="653" 
d="M330 709q-125 0 -201 86t-76 231q0 76 22.5 146.5t70.5 138t132 124.5t197 95l8 -21q-119 -51 -195.5 -145t-109.5 -209q24 41 70.5 67.5t111.5 26.5q104 0 174 -70t70 -186q0 -124 -79 -204t-195 -80zM330 739q77 0 123.5 63t46.5 175q0 113 -46 167t-126 54
q-53 0 -97 -23.5t-65 -70.5q-10 -58 -10 -105q0 -108 45 -184t129 -76z" />
    <glyph glyph-name="seven.num" horiz-adv-x="546" 
d="M221 725h-108q106 390 340 702h-404l17 86h473v-10q-248 -379 -318 -778z" />
    <glyph glyph-name="eight.num" horiz-adv-x="587" 
d="M289 709q-105 0 -177.5 53.5t-72.5 146.5q0 73 46.5 129.5t139.5 83.5q-147 75 -147 195q0 95 61.5 154t157.5 59q90 0 151.5 -50.5t61.5 -133.5q0 -58 -36 -109t-120 -76q195 -87 195 -229q0 -100 -74 -161.5t-186 -61.5zM291 739q83 0 132.5 41.5t49.5 112.5
q0 68 -49.5 113.5t-171.5 103.5q-139 -67 -139 -201q0 -82 47.5 -126t130.5 -44zM150 1366q0 -64 42.5 -106t139.5 -86q104 62 104 172q0 73 -38 113t-103 40q-64 0 -104.5 -37t-40.5 -96z" />
    <glyph glyph-name="nine.num" horiz-adv-x="653" 
d="M158 729q120 51 197 146t108 210q-24 -42 -70.5 -69t-111.5 -27q-104 0 -174 70t-70 186q0 124 79 204.5t195 80.5q125 0 201 -86.5t76 -231.5q0 -76 -22.5 -146.5t-70.5 -138t-132 -124t-197 -94.5zM313 1040q53 0 97 24t65 71q10 58 10 104q0 108 -45 184t-129 76
q-77 0 -123.5 -62.5t-46.5 -174.5q0 -113 46 -167.5t126 -54.5z" />
    <glyph glyph-name="five.den" horiz-adv-x="587" 
d="M252 -16q-118 0 -189 47l-24 164l10 2q52 -93 99.5 -138t115.5 -45q79 0 127.5 57t48.5 167q0 115 -53 178t-149 63q-85 0 -136 -51l-14 10l59 350h379l-16 -86h-344l-39 -231q55 41 139 41q115 0 194 -70t79 -196q0 -124 -79.5 -193t-207.5 -69z" />
    <glyph glyph-name="zero.den" horiz-adv-x="729" 
d="M362 -16q-133 0 -225 118.5t-92 292.5q0 173 91.5 291.5t225.5 118.5q135 0 228.5 -118.5t93.5 -291.5q0 -174 -94 -292.5t-228 -118.5zM362 14q205 0 205 381q0 379 -205 379q-71 0 -117 -51t-64.5 -132.5t-18.5 -195.5q0 -115 18.5 -197t64.5 -133t117 -51z" />
    <glyph glyph-name="one.den" horiz-adv-x="372" 
d="M303 0h-217v2q35 41 46 72.5t11 87.5v469h-98v8q102 57 188 160h11v-637q0 -57 11 -88t48 -72v-2z" />
    <glyph glyph-name="two.den" horiz-adv-x="620" 
d="M496 0h-478v14q228 192 317 320.5t89 253.5q0 88 -41.5 137t-116.5 49q-66 0 -107.5 -45.5t-90.5 -142.5l-11 4l25 180q98 35 186 35q130 0 193 -58t63 -155q0 -79 -46 -160.5t-125.5 -161t-211.5 -184.5h215q68 0 109.5 35t85.5 110l10 -4z" />
    <glyph glyph-name="three.den" horiz-adv-x="606" 
d="M274 -16q-58 0 -113.5 13t-88.5 34l-27 170l10 2q62 -100 109.5 -144.5t120.5 -44.5q89 0 132.5 64.5t43.5 167.5q0 211 -187 211q-79 0 -141 -45l-14 18l301 268h-332l29 88h436v-10l-332 -295q42 11 78 11q111 0 186.5 -64.5t75.5 -181.5q0 -118 -79.5 -190t-207.5 -72
z" />
    <glyph glyph-name="four.den" horiz-adv-x="626" 
d="M336 0v2q28 42 37.5 73.5t9.5 86.5v43h-354v14l368 569h117l-438 -550h307v258h98v-258h101l-9 -33h-92v-43q0 -55 10 -86t39 -74v-2h-194z" />
    <glyph glyph-name="six.den" horiz-adv-x="653" 
d="M330 -16q-125 0 -201 86t-76 231q0 76 22.5 146.5t70.5 138t132 124.5t197 95l8 -21q-119 -51 -195.5 -145t-109.5 -209q24 41 70.5 67.5t111.5 26.5q104 0 174 -70t70 -186q0 -124 -79 -204t-195 -80zM330 14q77 0 123.5 63t46.5 175q0 113 -46 167t-126 54
q-53 0 -97 -23.5t-65 -70.5q-10 -58 -10 -105q0 -108 45 -184t129 -76z" />
    <glyph glyph-name="seven.den" horiz-adv-x="546" 
d="M221 0h-108q106 390 340 702h-404l17 86h473v-10q-248 -379 -318 -778z" />
    <glyph glyph-name="eight.den" horiz-adv-x="587" 
d="M289 -16q-105 0 -177.5 53.5t-72.5 146.5q0 73 46.5 129.5t139.5 83.5q-147 75 -147 195q0 95 61.5 154t157.5 59q90 0 151.5 -50.5t61.5 -133.5q0 -58 -36 -109t-120 -76q195 -87 195 -229q0 -100 -74 -161.5t-186 -61.5zM291 14q83 0 132.5 41.5t49.5 112.5
q0 68 -49.5 113.5t-171.5 103.5q-139 -67 -139 -201q0 -82 47.5 -126t130.5 -44zM150 641q0 -64 42.5 -106t139.5 -86q104 62 104 172q0 73 -38 113t-103 40q-64 0 -104.5 -37t-40.5 -96z" />
    <glyph glyph-name="nine.den" horiz-adv-x="653" 
d="M158 4q120 51 197 146t108 210q-24 -42 -70.5 -69t-111.5 -27q-104 0 -174 70t-70 186q0 124 79 204.5t195 80.5q125 0 201 -86.5t76 -231.5q0 -76 -22.5 -146.5t-70.5 -138t-132 -124t-197 -94.5zM313 315q53 0 97 24t65 71q10 58 10 104q0 108 -45 184t-129 76
q-77 0 -123.5 -62.5t-46.5 -174.5q0 -113 46 -167.5t126 -54.5z" />
    <glyph glyph-name="five.sub" horiz-adv-x="587" 
d="M252 -180q-118 0 -189 47l-24 164l10 2q52 -93 99.5 -138t115.5 -45q79 0 127.5 57t48.5 167q0 115 -53 178t-149 63q-85 0 -136 -51l-14 10l59 351h379l-16 -86h-344l-39 -232q55 41 139 41q115 0 194 -70t79 -196q0 -124 -79.5 -193t-207.5 -69z" />
    <glyph glyph-name="zero.sub" horiz-adv-x="733" 
d="M367 -180q-133 0 -225.5 118.5t-92.5 292.5q0 173 92 291.5t226 118.5q135 0 228 -118.5t93 -291.5q0 -174 -93.5 -292.5t-227.5 -118.5zM367 -150q204 0 204 381q0 379 -204 379q-71 0 -117 -51t-65 -133t-19 -195q0 -114 19 -196.5t65 -133.5t117 -51z" />
    <glyph glyph-name="one.sub" horiz-adv-x="372" 
d="M303 -164h-217v2q35 41 46 72.5t11 87.5v469h-98v8q102 57 188 160h11v-637q0 -57 11 -88t48 -72v-2z" />
    <glyph glyph-name="two.sub" horiz-adv-x="620" 
d="M496 -164h-478v14q228 192 317 320.5t89 253.5q0 88 -41.5 137t-116.5 49q-66 0 -107.5 -45.5t-90.5 -142.5l-11 4l25 180q98 35 186 35q130 0 193 -58t63 -155q0 -79 -46 -160.5t-125.5 -161t-211.5 -184.5h215q67 0 109 35.5t86 110.5l10 -5z" />
    <glyph glyph-name="three.sub" horiz-adv-x="606" 
d="M274 -180q-58 0 -113.5 13t-88.5 34l-27 170l10 2q62 -100 109.5 -144.5t120.5 -44.5q89 0 132.5 64.5t43.5 167.5q0 211 -187 211q-79 0 -141 -45l-14 18l301 269h-332l29 88h436v-11l-332 -295q42 11 78 11q111 0 186.5 -64.5t75.5 -181.5q0 -118 -79.5 -190
t-207.5 -72z" />
    <glyph glyph-name="four.sub" horiz-adv-x="626" 
d="M336 -164v2q28 42 37.5 73.5t9.5 86.5v43h-354v14l368 570h117l-438 -551h307v258h98v-258h101l-9 -33h-92v-43q0 -55 10 -86t39 -74v-2h-194z" />
    <glyph glyph-name="six.sub" horiz-adv-x="653" 
d="M330 -180q-125 0 -201 86t-76 231q0 76 22.5 146.5t70.5 138t132 124.5t197 95l8 -20q-119 -51 -195.5 -145.5t-109.5 -209.5q24 41 70.5 67.5t111.5 26.5q104 0 174 -70t70 -186q0 -124 -79 -204t-195 -80zM330 -150q77 0 123.5 63t46.5 175q0 113 -46 167t-126 54
q-53 0 -97 -23.5t-65 -70.5q-10 -58 -10 -104q0 -108 45 -184.5t129 -76.5z" />
    <glyph glyph-name="seven.sub" horiz-adv-x="546" 
d="M221 -164h-108q106 392 340 703h-404l17 86h473v-11q-248 -379 -318 -778z" />
    <glyph glyph-name="eight.sub" horiz-adv-x="587" 
d="M289 -180q-105 0 -177.5 53.5t-72.5 146.5q0 73 46.5 129.5t139.5 83.5q-147 75 -147 195q0 95 61.5 154t157.5 59q90 0 151.5 -50.5t61.5 -133.5q0 -58 -36 -109t-120 -76q195 -87 195 -229q0 -100 -74 -161.5t-186 -61.5zM291 -150q83 0 132.5 41.5t49.5 112.5
q0 68 -49.5 113.5t-171.5 103.5q-139 -67 -139 -201q0 -82 47.5 -126t130.5 -44zM150 477q0 -64 42.5 -106t139.5 -86q104 62 104 172q0 73 -38 113t-103 40q-64 0 -104.5 -37t-40.5 -96z" />
    <glyph glyph-name="nine.sub" horiz-adv-x="653" 
d="M311 641q125 0 201 -86t76 -231q0 -76 -22.5 -146.5t-70.5 -138t-132 -124.5t-197 -95l-8 20q119 51 195.5 145.5t109.5 209.5q-24 -41 -71 -68t-111 -27q-104 0 -174 70t-70 186q0 124 79 204.5t195 80.5zM311 610q-77 0 -123.5 -62.5t-46.5 -174.5q0 -113 46 -167
t126 -54q53 0 97 23.5t65 70.5q10 58 10 104q0 108 -45 184t-129 76z" />
    <glyph glyph-name="plus.sub" horiz-adv-x="645" 
d="M594 217h-252v-252h-41v252h-250v37h250v252h41v-252h252v-37z" />
    <glyph glyph-name="minus.sub" horiz-adv-x="645" 
d="M594 217h-543v37h543v-37z" />
    <glyph glyph-name="five.sup" horiz-adv-x="587" 
d="M252 872q-116 0 -189 48l-24 163l10 2q52 -92 99.5 -137t115.5 -45q79 0 127.5 56.5t48.5 166.5q0 115 -53 178.5t-149 63.5q-85 0 -136 -51l-14 10l59 350h379l-16 -86h-344l-39 -231q55 41 139 41q115 0 194 -70t79 -196q0 -124 -79.5 -193.5t-207.5 -69.5z" />
    <glyph glyph-name="zero.sup" horiz-adv-x="733" 
d="M367 872q-133 0 -225.5 119t-92.5 293q0 173 92 291.5t226 118.5q135 0 228 -118.5t93 -291.5q0 -174 -93.5 -293t-227.5 -119zM367 903q204 0 204 381q0 379 -204 379q-71 0 -117 -51t-65 -133t-19 -195q0 -114 19 -196.5t65 -133.5t117 -51z" />
    <glyph glyph-name="one.sup" horiz-adv-x="372" 
d="M303 889h-217v2q35 41 46 72.5t11 87.5v469h-98v8q102 57 188 160h11v-637q0 -57 11 -88t48 -72v-2z" />
    <glyph glyph-name="two.sup" horiz-adv-x="620" 
d="M496 889h-478v14q228 192 317 320.5t89 253.5q0 88 -41.5 137t-116.5 49q-66 0 -107.5 -45.5t-90.5 -142.5l-11 4l25 180q98 35 186 35q130 0 193 -58t63 -155q0 -79 -46 -160.5t-125.5 -161t-211.5 -184.5h215q68 0 109.5 35t85.5 110l10 -4z" />
    <glyph glyph-name="three.sup" horiz-adv-x="606" 
d="M274 872q-57 0 -113 13.5t-89 34.5l-27 170l10 2q62 -100 109.5 -144.5t120.5 -44.5q89 0 132.5 64.5t43.5 167.5q0 211 -187 211q-78 0 -141 -46l-14 19l301 268h-332l29 88h436v-10l-332 -295q38 10 78 10q111 0 186.5 -64t75.5 -181q0 -118 -79.5 -190.5t-207.5 -72.5
z" />
    <glyph glyph-name="four.sup" horiz-adv-x="626" 
d="M336 889v2q28 42 37.5 73.5t9.5 86.5v43h-354v14l368 569h117l-438 -551h307v258h98v-258h101l-9 -32h-92v-43q0 -55 10 -86t39 -74v-2h-194z" />
    <glyph glyph-name="six.sup" horiz-adv-x="653" 
d="M330 872q-125 0 -201 86.5t-76 231.5q0 76 22.5 146.5t70.5 138t132 124.5t197 95l8 -21q-119 -51 -195.5 -145t-109.5 -209q24 41 70.5 67.5t111.5 26.5q104 0 174 -70t70 -186q0 -124 -79 -204.5t-195 -80.5zM330 903q77 0 123.5 63t46.5 175q0 113 -46 167t-126 54
q-53 0 -97 -23.5t-65 -70.5q-10 -58 -10 -105q0 -108 45 -184t129 -76z" />
    <glyph glyph-name="seven.sup" horiz-adv-x="546" 
d="M221 889h-108q106 390 340 702h-404l17 86h473v-10q-248 -379 -318 -778z" />
    <glyph glyph-name="eight.sup" horiz-adv-x="587" 
d="M289 872q-105 0 -177.5 54t-72.5 147q0 73 46.5 129.5t139.5 83.5q-147 75 -147 195q0 95 61.5 154t157.5 59q90 0 151.5 -51t61.5 -134q0 -58 -36 -108.5t-120 -75.5q195 -87 195 -229q0 -100 -74 -162t-186 -62zM291 903q83 0 132.5 41.5t49.5 112.5q0 68 -49.5 113.5
t-171.5 103.5q-139 -67 -139 -201q0 -82 47.5 -126t130.5 -44zM150 1530q0 -64 42.5 -106.5t139.5 -86.5q104 62 104 172q0 74 -38.5 114t-102.5 40t-104.5 -37t-40.5 -96z" />
    <glyph glyph-name="nine.sup" horiz-adv-x="653" 
d="M158 893q120 51 197 146t108 210q-24 -42 -70.5 -69t-111.5 -27q-104 0 -174 70t-70 186q0 124 79 204.5t195 80.5q125 0 201 -86.5t76 -231.5q0 -76 -22.5 -146.5t-70.5 -138t-132 -124.5t-197 -95zM313 1204q53 0 97 23.5t65 70.5q10 58 10 105q0 108 -45 184t-129 76
q-77 0 -123.5 -63t-46.5 -175q0 -113 46 -167t126 -54z" />
    <glyph glyph-name="plus.sup" horiz-adv-x="645" 
d="M594 1262h-252v-252h-41v252h-250v36h250v252h41v-252h252v-36z" />
    <glyph glyph-name="minus.sup" horiz-adv-x="645" 
d="M594 1262h-543v36h543v-36z" />
    <glyph glyph-name="space_uni0326.alt" horiz-adv-x="921" 
d="M424 1544l8 -12q-42 -32 -71 -74t-29 -76q0 -30 19.5 -63.5t47.5 -56.5v-5l-98 -73q-30 21 -47.5 54t-17.5 71q0 112 188 235z" />
    <glyph glyph-name="caron.alt" horiz-adv-x="919" 
d="M213 1176l66 411h129l-181 -416z" />
    <glyph glyph-name="space.uc" horiz-adv-x="391" 
 />
    <glyph glyph-name="questiondown.uc" horiz-adv-x="886" 
d="M586 1102h32q-9 -73 -37 -136.5t-64 -110.5t-77.5 -92t-81 -90.5t-72 -96t-52 -119t-19.5 -148.5q0 -148 63 -225.5t189 -77.5q119 0 192.5 68.5t131.5 218.5l14 -4l-39 -254q-169 -66 -309 -66q-172 0 -268.5 88t-96.5 250q0 78 23 144.5t61 116.5t84.5 96t97 92.5
t94.5 94.5t81 113t53 138zM590 1505q39 0 67.5 -28.5t28.5 -67.5t-28.5 -67.5t-67.5 -28.5q-40 0 -68 28t-28 68t28 68t68 28z" />
    <glyph glyph-name="exclamdown.uc" horiz-adv-x="438" 
d="M279 4v-4h-117v4l43 1098h28zM219 1505q40 0 68 -28t28 -68t-28 -68t-68 -28q-39 0 -67.5 28.5t-28.5 67.5t28.5 67.5t67.5 28.5z" />
    <glyph glyph-name="hyphen.uc" horiz-adv-x="575" 
d="M514 743h-453v82h453v-82z" />
    <glyph glyph-name="endash.uc" horiz-adv-x="1003" 
d="M942 760h-881v37h881v-37z" />
    <glyph glyph-name="emdash.uc" horiz-adv-x="1515" 
d="M1454 760h-1393v37h1393v-37z" />
    <glyph glyph-name="guilsinglleft.uc" horiz-adv-x="565" 
d="M401 283l-16 -13l-283 359v41l283 358l16 -12l-186 -367z" />
    <glyph glyph-name="guilsinglright.uc" horiz-adv-x="565" 
d="M180 311l-16 13l186 366l-186 367l16 12l283 -358v-41z" />
    <glyph glyph-name="guillemotleft.uc" horiz-adv-x="821" 
d="M709 283l-17 -13l-282 359v41l282 358l17 -12l-187 -367zM401 283l-16 -13l-283 359v41l283 358l16 -12l-186 -367z" />
    <glyph glyph-name="guillemotright.uc" horiz-adv-x="821" 
d="M436 270l-16 13l186 366l-186 367l16 12l283 -358v-41zM129 270l-16 13l186 366l-186 367l16 12l283 -358v-41z" />
    <glyph glyph-name="parenleft.uc" horiz-adv-x="557" 
d="M526 -164l-16 -20q-174 154 -270.5 386.5t-96.5 518.5q0 287 96.5 520t270.5 387l16 -20q-132 -158 -208 -386t-76 -501t76 -500t208 -385z" />
    <glyph glyph-name="parenright.uc" horiz-adv-x="557" 
d="M47 -184l-16 20q132 158 208 385t76 500t-76 501t-208 386l16 20q174 -154 270.5 -387t96.5 -520q0 -286 -96.5 -518.5t-270.5 -386.5z" />
    <glyph glyph-name="bracketleft.uc" horiz-adv-x="612" 
d="M205 -184v1812h377v-37h-279v-1738h279v-37h-377z" />
    <glyph glyph-name="bracketright.uc" horiz-adv-x="612" 
d="M408 1628v-1812h-377v37h278v1738h-278v37h377z" />
    <glyph glyph-name="braceleft.uc" horiz-adv-x="579" 
d="M549 -184h-72q-141 0 -217 64.5t-76 180.5q0 62 28 142.5t56.5 166.5t28.5 160q0 172 -211 172h-25v39h25q211 0 211 172q0 74 -28.5 160t-56.5 166.5t-28 142.5q0 117 76 181.5t217 64.5h72v-37h-72q-42 0 -72 -8t-57.5 -29t-42 -64t-14.5 -106q0 -51 37 -212t37 -246
q0 -54 -16 -93t-46.5 -60.5t-62 -32t-72.5 -15.5v-6q41 -5 72.5 -15.5t62 -32t46.5 -60.5t16 -93q0 -85 -37 -246.5t-37 -212.5q0 -63 14.5 -106t42 -63.5t57.5 -28.5t72 -8h72v-37z" />
    <glyph glyph-name="braceright.uc" horiz-adv-x="579" 
d="M102 -184h-71v37h71q42 0 72.5 8t58 28.5t42 63.5t14.5 106q0 51 -37 212.5t-37 246.5q0 54 16 93t46.5 60.5t62 32t72.5 15.5v6q-41 5 -72.5 15.5t-62 32t-46.5 60.5t-16 93q0 85 37 246t37 212q0 63 -14.5 106t-42 64t-58 29t-72.5 8h-71v37h71q141 0 217 -64.5
t76 -181.5q0 -62 -28 -142.5t-56 -166.5t-28 -160q0 -172 211 -172h24v-39h-24q-211 0 -211 -172q0 -74 28 -160t56 -166.5t28 -142.5q0 -116 -76 -180.5t-217 -64.5z" />
    <glyph glyph-name="slash.uc" horiz-adv-x="825" 
d="M-6 -184l788 1865h47l-788 -1865h-47z" />
    <glyph glyph-name="backslash.uc" horiz-adv-x="825" 
d="M831 -184h-47l-788 1865h47z" />
    <glyph glyph-name="bar.uc" horiz-adv-x="419" 
d="M233 -182h-47v1865h47v-1865z" />
    <glyph glyph-name="at.uc" horiz-adv-x="1738" 
d="M846 -84q-221 0 -393.5 89t-271.5 257.5t-99 390.5q0 179 66 342.5t182.5 285.5t287 194.5t367.5 72.5q310 0 491 -166.5t181 -463.5q0 -163 -54.5 -300.5t-158.5 -222t-236 -84.5q-78 0 -128.5 30.5t-69.5 82.5t-19 112.5t19 129.5l14 53q-49 -119 -108 -212
t-131.5 -153.5t-141.5 -60.5q-73 0 -115.5 56t-42.5 163q0 162 75.5 314.5t201.5 248.5t264 96q86 0 145 -34l58 34h8l-133 -499q-19 -73 -24.5 -127t3.5 -100.5t43.5 -70.5t94.5 -24q108 0 192 77t128 203.5t44 278.5q0 286 -164.5 442t-441.5 156q-179 0 -331.5 -68.5
t-255 -185t-160.5 -272t-58 -328.5q0 -160 49.5 -291.5t139 -220t215.5 -136.5t276 -48q122 0 237.5 32t200.5 91l17 -33q-187 -131 -463 -131zM688 373q41 0 84.5 31.5t78.5 76t73.5 112t63.5 121t54 120.5l60 231q-39 68 -125 68q-77 0 -150.5 -56.5t-125 -143.5
t-82.5 -192.5t-31 -201.5q0 -166 100 -166z" />
    <glyph glyph-name="grave.uc" horiz-adv-x="919" 
d="M682 1616l-8 -14l-473 251l75 111z" />
    <glyph glyph-name="dieresis.uc" horiz-adv-x="921" 
d="M811 1778q0 -35 -24.5 -59.5t-59.5 -24.5q-34 0 -59 24.5t-25 59.5t25 59.5t59 24.5q35 0 59.5 -24.5t24.5 -59.5zM279 1778q0 -35 -24.5 -59.5t-59.5 -24.5q-34 0 -59 24.5t-25 59.5t25 59.5t59 24.5q35 0 59.5 -24.5t24.5 -59.5z" />
    <glyph glyph-name="macron.uc" horiz-adv-x="643" 
d="M16 1716v72h613v-72h-613z" />
    <glyph glyph-name="acute.uc" horiz-adv-x="919" 
d="M201 1616l405 348l68 -111l-465 -251z" />
    <glyph glyph-name="circumflex.uc" horiz-adv-x="921" 
d="M762 1602l-301 202l-301 -202l-13 14l310 319h8l309 -319z" />
    <glyph glyph-name="caron.uc" horiz-adv-x="921" 
d="M465 1602h-8l-310 319l13 14l301 -202l301 202l12 -14z" />
    <glyph glyph-name="breve.uc" horiz-adv-x="921" 
d="M459 1720q100 0 169 48.5t101 132.5h16q-5 -36 -14.5 -68.5t-31 -70.5t-51.5 -65.5t-79.5 -46t-111.5 -18.5q-60 0 -108 18.5t-77 46t-50 65.5t-30.5 70.5t-15.5 68.5h17q75 -181 266 -181z" />
    <glyph glyph-name="dotaccent.uc" horiz-adv-x="921" 
d="M545 1778q0 -35 -24.5 -59.5t-59.5 -24.5q-34 0 -59 24.5t-25 59.5t25 59.5t59 24.5q35 0 59.5 -24.5t24.5 -59.5z" />
    <glyph glyph-name="ring.uc" horiz-adv-x="614" 
d="M135 1772q0 75 48.5 124.5t123.5 49.5t123.5 -49.5t48.5 -124.5t-48.5 -122.5t-123.5 -47.5t-123.5 47.5t-48.5 122.5zM193 1772q0 -63 29 -99.5t85 -36.5t85.5 36.5t29.5 99.5q0 64 -29 101.5t-86 37.5t-85.5 -37.5t-28.5 -101.5z" />
    <glyph glyph-name="tilde.uc" horiz-adv-x="921" 
d="M299 1847q56 0 119.5 -28t124.5 -56t110 -28q55 0 83 30.5t46 102.5l17 -2q-12 -236 -176 -236q-44 0 -94.5 17.5t-88 39t-85 39t-87.5 17.5q-55 0 -83 -30.5t-46 -102.5l-16 2q12 235 176 235z" />
    <glyph glyph-name="hungarumlaut.uc" horiz-adv-x="919" 
d="M492 1616l286 328l82 -107l-358 -235zM96 1616l287 328l82 -107l-359 -235z" />
    <glyph glyph-name="Cacute.pl" horiz-adv-x="1519" 
d="M1417 442l-41 -313q-74 -56 -228 -108t-325 -52q-172 0 -313 61t-234 167t-143.5 248.5t-50.5 306.5q0 219 95 394.5t277.5 279.5t422.5 104q135 0 268.5 -31.5t222.5 -71.5l41 -288l-16 -4q-100 187 -225.5 270.5t-299.5 83.5q-162 0 -287.5 -55.5t-204.5 -155
t-119 -232.5t-40 -294t38 -294.5t112 -234.5t192.5 -157t271.5 -56q149 0 260 53t183 146t127 237zM778 1610l131 358l117 -61l-231 -305z" />
    <glyph glyph-name="Nacute.pl" horiz-adv-x="1466" 
d="M1264 -6l-1037 1300l9 -1011q0 -97 27.5 -152t115.5 -127v-4h-293v4q63 72 82.5 127t19.5 152v1056q-79 115 -163 156v4h182l1034 -1298l-6 1016q-2 98 -25 152t-98 126v4h272v-4q-64 -72 -83 -126t-19 -152v-1217zM692 1610l131 358l117 -61l-231 -305z" />
    <glyph glyph-name="Oacute.pl" horiz-adv-x="1660" 
d="M829 -31q-157 0 -296 60t-238 163.5t-156 248t-57 307.5t57.5 308t156 249t237.5 164.5t296 60.5t296.5 -60.5t239 -164.5t157 -249t57.5 -308q0 -218 -98 -396.5t-270 -280.5t-382 -102zM829 10q186 0 326.5 96t214.5 263t74 379q0 211 -74 378.5t-215 265t-326 97.5
t-325.5 -97.5t-213.5 -265t-73 -378.5t73 -378t213.5 -263.5t325.5 -96.5zM774 1610l131 358l117 -61l-231 -305z" />
    <glyph glyph-name="Sacute.pl" horiz-adv-x="1091" 
d="M877 1468l41 -284l-17 -6q-59 172 -156 241.5t-233 69.5q-83 0 -146.5 -23t-101 -62.5t-56 -87.5t-18.5 -102q0 -73 25 -127t89 -99t105 -65.5t141 -62.5q10 -5 15.5 -7t14.5 -6t16 -7q55 -23 90.5 -39.5t85 -43.5t81 -51.5t66.5 -60.5t55 -74t33 -88.5t13 -107.5
q0 -86 -27.5 -155t-75 -115.5t-114 -77.5t-140.5 -44.5t-157 -13.5q-209 0 -393 78l-41 291l16 6q70 -175 177 -254.5t282 -79.5q179 0 271.5 86t92.5 238q0 71 -22 128.5t-55.5 96t-87.5 73.5t-103 58.5t-117 52.5q-4 1 -6 2q-48 20 -70 29.5t-65.5 30.5t-65.5 34.5t-57 37
t-53.5 44t-42 50t-34.5 59.5t-19.5 68t-8.5 80q0 170 119 261t322 91q180 0 332 -62zM483 1610l131 358l117 -61l-231 -305z" />
    <glyph glyph-name="Zacute.pl" horiz-adv-x="1245" 
d="M1083 0h-1022v23l953 1443l-539 -16q-103 -3 -185.5 -80.5t-164.5 -228.5l-16 6l96 352h950v-22l-950 -1446l612 18q101 3 185.5 83t164.5 239l17 -6zM621 1610l131 358l116 -61l-231 -305z" />
    <glyph glyph-name="acute.pl" horiz-adv-x="614" 
d="M213 1118l129 416l113 -45l-230 -377z" />
    <glyph glyph-name="acute.ucpl" horiz-adv-x="614" 
d="M274 1610l132 358l116 -61l-231 -305z" />
    <glyph glyph-name="cacute.pl" 
d="M897 231l10 -4q-39 -117 -141.5 -187.5t-241.5 -70.5q-196 0 -319 134t-123 356q0 125 42 229t113 172.5t164 106t195 37.5q129 0 274 -68l15 -193l-13 -4q-71 122 -139 175t-172 53q-167 0 -266.5 -120.5t-99.5 -332.5q0 -202 94 -326.5t270 -124.5q101 0 194.5 42.5
t143.5 125.5zM471 1118l129 416l113 -45l-230 -377z" />
    <glyph glyph-name="divide.osf" horiz-adv-x="1118" 
d="M1012 477h-906v41h906v-41zM559 59q-39 0 -67.5 28.5t-28.5 68.5q0 39 28.5 67.5t67.5 28.5q40 0 68 -28t28 -68t-28 -68.5t-68 -28.5zM559 743q-39 0 -67.5 28.5t-28.5 68.5q0 39 28.5 67.5t67.5 28.5q40 0 68 -28t28 -68t-28 -68.5t-68 -28.5z" />
    <glyph glyph-name="eight.osf" horiz-adv-x="946" 
d="M475 -20q-176 0 -287.5 103.5t-111.5 258.5q0 141 93.5 248.5t233.5 165.5q-66 43 -110.5 78.5t-88 85t-65.5 109.5t-22 132q0 160 105 264.5t261 104.5q151 0 254 -101t103 -247q0 -114 -70 -216t-207 -165q67 -44 116.5 -85.5t96 -96.5t70.5 -123t24 -146
q0 -171 -115 -270.5t-280 -99.5zM520 827q2 -1 6.5 -3.5t8 -5t6.5 -5.5q202 124 202 363q0 145 -69.5 230t-196.5 85q-124 0 -198 -79t-74 -200q0 -52 17 -99t41 -81t67 -70.5t77.5 -60.5t90.5 -60q15 -9 22 -14zM475 18q131 0 209 84.5t78 216.5q0 59 -18 111.5t-43 89.5
t-71 77t-80 63.5t-93 60.5q-24 14 -31 20q-123 -74 -183.5 -163t-60.5 -224q0 -152 75 -244t218 -92z" />
    <glyph glyph-name="equal.osf" horiz-adv-x="1089" 
d="M997 643h-905v41h905v-41zM997 352h-905v41h905v-41z" />
    <glyph glyph-name="f.short" horiz-adv-x="595" 
d="M156 0v4q27 40 38 103t11 178v651h-129v37h129v203q0 199 62 309t177 110q67 0 117 -28l25 -164l-13 -4q-64 91 -94.5 123t-64.5 32q-107 0 -107 -288v-293h242v-37h-242v-651q0 -201 47 -281v-4h-198z" />
    <glyph glyph-name="f_f.short" horiz-adv-x="1087" 
d="M156 0v4q27 40 38 103t11 178v651h-129v37h129v162q0 198 78 308.5t219 110.5q85 0 121 -28l24 -164l-12 -4q-63 91 -97.5 123t-82.5 32q-66 0 -107 -75t-41 -213v-252h389v203q0 199 62.5 309t177.5 110q67 0 117 -28l24 -164l-12 -4q-63 91 -94.5 123t-65.5 32
q-106 0 -106 -288v-293h241v-37h-241v-651q0 -201 47 -281v-4h-199v4q27 40 38 103t11 178v651h-389v-651q0 -201 47 -281v-4h-198z" />
    <glyph glyph-name="five.osf" horiz-adv-x="878" 
d="M307 -502q-102 0 -184.5 33.5t-120.5 69.5l-43 280l16 4q79 -188 155 -268t194 -80q142 0 218 100.5t76 258.5q0 205 -117.5 346.5t-346.5 208.5l231 567h512l-35 -103h-475l-151 -370q224 -64 354.5 -215t130.5 -377q0 -196 -111 -325.5t-303 -129.5z" />
    <glyph glyph-name="four.osf" horiz-adv-x="954" 
d="M598 -399v399h-584v20l682 994h17v-932h205l-15 -82h-190v-399h-115zM598 82v717l-485 -717h485z" />
    <glyph glyph-name="four.osfalt" horiz-adv-x="954" 
d="M598 -399v399h-584v20l631 957h168l-747 -932h532v324h115v-324h207l-9 -45h-198v-399h-115z" />
    <glyph glyph-name="greater.osf" horiz-adv-x="1085" 
d="M993 467l-880 -426v51l837 402l-837 401v51l880 -426v-53z" />
    <glyph glyph-name="less.osf" horiz-adv-x="1085" 
d="M973 41l-881 426v53l881 426v-51l-838 -401l838 -402v-51z" />
    <glyph glyph-name="minus.osf" horiz-adv-x="1089" 
d="M997 477h-905v41h905v-41z" />
    <glyph glyph-name="multiply.osf" horiz-adv-x="966" 
d="M831 117l-348 348l-348 -348l-31 30l349 349l-349 348l31 30l348 -348l348 348l31 -30l-348 -348l348 -349z" />
    <glyph glyph-name="nacute.pl" horiz-adv-x="1058" 
d="M303 4v-4h-192v4q28 50 36.5 101t8.5 139v506q0 95 -90 153v4l184 107v-187l8 -2q76 90 171.5 134.5t197.5 44.5q140 0 213 -79t73 -220v-459q0 -96 7.5 -144.5t37.5 -97.5v-4h-192v4q27 49 36 102.5t9 137.5v438q0 111 -54 176.5t-175 65.5q-88 0 -174.5 -34
t-149.5 -102v-542q0 -94 7.5 -144t37.5 -98zM510 1118l129 416l113 -45l-230 -377z" />
    <glyph glyph-name="nine.osf" horiz-adv-x="1046" 
d="M516 1038q134 0 239 -80t160.5 -212t55.5 -289q0 -109 -29.5 -218t-97 -221.5t-166.5 -211t-247.5 -185t-330.5 -143.5l-6 16q251 91 420.5 254t253.5 365q-107 -103 -262 -103q-137 0 -236.5 71.5t-146.5 184.5t-47 252q0 133 58 252.5t160 193.5t222 74zM518 999
q-154 0 -236.5 -135t-82.5 -364q0 -231 83.5 -342t237.5 -111q161 0 264 109q64 177 64 354q0 95 -18 179t-55 155.5t-103 113t-154 41.5z" />
    <glyph glyph-name="oacute.pl" horiz-adv-x="1150" 
d="M575 -31q-101 0 -194 40.5t-160.5 109t-108 164.5t-40.5 202q0 142 68 261.5t184 188.5t251 69t251 -69t184.5 -188.5t68.5 -261.5t-68.5 -261t-184.5 -187t-251 -68zM575 6q180 0 278.5 135t98.5 344q0 136 -41.5 243.5t-128.5 173t-207 65.5t-206.5 -66t-128 -173
t-41.5 -243q0 -209 98 -344t278 -135zM541 1118l129 416l112 -45l-229 -377z" />
    <glyph glyph-name="one.osf" horiz-adv-x="503" 
d="M397 0h-286v4q54 59 70 98.5t16 130.5v646h-172v22l278 137h4v-805q0 -91 17 -129.5t73 -99.5v-4z" />
    <glyph glyph-name="plus.osf" horiz-adv-x="1089" 
d="M997 477h-430v-430h-45v430h-430v41h430v430h45v-430h430v-41z" />
    <glyph glyph-name="sacute.pl" horiz-adv-x="768" 
d="M641 967l21 -183l-17 -4q-54 104 -116.5 145.5t-143.5 41.5q-96 0 -157.5 -50t-61.5 -131q0 -26 7.5 -49t17 -40t30.5 -34t36.5 -27.5t47.5 -25t50.5 -22t57.5 -22.5l4.5 -1.5t4 -1.5t4.5 -2q53 -20 86.5 -35.5t76.5 -43t68 -57t42.5 -75t17.5 -100.5q0 -131 -93.5 -206
t-267.5 -75q-148 0 -270 60l-20 209l16 4q51 -123 123.5 -179.5t179.5 -56.5q118 0 183 59t65 150q0 40 -15 73t-36 55.5t-59 44.5t-68 35t-80 32q-43 16 -69.5 27.5t-65.5 31t-63 40.5t-48 49.5t-35.5 65t-11.5 79.5q0 68 29 119.5t78.5 80t107 42.5t123.5 14
q119 0 221 -37zM342 1118l129 416l113 -45l-230 -377z" />
    <glyph glyph-name="seven.osf" horiz-adv-x="884" 
d="M168 -502h-123q54 147 113.5 285.5t131.5 275t124.5 232t139 232t125 195t130.5 197.5h-711l25 103h762v-21q-106 -173 -189.5 -319t-181 -336.5t-185 -403t-161.5 -440.5z" />
    <glyph glyph-name="six.osf" horiz-adv-x="1046" 
d="M530 -20q-134 0 -239 80t-160 212t-55 289q0 109 29.5 218t96.5 222t166 211t247.5 184.5t330.5 143.5l6 -16q-250 -91 -419 -253.5t-254 -365.5q107 103 262 103q137 0 236.5 -71.5t146.5 -184.5t47 -252q0 -133 -58 -252.5t-160.5 -193.5t-222.5 -74zM528 18
q154 0 237 135.5t83 364.5q0 231 -84 342t-238 111q-161 0 -264 -109q-63 -174 -63 -354q0 -75 10.5 -144t35.5 -133t62 -110.5t93.5 -74.5t127.5 -28z" />
    <glyph glyph-name="three.osf" horiz-adv-x="897" 
d="M375 -502q-100 0 -187 30.5t-131 74.5l-37 278l17 4q40 -90 74 -149t77.5 -107t96 -70t118.5 -22q143 0 220 92t77 232q0 183 -117.5 296.5t-310.5 145.5v10q192 59 300 171.5t108 258.5q0 116 -59 186t-158 70q-95 0 -166 -68t-150 -204l-14 4l35 242q41 22 126 43.5
t169 21.5q154 0 241 -79.5t87 -204.5q0 -124 -81.5 -225.5t-238.5 -163.5q149 -45 243.5 -162t94.5 -283q0 -187 -121 -304.5t-313 -117.5z" />
    <glyph glyph-name="three.osfalt" horiz-adv-x="897" 
d="M375 -502q-100 0 -187 30.5t-131 74.5l-37 278l17 4q40 -90 74 -149t77.5 -107t96 -70t118.5 -22q143 0 220 92t77 232q0 183 -117.5 296.5t-310.5 145.5v10q114 35 193.5 81t121.5 98.5t59.5 104t17.5 110.5q0 118 -64 188t-186 70q-140 0 -242 -80l-10 12
q141 141 321 141q144 0 226 -81t82 -207q0 -118 -77.5 -219t-230.5 -171q143 -47 234.5 -162.5t91.5 -277.5q0 -187 -121 -304.5t-313 -117.5z" />
    <glyph glyph-name="two.osf" horiz-adv-x="927" 
d="M778 0h-717v16q312 178 448 353t136 352q0 131 -66 204.5t-171 73.5q-93 0 -165 -67t-137 -211l-14 4l45 246q115 67 275 67q174 0 265 -87t91 -226q0 -332 -508 -623h395q60 0 97.5 13.5t60.5 37.5t51 72l13 -6z" />
    <glyph glyph-name="two.osfalt" horiz-adv-x="927" 
d="M778 0h-717v16q580 331 580 678q0 125 -73.5 198t-209.5 73q-150 0 -252 -80l-10 12q141 141 336 141q156 0 246 -89t90 -230q0 -167 -131 -319t-387 -298h405q60 0 97.5 13.5t60.5 37.5t51 72l13 -6z" />
    <glyph glyph-name="zacute.pl" horiz-adv-x="843" 
d="M711 0h-670v14l610 924l-311 -8q-19 0 -36.5 -4.5t-30 -8t-29.5 -16t-25.5 -18.5t-26.5 -26t-24 -27t-28 -33.5t-29 -34.5l-11 4l68 207h612v-17l-608 -921l344 6q36 1 66 10t51 20.5t47.5 40t42 49.5t49.5 68l10 -4zM416 1118l129 416l112 -45l-229 -377z" />
    <glyph glyph-name="zero.osf" horiz-adv-x="1067" 
d="M532 -20q-123 0 -229 73t-167 194.5t-60 260.5t62.5 261t167 195.5t226.5 73.5q123 0 229.5 -73.5t168 -195.5t61.5 -261t-61.5 -260.5t-168 -194.5t-229.5 -73zM532 18q84 0 148.5 40.5t102.5 110.5t56.5 155.5t18.5 183.5t-19 183.5t-57 156t-102 111t-148 40.5
t-147.5 -40.5t-101 -111t-56 -156t-18.5 -183.5t18 -183.5t55.5 -155.5t101.5 -110.5t148 -40.5z" />
    </font>
</defs>
</svg>
