<svg width="16" height="20" viewBox="0 0 16 20" fill="none" xmlns="http://www.w3.org/2000/svg">
<path d="M15.0657 6.38435C15.0254 5.72618 14.7446 5.10872 14.2806 4.65788C13.8166 4.20704 13.2042 3.95676 12.5684 3.95809H12.1771C11.9861 2.98215 11.4756 2.10473 10.7322 1.47451C9.98883 0.844281 9.05825 0.5 8.09815 0.5C7.13804 0.5 6.20746 0.844281 5.46408 1.47451C4.7207 2.10473 4.21023 2.98215 4.01917 3.95809H3.6196C2.98378 3.95676 2.37141 4.20704 1.90737 4.65788C1.44332 5.10872 1.16254 5.72618 1.12227 6.38435L0.606153 14.9151C0.570874 15.5042 0.652411 16.0945 0.845728 16.6496C1.03904 17.2046 1.34004 17.7127 1.73011 18.1424C2.12018 18.5721 2.59104 18.9142 3.11362 19.1477C3.63619 19.3812 4.19937 19.5011 4.76837 19.5H11.4279C11.9969 19.5011 12.5601 19.3812 13.0827 19.1477C13.6052 18.9142 14.0761 18.5721 14.4662 18.1424C14.8563 17.7127 15.1572 17.2046 15.3506 16.6496C15.5439 16.0945 15.6254 15.5042 15.5901 14.9151L15.0657 6.38435ZM5.75065 3.95809C5.92564 3.45802 6.24482 3.02597 6.66481 2.72064C7.08481 2.41531 7.58526 2.25152 8.09815 2.25152C8.61103 2.25152 9.11148 2.41531 9.53148 2.72064C9.95147 3.02597 10.2707 3.45802 10.4456 3.95809H5.75065Z" fill="black"/>
</svg>
