<svg width="16" height="20" viewBox="0 0 16 20" fill="none" xmlns="http://www.w3.org/2000/svg">
<path d="M3.59894 4.60002C3.59894 3.48615 4.04143 2.41781 4.82908 1.63016C5.61673 0.842516 6.68507 0.400024 7.79894 0.400024C8.91282 0.400024 9.98116 0.842516 10.7688 1.63016C11.5565 2.41781 11.9989 3.48615 11.9989 4.60002C11.9989 5.7139 11.5565 6.78224 10.7688 7.56989C9.98116 8.35753 8.91282 8.80002 7.79894 8.80002C6.68545 8.79869 5.61793 8.35578 4.83055 7.56841C4.04318 6.78104 3.60028 5.71349 3.59894 4.60002ZM15.5695 16.4509C15.2518 14.6277 14.2954 12.9771 12.8715 11.7952C11.4476 10.6134 9.64931 9.97674 7.79891 10.0001C5.94841 9.97676 4.15022 10.6132 2.72634 11.7952C1.30245 12.9773 0.346017 14.6278 0.0283602 16.4509C-0.0850775 17.2263 0.145144 18.0128 0.658771 18.6047C1.21204 19.241 2.01518 19.6045 2.85841 19.5999H12.7395C13.5828 19.6045 14.3859 19.241 14.9392 18.6047C15.4528 18.0127 15.683 17.2263 15.5696 16.4509H15.5695Z" fill="black"/>
</svg>
